<svg width="24" height="24" viewBox="0 0 24 24" fill="none" xmlns="http://www.w3.org/2000/svg">
<g clip-path="url(#clip0_277_8019)">
<path d="M13.8299 19.0013C13.6805 19.0018 13.5329 18.9688 13.3979 18.9048C13.263 18.8407 13.144 18.7473 13.0499 18.6313L8.21992 12.6313C8.07284 12.4523 7.99243 12.2279 7.99243 11.9963C7.99243 11.7646 8.07284 11.5402 8.21992 11.3613L13.2199 5.36125C13.3897 5.15704 13.6336 5.02861 13.898 5.00423C14.1624 4.97985 14.4257 5.06151 14.6299 5.23125C14.8341 5.40099 14.9626 5.6449 14.9869 5.90933C15.0113 6.17375 14.9297 6.43704 14.7599 6.64125L10.2899 12.0013L14.6099 17.3613C14.7322 17.508 14.8099 17.6868 14.8338 17.8763C14.8576 18.0659 14.8267 18.2583 14.7447 18.4308C14.6626 18.6034 14.5328 18.7488 14.3707 18.8499C14.2086 18.9509 14.021 19.0035 13.8299 19.0013Z" fill="#0A0E29"/>
</g>
<defs>
<clipPath id="clip0_277_8019">
<rect width="24" height="24" fill="white"/>
</clipPath>
</defs>
</svg>
