<svg width="24" height="24" viewBox="0 0 24 24" fill="none" xmlns="http://www.w3.org/2000/svg">
<g clip-path="url(#clip0_277_8020)">
<path d="M18.0001 14.9997C17.7664 15.0001 17.54 14.9188 17.3601 14.7697L12.0001 10.2897L6.63006 14.6097C6.52778 14.6927 6.41008 14.7548 6.28374 14.7922C6.1574 14.8296 6.02491 14.8417 5.89388 14.8278C5.76285 14.8139 5.63587 14.7742 5.52024 14.711C5.4046 14.6478 5.30259 14.5624 5.22006 14.4597C5.137 14.3574 5.07497 14.2397 5.03754 14.1134C5.0001 13.987 4.98801 13.8545 5.00195 13.7235C5.01589 13.5925 5.05559 13.4655 5.11876 13.3498C5.18193 13.2342 5.26734 13.1322 5.37006 13.0497L11.3701 8.21968C11.549 8.07259 11.7734 7.99219 12.0051 7.99219C12.2367 7.99219 12.4611 8.07259 12.6401 8.21968L18.6401 13.2197C18.7413 13.3036 18.825 13.4067 18.8864 13.5231C18.9477 13.6394 18.9855 13.7667 18.9976 13.8977C19.0097 14.0287 18.9958 14.1608 18.9568 14.2864C18.9177 14.412 18.8543 14.5286 18.7701 14.6297C18.677 14.7444 18.5597 14.8371 18.4266 14.901C18.2934 14.965 18.1478 14.9987 18.0001 14.9997Z" fill="#0A0E29"/>
</g>
<defs>
<clipPath id="clip0_277_8020">
<rect width="24" height="24" fill="white"/>
</clipPath>
</defs>
</svg>
