<svg width="24" height="24" viewBox="0 0 24 24" fill="none" xmlns="http://www.w3.org/2000/svg">
<g clip-path="url(#clip0_274_11828)">
<path d="M4 8C4.55228 8 5 7.55228 5 7C5 6.44772 4.55228 6 4 6C3.44772 6 3 6.44772 3 7C3 7.55228 3.44772 8 4 8Z" fill="#0A0E29"/>
<path d="M4 13.002C4.55228 13.002 5 12.5542 5 12.002C5 11.4497 4.55228 11.002 4 11.002C3.44772 11.002 3 11.4497 3 12.002C3 12.5542 3.44772 13.002 4 13.002Z" fill="#0A0E29"/>
<path d="M4 17.998C4.55228 17.998 5 17.5503 5 16.998C5 16.4458 4.55228 15.998 4 15.998C3.44772 15.998 3 16.4458 3 16.998C3 17.5503 3.44772 17.998 4 17.998Z" fill="#0A0E29"/>
<path d="M20.06 11.002H7.94C7.42085 11.002 7 11.4228 7 11.942V12.062C7 12.5811 7.42085 13.002 7.94 13.002H20.06C20.5791 13.002 21 12.5811 21 12.062V11.942C21 11.4228 20.5791 11.002 20.06 11.002Z" fill="#0A0E29"/>
<path d="M20.06 15.998H7.94C7.42085 15.998 7 16.4189 7 16.938V17.058C7 17.5772 7.42085 17.998 7.94 17.998H20.06C20.5791 17.998 21 17.5772 21 17.058V16.938C21 16.4189 20.5791 15.998 20.06 15.998Z" fill="#0A0E29"/>
<path d="M20.06 6H7.94C7.42085 6 7 6.42085 7 6.94V7.06C7 7.57915 7.42085 8 7.94 8H20.06C20.5791 8 21 7.57915 21 7.06V6.94C21 6.42085 20.5791 6 20.06 6Z" fill="#0A0E29"/>
</g>
<defs>
<clipPath id="clip0_274_11828">
<rect width="24" height="24" fill="white"/>
</clipPath>
</defs>
</svg>
