<svg width="24" height="24" viewBox="0 0 24 24" fill="none" xmlns="http://www.w3.org/2000/svg">
<g clip-path="url(#clip0_274_11285)">
<path d="M20.05 11.002H3.95C3.42533 11.002 3 11.4273 3 11.952V12.052C3 12.5766 3.42533 13.002 3.95 13.002H20.05C20.5747 13.002 21 12.5766 21 12.052V11.952C21 11.4273 20.5747 11.002 20.05 11.002Z" fill="#0A0E29"/>
<path d="M20.05 15.998H3.95C3.42533 15.998 3 16.4234 3 16.948V17.048C3 17.5727 3.42533 17.998 3.95 17.998H20.05C20.5747 17.998 21 17.5727 21 17.048V16.948C21 16.4234 20.5747 15.998 20.05 15.998Z" fill="#0A0E29"/>
<path d="M20.05 6H3.95C3.42533 6 3 6.42533 3 6.95V7.05C3 7.57467 3.42533 8 3.95 8H20.05C20.5747 8 21 7.57467 21 7.05V6.95C21 6.42533 20.5747 6 20.05 6Z" fill="#0A0E29"/>
</g>
<defs>
<clipPath id="clip0_274_11285">
<rect width="24" height="24" fill="white"/>
</clipPath>
</defs>
</svg>
