<svg width="24" height="24" viewBox="0 0 24 24" fill="none" xmlns="http://www.w3.org/2000/svg">
<g clip-path="url(#clip0_305_10954)">
<path d="M12 13C12.5523 13 13 12.5523 13 12C13 11.4477 12.5523 11 12 11C11.4477 11 11 11.4477 11 12C11 12.5523 11.4477 13 12 13Z" fill="#0A0E29"/>
<path d="M16 13C16.5523 13 17 12.5523 17 12C17 11.4477 16.5523 11 16 11C15.4477 11 15 11.4477 15 12C15 12.5523 15.4477 13 16 13Z" fill="#0A0E29"/>
<path d="M8 13C8.55228 13 9 12.5523 9 12C9 11.4477 8.55228 11 8 11C7.44772 11 7 11.4477 7 12C7 12.5523 7.44772 13 8 13Z" fill="#0A0E29"/>
<path d="M19.07 4.93051C17.4292 3.27901 15.2636 2.25172 12.9466 2.02575C10.6296 1.79978 8.30634 2.38929 6.37738 3.69264C4.44842 4.996 3.03463 6.93152 2.37976 9.16552C1.72489 11.3995 1.86997 13.792 2.79 15.9305C2.88589 16.1293 2.91735 16.353 2.88 16.5705L2 20.8005C1.96609 20.9627 1.97302 21.1307 2.02014 21.2896C2.06727 21.4484 2.15313 21.5931 2.27 21.7105C2.3658 21.8056 2.47987 21.8803 2.60533 21.9302C2.73079 21.98 2.86504 22.004 3 22.0005H3.2L7.48 21.1405C7.69753 21.1144 7.91812 21.1454 8.12 21.2305C10.2585 22.1505 12.651 22.2956 14.885 21.6407C17.119 20.9859 19.0545 19.5721 20.3579 17.6431C21.6612 15.7142 22.2507 13.3909 22.0248 11.0739C21.7988 8.75687 20.7715 6.5913 19.12 4.95051L19.07 4.93051ZM19.9 13.2905C19.7045 14.4845 19.2407 15.6186 18.5435 16.6074C17.8464 17.5963 16.934 18.4141 15.8751 18.9994C14.8162 19.5847 13.6384 19.9221 12.4302 19.9864C11.222 20.0507 10.015 19.8401 8.9 19.3705C8.50454 19.2023 8.07973 19.1139 7.65 19.1105C7.46228 19.1118 7.27498 19.1285 7.09 19.1605L4.27 19.7305L4.84 16.9105C4.95352 16.2998 4.88034 15.669 4.63 15.1005C4.16039 13.9855 3.9498 12.7785 4.01409 11.5703C4.07837 10.3621 4.41586 9.18426 5.00114 8.12536C5.58642 7.06646 6.40425 6.15411 7.39309 5.45696C8.38193 4.75981 9.51602 4.29603 10.71 4.10051C11.9633 3.89483 13.2475 3.99048 14.4565 4.37957C15.6654 4.76866 16.7644 5.43999 17.6625 6.33805C18.5605 7.2361 19.2318 8.33506 19.6209 9.54403C20.01 10.753 20.1057 12.0372 19.9 13.2905Z" fill="#0A0E29"/>
</g>
<defs>
<clipPath id="clip0_305_10954">
<rect width="24" height="24" fill="white"/>
</clipPath>
</defs>
</svg>
