<svg width="24" height="24" viewBox="0 0 24 24" fill="none" xmlns="http://www.w3.org/2000/svg">
<g clip-path="url(#clip0_274_11551)">
<path d="M19 20.752L16.69 11.752C17.5441 10.6893 18.0066 9.36525 18 8.00195C18 6.41065 17.3679 4.88453 16.2427 3.75931C15.1175 2.63409 13.5913 2.00195 12 2.00195C10.4087 2.00195 8.88262 2.63409 7.7574 3.75931C6.63218 4.88453 6.00004 6.41065 6.00004 8.00195C5.9973 9.37577 6.47084 10.7081 7.34004 11.772L5.00004 20.752C4.95026 20.9439 4.95867 21.1463 5.02419 21.3334C5.08971 21.5206 5.20939 21.684 5.36802 21.803C5.52664 21.9219 5.71706 21.9911 5.91506 22.0016C6.11306 22.0121 6.30972 21.9635 6.48004 21.862L11.81 18.732L17.49 21.872C17.6435 21.9646 17.8209 22.0098 18 22.002C18.1553 22.0069 18.3096 21.9756 18.4507 21.9106C18.5918 21.8455 18.7157 21.7485 18.8128 21.6272C18.9098 21.5058 18.9773 21.3636 19.0098 21.2117C19.0423 21.0598 19.039 20.9024 19 20.752ZM12 4.00195C12.7912 4.00195 13.5645 4.23655 14.2223 4.67607C14.8801 5.1156 15.3928 5.74031 15.6956 6.47122C15.9983 7.20212 16.0775 8.00639 15.9232 8.78231C15.7688 9.55824 15.3879 10.271 14.8285 10.8304C14.2691 11.3898 13.5563 11.7708 12.7804 11.9251C12.0045 12.0794 11.2002 12.0002 10.4693 11.6975C9.7384 11.3947 9.11369 10.882 8.67416 10.2242C8.23463 9.56644 8.00004 8.79308 8.00004 8.00195C8.00004 6.94109 8.42146 5.92367 9.17161 5.17353C9.92176 4.42338 10.9392 4.00195 12 4.00195ZM12.31 16.712C12.158 16.6242 11.9856 16.578 11.81 16.578C11.6345 16.578 11.4621 16.6242 11.31 16.712L7.56004 18.912L9.00004 13.212C9.90065 13.7296 10.9213 14.002 11.96 14.002C12.9988 14.002 14.0194 13.7296 14.92 13.212L16.45 19.002L12.31 16.712Z" fill="#0A0E29"/>
</g>
<defs>
<clipPath id="clip0_274_11551">
<rect width="24" height="24" fill="white"/>
</clipPath>
</defs>
</svg>
