<svg width="24" height="24" viewBox="0 0 24 24" fill="none" xmlns="http://www.w3.org/2000/svg">
<g clip-path="url(#clip0_274_11725)">
<path d="M5 12C4.73478 12 4.48043 12.1054 4.29289 12.2929C4.10536 12.4804 4 12.7348 4 13V20C4 20.2652 4.10536 20.5196 4.29289 20.7071C4.48043 20.8946 4.73478 21 5 21C5.26522 21 5.51957 20.8946 5.70711 20.7071C5.89464 20.5196 6 20.2652 6 20V13C6 12.7348 5.89464 12.4804 5.70711 12.2929C5.51957 12.1054 5.26522 12 5 12Z" fill="#9D9FB5"/>
<path d="M12.0004 8.00195C11.7351 8.00195 11.4808 8.10731 11.2933 8.29485C11.1057 8.48238 11.0004 8.73674 11.0004 9.00195V20.002C11.0004 20.2672 11.1057 20.5215 11.2933 20.7091C11.4808 20.8966 11.7351 21.002 12.0004 21.002C12.2656 21.002 12.5199 20.8966 12.7075 20.7091C12.895 20.5215 13.0004 20.2672 13.0004 20.002V9.00195C13.0004 8.73674 12.895 8.48238 12.7075 8.29485C12.5199 8.10731 12.2656 8.00195 12.0004 8.00195Z" fill="#464962"/>
<path d="M19 3.99805C18.7348 3.99805 18.4804 4.1034 18.2929 4.29094C18.1054 4.47848 18 4.73283 18 4.99805V19.998C18 20.2633 18.1054 20.5176 18.2929 20.7052C18.4804 20.8927 18.7348 20.998 19 20.998C19.2652 20.998 19.5196 20.8927 19.7071 20.7052C19.8946 20.5176 20 20.2633 20 19.998V4.99805C20 4.73283 19.8946 4.47848 19.7071 4.29094C19.5196 4.1034 19.2652 3.99805 19 3.99805Z" fill="#464962"/>
</g>
<defs>
<clipPath id="clip0_274_11725">
<rect width="24" height="24" fill="white"/>
</clipPath>
</defs>
</svg>
