<svg width="20" height="20" viewBox="0 0 20 20" fill="none" xmlns="http://www.w3.org/2000/svg">
<rect width="20" height="20" rx="4" fill="#080B25"/>
<rect width="20" height="20" rx="4" fill="#080B25"/>
<path d="M9.43638 9.2765C9.62786 8.98927 9.7236 8.65418 9.7236 8.27121C9.7236 7.26593 8.86194 6.5 7.90452 6.5H5.12803C4.98441 6.5 4.88867 6.59574 4.88867 6.73935V12.8189C4.88867 12.9625 4.98441 13.0583 5.12803 13.0583H8.19175C9.34064 13.0583 10.2981 12.1487 10.2981 10.9998C10.2981 10.2818 9.96296 9.65946 9.43638 9.2765ZM6.08544 7.74464H7.90452C8.23962 7.74464 8.47897 8.03186 8.47897 8.31909C8.47897 8.65418 8.19175 8.89353 7.90452 8.89353H6.08544V7.74464ZM8.23962 11.8615H6.08544V10.1382H8.23962C8.71832 10.1382 9.10129 10.5211 9.10129 10.9998C9.10129 11.4785 8.71832 11.8615 8.23962 11.8615Z" fill="#3653F2"/>
<path d="M15.6117 10.569C15.6117 9.13289 14.5107 7.98399 13.1224 7.98399C11.7342 7.98399 10.6331 9.13289 10.6331 10.569C10.6331 12.0051 11.7342 13.154 13.1224 13.154C13.9362 13.154 14.7022 12.7232 15.1809 12.0051C15.2287 11.9094 15.2766 11.8136 15.3245 11.7179C15.3723 11.67 15.3245 11.5743 15.2287 11.5743H14.032C13.9841 11.5743 13.9841 11.5743 13.9362 11.6222C13.6969 11.8615 13.4096 11.9573 13.1224 11.9573C12.5001 11.9573 12.0214 11.5264 11.8778 10.9041H15.3723C15.516 10.9041 15.6117 10.8084 15.6117 10.6647V10.569ZM13.1224 9.22863C13.5533 9.22863 13.9362 9.46798 14.1756 9.85095H12.0693C12.2607 9.46798 12.6916 9.22863 13.1224 9.22863Z" fill="#3653F2"/>
<path d="M14.1277 7.69677H11.9257C11.8299 7.69677 11.7342 7.60103 11.7342 7.50529V6.97871C11.7342 6.88297 11.8299 6.78723 11.9257 6.78723H14.1277C14.2234 6.78723 14.3192 6.88297 14.3192 6.97871V7.55316C14.3192 7.60103 14.2713 7.69677 14.1277 7.69677Z" fill="#3653F2"/>
</svg>
