<svg width="20" height="20" viewBox="0 0 20 20" fill="none" xmlns="http://www.w3.org/2000/svg">
<path d="M9.4362 9.2765C9.62768 8.98927 9.72342 8.65418 9.72342 8.27121C9.72342 7.26593 8.86175 6.5 7.90434 6.5H5.12784C4.98423 6.5 4.88849 6.59574 4.88849 6.73935V12.8189C4.88849 12.9625 4.98423 13.0583 5.12784 13.0583H8.19156C9.34046 13.0583 10.2979 12.1487 10.2979 10.9998C10.2979 10.2818 9.96278 9.65946 9.4362 9.2765ZM6.08525 7.74464H7.90434C8.23943 7.74464 8.47879 8.03186 8.47879 8.31909C8.47879 8.65418 8.19156 8.89353 7.90434 8.89353H6.08525V7.74464ZM8.23943 11.8615H6.08525V10.1382H8.23943C8.71814 10.1382 9.10111 10.5211 9.10111 10.9998C9.10111 11.4785 8.71814 11.8615 8.23943 11.8615Z" fill="#3653F2"/>
<path d="M15.6115 10.569C15.6115 9.13289 14.5105 7.98399 13.1222 7.98399C11.734 7.98399 10.633 9.13289 10.633 10.569C10.633 12.0051 11.734 13.154 13.1222 13.154C13.936 13.154 14.702 12.7232 15.1807 12.0051C15.2285 11.9094 15.2764 11.8136 15.3243 11.7179C15.3722 11.67 15.3243 11.5743 15.2285 11.5743H14.0318C13.9839 11.5743 13.9839 11.5743 13.936 11.6222C13.6967 11.8615 13.4095 11.9573 13.1222 11.9573C12.4999 11.9573 12.0212 11.5264 11.8776 10.9041H15.3722C15.5158 10.9041 15.6115 10.8084 15.6115 10.6647V10.569ZM13.1222 9.22863C13.5531 9.22863 13.936 9.46798 14.1754 9.85095H12.0691C12.2606 9.46798 12.6914 9.22863 13.1222 9.22863Z" fill="#3653F2"/>
<path d="M14.1275 7.69677H11.9255C11.8297 7.69677 11.734 7.60103 11.734 7.50529V6.97871C11.734 6.88297 11.8297 6.78723 11.9255 6.78723H14.1275C14.2233 6.78723 14.319 6.88297 14.319 6.97871V7.55316C14.319 7.60103 14.2711 7.69677 14.1275 7.69677Z" fill="#3653F2"/>
</svg>
