<svg width="12" height="8" viewBox="0 0 12 8" fill="none" xmlns="http://www.w3.org/2000/svg">
<path d="M5.4362 3.2765C5.62768 2.98927 5.72342 2.65418 5.72342 2.27121C5.72342 1.26593 4.86175 0.5 3.90434 0.5H1.12784C0.98423 0.5 0.888489 0.595741 0.888489 0.739353V6.81892C0.888489 6.96253 0.98423 7.05827 1.12784 7.05827H4.19156C5.34046 7.05827 6.29787 6.14873 6.29787 4.99984C6.29787 4.28178 5.96278 3.65946 5.4362 3.2765ZM2.08525 1.74464H3.90434C4.23943 1.74464 4.47879 2.03186 4.47879 2.31909C4.47879 2.65418 4.19156 2.89353 3.90434 2.89353H2.08525V1.74464ZM4.23943 5.86151H2.08525V4.13817H4.23943C4.71814 4.13817 5.10111 4.52113 5.10111 4.99984C5.10111 5.47854 4.71814 5.86151 4.23943 5.86151Z" fill="#3653F2"/>
<path d="M11.6115 4.56901C11.6115 3.13289 10.5105 1.98399 9.12224 1.98399C7.73399 1.98399 6.63296 3.13289 6.63296 4.56901C6.63296 6.00513 7.73399 7.15402 9.12224 7.15402C9.93604 7.15402 10.702 6.72319 11.1807 6.00513C11.2285 5.90938 11.2764 5.81364 11.3243 5.7179C11.3722 5.67003 11.3243 5.57429 11.2285 5.57429H10.0318C9.98391 5.57429 9.98391 5.57429 9.93604 5.62216C9.69668 5.86151 9.40946 5.95725 9.12224 5.95725C8.49992 5.95725 8.02121 5.52642 7.8776 4.9041H11.3722C11.5158 4.9041 11.6115 4.80836 11.6115 4.66475V4.56901ZM9.12224 3.22863C9.55307 3.22863 9.93604 3.46798 10.1754 3.85095H8.06908C8.26057 3.46798 8.6914 3.22863 9.12224 3.22863Z" fill="#3653F2"/>
<path d="M10.1275 1.69677H7.92547C7.82973 1.69677 7.73399 1.60103 7.73399 1.50529V0.978713C7.73399 0.882972 7.82973 0.78723 7.92547 0.78723H10.1275C10.2233 0.78723 10.319 0.882972 10.319 0.978713V1.55316C10.319 1.60103 10.2711 1.69677 10.1275 1.69677Z" fill="#3653F2"/>
</svg>
