<svg width="24" height="24" viewBox="0 0 24 24" fill="none" xmlns="http://www.w3.org/2000/svg">
<path d="M11.3235 11.1326C11.5532 10.7879 11.6681 10.3858 11.6681 9.92624C11.6681 8.7199 10.6341 7.80078 9.48523 7.80078H6.15343C5.9811 7.80078 5.86621 7.91567 5.86621 8.08801V15.3835C5.86621 15.5558 5.9811 15.6707 6.15343 15.6707H9.8299C11.2086 15.6707 12.3575 14.5793 12.3575 13.2006C12.3575 12.3389 11.9554 11.5921 11.3235 11.1326ZM7.30233 9.29434H9.48523C9.88735 9.29434 10.1746 9.63902 10.1746 9.98368C10.1746 10.3858 9.8299 10.673 9.48523 10.673H7.30233V9.29434ZM9.88734 14.2346H7.30233V12.1666H9.88734C10.4618 12.1666 10.9214 12.6261 10.9214 13.2006C10.9214 13.775 10.4618 14.2346 9.88734 14.2346Z" fill="#3653F2"/>
<path d="M18.7338 12.6836C18.7338 10.9602 17.4126 9.58157 15.7467 9.58157C14.0808 9.58157 12.7596 10.9602 12.7596 12.6836C12.7596 14.4069 14.0808 15.7856 15.7467 15.7856C16.7233 15.7856 17.6424 15.2686 18.2168 14.4069C18.2743 14.292 18.3317 14.1771 18.3892 14.0623C18.4466 14.0048 18.3892 13.8899 18.2743 13.8899H16.8382C16.7807 13.8899 16.7807 13.8899 16.7233 13.9474C16.436 14.2346 16.0914 14.3495 15.7467 14.3495C14.9999 14.3495 14.4255 13.8325 14.2531 13.0857H18.4466C18.6189 13.0857 18.7338 12.9708 18.7338 12.7985V12.6836ZM15.7467 11.0751C16.2637 11.0751 16.7233 11.3624 17.0105 11.8219H14.4829C14.7127 11.3624 15.2297 11.0751 15.7467 11.0751Z" fill="#3653F2"/>
<path d="M16.9531 9.23691H14.3106C14.1957 9.23691 14.0808 9.12202 14.0808 9.00713V8.37524C14.0808 8.26035 14.1957 8.14546 14.3106 8.14546H16.9531C17.0679 8.14546 17.1828 8.26035 17.1828 8.37524V9.06457C17.1828 9.12202 17.1254 9.23691 16.9531 9.23691Z" fill="#3653F2"/>
</svg>
