<svg width="24" height="24" viewBox="0 0 24 24" fill="none" xmlns="http://www.w3.org/2000/svg">
<path d="M8.85314 2.67414C9.70534 2.24187 10.6587 2 11.6649 2C15.2882 2 18.2255 5.13623 18.2255 9.00497V9.70957C18.2255 10.5552 18.46 11.3818 18.8993 12.0854L19.9758 13.8095C20.959 15.3843 20.2084 17.5249 18.4982 18.0229C14.0244 19.3257 9.30543 19.3257 4.83159 18.0229C3.12141 17.5249 2.37076 15.3843 3.35404 13.8095L4.43055 12.0854C4.86985 11.3818 5.10427 10.5552 5.10427 9.70957V9.00497C5.10427 7.93058 5.3308 6.91269 5.73564 6.00277" stroke-width="1.5" stroke-linecap="round"/>
<path d="M7.29053 19C7.92726 20.7478 9.64533 22 11.6648 22C11.9025 22 12.136 21.9827 12.364 21.9492M16.0392 19C15.7796 19.7126 15.3402 20.3428 14.774 20.8393" stroke-width="1.5" stroke-linecap="round"/>
</svg>
