<svg width="25" height="24" viewBox="0 0 25 24" fill="none" xmlns="http://www.w3.org/2000/svg">
<path d="M9.50061 4C9.91245 2.83481 11.0237 2 12.3299 2C13.6361 2 14.7474 2.83481 15.1592 4" stroke="#9D9FB5" stroke-width="1.5" stroke-linecap="round"/>
<path d="M12.3297 22.25C11.9155 22.25 11.5797 22.5858 11.5797 23C11.5797 23.4142 11.9155 23.75 12.3297 23.75V22.25ZM4.64773 21.8284L5.146 21.2679L4.64773 21.8284ZM20.0117 21.8284L19.5134 21.2679L20.0117 21.8284ZM8.28447 23.6837C8.69793 23.7087 9.05336 23.3938 9.07835 22.9804C9.10333 22.5669 8.78841 22.2115 8.37495 22.1865L8.28447 23.6837ZM2.57971 13C2.57971 14.8741 2.57889 16.8307 2.74846 18.4664C2.83339 19.2856 2.96372 20.0548 3.17045 20.7105C3.37382 21.3557 3.67412 21.9665 4.14946 22.389L5.146 21.2679C4.96234 21.1046 4.76838 20.7904 4.60105 20.2596C4.43709 19.7394 4.32029 19.0818 4.24047 18.3118C4.08054 16.769 4.07971 14.8971 4.07971 13H2.57971ZM12.3297 23.75C14.4321 23.75 16.0761 23.7513 17.3564 23.5983C18.6502 23.4436 19.6865 23.1209 20.51 22.389L19.5134 21.2679C19.0188 21.7075 18.3355 21.9706 17.1784 22.1089C16.0079 22.2487 14.4699 22.25 12.3297 22.25V23.75ZM8.37495 22.1865C6.6607 22.0829 5.76121 21.8147 5.146 21.2679L4.14946 22.389C5.16547 23.2921 6.51242 23.5767 8.28447 23.6837L8.37495 22.1865ZM20.5797 13.3873C20.5789 15.2185 20.5668 17.0032 20.4022 18.4673C20.3199 19.1982 20.2025 19.8201 20.0416 20.3117C19.8777 20.8126 19.6902 21.1108 19.5134 21.2679L20.51 22.389C20.9697 21.9804 21.2649 21.3963 21.4672 20.7783C21.6725 20.1509 21.8048 19.4171 21.8928 18.635C22.0684 17.0731 22.0789 15.2032 22.0797 13.3879L20.5797 13.3873Z" fill="#9D9FB5"/>
<path d="M14.99 15L17.9937 14.2166M9.66939 15L3.66212 13.4332C3.06661 13.2779 2.76886 13.2002 2.57992 13.0141C2.54312 12.9778 2.50986 12.939 2.48049 12.8979C2.32971 12.6871 2.32971 12.4168 2.32971 11.8763C2.32971 9.74619 2.32971 8.68113 3.00269 7.96206C3.13204 7.82385 3.27734 7.69753 3.43631 7.58508C4.26341 7 5.48849 7 7.93864 7H16.7208C19.1709 7 20.396 7 21.2231 7.58508C21.3821 7.69753 21.5274 7.82385 21.6567 7.96206C22.3297 8.68113 22.3297 9.74619 22.3297 11.8763C22.3297 12.4168 22.3297 12.6871 22.1789 12.8979C22.1496 12.939 22.1163 12.9778 22.0795 13.0141C21.9296 13.1618 21.7111 13.2412 21.3297 13.3453" stroke="#9D9FB5" stroke-width="1.5" stroke-linecap="round"/>
<path d="M14.3297 13.5H10.3297C10.0536 13.5 9.82971 13.7239 9.82971 14V16.1615C9.82971 16.3659 9.95419 16.5498 10.144 16.6257L10.8441 16.9058C11.7978 17.2872 12.8616 17.2872 13.8153 16.9058L14.5154 16.6257C14.7052 16.5498 14.8297 16.3659 14.8297 16.1615V14C14.8297 13.7239 14.6059 13.5 14.3297 13.5Z" stroke="#9D9FB5" stroke-width="1.5" stroke-linecap="round"/>
</svg>
