<svg width="39" height="33" viewBox="0 0 39 33" fill="none" xmlns="http://www.w3.org/2000/svg">
<path d="M22.6338 32.3382C31.2935 32.3382 38.3135 25.3972 38.3135 16.8351C38.3135 8.273 31.2935 1.33203 22.6338 1.33203C13.9741 1.33203 6.9541 8.273 6.9541 16.8351C6.9541 25.3972 13.9741 32.3382 22.6338 32.3382Z" fill="#9D9FB5"/>
<path d="M15.5681 32.7722C15.5562 32.7722 15.5443 32.7722 15.5324 32.7722C14.8754 32.7251 14.2145 32.6348 13.5714 32.5092C13.3114 32.4582 13.1427 32.207 13.1943 31.95C13.2459 31.6929 13.5 31.5261 13.76 31.5771C14.3653 31.6968 14.9866 31.7792 15.6038 31.8244C15.8678 31.844 16.0663 32.0716 16.0484 32.3326C16.0306 32.5819 15.8182 32.7722 15.5701 32.7722H15.5681ZM19.3968 32.5936C19.1665 32.5936 18.9641 32.4307 18.9244 32.1992C18.8807 31.9401 19.0554 31.6948 19.3174 31.6517C19.9267 31.5496 20.536 31.4064 21.1295 31.2317C21.3835 31.1571 21.6515 31.2984 21.7289 31.5496C21.8063 31.8008 21.6614 32.0657 21.4073 32.1423C20.7782 32.3307 20.1291 32.4798 19.4801 32.5897C19.4523 32.5936 19.4265 32.5976 19.3987 32.5976L19.3968 32.5936ZM10.0246 31.3259C9.95518 31.3259 9.8857 31.3102 9.81822 31.2808C9.22279 31.0021 8.64125 30.6842 8.08552 30.3349C7.86124 30.1936 7.79574 29.9012 7.93666 29.6794C8.07956 29.4577 8.37529 29.3929 8.59957 29.5323C9.12156 29.86 9.67136 30.1602 10.2291 30.4232C10.4692 30.5351 10.5704 30.8196 10.4573 31.0571C10.374 31.2278 10.2033 31.3279 10.0227 31.3279L10.0246 31.3259ZM24.7735 30.6292C24.6108 30.6292 24.45 30.5468 24.3607 30.3977C24.2237 30.172 24.2991 29.8816 24.5274 29.7462C25.0573 29.4322 25.5754 29.0829 26.0636 28.708C26.274 28.5471 26.5757 28.5844 26.7385 28.7924C26.9012 29.0004 26.8635 29.2987 26.6551 29.4597C26.1351 29.858 25.5873 30.2309 25.0216 30.5645C24.9442 30.6096 24.8589 30.6312 24.7755 30.6312L24.7735 30.6292ZM5.38225 28.0016C5.25523 28.0016 5.1282 27.9525 5.03491 27.8544C4.5804 27.3834 4.15168 26.8791 3.76068 26.3571C3.6019 26.1471 3.64755 25.8488 3.85992 25.6918C4.07229 25.5348 4.37398 25.58 4.53276 25.7899C4.90193 26.2805 5.30485 26.7535 5.73157 27.197C5.91417 27.3873 5.90622 27.6876 5.71568 27.8681C5.6224 27.9564 5.50332 27.9996 5.38424 27.9996L5.38225 28.0016ZM29.0765 26.885C28.9733 26.885 28.8681 26.8516 28.7808 26.7829C28.5724 26.62 28.5366 26.3218 28.6994 26.1157C29.0825 25.6349 29.4378 25.1247 29.7573 24.6007C29.8943 24.377 30.1899 24.3044 30.4162 24.4398C30.6425 24.5752 30.7159 24.8676 30.579 25.0913C30.2396 25.6486 29.8605 26.1903 29.4536 26.7005C29.3584 26.8202 29.2174 26.881 29.0745 26.881L29.0765 26.885ZM2.25424 23.2545C2.06569 23.2545 1.88706 23.1446 1.80965 22.9621C1.55759 22.3596 1.33926 21.7375 1.1646 21.1115C1.09315 20.8584 1.24398 20.5974 1.50002 20.5267C1.75605 20.4561 2.02005 20.6052 2.0915 20.8584C2.25624 21.4471 2.46065 22.0319 2.69684 22.5971C2.79807 22.8385 2.68296 23.1171 2.43685 23.2172C2.37731 23.2427 2.31378 23.2545 2.25225 23.2545H2.25424ZM31.7361 21.8612C31.6885 21.8612 31.6428 21.8553 31.5952 21.8396C31.3412 21.7631 31.1982 21.4962 31.2776 21.2469C31.4582 20.6641 31.6051 20.0616 31.7123 19.4572C31.7579 19.1982 32.01 19.0255 32.268 19.0706C32.53 19.1158 32.7047 19.363 32.659 19.6201C32.5439 20.2618 32.3891 20.9016 32.1966 21.5236C32.1331 21.7277 31.9425 21.8592 31.7381 21.8592L31.7361 21.8612ZM1.06536 17.7087C0.805356 17.7087 0.590992 17.5046 0.585037 17.2456C0.581068 17.1102 0.579102 16.9728 0.579102 16.8354C0.579102 16.3193 0.60488 15.8012 0.6545 15.291C0.680302 15.03 0.912524 14.8377 1.17848 14.8632C1.44246 14.8887 1.63698 15.1203 1.61118 15.3813C1.56553 15.8601 1.54171 16.3507 1.54171 16.8354C1.54171 16.9649 1.54172 17.0925 1.54569 17.222C1.55164 17.485 1.34322 17.7028 1.07726 17.7087C1.07329 17.7087 1.06933 17.7087 1.06536 17.7087ZM32.3832 16.229C32.1331 16.229 31.9207 16.0367 31.9048 15.7875C31.8631 15.1772 31.7817 14.563 31.6646 13.9625C31.615 13.7054 31.7838 13.4561 32.0458 13.4051C32.3038 13.3561 32.5578 13.5229 32.6094 13.7819C32.7344 14.4197 32.8198 15.0732 32.8654 15.7227C32.8833 15.9837 32.6848 16.2114 32.4189 16.229C32.407 16.229 32.3971 16.229 32.3851 16.229H32.3832ZM1.96447 12.1099C1.91088 12.1099 1.85728 12.1021 1.80369 12.0825C1.55361 11.9941 1.42262 11.7233 1.51194 11.4761C1.73225 10.8618 1.99425 10.2574 2.28998 9.67457C2.40906 9.44104 2.69686 9.34488 2.93503 9.46263C3.17122 9.58037 3.26846 9.86688 3.14938 10.1004C2.87151 10.646 2.62538 11.217 2.41698 11.794C2.34752 11.9883 2.16096 12.1099 1.96447 12.1099ZM30.9482 10.7421C30.7676 10.7421 30.5948 10.6401 30.5135 10.4693C30.2515 9.91595 29.9518 9.37236 29.6223 8.85428C29.4814 8.63253 29.5489 8.33816 29.7731 8.19883C29.9974 8.0595 30.2952 8.12622 30.4361 8.34797C30.7874 8.89941 31.105 9.47833 31.3848 10.0651C31.4979 10.3025 31.3928 10.5851 31.1526 10.697C31.0871 10.7284 31.0176 10.7421 30.9502 10.7421H30.9482ZM4.84438 7.20781C4.73324 7.20781 4.62207 7.17053 4.53077 7.09399C4.33031 6.92326 4.30649 6.62301 4.47917 6.42481C4.90788 5.93028 5.37233 5.4593 5.8586 5.02168C6.05509 4.84506 6.35875 4.8588 6.53738 5.05308C6.71601 5.24735 6.70213 5.54761 6.50564 5.72422C6.04914 6.13633 5.61248 6.57984 5.20759 7.04493C5.11232 7.15483 4.97736 7.20977 4.8424 7.20977L4.84438 7.20781ZM9.31013 3.65388C9.13944 3.65388 8.97272 3.5636 8.88737 3.40465C8.76233 3.17308 8.84767 2.88461 9.08188 2.76097C9.66143 2.45287 10.2648 2.17617 10.8781 1.94069C11.1262 1.84453 11.4041 1.9662 11.4993 2.2115C11.5966 2.4568 11.4735 2.73154 11.2254 2.82574C10.6498 3.04749 10.0822 3.30653 9.53637 3.59697C9.46294 3.63621 9.38555 3.65388 9.30814 3.65388H9.31013ZM22.3263 2.81789C22.2687 2.81789 22.2112 2.80807 22.1556 2.78649C21.576 2.56866 20.9786 2.38419 20.3792 2.23897C20.1212 2.17617 19.9644 1.9191 20.0279 1.66398C20.0914 1.40887 20.3514 1.25384 20.6094 1.31664C21.2485 1.47167 21.8837 1.66791 22.499 1.89948C22.7471 1.99367 22.8721 2.26841 22.7768 2.51175C22.7034 2.7021 22.5208 2.81789 22.3282 2.81789H22.3263ZM14.7683 1.92695C14.5301 1.92695 14.3217 1.75033 14.2919 1.51092C14.2582 1.24991 14.4447 1.01246 14.7087 0.98106C15.3597 0.900601 16.0226 0.857431 16.6836 0.855469C16.9475 0.855469 17.1639 1.06741 17.1639 1.32841C17.1639 1.59138 16.9495 1.80332 16.6855 1.80528C16.0643 1.80724 15.4391 1.84649 14.8278 1.92302C14.8079 1.92499 14.7881 1.92695 14.7683 1.92695Z" fill="#0A0E29"/>
<path d="M16.1061 22.5039C15.6178 22.4156 15.2843 21.9642 15.3518 21.4776L17.1203 8.65905C17.2354 7.82503 18.0313 7.252 18.8688 7.40311C19.7064 7.55225 20.2503 8.3647 20.0617 9.18499L17.1759 21.8033C17.0667 22.2822 16.5943 22.5903 16.1061 22.5039ZM15.2367 27.2961C14.5857 27.1803 14.155 26.5641 14.2721 25.9205L14.286 25.8498C14.4031 25.2062 15.0263 24.7803 15.6773 24.8961C16.3283 25.0119 16.759 25.6281 16.6419 26.2717L16.6281 26.3424C16.511 26.9861 15.8877 27.4119 15.2367 27.2961Z" fill="#464962"/>
</svg>
