<svg width="49" height="42" viewBox="0 0 49 42" fill="none" xmlns="http://www.w3.org/2000/svg">
<path d="M47.6436 21.6051C48.1865 10.7466 39.7238 1.50894 28.7416 0.972177C17.7594 0.43541 8.41648 8.8028 7.8736 19.6613C7.33072 30.5197 15.7934 39.7574 26.7756 40.2942C37.7578 40.8309 47.1007 32.4635 47.6436 21.6051Z" fill="#3653F2"/>
<path d="M21.7487 40.7792C21.4887 40.7792 21.2764 40.5751 21.2684 40.3161C21.2605 40.0531 21.4709 39.8353 21.7368 39.8294C22.3601 39.8137 22.9892 39.7666 23.6065 39.6921C23.8705 39.6607 24.1106 39.8451 24.1424 40.1061C24.1741 40.3671 23.9876 40.6046 23.7236 40.636C23.0765 40.7145 22.4176 40.7635 21.7626 40.7792C21.7587 40.7792 21.7547 40.7792 21.7507 40.7792H21.7487ZM17.9221 40.5182C17.8963 40.5182 17.8685 40.5163 17.8427 40.5123C17.1976 40.4064 16.5526 40.267 15.9194 40.1002C15.6634 40.0315 15.5106 39.7725 15.5801 39.5194C15.6495 39.2662 15.9115 39.1151 16.1675 39.1838C16.7689 39.3427 17.3862 39.4742 17.9995 39.5763C18.2615 39.6194 18.4381 39.8647 18.3945 40.1238C18.3548 40.3553 18.1523 40.5202 17.9201 40.5202L17.9221 40.5182ZM27.4093 39.8157C27.2069 39.8157 27.0183 39.6881 26.9528 39.488C26.8695 39.2387 27.0084 38.9699 27.2605 38.8894C27.8519 38.6991 28.4414 38.4754 29.011 38.2281C29.2552 38.1221 29.537 38.232 29.6442 38.4714C29.7514 38.7108 29.6402 38.9915 29.3981 39.0974C28.7987 39.3565 28.1814 39.59 27.5602 39.7921C27.5105 39.8078 27.4609 39.8157 27.4113 39.8157H27.4093ZM12.452 38.7835C12.3806 38.7835 12.3091 38.7678 12.2417 38.7344C11.6561 38.4498 11.0766 38.1339 10.5189 37.7944C10.2926 37.657 10.2231 37.3646 10.3621 37.1409C10.501 36.9172 10.7967 36.8485 11.023 36.9859C11.5529 37.3097 12.1047 37.6119 12.6644 37.8827C12.9026 37.9985 13.0018 38.283 12.8847 38.5185C12.8014 38.6873 12.6307 38.7835 12.452 38.7835ZM32.5539 37.2861C32.401 37.2861 32.2522 37.2155 32.1589 37.082C32.008 36.8662 32.0616 36.5698 32.28 36.4207C32.792 36.0694 33.2922 35.6887 33.7666 35.2923C33.969 35.1235 34.2727 35.1471 34.4434 35.3473C34.6141 35.5474 34.5902 35.8477 34.3878 36.0164C33.8896 36.4344 33.3636 36.8328 32.8278 37.2017C32.7444 37.2587 32.6491 37.2861 32.5539 37.2861ZM7.71438 35.571C7.59728 35.571 7.48018 35.5298 7.38888 35.4454C6.90856 35.0078 6.44412 34.5407 6.00945 34.0599C5.83281 33.8637 5.84869 33.5634 6.04716 33.3888C6.24564 33.2141 6.54932 33.2298 6.72597 33.426C7.14079 33.8853 7.58339 34.3288 8.04188 34.7468C8.23638 34.9253 8.24828 35.2256 8.06965 35.4179C7.97438 35.52 7.84538 35.571 7.71637 35.571H7.71438ZM36.7536 33.4123C36.6485 33.4123 36.5413 33.379 36.4539 33.3083C36.2475 33.1435 36.2138 32.8452 36.3805 32.6411C36.7715 32.1603 37.1407 31.656 37.4821 31.1418C37.6269 30.922 37.9247 30.8612 38.147 31.0044C38.3693 31.1477 38.4308 31.442 38.2859 31.6618C37.9286 32.2015 37.5396 32.7314 37.1308 33.2357C37.0355 33.3534 36.8966 33.4143 36.7556 33.4143L36.7536 33.4123ZM4.09614 31.1595C3.9314 31.1595 3.77262 31.077 3.6833 30.9279C3.34986 30.3725 3.03824 29.7956 2.76038 29.2108C2.64724 28.9733 2.75046 28.6907 2.99062 28.5789C3.23077 28.467 3.51658 28.5691 3.62971 28.8065C3.89567 29.3638 4.1914 29.9133 4.50896 30.4432C4.64393 30.6689 4.5705 30.9593 4.34225 31.0947C4.26484 31.1398 4.1795 31.1614 4.09614 31.1614V31.1595ZM39.6653 28.5161C39.6058 28.5161 39.5442 28.5043 39.4847 28.4808C39.2386 28.3826 39.1215 28.104 39.2207 27.8626C39.4549 27.2935 39.6633 26.7048 39.842 26.1141C39.9174 25.8629 40.1853 25.7196 40.4394 25.7942C40.6934 25.8688 40.8383 26.1337 40.7629 26.3849C40.5763 27.005 40.358 27.6212 40.1119 28.2198C40.0365 28.4042 39.8559 28.5161 39.6673 28.5161H39.6653ZM1.90295 25.91C1.68859 25.91 1.49211 25.7667 1.43653 25.5509C1.27775 24.9249 1.14874 24.2832 1.05149 23.6434C1.01179 23.3844 1.19241 23.141 1.4544 23.1037C1.71838 23.0645 1.96052 23.2431 2.00021 23.5021C2.0935 24.1124 2.21655 24.7227 2.36739 25.3193C2.43289 25.5744 2.27609 25.8315 2.01807 25.8963C1.97838 25.9061 1.93869 25.91 1.90098 25.91H1.90295ZM41.0348 22.9997C41.0189 22.9997 41.005 22.9997 40.9892 22.9978C40.7252 22.9723 40.5307 22.7407 40.5565 22.4797C40.616 21.8694 40.6458 21.2453 40.6458 20.6291C40.6458 20.3662 40.8601 20.1542 41.1261 20.1542C41.3921 20.1542 41.6064 20.3662 41.6064 20.6291C41.6064 21.2767 41.5747 21.9302 41.5131 22.5719C41.4893 22.8172 41.2809 23.0017 41.0348 23.0017V22.9997ZM1.32539 20.2602C1.32539 20.2602 1.3115 20.2602 1.30554 20.2602C1.03958 20.2484 0.835149 20.0267 0.845073 19.7657C0.87286 19.12 0.932394 18.4685 1.02171 17.8288C1.05743 17.5697 1.30157 17.3872 1.56356 17.4245C1.82555 17.4598 2.01014 17.7012 1.97242 17.9602C1.88708 18.5686 1.82951 19.1907 1.80371 19.8069C1.7918 20.062 1.57944 20.2622 1.3234 20.2622L1.32539 20.2602ZM41.013 18.9964C40.7708 18.9964 40.5624 18.8159 40.5366 18.5725C40.4711 17.9602 40.3739 17.3441 40.2488 16.7416C40.1952 16.4845 40.362 16.2333 40.622 16.1803C40.882 16.1274 41.136 16.2922 41.1896 16.5493C41.3206 17.1812 41.4218 17.8268 41.4913 18.4705C41.5191 18.7315 41.3286 18.965 41.0646 18.9925C41.0467 18.9925 41.0308 18.9944 41.013 18.9944V18.9964ZM2.39121 14.6791C2.33961 14.6791 2.28602 14.6712 2.23442 14.6536C1.98433 14.5672 1.84937 14.2984 1.9367 14.0491C2.14907 13.4388 2.39518 12.8305 2.66908 12.2437C2.78023 12.0043 3.06603 11.9003 3.30619 12.0102C3.54833 12.1201 3.65353 12.4007 3.54238 12.6401C3.28237 13.1994 3.04817 13.7783 2.84572 14.3612C2.77625 14.5574 2.59167 14.6811 2.39121 14.6811V14.6791ZM39.5859 13.4957C39.3974 13.4957 39.2207 13.3859 39.1433 13.2053C38.9032 12.6382 38.6312 12.075 38.3355 11.5333C38.2105 11.3018 38.2978 11.0133 38.53 10.8897C38.7642 10.766 39.054 10.8524 39.181 11.082C39.4907 11.6511 39.7765 12.2418 40.0285 12.8364C40.1317 13.0778 40.0166 13.3564 39.7705 13.4585C39.709 13.484 39.6475 13.4957 39.5839 13.4957H39.5859ZM5.03295 9.63568C4.93569 9.63568 4.83844 9.60624 4.7531 9.54737C4.53676 9.3943 4.48912 9.09798 4.64195 8.88407C5.02303 8.36011 5.43387 7.84792 5.86457 7.36124C6.03923 7.16303 6.3429 7.14341 6.54336 7.3161C6.74382 7.48879 6.76368 7.78904 6.58902 7.98725C6.17817 8.45038 5.78717 8.93902 5.42395 9.43944C5.33067 9.56895 5.18181 9.63764 5.03295 9.63764V9.63568ZM36.6207 8.63092C36.4817 8.63092 36.3448 8.57205 36.2495 8.45627C35.8545 7.98136 35.4318 7.51823 34.9932 7.08061C34.8066 6.89418 34.8066 6.59393 34.9932 6.40946C35.1817 6.225 35.4854 6.225 35.6719 6.40946C36.1324 6.86867 36.577 7.35339 36.9898 7.85184C37.1585 8.05397 37.1288 8.35422 36.9223 8.52102C36.833 8.59363 36.7259 8.62896 36.6187 8.62896L36.6207 8.63092ZM9.01838 5.54404C8.87548 5.54404 8.73257 5.48124 8.63928 5.35957C8.47653 5.15156 8.51424 4.85327 8.72463 4.69235C9.24067 4.29594 9.78252 3.91916 10.3343 3.57573C10.5586 3.43444 10.8563 3.50116 10.9972 3.72291C11.1381 3.94467 11.0726 4.23903 10.8483 4.37837C10.3224 4.70805 9.80634 5.06521 9.31411 5.44396C9.22678 5.51068 9.12358 5.54404 9.02037 5.54404H9.01838ZM32.3772 4.80028C32.2839 4.80028 32.1907 4.77281 32.1073 4.71786C31.5912 4.37248 31.0534 4.04672 30.5075 3.75236C30.2753 3.62676 30.188 3.33829 30.315 3.10868C30.4421 2.87908 30.7338 2.79273 30.966 2.91833C31.5396 3.22839 32.1053 3.56788 32.6452 3.93093C32.8655 4.07811 32.921 4.37444 32.7722 4.5903C32.6789 4.72571 32.5281 4.79832 32.3732 4.79832L32.3772 4.80028ZM14.016 2.74563C13.8235 2.74563 13.6409 2.62985 13.5675 2.44146C13.4722 2.19615 13.5933 1.92142 13.8414 1.82722C14.4507 1.5937 15.0779 1.38568 15.7071 1.21299C15.9631 1.14234 16.2271 1.28952 16.2985 1.54267C16.37 1.79582 16.2211 2.05683 15.9651 2.12747C15.3657 2.29428 14.7663 2.49052 14.1867 2.71227C14.1292 2.73386 14.0716 2.74367 14.0121 2.74367L14.016 2.74563ZM27.2069 2.32567C27.1592 2.32567 27.1096 2.31783 27.062 2.30409C26.4685 2.11962 25.8592 1.96067 25.2499 1.83311C24.9899 1.77816 24.8251 1.52697 24.8787 1.26989C24.9343 1.01282 25.1884 0.847974 25.4484 0.902922C26.0875 1.03637 26.7285 1.20318 27.3518 1.39745C27.6058 1.47595 27.7448 1.74284 27.6654 1.99403C27.5999 2.19615 27.4113 2.32567 27.2069 2.32567ZM19.6151 1.48184C19.367 1.48184 19.1566 1.29344 19.1368 1.04422C19.1149 0.783215 19.3134 0.553615 19.5774 0.532028C20.2284 0.481006 20.8893 0.461382 21.5423 0.471194C21.8083 0.475119 22.0187 0.690983 22.0147 0.953947C22.0107 1.21299 21.7964 1.421 21.5344 1.421H21.5264C20.9052 1.41119 20.2721 1.43081 19.6528 1.47987C19.6389 1.47987 19.627 1.47987 19.6151 1.47987V1.48184Z" fill="#0A0E29"/>
<path d="M13.5919 28.3904C13.4569 28.3904 13.322 28.3335 13.2267 28.2236C13.054 28.0234 13.0778 27.7251 13.2803 27.5544L30.5578 12.9344C30.7602 12.7637 31.0619 12.7872 31.2346 12.9874C31.4073 13.1875 31.3834 13.4858 31.181 13.6566L13.9035 28.2766C13.8122 28.3531 13.7011 28.3904 13.5919 28.3904Z" fill="#0A0E29"/>
<path d="M30.8686 28.3896C30.7574 28.3896 30.6463 28.3523 30.5569 28.2758L13.2795 13.6557C13.077 13.485 13.0552 13.1848 13.2259 12.9866C13.3986 12.7864 13.7022 12.7648 13.9027 12.9336L31.1802 27.5536C31.3826 27.7243 31.4045 28.0246 31.2338 28.2228C31.1385 28.3327 31.0035 28.3896 30.8686 28.3896Z" fill="#0A0E29"/>
</svg>
