<svg width="24" height="24" viewBox="0 0 24 24" fill="none" xmlns="http://www.w3.org/2000/svg">
<path d="M3.88417 13.5641L3.82736 13.4522L3.73096 13.5326C2.74064 14.3583 2.15 15.3682 2.15 16.4984C2.15 18.0728 3.29375 19.412 5.07929 20.352C6.86787 21.2937 9.32216 21.8484 12 21.8484C14.6778 21.8484 17.1321 21.2937 18.9207 20.352C20.7063 19.412 21.85 18.0728 21.85 16.4984C21.85 15.3744 21.2656 14.3676 20.2827 13.5447L20.1873 13.4649L20.1298 13.5751L19.4158 14.9446L19.3817 15.0101L19.4342 15.062C19.9013 15.5233 20.15 16.0122 20.15 16.4984C20.15 16.9476 19.9382 17.3999 19.5361 17.8298C19.134 18.2598 18.5467 18.6616 17.8111 19.0062C16.3403 19.6953 14.2928 20.1484 12 20.1484C9.70724 20.1484 7.65967 19.6953 6.18886 19.0062C5.45331 18.6616 4.86598 18.2598 4.46389 17.8298C4.06183 17.3999 3.85 16.9476 3.85 16.4984C3.85 16.012 4.09733 15.5216 4.56565 15.0606L4.61778 15.0093L4.58467 14.9441L3.88417 13.5641Z" fill="#0A0E29" stroke="#0A0E29" stroke-width="0.2"/>
<path d="M3.88417 9.06411L3.82736 8.95219L3.73096 9.03257C2.74064 9.85835 2.15 10.8682 2.15 11.9984C2.15 13.5728 3.29375 14.912 5.07929 15.852C6.86787 16.7937 9.32216 17.3484 12 17.3484C14.6778 17.3484 17.1321 16.7937 18.9207 15.852C20.7063 14.912 21.85 13.5728 21.85 11.9984C21.85 10.8744 21.2656 9.8676 20.2827 9.0447L20.1873 8.96486L20.1298 9.07514L19.4158 10.4446L19.3817 10.5101L19.4342 10.562C19.9013 11.0233 20.15 11.5122 20.15 11.9984C20.15 12.4476 19.9382 12.8999 19.5361 13.3298C19.134 13.7598 18.5467 14.1616 17.8111 14.5062C16.3403 15.1953 14.2928 15.6484 12 15.6484C9.70724 15.6484 7.65967 15.1953 6.18886 14.5062C5.45331 14.1616 4.86598 13.7598 4.46389 13.3298C4.06183 12.8999 3.85 12.4476 3.85 11.9984C3.85 11.5136 4.09729 11.0231 4.56576 10.5605L4.61772 10.5092L4.58467 10.4441L3.88417 9.06411Z" fill="#0A0E29" stroke="#0A0E29" stroke-width="0.2"/>
<path d="M2.15 7.5C2.15 9.07438 3.29375 10.4136 5.07929 11.3537C6.86787 12.2953 9.32216 12.85 12 12.85C14.6778 12.85 17.1321 12.2953 18.9207 11.3537C20.7063 10.4136 21.85 9.07438 21.85 7.5C21.85 5.92562 20.7063 4.58635 18.9207 3.64633C17.1321 2.7047 14.6778 2.15 12 2.15C9.32216 2.15 6.86787 2.7047 5.07929 3.64633C3.29375 4.58635 2.15 5.92562 2.15 7.5ZM20.15 7.5C20.15 7.94922 19.9382 8.40149 19.5361 8.83143C19.134 9.26141 18.5467 9.6632 17.8111 10.0078C16.3403 10.6969 14.2928 11.15 12 11.15C9.70724 11.15 7.65967 10.6969 6.18886 10.0078C5.45331 9.6632 4.86598 9.26141 4.46389 8.83143C4.06183 8.40149 3.85 7.94922 3.85 7.5C3.85 7.05078 4.06183 6.59851 4.46389 6.16857C4.86598 5.73859 5.45331 5.3368 6.18886 4.99218C7.65967 4.30307 9.70724 3.85 12 3.85C14.2928 3.85 16.3403 4.30307 17.8111 4.99218C18.5467 5.3368 19.134 5.73859 19.5361 6.16857C19.9382 6.59851 20.15 7.05078 20.15 7.5Z" fill="#0A0E29" stroke="#0A0E29" stroke-width="0.2"/>
</svg>
