<svg width="40" height="40" viewBox="0 0 40 40" fill="none" xmlns="http://www.w3.org/2000/svg">
<g clip-path="url(#clip0_1474_9020)">
<path d="M0 0H40V40H0V0Z" fill="#004CE8"/>
<path d="M10 15L10.363 19.0618H25.6243L25.261 23.221H20.0124L20.0119 23.2204H10.7191L11.0769 27.282H19.9981V27.2827H24.9147L24.4513 32.5504L20.0122 33.7693L20.0119 33.7689L19.9944 33.7737L15.5476 32.5522L15.2634 29.3128H11.2553L11.8147 35.6903L19.9935 38L28.1835 35.6911L29.1818 24.3117L29.2792 23.221L30 15H10Z" fill="white"/>
<path d="M16.2585 7.45455H14.2557C14.2415 7.28883 14.2036 7.13849 14.142 7.00355C14.0829 6.86861 14 6.7526 13.8935 6.65554C13.7893 6.55611 13.6626 6.48035 13.5135 6.42827C13.3643 6.37382 13.1951 6.34659 13.0057 6.34659C12.6742 6.34659 12.3937 6.42708 12.1641 6.58807C11.9368 6.74905 11.764 6.97988 11.6456 7.28054C11.5296 7.5812 11.4716 7.94223 11.4716 8.36364C11.4716 8.80871 11.5308 9.18158 11.6491 9.48224C11.7699 9.78054 11.9439 10.0054 12.1712 10.157C12.3984 10.3061 12.6719 10.3807 12.9915 10.3807C13.1738 10.3807 13.3371 10.3582 13.4815 10.3132C13.6259 10.2659 13.7514 10.1984 13.858 10.1108C13.9645 10.0232 14.0509 9.91785 14.1172 9.79474C14.1858 9.66927 14.232 9.52841 14.2557 9.37216L16.2585 9.38636C16.2348 9.69413 16.1484 10.0078 15.9993 10.3274C15.8501 10.6446 15.6383 10.9382 15.3636 11.2081C15.0914 11.4756 14.754 11.6911 14.3516 11.8544C13.9491 12.0178 13.4815 12.0994 12.9489 12.0994C12.2812 12.0994 11.6823 11.9562 11.152 11.6697C10.6241 11.3833 10.2062 10.9619 9.89844 10.4055C9.59304 9.8492 9.44034 9.16856 9.44034 8.36364C9.44034 7.55398 9.59659 6.87216 9.90909 6.31818C10.2216 5.76184 10.643 5.34162 11.1733 5.05753C11.7036 4.77107 12.2955 4.62784 12.9489 4.62784C13.4081 4.62784 13.8307 4.69058 14.2166 4.81605C14.6025 4.94152 14.9411 5.125 15.2322 5.36648C15.5234 5.60559 15.7578 5.90033 15.9354 6.25071C16.1129 6.60109 16.2206 7.00237 16.2585 7.45455ZM21.0748 7C21.0558 6.76326 20.967 6.5786 20.8084 6.44602C20.6522 6.31345 20.4142 6.24716 20.0946 6.24716C19.891 6.24716 19.7241 6.27202 19.5939 6.32173C19.4661 6.36908 19.3714 6.43419 19.3098 6.51705C19.2483 6.59991 19.2163 6.6946 19.214 6.80114C19.2092 6.88873 19.2246 6.96804 19.2601 7.03906C19.298 7.10772 19.3572 7.17045 19.4377 7.22727C19.5182 7.28172 19.6212 7.33144 19.7466 7.37642C19.8721 7.4214 20.0212 7.46165 20.1941 7.49716L20.7907 7.625C21.1931 7.71023 21.5376 7.82268 21.824 7.96236C22.1105 8.10204 22.3449 8.26657 22.5272 8.45597C22.7095 8.64299 22.8432 8.85369 22.9284 9.08807C23.016 9.32244 23.061 9.57812 23.0634 9.85511C23.061 10.3333 22.9415 10.7382 22.7047 11.0696C22.468 11.401 22.1294 11.6532 21.6891 11.826C21.2511 11.9988 20.7244 12.0852 20.1088 12.0852C19.4767 12.0852 18.9251 11.9917 18.454 11.8047C17.9853 11.6177 17.6207 11.33 17.3603 10.9418C17.1022 10.5511 16.972 10.0516 16.9696 9.44318H18.8446C18.8565 9.66572 18.9121 9.85275 19.0115 10.0043C19.111 10.1558 19.2507 10.2706 19.4306 10.3487C19.6129 10.4268 19.8295 10.4659 20.0804 10.4659C20.2911 10.4659 20.4675 10.4399 20.6096 10.3878C20.7516 10.3357 20.8593 10.2635 20.9327 10.1712C21.0061 10.0788 21.044 9.97348 21.0463 9.85511C21.044 9.74384 21.0073 9.64678 20.9363 9.56392C20.8676 9.47869 20.754 9.40294 20.5953 9.33665C20.4367 9.26799 20.2225 9.20407 19.9526 9.14489L19.2282 8.98864C18.5842 8.84896 18.0764 8.61577 17.7047 8.28906C17.3354 7.95999 17.1519 7.51136 17.1543 6.94318C17.1519 6.48153 17.275 6.07789 17.5236 5.73224C17.7746 5.38423 18.1214 5.11316 18.5641 4.91903C19.0092 4.72491 19.5194 4.62784 20.0946 4.62784C20.6818 4.62784 21.1896 4.72609 21.6181 4.92259C22.0466 5.11908 22.3768 5.39607 22.6088 5.75355C22.8432 6.10866 22.9616 6.52415 22.964 7H21.0748ZM27.7349 7C27.716 6.76326 27.6272 6.5786 27.4686 6.44602C27.3123 6.31345 27.0744 6.24716 26.7548 6.24716C26.5512 6.24716 26.3843 6.27202 26.2541 6.32173C26.1262 6.36908 26.0315 6.43419 25.97 6.51705C25.9084 6.59991 25.8765 6.6946 25.8741 6.80114C25.8694 6.88873 25.8848 6.96804 25.9203 7.03906C25.9582 7.10772 26.0173 7.17045 26.0978 7.22727C26.1783 7.28172 26.2813 7.33144 26.4068 7.37642C26.5323 7.4214 26.6814 7.46165 26.8542 7.49716L27.4508 7.625C27.8533 7.71023 28.1977 7.82268 28.4842 7.96236C28.7707 8.10204 29.005 8.26657 29.1873 8.45597C29.3696 8.64299 29.5034 8.85369 29.5886 9.08807C29.6762 9.32244 29.7212 9.57812 29.7235 9.85511C29.7212 10.3333 29.6016 10.7382 29.3649 11.0696C29.1281 11.401 28.7896 11.6532 28.3493 11.826C27.9113 11.9988 27.3845 12.0852 26.769 12.0852C26.1369 12.0852 25.5853 11.9917 25.1142 11.8047C24.6454 11.6177 24.2808 11.33 24.0204 10.9418C23.7624 10.5511 23.6322 10.0516 23.6298 9.44318H25.5048C25.5166 9.66572 25.5723 9.85275 25.6717 10.0043C25.7711 10.1558 25.9108 10.2706 26.0907 10.3487C26.273 10.4268 26.4896 10.4659 26.7406 10.4659C26.9513 10.4659 27.1277 10.4399 27.2697 10.3878C27.4118 10.3357 27.5195 10.2635 27.5929 10.1712C27.6663 10.0788 27.7041 9.97348 27.7065 9.85511C27.7041 9.74384 27.6674 9.64678 27.5964 9.56392C27.5278 9.47869 27.4141 9.40294 27.2555 9.33665C27.0969 9.26799 26.8826 9.20407 26.6127 9.14489L25.8883 8.98864C25.2444 8.84896 24.7366 8.61577 24.3649 8.28906C23.9956 7.95999 23.8121 7.51136 23.8145 6.94318C23.8121 6.48153 23.9352 6.07789 24.1838 5.73224C24.4347 5.38423 24.7815 5.11316 25.2243 4.91903C25.6693 4.72491 26.1795 4.62784 26.7548 4.62784C27.3419 4.62784 27.8497 4.72609 28.2782 4.92259C28.7067 5.11908 29.037 5.39607 29.269 5.75355C29.5034 6.10866 29.6217 6.52415 29.6241 7H27.7349Z" fill="#0A0E29"/>
</g>
<defs>
<clipPath id="clip0_1474_9020">
<rect width="40" height="40" rx="8" fill="white"/>
</clipPath>
</defs>
</svg>
