<svg width="25" height="24" viewBox="0 0 25 24" fill="none" xmlns="http://www.w3.org/2000/svg">
<path d="M17.3297 2.45597C18.0712 2.59747 18.5108 2.75299 18.8907 3.22083C19.3664 3.80673 19.3412 4.43998 19.2909 5.70647C19.1102 10.2595 18.0898 16 12.3299 16C6.56993 16 5.54954 10.2595 5.36878 5.70647C5.3185 4.43998 5.29336 3.80673 5.76908 3.22083C6.24479 2.63494 6.81416 2.53887 7.95289 2.34674C9.07695 2.15709 10.5463 2 12.3299 2C13.0481 2 13.7154 2.02548 14.3297 2.06829" stroke="#9D9FB5" stroke-width="1.5" stroke-linecap="round"/>
<path d="M19.3297 5L20.2783 5.31621C21.2684 5.64623 21.7634 5.81124 22.0466 6.20408C22.3297 6.59692 22.3297 7.11873 22.3297 8.16234L22.3297 8.23487C22.3296 9.09561 22.3296 9.52598 22.1224 9.87809C21.9152 10.2302 21.539 10.4392 20.7866 10.8572L17.8297 12.5" stroke="#9D9FB5" stroke-width="1.5"/>
<path d="M5.32965 5L4.38103 5.31621C3.39097 5.64623 2.89595 5.81124 2.61281 6.20408C2.32967 6.59692 2.32968 7.11873 2.32971 8.16234L2.32971 8.23487C2.32974 9.09561 2.32975 9.52598 2.53694 9.87809C2.74413 10.2302 3.12034 10.4392 3.87276 10.8572L6.82965 12.5" stroke="#9D9FB5" stroke-width="1.5"/>
<path d="M12.3297 17V19" stroke="#9D9FB5" stroke-width="1.5" stroke-linecap="round"/>
<path d="M15.8297 22H8.82971L9.16894 20.3039C9.26242 19.8365 9.67283 19.5 10.1495 19.5H14.5099C14.9866 19.5 15.397 19.8365 15.4905 20.3039L15.8297 22Z" stroke="#9D9FB5" stroke-width="1.5" stroke-linecap="round" stroke-linejoin="round"/>
<path d="M18.3297 22H6.32971" stroke="#9D9FB5" stroke-width="1.5" stroke-linecap="round"/>
</svg>
