<svg width="25" height="24" viewBox="0 0 25 24" fill="none" xmlns="http://www.w3.org/2000/svg">
<path fill-rule="evenodd" clip-rule="evenodd" d="M2.32971 12V8C2.32971 5.17157 2.32971 3.75736 3.20839 2.87868C4.08707 2 5.50128 2 8.32971 2H16.3297C19.1581 2 20.5724 2 21.451 2.87868C22.3297 3.75736 22.3297 5.17157 22.3297 8V12C22.3297 14.8284 22.3297 16.2426 21.451 17.1213C20.9747 17.5977 20.341 17.8158 19.4099 17.9156C19.3359 17.8157 19.2659 17.737 19.2159 17.6821C19.0998 17.5544 18.9525 17.4092 18.8097 17.2684L17.3167 15.7962L16.7654 15.2377C16.403 13.1151 14.5552 11.5 12.3298 11.5C10.1043 11.5 8.25651 13.1151 7.89417 15.2377L7.34282 15.7962L5.84991 17.2683C5.7071 17.4091 5.5598 17.5543 5.44363 17.6821C5.39366 17.737 5.32361 17.8157 5.24961 17.9156C4.31848 17.8158 3.68474 17.5977 3.20839 17.1213C2.32971 16.2426 2.32971 14.8284 2.32971 12ZM9.32971 5.25C8.9155 5.25 8.57971 5.58579 8.57971 6C8.57971 6.41421 8.9155 6.75 9.32971 6.75H15.3297C15.7439 6.75 16.0797 6.41421 16.0797 6C16.0797 5.58579 15.7439 5.25 15.3297 5.25H9.32971ZM6.57971 9.5C6.57971 9.08579 6.9155 8.75 7.32971 8.75H17.3297C17.7439 8.75 18.0797 9.08579 18.0797 9.5C18.0797 9.91421 17.7439 10.25 17.3297 10.25H7.32971C6.9155 10.25 6.57971 9.91421 6.57971 9.5Z" fill="#9D9FB5"/>
<path d="M15.3297 16C15.3297 17.6569 13.9866 19 12.3297 19C10.6729 19 9.32971 17.6569 9.32971 16C9.32971 14.3431 10.6729 13 12.3297 13C13.9866 13 15.3297 14.3431 15.3297 16Z" fill="#9D9FB5"/>
<path d="M9.33083 15.9174C9.33009 15.9449 9.32971 15.9724 9.32971 16C9.32971 17.6569 10.6729 19 12.3297 19C13.9866 19 15.3297 17.6569 15.3297 16C15.3297 15.9724 15.3293 15.9449 15.3286 15.9174C15.2849 14.2987 13.959 13 12.3297 13C10.7764 13 9.49883 14.1805 9.3452 15.6933C9.33769 15.7672 9.33287 15.842 9.33083 15.9174Z" fill="#9D9FB5"/>
<path d="M8.00541 17.2494L6.92495 18.3148C6.60087 18.6344 6.43884 18.7942 6.38277 18.9295C6.255 19.2378 6.36434 19.5799 6.64254 19.7421C6.76463 19.8132 6.98483 19.8354 7.42525 19.8798C7.67391 19.9048 7.79824 19.9173 7.90237 19.9554C8.13551 20.0405 8.31686 20.2193 8.40316 20.4492C8.44171 20.5519 8.45441 20.6745 8.47981 20.9197C8.5248 21.354 8.54729 21.5711 8.61948 21.6915C8.78396 21.9659 9.13082 22.0737 9.44351 21.9477C9.58073 21.8924 9.74277 21.7326 10.0668 21.413L11.1473 20.343C9.63477 19.9322 8.43888 18.7524 8.00541 17.2494Z" fill="#9D9FB5"/>
<path d="M13.5122 20.343L14.5926 21.413C14.9167 21.7326 15.0787 21.8924 15.2159 21.9477C15.5286 22.0737 15.8755 21.9659 16.0399 21.6915C16.1121 21.5711 16.1346 21.354 16.1796 20.9197C16.205 20.6745 16.2177 20.5519 16.2563 20.4492C16.3426 20.2193 16.5239 20.0405 16.757 19.9554C16.8612 19.9173 16.9855 19.9048 17.2342 19.8798C17.6746 19.8354 17.8948 19.8132 18.0169 19.7421C18.2951 19.5799 18.4044 19.2378 18.2767 18.9295C18.2206 18.7942 18.0585 18.6344 17.7345 18.3148L16.654 17.2494C16.2205 18.7524 15.0247 19.9322 13.5122 20.343Z" fill="#9D9FB5"/>
</svg>
