<svg width="12" height="8" viewBox="0 0 12 8" fill="none" xmlns="http://www.w3.org/2000/svg">
<path d="M10.5138 1.01333C9.68809 0.373324 8.69726 0.0533372 7.65139 0L7.48624 0.160012C8.42201 0.373324 9.24772 0.799986 10.0183 1.38666C9.08257 0.90666 8.0367 0.586673 6.93577 0.479999C6.60551 0.426661 6.33026 0.426661 6 0.426661C5.66974 0.426661 5.39449 0.426661 5.06423 0.479999C3.9633 0.586673 2.91742 0.90666 1.98165 1.38666C2.75228 0.799986 3.57799 0.373324 4.51376 0.160012L4.34861 0C3.30274 0.0533372 2.31191 0.373324 1.48624 1.01333C0.550459 2.72002 0.0550462 4.64001 0 6.6133C0.825675 7.46666 1.98165 8 3.19267 8C3.19267 8 3.57799 7.57334 3.8532 7.19998C3.13762 7.04 2.47706 6.66664 2.0367 6.08001C2.42201 6.29332 2.80732 6.50667 3.19267 6.66664C3.68809 6.87999 4.1835 6.98667 4.67891 7.09334C5.11928 7.14664 5.55964 7.19998 6 7.19998C6.44036 7.19998 6.88072 7.14664 7.32109 7.09334C7.8165 6.98667 8.31191 6.87999 8.80733 6.66664C9.19268 6.50667 9.57799 6.29332 9.9633 6.08001C9.52294 6.66664 8.86238 7.04 8.1468 7.19998C8.42201 7.57334 8.80733 8 8.80733 8C10.0184 8 11.1743 7.46666 12 6.6133C11.945 4.64001 11.4495 2.72002 10.5138 1.01333ZM4.1835 5.65331C3.63304 5.65331 3.13763 5.17331 3.13763 4.58667C3.13763 4 3.63304 3.52 4.1835 3.52C4.73396 3.52 5.22937 4 5.22937 4.58667C5.22937 5.17331 4.73396 5.65331 4.1835 5.65331ZM7.8165 5.65331C7.26604 5.65331 6.77063 5.17331 6.77063 4.58667C6.77063 4 7.26604 3.52 7.8165 3.52C8.36696 3.52 8.86237 4 8.86237 4.58667C8.86237 5.17331 8.36696 5.65331 7.8165 5.65331Z" fill="#3653F2"/>
</svg>
