<svg width="24" height="24" viewBox="0 0 24 24" fill="none" xmlns="http://www.w3.org/2000/svg">
<path d="M17.4165 8.41522C16.4257 7.64721 15.2367 7.26322 13.9817 7.19922L13.7835 7.39123C14.9064 7.64721 15.8973 8.1592 16.822 8.86321C15.6991 8.28721 14.444 7.90323 13.1229 7.77522C12.7266 7.71121 12.3963 7.71121 12 7.71121C11.6037 7.71121 11.2734 7.71121 10.8771 7.77522C9.55595 7.90323 8.3009 8.28721 7.17797 8.86321C8.10272 8.1592 9.09357 7.64721 10.2165 7.39123L10.0183 7.19922C8.76327 7.26322 7.57428 7.64721 6.58347 8.41522C5.46054 10.4632 4.86604 12.7672 4.79999 15.1352C5.7908 16.1592 7.17797 16.7992 8.6312 16.7992C8.6312 16.7992 9.09357 16.2872 9.42383 15.8392C8.56514 15.6472 7.77246 15.1992 7.24403 14.4952C7.7064 14.7512 8.16878 15.0072 8.6312 15.1992C9.22569 15.4552 9.82019 15.5832 10.4147 15.7112C10.9431 15.7752 11.4716 15.8392 12 15.8392C12.5284 15.8392 13.0569 15.7752 13.5853 15.7112C14.1798 15.5832 14.7743 15.4552 15.3688 15.1992C15.8312 15.0072 16.2936 14.7512 16.7559 14.4952C16.2275 15.1992 15.4348 15.6472 14.5761 15.8392C14.9064 16.2872 15.3688 16.7992 15.3688 16.7992C16.822 16.7992 18.2092 16.1592 19.2 15.1352C19.1339 12.7672 18.5394 10.4632 17.4165 8.41522ZM9.82019 13.9832C9.15963 13.9832 8.56514 13.4072 8.56514 12.7032C8.56514 11.9992 9.15963 11.4232 9.82019 11.4232C10.4807 11.4232 11.0752 11.9992 11.0752 12.7032C11.0752 13.4072 10.4807 13.9832 9.82019 13.9832ZM14.1798 13.9832C13.5192 13.9832 12.9247 13.4072 12.9247 12.7032C12.9247 11.9992 13.5192 11.4232 14.1798 11.4232C14.8403 11.4232 15.4348 11.9992 15.4348 12.7032C15.4348 13.4072 14.8403 13.9832 14.1798 13.9832Z" fill="#3653F2"/>
</svg>
