<svg width="20" height="20" viewBox="0 0 20 20" fill="none" xmlns="http://www.w3.org/2000/svg">
<path d="M14.5138 7.01333C13.6881 6.37332 12.6973 6.05334 11.6514 6L11.4862 6.16001C12.422 6.37332 13.2477 6.79999 14.0183 7.38666C13.0826 6.90666 12.0367 6.58667 10.9358 6.48C10.6055 6.42666 10.3303 6.42666 10 6.42666C9.66974 6.42666 9.39449 6.42666 9.06423 6.48C7.9633 6.58667 6.91742 6.90666 5.98165 7.38666C6.75228 6.79999 7.57799 6.37332 8.51376 6.16001L8.34861 6C7.30274 6.05334 6.31191 6.37332 5.48624 7.01333C4.55046 8.72002 4.05505 10.64 4 12.6133C4.82568 13.4667 5.98165 14 7.19267 14C7.19267 14 7.57799 13.5733 7.8532 13.2C7.13762 13.04 6.47706 12.6666 6.0367 12.08C6.42201 12.2933 6.80732 12.5067 7.19267 12.6666C7.68809 12.88 8.1835 12.9867 8.67891 13.0933C9.11928 13.1466 9.55964 13.2 10 13.2C10.4404 13.2 10.8807 13.1466 11.3211 13.0933C11.8165 12.9867 12.3119 12.88 12.8073 12.6666C13.1927 12.5067 13.578 12.2933 13.9633 12.08C13.5229 12.6666 12.8624 13.04 12.1468 13.2C12.422 13.5733 12.8073 14 12.8073 14C14.0184 14 15.1743 13.4667 16 12.6133C15.945 10.64 15.4495 8.72002 14.5138 7.01333ZM8.1835 11.6533C7.63304 11.6533 7.13763 11.1733 7.13763 10.5867C7.13763 10 7.63304 9.52 8.1835 9.52C8.73396 9.52 9.22937 10 9.22937 10.5867C9.22937 11.1733 8.73396 11.6533 8.1835 11.6533ZM11.8165 11.6533C11.266 11.6533 10.7706 11.1733 10.7706 10.5867C10.7706 10 11.266 9.52 11.8165 9.52C12.367 9.52 12.8624 10 12.8624 10.5867C12.8624 11.1733 12.367 11.6533 11.8165 11.6533Z" fill="#3653F2"/>
</svg>
