<svg width="10" height="10" viewBox="0 0 10 10" fill="none" xmlns="http://www.w3.org/2000/svg">
<path d="M5 0C2.24 0 0 2.24 0 5C0 7.76 2.24 10 5 10C7.75 10 10 7.76 10 5C10 2.24 7.75 0 5 0ZM8.3 2.3C8.9 3.03 9.25 3.95 9.27 4.96C9.13 4.93 7.72 4.65 6.3 4.82C6.27 4.75 6.24 4.67 6.21 4.6C6.12 4.39 6.03 4.18 5.93 3.98C7.49 3.35 8.21 2.42 8.3 2.3ZM5 0.74C6.08 0.74 7.08 1.15 7.83 1.81C7.75 1.92 7.11 2.78 5.59 3.35C4.89 2.06 4.11 1.01 4 0.85C4.32 0.78 4.65 0.74 5 0.74ZM3.18 1.14C3.29 1.29 4.05 2.35 4.76 3.61C2.76 4.14 1 4.13 0.81 4.13C1.1 2.8 1.99 1.7 3.18 1.14ZM0.73 5.01C0.73 4.97 0.73 4.92 0.73 4.88C0.91 4.89 2.99 4.91 5.12 4.27C5.24 4.51 5.36 4.75 5.47 5C5.42 5.02 5.36 5.03 5.3 5.05C3.1 5.76 1.93 7.7 1.83 7.86C1.14 7.1 0.73 6.1 0.73 5.01ZM5 9.27C4.01 9.27 3.1 8.93 2.38 8.37C2.46 8.21 3.32 6.54 5.73 5.7C5.74 5.69 5.75 5.69 5.76 5.69C6.36 7.25 6.61 8.55 6.67 8.93C6.16 9.15 5.59 9.27 5 9.27ZM7.38 8.54C7.34 8.28 7.11 7.03 6.55 5.5C7.89 5.29 9.06 5.64 9.21 5.68C9.02 6.87 8.34 7.9 7.38 8.54Z" fill="#3653F2"/>
</svg>
