<svg width="20" height="20" viewBox="0 0 20 20" fill="none" xmlns="http://www.w3.org/2000/svg">
<path d="M10 5C7.24 5 5 7.24 5 10C5 12.76 7.24 15 10 15C12.75 15 15 12.76 15 10C15 7.24 12.75 5 10 5ZM13.3 7.3C13.9 8.03 14.25 8.95 14.27 9.96C14.13 9.93 12.72 9.65 11.3 9.82C11.27 9.75 11.24 9.67 11.21 9.6C11.12 9.39 11.03 9.18 10.93 8.98C12.49 8.35 13.21 7.42 13.3 7.3ZM10 5.74C11.08 5.74 12.08 6.15 12.83 6.81C12.75 6.92 12.11 7.78 10.59 8.35C9.89 7.06 9.11 6.01 9 5.85C9.32 5.78 9.65 5.74 10 5.74ZM8.18 6.14C8.29 6.29 9.05 7.35 9.76 8.61C7.76 9.14 6 9.13 5.81 9.13C6.1 7.8 6.99 6.7 8.18 6.14ZM5.73 10.01C5.73 9.97 5.73 9.92 5.73 9.88C5.91 9.89 7.99 9.91 10.12 9.27C10.24 9.51 10.36 9.75 10.47 10C10.42 10.02 10.36 10.03 10.3 10.05C8.1 10.76 6.93 12.7 6.83 12.86C6.14 12.1 5.73 11.1 5.73 10.01ZM10 14.27C9.01 14.27 8.1 13.93 7.38 13.37C7.46 13.21 8.32 11.54 10.73 10.7C10.74 10.69 10.75 10.69 10.76 10.69C11.36 12.25 11.61 13.55 11.67 13.93C11.16 14.15 10.59 14.27 10 14.27ZM12.38 13.54C12.34 13.28 12.11 12.03 11.55 10.5C12.89 10.29 14.06 10.64 14.21 10.68C14.02 11.87 13.34 12.9 12.38 13.54Z" fill="#3653F2"/>
</svg>
