<svg width="25" height="24" viewBox="0 0 25 24" fill="none" xmlns="http://www.w3.org/2000/svg">
<path d="M13.3297 2.5V5C13.3297 7.35702 13.3297 8.53553 14.0619 9.26777C14.7942 10 15.9727 10 18.3297 10H22.3297" stroke-width="1.5"/>
<ellipse cx="17.3297" cy="14.5" rx="1" ry="1.5"/>
<path d="M9.32971 17.5C11.1464 18.7111 13.5131 18.7111 15.3297 17.5" stroke-width="1.5" stroke-linecap="round" stroke-linejoin="round"/>
<ellipse cx="7.32971" cy="14.5" rx="1" ry="1.5"/>
<path d="M3.07971 10C3.07971 9.58579 2.74393 9.25 2.32971 9.25C1.9155 9.25 1.57971 9.58579 1.57971 10H3.07971ZM21.5797 14C21.5797 14.4142 21.9155 14.75 22.3297 14.75C22.7439 14.75 23.0797 14.4142 23.0797 14H21.5797ZM15.7227 4.05365L15.2209 4.61112L15.7227 4.05365ZM19.6814 7.61654L19.1797 8.17402L19.6814 7.61654ZM21.9837 10.1541L21.2986 10.4592V10.4592L21.9837 10.1541ZM3.50128 20.8284L4.03162 20.2981H4.03161L3.50128 20.8284ZM21.1581 20.8284L20.6278 20.2981L20.6278 20.2981L21.1581 20.8284ZM1.68481 5.92658C1.64426 6.33881 1.94556 6.70585 2.35779 6.7464C2.77001 6.78695 3.13705 6.48564 3.1776 6.07342L1.68481 5.92658ZM22.9746 18.0734C23.0152 17.6612 22.7139 17.2941 22.3016 17.2536C21.8894 17.2131 21.5224 17.5144 21.4818 17.9266L22.9746 18.0734ZM14.3297 21.25H10.3297V22.75H14.3297V21.25ZM3.07971 14V10H1.57971V14H3.07971ZM21.5797 13.5629V14H23.0797V13.5629H21.5797ZM15.2209 4.61112L19.1797 8.17402L20.1832 7.05907L16.2244 3.49618L15.2209 4.61112ZM23.0797 13.5629C23.0797 11.8745 23.0949 10.8055 22.6688 9.84897L21.2986 10.4592C21.5646 11.0565 21.5797 11.742 21.5797 13.5629H23.0797ZM19.1797 8.17402C20.5331 9.3921 21.0326 9.86199 21.2986 10.4592L22.6688 9.84897C22.2428 8.89241 21.4381 8.18853 20.1832 7.05907L19.1797 8.17402ZM10.3595 2.75C11.9413 2.75 12.5382 2.76158 13.0702 2.96573L13.6076 1.5653C12.7558 1.23842 11.8277 1.25 10.3595 1.25V2.75ZM16.2244 3.49618C15.1384 2.51878 14.4594 1.89214 13.6076 1.5653L13.0702 2.96573C13.6024 3.16993 14.0512 3.55836 15.2209 4.61112L16.2244 3.49618ZM10.3297 21.25C8.42289 21.25 7.06822 21.2484 6.04056 21.1102C5.03447 20.975 4.45482 20.7213 4.03162 20.2981L2.97095 21.3588C3.71932 22.1071 4.66827 22.4392 5.84069 22.5969C6.99154 22.7516 8.4653 22.75 10.3297 22.75V21.25ZM1.57971 14C1.57971 15.8644 1.57812 17.3382 1.73285 18.489C1.89047 19.6614 2.22259 20.6104 2.97096 21.3588L4.03161 20.2981C3.60841 19.8749 3.35474 19.2952 3.21947 18.2892C3.0813 17.2615 3.07971 15.9068 3.07971 14H1.57971ZM14.3297 22.75C16.1941 22.75 17.6679 22.7516 18.8187 22.5969C19.9912 22.4392 20.9401 22.1071 21.6885 21.3588L20.6278 20.2981C20.2046 20.7213 19.625 20.975 18.6189 21.1102C17.5912 21.2484 16.2365 21.25 14.3297 21.25V22.75ZM10.3595 1.25C8.48509 1.25 7.00413 1.24842 5.84858 1.40307C4.67203 1.56054 3.7199 1.8923 2.97095 2.64124L4.03161 3.7019C4.45424 3.27928 5.03567 3.02525 6.04756 2.88982C7.08046 2.75158 8.44282 2.75 10.3595 2.75V1.25ZM3.1776 6.07342C3.29902 4.83905 3.56016 4.17335 4.03161 3.7019L2.97095 2.64124C2.13604 3.47616 1.81916 4.56072 1.68481 5.92658L3.1776 6.07342ZM21.4818 17.9266C21.3604 19.1609 21.0993 19.8266 20.6278 20.2981L21.6885 21.3588C22.5234 20.5238 22.8403 19.4393 22.9746 18.0734L21.4818 17.9266Z"/>
</svg>
