<svg width="24" height="24" viewBox="0 0 24 24" fill="none" xmlns="http://www.w3.org/2000/svg">
<g clip-path="url(#clip0_274_11549)">
<path d="M11.1099 22.9981C10.994 22.998 10.8789 22.9777 10.7699 22.9381C10.5597 22.8612 10.3813 22.7158 10.2635 22.5255C10.1456 22.3351 10.0951 22.1107 10.1199 21.8881L10.8899 14.7981H4.99992C4.81825 14.7984 4.63994 14.7492 4.48414 14.6558C4.32833 14.5623 4.20092 14.4282 4.11559 14.2679C4.03026 14.1075 3.99023 13.9269 3.9998 13.7455C4.00937 13.564 4.06819 13.3887 4.16992 13.2381L12.0599 1.43814C12.1847 1.25348 12.3676 1.1158 12.5796 1.04695C12.7915 0.978108 13.0204 0.982046 13.2299 1.05814C13.4313 1.13291 13.6033 1.27053 13.7203 1.45063C13.8374 1.63074 13.8934 1.84375 13.8799 2.05814L13.1099 9.19814H18.9999C19.1816 9.19787 19.3599 9.24709 19.5157 9.34052C19.6715 9.43395 19.7989 9.56805 19.8843 9.72844C19.9696 9.88882 20.0096 10.0694 20 10.2508C19.9905 10.4323 19.9317 10.6076 19.8299 10.7581L11.9399 22.5581C11.8482 22.6939 11.7245 22.805 11.5798 22.8817C11.4351 22.9584 11.2737 22.9984 11.1099 22.9981ZM6.86992 12.7981H11.9999C12.1395 12.7985 12.2774 12.828 12.4048 12.8848C12.5323 12.9417 12.6464 13.0246 12.7399 13.1281C12.8343 13.2331 12.9054 13.3569 12.9484 13.4914C12.9915 13.6258 13.0057 13.7678 12.9899 13.9081L12.5399 18.0581L17.1299 11.1981H11.9999C11.8588 11.199 11.7191 11.17 11.59 11.113C11.4609 11.056 11.3453 10.9723 11.2509 10.8675C11.1564 10.7627 11.0852 10.639 11.042 10.5047C10.9987 10.3704 10.9844 10.2284 10.9999 10.0881L11.4499 5.93814L6.86992 12.7981Z" fill="#0A0E29"/>
</g>
<defs>
<clipPath id="clip0_274_11549">
<rect width="24" height="24" fill="white"/>
</clipPath>
</defs>
</svg>
