<svg viewBox="0 0 96 96" fill="none" xmlns="http://www.w3.org/2000/svg">
<g clip-path="url(#clip0_16_35)">
<path d="M18.3799 38.4109C18.1103 39.1133 18.3875 39.9138 19.0371 40.2952L23.6323 42.9945C23.3353 44.488 23.1877 45.9855 23.1704 47.4745L18.1077 49.1692C17.3924 49.4065 16.9526 50.1285 17.0724 50.8747L17.6303 54.3786C17.7472 55.1237 18.3857 55.6751 19.1371 55.6795L24.4612 55.7236C24.947 57.15 25.5622 58.5317 26.2972 59.8471L22.7674 63.8333C22.2679 64.3945 22.2504 65.238 22.7259 65.8235L24.9565 68.5826C25.4308 69.171 26.2616 69.3273 26.9167 68.9545L31.5637 66.3261C32.6818 67.3096 33.8934 68.2019 35.2021 68.9806L34.1332 74.2017C33.9849 74.9407 34.3885 75.6801 35.0938 75.9508L38.4109 77.2241C39.1132 77.4938 39.9137 77.2165 40.2951 76.567L42.9944 71.9718C44.4879 72.2688 45.9854 72.4164 47.4744 72.4337L49.1691 77.4964C49.4065 78.2117 50.1295 78.6486 50.8746 78.5317L54.3786 77.9738C55.1236 77.8569 55.675 77.2183 55.6794 76.467L55.7235 71.1428C57.1499 70.657 58.5316 70.0419 59.847 69.3069L63.8332 72.8367C64.3973 73.3373 65.239 73.3508 65.8234 72.8782L68.5825 70.6476C69.168 70.1721 69.3243 69.3413 68.9544 68.6874L66.3239 64.046C67.3088 62.9267 68.2009 61.7123 68.9805 60.402L74.2016 61.4709C74.9406 61.6191 75.68 61.2155 75.9507 60.5103L77.224 57.1932C77.4937 56.4909 77.2164 55.6904 76.5669 55.309L71.9717 52.6097C72.2687 51.1161 72.4163 49.6187 72.4336 48.1297L77.4963 46.435C78.2116 46.1976 78.6485 45.4745 78.5316 44.7295L77.9737 41.2255C77.8568 40.4805 77.2182 39.9291 76.4669 39.9247L71.1427 39.8806C70.657 38.4542 70.0418 37.0725 69.3068 35.757L72.8366 31.7709C73.3372 31.2068 73.3507 30.3651 72.8781 29.7807L70.6475 27.0215C70.172 26.4361 69.3412 26.2798 68.6873 26.6497L64.0459 29.2802C62.9266 28.2953 61.7123 27.4032 60.4019 26.6236L61.4708 21.4025C61.619 20.6635 61.2154 19.9241 60.5102 19.6533L57.1931 18.38C56.4908 18.1104 55.6903 18.3876 55.3089 19.0372L52.6096 23.6324C51.116 23.3354 49.6186 23.1878 48.1296 23.1705L46.4349 18.1078C46.1975 17.3925 45.4744 16.9556 44.7294 17.0725L41.2254 17.6304C40.4804 17.7473 39.929 18.3858 39.9246 19.1372L39.8805 24.4613C38.4541 24.9471 37.0724 25.5623 35.7569 26.2973L31.7708 22.7675C31.2067 22.2669 30.365 22.2534 29.7806 22.726L27.0214 24.9566C26.436 25.432 26.2797 26.2628 26.6496 26.9167L29.2801 31.5582C28.2951 32.6774 27.4031 33.8918 26.6235 35.2022L21.4024 34.1333C20.6634 33.985 19.924 34.3886 19.6532 35.0939L18.3799 38.4109Z" fill="#3653F2"/>
<circle cx="47.8021" cy="47.8021" r="17.4528" transform="rotate(-69 47.8021 47.8021)" fill="#F6F8FC"/>
<path d="M29.834 44.4627C28.0551 53.1748 32.7327 62.0889 41.3218 65.3859C43.4433 66.2003 45.6163 66.5779 47.7562 66.6045M32.044 38.7056C36.5515 31.0409 45.9923 27.5464 54.5814 30.8435C56.7054 31.6588 58.5726 32.8367 60.1819 34.2512M64.0802 39.018C66.6944 43.6496 67.2876 49.3656 65.2229 54.7445C63.1581 60.1234 58.8925 63.9743 53.8506 65.667" stroke="#F8F8F8" stroke-width="0.7"/>
</g>
<defs>
<clipPath id="clip0_16_35">
<rect width="74" height="74" fill="white" transform="translate(0 69.085) rotate(-69)"/>
</clipPath>
</defs>
</svg>
