<svg width="84" height="84" viewBox="0 0 84 84" fill="none" xmlns="http://www.w3.org/2000/svg">
<path d="M39.9834 7C39.1294 7 38.3939 7.61939 38.2539 8.46289L37.2627 14.4307C35.5591 14.7235 33.9121 15.1763 32.3271 15.7637L28.4717 11.0879C27.9292 10.4264 26.9852 10.2541 26.2432 10.6846L22.7568 12.7012C22.0148 13.1282 21.6902 14.0291 21.9912 14.8271L24.1104 20.4873C22.7963 21.5824 21.5824 22.7963 20.4873 24.1104L14.8271 21.9912C14.0291 21.6902 13.1282 22.0148 12.7012 22.7568L10.6846 26.2432C10.2541 26.9852 10.4264 27.9292 11.0879 28.4717L15.7637 32.3271C15.1763 33.9121 14.7235 35.5591 14.4307 37.2627L8.46289 38.2539C7.61939 38.3974 7 39.1259 7 39.9834V44.0166C7 44.8706 7.61939 45.6061 8.46289 45.7461L14.4307 46.7373C14.7235 48.4409 15.1763 50.0879 15.7637 51.6729L11.0879 55.5283C10.4264 56.0708 10.2576 57.0148 10.6846 57.7568L12.7012 61.2432C13.1282 61.9852 14.0291 62.3098 14.8271 62.0088L20.4873 59.8896C21.5824 61.2037 22.7963 62.4176 24.1104 63.5127L21.9912 69.1729C21.6902 69.9744 22.0183 70.8718 22.7568 71.2988L26.2432 73.3154C26.9852 73.7424 27.9292 73.5701 28.4717 72.9121L32.3203 68.2363C33.9071 68.8248 35.5569 69.2761 37.2627 69.5693L38.2539 75.5371C38.3974 76.3806 39.1259 77 39.9834 77H44.0166C44.8706 77 45.6061 76.3806 45.7461 75.5371L46.7373 69.5693C48.4409 69.2765 50.0879 68.8237 51.6729 68.2363L55.5283 72.9121C56.0708 73.5736 57.0148 73.7424 57.7568 73.3154L61.2432 71.2988C61.9852 70.8718 62.3098 69.9709 62.0088 69.1729L59.8896 63.5127C61.2037 62.4176 62.4176 61.2037 63.5127 59.8896L69.1729 62.0088C69.9744 62.3098 70.8718 61.9817 71.2988 61.2432L73.3154 57.7568C73.7424 57.0148 73.5701 56.0708 72.9121 55.5283L68.2363 51.6797C68.8248 50.0929 69.2761 48.4431 69.5693 46.7373L75.5371 45.7461C76.3806 45.6026 77 44.8741 77 44.0166V39.9834C77 39.1294 76.3806 38.3939 75.5371 38.2539L69.5693 37.2627C69.2765 35.5591 68.8237 33.9121 68.2363 32.3271L72.9121 28.4717C73.5736 27.9292 73.7424 26.9852 73.3154 26.2432L71.2988 22.7568C70.8718 22.0148 69.9709 21.6902 69.1729 21.9912L63.5127 24.1104C62.4176 22.7963 61.2037 21.5824 59.8896 20.4873L62.0088 14.8271C62.3098 14.0256 61.9817 13.1282 61.2432 12.7012L57.7568 10.6846C57.0148 10.2576 56.0708 10.4299 55.5283 11.0879L51.6797 15.7637C50.0929 15.1752 48.4431 14.7239 46.7373 14.4307L45.7461 8.46289C45.6026 7.61939 44.8741 7 44.0166 7H39.9834Z" fill="#9D9FB5"/>
<circle cx="42" cy="42" r="19.3113" fill="#0A0E29" stroke="#F8F8F8" stroke-dasharray="2 2"/>
</svg>
