<svg width="24" height="24" viewBox="0 0 24 24" fill="none" xmlns="http://www.w3.org/2000/svg">
<path fill-rule="evenodd" clip-rule="evenodd" d="M11.9817 6.14258C8.6789 6.14258 6 8.82148 6 12.1242C6 14.7664 7.72477 17.005 10.0734 17.8123C10.367 17.849 10.4771 17.6655 10.4771 17.5187C10.4771 17.3719 10.4771 17.005 10.4771 16.4912C8.82569 16.8582 8.45872 15.6839 8.45872 15.6839C8.20183 14.9866 7.79817 14.8031 7.79817 14.8031C7.24771 14.4362 7.83486 14.4362 7.83486 14.4362C8.42202 14.4729 8.75229 15.06 8.75229 15.06C9.30275 15.9774 10.1468 15.7206 10.4771 15.5738C10.5138 15.1701 10.6972 14.9132 10.844 14.7664C9.52294 14.6196 8.12844 14.1059 8.12844 11.794C8.12844 11.1334 8.34862 10.6196 8.75229 10.1793C8.7156 10.0692 8.49541 9.44533 8.82569 8.63799C8.82569 8.63799 9.33945 8.4912 10.4771 9.26184C10.9541 9.11506 11.4679 9.07836 11.9817 9.07836C12.4954 9.07836 13.0092 9.15175 13.4862 9.26184C14.6239 8.4912 15.1376 8.63799 15.1376 8.63799C15.4679 9.44533 15.2477 10.0692 15.211 10.216C15.578 10.6196 15.8349 11.1701 15.8349 11.8307C15.8349 14.1426 14.4404 14.6196 13.1193 14.7664C13.3394 14.9499 13.5229 15.3169 13.5229 15.8673C13.5229 16.6747 13.5229 17.2985 13.5229 17.5187C13.5229 17.6655 13.633 17.849 13.9266 17.8123C16.3119 17.005 18 14.7664 18 12.1242C17.9633 8.82148 15.2844 6.14258 11.9817 6.14258Z" fill="#3653F2"/>
</svg>
