<svg width="20" height="20" viewBox="0 0 20 20" fill="none" xmlns="http://www.w3.org/2000/svg">
<path fill-rule="evenodd" clip-rule="evenodd" d="M9.98471 5.11914C7.23242 5.11914 5 7.35156 5 10.1039C5 12.3057 6.43731 14.1711 8.3945 14.8439C8.63914 14.8745 8.73089 14.7216 8.73089 14.5993C8.73089 14.4769 8.73089 14.1711 8.73089 13.743C7.35474 14.0488 7.04893 13.0702 7.04893 13.0702C6.83486 12.4892 6.49847 12.3363 6.49847 12.3363C6.03976 12.0305 6.52905 12.0305 6.52905 12.0305C7.01835 12.061 7.29358 12.5503 7.29358 12.5503C7.75229 13.3149 8.45566 13.1008 8.73089 12.9785C8.76147 12.6421 8.91437 12.428 9.0367 12.3057C7.93578 12.1834 6.7737 11.7552 6.7737 9.82862C6.7737 9.27816 6.95719 8.85003 7.29358 8.48306C7.263 8.39131 7.07951 7.87143 7.35474 7.19865C7.35474 7.19865 7.78287 7.07633 8.73089 7.71853C9.12844 7.59621 9.55657 7.56562 9.98471 7.56562C10.4128 7.56562 10.841 7.62679 11.2385 7.71853C12.1865 7.07633 12.6147 7.19865 12.6147 7.19865C12.8899 7.87143 12.7064 8.39131 12.6758 8.51364C12.9817 8.85003 13.1957 9.30874 13.1957 9.8592C13.1957 11.7858 12.0336 12.1834 10.9327 12.3057C11.1162 12.4586 11.2691 12.7644 11.2691 13.2231C11.2691 13.8959 11.2691 14.4158 11.2691 14.5993C11.2691 14.7216 11.3609 14.8745 11.6055 14.8439C13.5933 14.1711 15 12.3057 15 10.1039C14.9694 7.35156 12.737 5.11914 9.98471 5.11914Z" fill="#3653F2"/>
</svg>
