<svg width="10" height="10" viewBox="0 0 10 10" fill="none" xmlns="http://www.w3.org/2000/svg">
<path fill-rule="evenodd" clip-rule="evenodd" d="M4.98471 0.119141C2.23242 0.119141 0 2.35156 0 5.10385C0 7.30569 1.43731 9.17113 3.3945 9.84391C3.63914 9.87449 3.73089 9.72159 3.73089 9.59926C3.73089 9.47694 3.73089 9.17113 3.73089 8.74299C2.35474 9.04881 2.04893 8.07021 2.04893 8.07021C1.83486 7.48917 1.49847 7.33627 1.49847 7.33627C1.03976 7.03046 1.52905 7.03046 1.52905 7.03046C2.01835 7.06104 2.29358 7.55033 2.29358 7.55033C2.75229 8.31486 3.45566 8.10079 3.73089 7.97847C3.76147 7.64208 3.91437 7.42801 4.0367 7.30569C2.93578 7.18336 1.7737 6.75523 1.7737 4.82862C1.7737 4.27816 1.95719 3.85003 2.29358 3.48306C2.263 3.39131 2.07951 2.87143 2.35474 2.19865C2.35474 2.19865 2.78287 2.07633 3.73089 2.71853C4.12844 2.59621 4.55657 2.56562 4.98471 2.56562C5.41284 2.56562 5.84098 2.62679 6.23853 2.71853C7.18654 2.07633 7.61468 2.19865 7.61468 2.19865C7.88991 2.87143 7.70642 3.39131 7.67584 3.51364C7.98165 3.85003 8.19572 4.30874 8.19572 4.8592C8.19572 6.78581 7.03364 7.18336 5.93272 7.30569C6.11621 7.45859 6.26911 7.7644 6.26911 8.22312C6.26911 8.8959 6.26911 9.41578 6.26911 9.59926C6.26911 9.72159 6.36086 9.87449 6.6055 9.84391C8.59327 9.17113 10 7.30569 10 5.10385C9.96942 2.35156 7.737 0.119141 4.98471 0.119141Z" fill="#3653F2"/>
</svg>
