<svg width="24" height="24" viewBox="0 0 24 24" fill="none" xmlns="http://www.w3.org/2000/svg">
<g clip-path="url(#clip0_1016_4767)">
<path d="M23.0935 9.91453L13.3042 9.91406C12.8719 9.91406 12.5215 10.2644 12.5215 10.6967V13.824C12.5215 14.2561 12.8719 14.6066 13.3041 14.6066H18.8169C18.2132 16.1732 17.0865 17.4852 15.6491 18.3188L17.9997 22.388C21.7704 20.2072 23.9997 16.3808 23.9997 12.0975C23.9997 11.4876 23.9548 11.0516 23.8649 10.5607C23.7965 10.1877 23.4727 9.91453 23.0935 9.91453Z" fill="#167EE6"/>
<path d="M12.0003 19.3037C9.30242 19.3037 6.94723 17.8297 5.68231 15.6484L1.61328 17.9938C3.68398 21.5826 7.56308 23.9994 12.0003 23.9994C14.177 23.9994 16.2309 23.4133 18.0003 22.3919V22.3863L15.6496 18.3171C14.5744 18.9408 13.3302 19.3037 12.0003 19.3037Z" fill="#12B347"/>
<path d="M18 22.3912V22.3856L15.6494 18.3164C14.5741 18.94 13.33 19.303 12 19.303V23.9986C14.1767 23.9986 16.2308 23.4126 18 22.3912Z" fill="#0F993E"/>
<path d="M4.69566 11.9983C4.69566 10.6685 5.05856 9.42442 5.68205 8.34925L1.61302 6.00391C0.586031 7.76767 0 9.81602 0 11.9983C0 14.1806 0.586031 16.229 1.61302 17.9928L5.68205 15.6474C5.05856 14.5722 4.69566 13.3281 4.69566 11.9983Z" fill="#FFD500"/>
<path d="M12.0003 4.69566C13.7595 4.69566 15.3755 5.32078 16.6377 6.36061C16.9491 6.61711 17.4017 6.59859 17.6869 6.31336L19.9027 4.09758C20.2263 3.77395 20.2033 3.24422 19.8575 2.94431C17.7428 1.10967 14.9912 0 12.0003 0C7.56308 0 3.68398 2.41673 1.61328 6.00558L5.68231 8.35092C6.94723 6.16969 9.30242 4.69566 12.0003 4.69566Z" fill="#FF4B26"/>
<path d="M16.6374 6.36061C16.9488 6.61711 17.4015 6.59859 17.6866 6.31336L19.9024 4.09758C20.226 3.77395 20.2029 3.24422 19.8573 2.94431C17.7425 1.10963 14.991 0 12 0V4.69566C13.7592 4.69566 15.3752 5.32078 16.6374 6.36061Z" fill="#D93F21"/>
</g>
<defs>
<clipPath id="clip0_1016_4767">
<rect width="24" height="24" fill="white"/>
</clipPath>
</defs>
</svg>
