<svg width="24" height="24" viewBox="0 0 24 24" fill="none" xmlns="http://www.w3.org/2000/svg">
<g clip-path="url(#clip0_274_11854)">
<path d="M9 3H5C4.46957 3 3.96086 3.21071 3.58579 3.58579C3.21071 3.96086 3 4.46957 3 5V9C3 9.53043 3.21071 10.0391 3.58579 10.4142C3.96086 10.7893 4.46957 11 5 11H9C9.53043 11 10.0391 10.7893 10.4142 10.4142C10.7893 10.0391 11 9.53043 11 9V5C11 4.46957 10.7893 3.96086 10.4142 3.58579C10.0391 3.21071 9.53043 3 9 3ZM5 9V5H9V9H5Z" fill="#0A0E29"/>
<path d="M19 3H15C14.4696 3 13.9609 3.21071 13.5858 3.58579C13.2107 3.96086 13 4.46957 13 5V9C13 9.53043 13.2107 10.0391 13.5858 10.4142C13.9609 10.7893 14.4696 11 15 11H19C19.5304 11 20.0391 10.7893 20.4142 10.4142C20.7893 10.0391 21 9.53043 21 9V5C21 4.46957 20.7893 3.96086 20.4142 3.58579C20.0391 3.21071 19.5304 3 19 3ZM15 9V5H19V9H15Z" fill="#0A0E29"/>
<path d="M9 12.998H5C4.46957 12.998 3.96086 13.2088 3.58579 13.5838C3.21071 13.9589 3 14.4676 3 14.998V18.998C3 19.5285 3.21071 20.0372 3.58579 20.4123C3.96086 20.7873 4.46957 20.998 5 20.998H9C9.53043 20.998 10.0391 20.7873 10.4142 20.4123C10.7893 20.0372 11 19.5285 11 18.998V14.998C11 14.4676 10.7893 13.9589 10.4142 13.5838C10.0391 13.2088 9.53043 12.998 9 12.998ZM5 18.998V14.998H9V18.998H5Z" fill="#0A0E29"/>
<path d="M19 12.998H15C14.4696 12.998 13.9609 13.2088 13.5858 13.5838C13.2107 13.9589 13 14.4676 13 14.998V18.998C13 19.5285 13.2107 20.0372 13.5858 20.4123C13.9609 20.7873 14.4696 20.998 15 20.998H19C19.5304 20.998 20.0391 20.7873 20.4142 20.4123C20.7893 20.0372 21 19.5285 21 18.998V14.998C21 14.4676 20.7893 13.9589 20.4142 13.5838C20.0391 13.2088 19.5304 12.998 19 12.998ZM15 18.998V14.998H19V18.998H15Z" fill="#0A0E29"/>
</g>
<defs>
<clipPath id="clip0_274_11854">
<rect width="24" height="24" fill="white"/>
</clipPath>
</defs>
</svg>
