<svg width="24" height="24" viewBox="0 0 24 24" fill="none" xmlns="http://www.w3.org/2000/svg">
<g clip-path="url(#clip0_274_11550)">
<path d="M12 20.9976C11.8684 20.9983 11.7379 20.9731 11.6161 20.9233C11.4943 20.8736 11.3834 20.8003 11.29 20.7076L3.51999 12.9276C2.54536 11.9428 1.99866 10.6131 1.99866 9.22757C1.99866 7.84201 2.54536 6.5124 3.51999 5.52758C4.50226 4.54809 5.83283 3.99805 7.21999 3.99805C8.60716 3.99805 9.93773 4.54809 10.92 5.52758L12 6.60758L13.08 5.52758C14.0623 4.54809 15.3928 3.99805 16.78 3.99805C18.1672 3.99805 19.4977 4.54809 20.48 5.52758C21.4546 6.5124 22.0013 7.84201 22.0013 9.22757C22.0013 10.6131 21.4546 11.9428 20.48 12.9276L12.71 20.7076C12.6166 20.8003 12.5057 20.8736 12.3839 20.9233C12.2621 20.9731 12.1316 20.9983 12 20.9976ZM7.21999 5.99758C6.79667 5.99566 6.37717 6.07776 5.9858 6.23911C5.59443 6.40047 5.23897 6.63787 4.93999 6.93758C4.33605 7.5447 3.99703 8.36622 3.99703 9.22258C3.99703 10.0789 4.33605 10.9005 4.93999 11.5076L12 18.5776L19.06 11.5076C19.6639 10.9005 20.003 10.0789 20.003 9.22258C20.003 8.36622 19.6639 7.5447 19.06 6.93758C18.4437 6.35528 17.6279 6.03087 16.78 6.03087C15.9321 6.03087 15.1163 6.35528 14.5 6.93758L12.71 8.73758C12.617 8.8313 12.5064 8.9057 12.3846 8.95647C12.2627 9.00724 12.132 9.03337 12 9.03337C11.868 9.03337 11.7373 9.00724 11.6154 8.95647C11.4936 8.9057 11.383 8.8313 11.29 8.73758L9.49999 6.93758C9.20102 6.63787 8.84556 6.40047 8.45419 6.23911C8.06282 6.07776 7.64332 5.99566 7.21999 5.99758Z" fill="#0A0E29"/>
</g>
<defs>
<clipPath id="clip0_274_11550">
<rect width="24" height="24" fill="white"/>
</clipPath>
</defs>
</svg>
