<svg width="40" height="40" viewBox="0 0 40 40" fill="none" xmlns="http://www.w3.org/2000/svg">
<g clip-path="url(#clip0_1474_9010)">
<path d="M0 0H40V40H0V0Z" fill="#FF4C1E"/>
<path d="M10 14L11.0896 26.7975H20V26.8068H24.9209L24.4552 32.3101L20.0088 33.5762L15.5536 32.3101L15.2724 28.9242H11.2654L11.8278 35.5748L20.0176 38L20.0397 37.9697L28.1722 35.5748L29.2706 22.5721H14.7452L14.3761 18.2347H29.6309L30 14H10Z" fill="white"/>
<path d="M5.46875 12V4.72727H7.44318V7.56818H10.0568V4.72727H12.0312V12H10.0568V9.15909H7.44318V12H5.46875ZM12.7699 6.31818V4.72727H19.0909V6.31818H16.9034V12H14.9574V6.31818H12.7699ZM19.834 4.72727H22.2914L23.9817 8.84659H24.0669L25.7573 4.72727H28.2147V12H26.2828V7.79545H26.226L24.6067 11.9432H23.4419L21.8226 7.76705H21.7658V12H19.834V4.72727ZM29.1504 12V4.72727H31.1248V10.4091H34.0652V12H29.1504Z" fill="#0A0E29"/>
</g>
<defs>
<clipPath id="clip0_1474_9010">
<rect width="40" height="40" rx="8" fill="white"/>
</clipPath>
</defs>
</svg>
