<svg viewBox="0 0 136 108" fill="none" xmlns="http://www.w3.org/2000/svg">
<path d="M55.2505 49.916C50.0162 49.2458 45.1188 47.0897 40.1669 45.3765C38.9072 44.8887 38.9616 42.9225 40.2477 42.4979C40.9699 42.2163 41.6645 42.6459 42.3407 42.8653C44.0949 43.4985 45.85 44.1308 47.6146 44.7349C51.2166 45.9012 55.5799 47.572 59.3805 46.7001C60.8454 46.2415 62.2607 45.6171 63.572 44.8212C64.3419 44.1347 65.2479 43.9108 66.0609 44.6757C67.0655 45.7887 66.1862 47.0271 65.0409 47.5651C63.4814 48.4972 61.7976 49.2255 60.0538 49.7389C58.4938 50.1813 56.8447 50.0989 55.251 49.916H55.2505Z" fill="#E31958"/>
<path d="M71.2578 86.0645C71.2612 86.0898 71.2646 86.1152 71.2676 86.141C71.2641 86.1157 71.2607 86.0903 71.2578 86.0645Z" fill="#E6A16C"/>
<path d="M71.252 86.0397C71.2501 86.0253 71.2481 86.0105 71.2461 85.9961C71.2481 86.0075 71.2491 86.0194 71.2511 86.0313C71.2511 86.0342 71.2515 86.0372 71.252 86.0407V86.0397Z" fill="#E6A16C"/>
<path d="M116.421 82.0063C116.474 82.1971 116.526 82.387 116.579 82.5774C102.782 85.7429 88.9862 88.9065 75.1891 92.0716C74.3187 92.1786 73.2977 92.4242 72.1999 92.7166C72.0488 91.713 71.9007 90.709 71.7511 89.7049C71.7244 89.5249 71.6971 89.3454 71.6704 89.1659C71.606 88.6574 71.5351 88.15 71.4678 87.6425C71.4366 87.4058 71.4044 87.1701 71.3731 86.9344C71.3439 86.7159 71.3285 86.4885 71.2909 86.2676C71.284 86.1917 71.2716 86.1167 71.2547 86.0422C71.2547 86.0422 71.2547 86.0422 71.2547 86.0413C71.2547 86.0408 71.2547 86.0393 71.2547 86.0388C71.2547 86.0358 71.2542 86.0339 71.2537 86.0304C71.168 85.379 71.0853 84.7275 70.9956 84.076C70.9114 83.3782 70.8327 82.6799 70.7539 81.9816C71.0432 81.9052 71.3192 81.8243 71.5792 81.7365C85.7508 78.4861 99.9228 75.2343 114.095 71.9844C114.121 72.1077 114.148 72.23 114.175 72.3528C114.522 73.9373 114.857 75.5243 115.236 77.1014C115.507 78.2331 115.779 79.3644 116.051 80.4967C116.172 81.0002 116.284 81.5067 116.422 82.0063H116.421Z" fill="#277298"/>
<path d="M81.1353 31.3281L59.9453 45.7178L62.4081 49.3118L83.5981 34.9221L81.1353 31.3281Z" fill="#E3CC19"/>
<path d="M81.0051 35.4739C80.7312 34.9669 80.4567 34.4604 80.1828 33.9535C80.0604 33.7261 79.9301 33.5017 79.8157 33.2714C79.7756 33.1906 79.7354 33.1097 79.6953 33.0288C83.5341 30.5571 87.3713 28.0854 91.2101 25.6132C96.487 22.2139 101.765 18.8146 107.043 15.4173C109.439 13.8742 111.841 12.339 114.231 10.788C115.068 10.2579 116.199 10.4497 116.76 11.2876C117.3 12.0944 117.096 13.2735 116.257 13.8022C113.891 15.2945 111.553 16.8316 109.201 18.3461C103.92 21.7479 98.637 25.1482 93.3552 28.5505C89.3792 31.1109 85.4027 33.6724 81.4257 36.2333C81.283 35.9818 81.1428 35.7293 81.0046 35.4739H81.0051Z" fill="#FF7A00"/>
<path d="M109.313 84.0877C109.176 83.3589 109.062 82.627 108.942 81.8952C108.828 81.187 108.702 80.4793 108.605 79.7687C108.568 79.5039 108.533 79.2391 108.496 78.9752C116.632 77.373 124.769 75.7722 132.904 74.1699C132.956 74.2375 133.006 74.306 133.054 74.376C133.369 74.8436 133.686 75.3106 134 75.7791C134.452 76.5361 134.898 77.2936 135.323 78.0658C135.351 78.2562 135.378 78.4461 135.406 78.6364C135.427 78.7888 135.45 78.9417 135.473 79.0936C131.385 79.8984 127.296 80.7037 123.208 81.5075C118.583 82.3163 113.973 83.3672 109.353 84.2904C109.34 84.2224 109.327 84.1548 109.315 84.0868L109.313 84.0877Z" fill="#AE46FF"/>
<path d="M45.5458 48.8003C44.7745 48.5873 44.0062 48.3565 43.2299 48.1632C41.5307 47.7405 39.8305 47.3248 38.1279 46.915C37.9495 46.8716 37.7712 46.8287 37.5933 46.7863C37.4898 46.7439 37.3868 46.7009 37.2832 46.6595C36.2087 46.2231 35.1224 45.8261 34.0335 45.4247C32.6127 44.9009 31.1657 44.4443 29.7216 43.9911C29.2867 43.8002 28.8512 43.6113 28.4153 43.422C27.7267 43.1221 27.0198 42.8647 26.3188 42.5945C25.6768 42.3464 25.0367 42.0983 24.3873 41.8695C22.6579 41.259 20.9265 40.6559 19.1912 40.0631C18.14 39.7046 17.0917 39.3391 16.043 38.9747C16.2223 38.1694 16.4006 37.3631 16.5825 36.5582C16.8544 35.352 17.1224 34.1442 17.4023 32.9385C22.3512 34.2251 27.3007 35.5147 32.2496 36.8009C37.2223 38.0934 42.1945 39.3855 47.1667 40.6795C46.7417 42.8963 46.3201 45.1154 45.8926 47.3317C45.8921 47.3361 45.8911 47.3411 45.8901 47.3455C45.8881 47.3549 45.8866 47.3642 45.8847 47.3736C45.79 47.8539 45.6944 48.3343 45.5983 48.8146C45.5805 48.8097 45.5627 48.8047 45.5448 48.7998L45.5458 48.8003Z" fill="#00BFFF"/>
<path d="M45.8931 47.3338C45.8979 47.3099 45.9023 47.2856 45.9072 47.2617C45.9023 47.2871 45.8975 47.3124 45.8926 47.3378C45.8926 47.3363 45.8926 47.3353 45.8935 47.3338H45.8931Z" fill="#00BFFF"/>
<path d="M102.59 58.4881C101.638 60.1535 100.625 61.7804 99.5872 63.3945C99.0373 64.2427 98.48 65.086 97.9226 65.9293C86.5827 61.1866 75.2423 56.4449 63.9024 51.7028C62.5866 51.1529 61.2699 50.6026 59.9531 50.0522C60.1245 49.9624 60.2925 49.8668 60.4629 49.776C61.5527 49.2123 62.6064 48.5816 63.6661 47.9647C65.0001 47.1875 66.2996 46.3372 67.5806 45.4777C68.0795 45.1428 68.5788 44.808 69.0787 44.4746C80.2482 49.1458 91.4192 53.8174 102.588 58.4881H102.59Z" fill="#004B68"/>
<path d="M10.6742 102.617C9.18015 102.559 7.93476 101.175 8.0482 99.6874C8.30382 97.3276 13.8457 93.5994 15.6034 91.4971C20.1703 87.1686 24.7383 82.8412 29.3063 78.5133C31.5702 76.3686 33.8332 74.2238 36.0966 72.0791C37.717 72.629 39.3602 73.1128 40.9965 73.6128C41.3923 73.7336 41.7886 73.851 42.1859 73.9654C37.2167 78.6736 32.2469 83.3827 27.2782 88.0913C22.786 92.3463 18.2953 96.6022 13.8041 100.858C12.9828 101.652 12.1352 102.63 10.918 102.63C10.8382 102.63 10.757 102.626 10.6742 102.617Z" fill="#272A6D"/>
<path d="M116.626 35.9633C114.987 25.4872 113.335 15.0136 111.695 4.53848C112.696 4.17256 113.708 3.83031 114.712 3.47179C115.386 3.23064 116.076 3.025 116.756 2.80259C117.093 2.69261 117.431 2.58215 117.768 2.47168C118.078 2.49881 118.392 2.48056 118.698 2.42829C119.106 2.35925 119.509 2.24976 119.913 2.15655C121.403 1.81331 122.896 1.47352 124.388 1.13867C124.536 2.13238 124.692 3.12511 124.847 4.11783C124.843 4.23175 124.84 4.34566 124.84 4.46007C124.836 5.23778 124.863 6.01648 124.901 6.79271C124.939 7.57288 124.995 8.35155 125.065 9.12876C125.119 9.7171 125.163 10.3099 125.241 10.8962C125.398 12.0764 125.557 13.2555 125.716 14.4346C125.82 15.2094 125.899 15.9915 126.033 16.7623C126.161 17.4941 126.287 18.227 126.413 18.9588C126.426 19.0333 126.439 19.1082 126.451 19.1827C126.459 19.2488 126.47 19.3144 126.486 19.38C126.728 20.7973 126.961 22.2176 127.24 23.6285C127.225 23.5565 127.211 23.4835 127.197 23.411C127.383 24.3648 127.569 25.3181 127.755 26.2723C127.73 27.4505 127.749 28.6271 127.817 29.8033C127.955 32.2069 128.281 34.5864 128.78 36.9427C129.193 38.8926 129.719 40.8184 130.317 42.7185C130.624 43.6915 130.93 44.6635 131.237 45.6355C129.754 45.8515 128.269 46.0641 126.789 46.2973C126.762 46.3013 126.733 46.3057 126.704 46.3102C126.703 46.3102 126.703 46.3102 126.702 46.3102C126.702 46.3102 126.701 46.3102 126.701 46.3102C126.701 46.3102 126.699 46.3102 126.698 46.3106C125.386 46.5123 124.073 46.7042 122.764 46.9291C121.789 47.0967 120.813 47.2639 119.838 47.4311C119.38 47.5095 118.922 47.6022 118.466 47.6964C117.852 43.7847 117.238 39.873 116.625 35.9618L116.626 35.9633Z" fill="#FF0061"/>
<path d="M48.1966 57.8817C47.9177 57.5439 47.9855 57.0675 48.3041 56.7849C49.4667 55.7542 50.6522 54.7492 51.8391 53.7466C53.0915 52.6888 54.3592 51.6512 55.6427 50.6313C55.7061 50.581 55.7696 50.5312 55.832 50.4809C55.9633 50.5322 56.1044 50.5603 56.2471 50.5603C56.2838 50.5603 56.3204 50.5583 56.3566 50.5549C56.4884 50.6086 56.6305 50.6382 56.7767 50.6382C56.8436 50.6382 56.9114 50.6318 56.9788 50.619C57.4767 50.5248 57.9745 50.4301 58.4724 50.3359C56.3506 52.1212 54.1298 53.7935 52.0413 55.6206C51.1208 56.4032 50.2009 57.1873 49.2973 57.9897C49.1621 58.11 48.9887 58.1658 48.8153 58.1658C48.582 58.1658 48.3467 58.0647 48.1956 57.8817H48.1966Z" fill="#FF4F00"/>
<path d="M78.9149 49.6879C78.7807 49.6766 78.646 49.6667 78.5117 49.6588C78.5296 49.4221 78.6237 49.1908 78.7926 49.0108C79.7175 47.9199 80.7023 46.8828 81.6832 45.8413C82.7547 44.7041 83.8356 43.5762 84.9181 42.4484C85.8826 41.4424 86.8402 40.4284 87.8012 39.4189C87.9063 39.5343 88.0118 39.6492 88.1178 39.7642C88.4992 40.1779 88.8797 40.5927 89.2607 41.0074C87.8845 42.4543 86.5058 43.9003 85.1227 45.3413C84.279 46.2235 83.4413 47.1117 82.6056 48.0013C81.9784 48.6691 81.3548 49.3397 80.7524 50.0287C80.1465 49.8783 79.5391 49.7436 78.9145 49.6874L78.9149 49.6879Z" fill="#733CCC"/>
<path d="M30.9863 45.1141C31.179 44.9898 31.3712 44.865 31.5635 44.7393C31.9246 44.504 32.2877 44.2698 32.6493 44.0351C32.6711 44.0222 32.6934 44.0089 32.7157 43.9961C38.9076 47.1345 45.0811 50.3888 51.0877 53.7847C51.2923 53.9006 51.4974 54.015 51.703 54.1304C51.4399 54.3775 51.1803 54.63 50.9054 54.8647C50.7033 55.0368 50.5011 55.2089 50.2995 55.3815C43.9521 51.7776 37.5002 48.4083 30.9863 45.1141Z" fill="#FFEC00"/>
<path d="M134.502 79.8684C133.831 79.6963 133.941 78.9255 133.716 78.4176C133.397 77.5289 132.951 76.6945 132.428 75.9099C130.9 73.6512 128.737 71.8498 126.29 70.6469C125.702 70.3663 125.108 70.1005 124.51 69.8426C124.513 69.8229 124.515 69.8031 124.518 69.7834C124.516 69.8007 124.513 69.8175 124.511 69.8347L124.522 69.7603C124.522 69.7568 124.523 69.7534 124.523 69.7499C124.524 69.7465 124.524 69.7425 124.525 69.739C124.527 69.7247 124.529 69.7104 124.531 69.6966C124.534 69.671 124.538 69.6458 124.542 69.6207C124.54 69.637 124.537 69.6532 124.535 69.669C124.603 69.1887 124.671 68.7084 124.74 68.2285C128.34 69.7642 131.481 71.6397 133.752 75.0913C134.287 75.8695 136.652 79.8798 134.686 79.8798C134.628 79.8798 134.567 79.8763 134.501 79.8694L134.502 79.8684Z" fill="#3CFFEC"/>
<path d="M124.53 69.7256C124.53 69.7256 124.53 69.7221 124.53 69.7206C124.532 69.7102 124.533 69.7003 124.535 69.6904C124.535 69.6919 124.535 69.6934 124.534 69.6954C124.533 69.7077 124.531 69.7196 124.529 69.732C124.529 69.7301 124.529 69.7281 124.53 69.7261L124.53 69.7256Z" fill="#3CFFEC"/>
<path d="M87.9099 40.9063C87.7474 40.713 87.578 40.5236 87.418 40.3278C89.8672 37.6313 92.3183 34.9372 94.7571 32.2322C97.1662 29.5677 99.5327 26.8524 102.081 24.32C102.502 23.8698 103.212 24.505 102.795 24.9675C102.724 25.0371 102.643 25.1155 102.574 25.185C98.2481 29.6145 94.2335 34.3355 90.0336 38.8824C89.3713 39.6118 88.7094 40.3411 88.0471 41.07C88.001 41.0158 87.955 40.961 87.9094 40.9063H87.9099Z" fill="#1A1A43"/>
<path d="M104.795 61.7445C103.983 61.5591 104.247 60.38 105.066 60.6532C111.34 63.2812 117.617 65.9053 123.893 68.5328C124.819 68.9204 125.746 69.3085 126.672 69.6962C126.596 70.066 126.521 70.4364 126.448 70.8067C119.231 67.7857 112.014 64.7651 104.795 61.7445Z" fill="#D0FF4F"/>
<path d="M79.8125 52.533C80.0473 52.2327 80.2831 51.9324 80.5194 51.633C80.942 51.0989 81.3853 50.5772 81.8307 50.0618C81.911 49.9691 81.9902 49.8774 82.0705 49.7852C91.2133 53.612 100.356 57.4384 109.499 61.2648C109.446 61.3324 109.393 61.3999 109.341 61.4675C109.083 61.7959 108.821 62.1199 108.58 62.4597L108.665 62.3404C108.264 62.8991 107.857 63.4529 107.482 64.0289C107.488 64.0191 107.495 64.0087 107.501 63.9989C107.48 64.0309 107.46 64.0625 107.439 64.0945C98.232 60.2386 89.0208 56.389 79.813 52.534L79.8125 52.533Z" fill="#4B77BE"/>
<path d="M100.557 86.5632C100.507 86.1362 100.449 85.7081 100.407 85.2805C100.39 85.0862 100.373 84.8924 100.355 84.6981C106.318 83.5589 112.279 82.4123 118.241 81.2736C123.961 80.1818 129.68 79.0801 135.401 77.9902C135.426 78.186 135.454 78.3813 135.481 78.5771C135.531 78.942 135.571 79.3099 135.632 79.6738C135.72 80.2089 135.801 80.745 135.895 81.2796C124.176 83.5382 112.446 85.7643 100.726 88.0161C100.669 87.5318 100.614 87.0475 100.557 86.5632H100.557Z" fill="#E12A7D"/>
<path d="M77.4836 49.588C74.2106 48.0671 70.9009 46.6256 67.5625 45.2551C68.0272 44.9439 68.4864 44.6254 68.9397 44.2964L68.8178 44.3847C68.8396 44.3689 68.8619 44.3531 68.8842 44.3369C68.8842 44.3369 68.8837 44.3374 68.8832 44.3379C68.8842 44.3379 68.8847 44.3369 68.8857 44.3364C68.8877 44.3349 68.8892 44.3334 68.8911 44.332C68.8911 44.332 68.8911 44.3319 68.8906 44.3324C68.8916 44.3319 68.8926 44.331 68.8936 44.33C68.9199 44.3112 68.9451 44.2925 68.9714 44.2738C68.9798 44.2678 68.9882 44.2614 68.9962 44.256L68.9971 44.255C69.0001 44.253 69.0021 44.2511 69.0051 44.2491C69.011 44.2451 69.016 44.2407 69.0214 44.2368C69.0224 44.2358 69.0239 44.2348 69.0244 44.2343C69.1116 44.1712 69.1973 44.108 69.284 44.0449C73.8554 45.952 78.3699 47.9946 82.8333 50.1423C83.4283 50.4229 84.0228 50.705 84.6217 50.9772C84.208 51.4413 83.7934 51.9043 83.3703 52.36C81.3967 51.4605 79.4588 50.4806 77.4832 49.5875L77.4836 49.588Z" fill="#40C3BB"/>
<path d="M69.0203 44.2388C69.0153 44.2427 69.0099 44.2467 69.0049 44.2502C69.0024 44.2522 69 44.2542 68.9975 44.2557C68.9975 44.2557 68.9975 44.2557 68.998 44.2547C68.996 44.2557 68.995 44.2572 68.994 44.2577C68.9737 44.2726 68.9534 44.2875 68.9336 44.3014C68.9628 44.2806 68.9916 44.2597 69.0203 44.2383V44.2388Z" fill="#40C3BB"/>
<path d="M126.475 29.067C125.138 19.6226 123.789 10.1777 122.453 0.732812C123.019 0.615935 123.586 0.48278 124.156 0.384642C124.707 0.289956 125.258 0.194295 125.809 0.0996094C126.039 1.71321 126.27 3.32633 126.499 4.94042C127.401 11.2893 128.303 17.6392 129.203 23.9875C129.648 27.1274 130.094 30.2664 130.541 33.4053C130.552 33.7401 130.615 34.1638 130.697 34.6303C130.136 34.7709 129.576 34.9124 129.015 35.0514C128.449 35.19 127.884 35.3261 127.317 35.4613C126.967 32.9728 126.741 30.0583 126.476 29.0665L126.475 29.067Z" fill="#C2485D"/>
<path d="M128.264 37.4444C127.955 35.2498 127.636 33.0306 127.322 30.8198C128.045 30.6186 128.767 30.4204 129.491 30.2266C130.584 37.9311 131.678 45.6347 132.772 53.3382C133.122 55.8045 133.472 58.2713 133.822 60.7375C133.535 60.811 133.248 60.8855 132.962 60.9654C132.526 61.0847 132.089 61.2055 131.653 61.3259C130.523 53.3649 129.393 45.4044 128.263 37.4434L128.264 37.4444Z" fill="#F2791F"/>
<path d="M132.066 59.7528C132.379 59.6586 132.691 59.5644 133.003 59.4688C133.915 65.8605 134.814 72.2553 135.724 78.6475C135.816 79.2921 135.908 79.9366 135.999 80.5812C135.762 80.6305 135.524 80.6813 135.286 80.7291C135.208 80.7449 135.13 80.7607 135.052 80.777C134.058 73.7742 133.056 66.7497 132.066 59.7523V59.7528Z" fill="#F8BA2E"/>
<path d="M0.290788 29.0964C0.251652 28.6289 0.212497 28.1619 0.171875 27.6944C7.08105 26.098 13.9888 24.5022 20.897 22.9063C24.6857 22.0349 28.4729 21.1527 32.2612 20.2793C32.2943 20.5249 32.3265 20.7705 32.3706 21.0136C32.4727 21.5728 32.5752 22.1321 32.6768 22.6918C21.9095 25.1768 11.1413 27.6682 0.374505 30.1542C0.347259 29.8016 0.319507 29.449 0.29028 29.0964H0.290788Z" fill="#0059AB"/>
<path d="M64.254 21.5252C63.988 19.992 63.7962 18.4459 63.5768 16.9063C63.4985 16.3555 63.4088 15.8051 63.3454 15.2518C63.3063 14.912 63.2672 14.5722 63.2285 14.2315C67.8168 13.1717 72.4051 12.1114 76.9934 11.0511C92.8715 7.3835 108.75 3.71445 124.629 0.0468593C124.734 0.0325578 124.84 0.0172604 124.946 0C124.883 0.399948 124.81 0.799415 124.721 1.19542C124.565 1.83948 124.365 2.46527 124.135 3.08763C123.978 3.46934 123.821 3.85104 123.663 4.23323C123.515 4.59323 123.34 4.94387 123.178 5.29746C122.894 5.91834 122.573 6.52149 122.25 7.12264C122.104 7.37168 121.953 7.61677 121.788 7.85447C121.748 7.90626 121.707 7.95804 121.664 8.00834L121.658 8.01179C121.658 8.01179 121.661 8.01031 121.662 8.00981C121.662 8.0108 121.66 8.01179 121.659 8.01376C121.493 8.12768 121.358 8.27956 121.269 8.47041C121.174 8.67458 121.143 8.90341 121.176 9.12435C120.913 9.44441 120.651 9.76593 120.394 10.0904C120.169 10.2818 119.946 10.4741 119.723 10.6674C119.531 10.808 119.341 10.949 119.149 11.0901C118.622 11.4796 118.1 11.8806 117.587 12.2899C116.997 12.7609 116.408 13.2328 115.827 13.7131C115.593 13.8616 115.36 14.013 115.129 14.1663L115.152 14.1506C115.122 14.1703 115.093 14.1905 115.063 14.2102C115.052 14.2176 115.041 14.2255 115.029 14.2329C115.032 14.2319 115.033 14.23 115.036 14.229C114.97 14.2724 114.905 14.3163 114.84 14.3597C114.748 14.4144 114.661 14.477 114.573 14.5372C114.398 14.6319 114.234 14.7552 114.073 14.8681C102.164 17.6194 90.2534 20.3702 78.3438 23.1211C73.918 24.1444 69.4917 25.1667 65.0659 26.189C64.7969 24.6345 64.5244 23.0806 64.2545 21.5257L64.254 21.5252Z" fill="#017BC4"/>
<path d="M29.9609 21.1117C31.1211 20.8439 32.2808 20.5761 33.441 20.3078C39.6522 18.8732 45.8619 17.4381 52.0726 16.003C56.8813 14.8949 61.7837 13.7597 66.6647 12.6309C66.793 13.3775 66.9218 14.1241 67.0511 14.8703C67.1155 15.2436 67.1874 15.6154 67.2617 15.9868C58.8931 17.92 50.5235 19.8472 42.1559 21.7843C38.2924 22.6769 34.4288 23.5695 30.5653 24.4621C30.3617 23.3461 30.1625 22.2286 29.9614 21.1111L29.9609 21.1117Z" fill="#DEE075"/>
<path d="M89.0465 31.6484C89.1738 31.7865 89.3016 31.9245 89.429 32.0631C85.2296 34.8904 81.0311 37.7176 76.8317 40.5449C74.8581 41.874 72.884 43.203 70.9109 44.532C70.8727 44.4211 70.8341 44.3096 70.7964 44.1977C70.6929 43.8919 70.58 43.5877 70.4878 43.278C70.3912 42.953 70.2951 42.6285 70.198 42.3045C70.1807 42.2364 70.1638 42.1684 70.1465 42.0998C76.0267 38.1393 81.908 34.1807 87.7883 30.2207C88.2029 30.7005 88.6165 31.1819 89.0465 31.6479V31.6484Z" fill="#6245FF"/>
<path d="M88.5627 32.4527C88.3864 32.1819 88.2105 31.9112 88.0352 31.64C89.2588 30.8396 90.47 30.0362 91.6564 29.2368C93.5379 27.9669 95.4229 26.703 97.293 25.4164C97.5877 25.2142 97.8835 25.0124 98.1802 24.8117C98.5577 24.5873 98.8975 24.2096 99.3617 24.1973C100.248 24.2032 100.517 25.3769 99.7877 25.7857C96.1863 28.2194 92.6021 30.6793 88.9655 33.0612C88.8312 32.8586 88.697 32.6554 88.5622 32.4527H88.5627Z" fill="#0FAEB2"/>
<path d="M55.5827 50.981C54.9456 50.7507 55.2636 49.9508 55.92 50.1258C57.9918 50.1663 59.9966 49.7575 61.8285 48.8071C63.5005 47.9426 64.9871 46.7921 66.5313 45.7294C68.1165 44.6277 69.7013 43.526 71.2558 42.3818C71.2617 42.4149 71.2682 42.4479 71.2736 42.4815C71.2964 42.6038 71.3177 42.7266 71.3405 42.8493C71.3658 43.0224 71.3895 43.1955 71.4123 43.3686C69.5199 44.748 67.5869 46.0706 65.6708 47.4169C62.8827 49.4981 59.9708 51.0145 56.4887 51.015C56.191 51.015 55.8893 51.0036 55.5832 50.981H55.5827Z" fill="#1E3E94"/>
<path d="M98.8571 27.1825C98.5227 26.6361 98.1923 26.0887 97.8589 25.5418C97.7449 25.3455 97.6315 25.1492 97.5176 24.9524C102.306 21.9442 106.971 18.7525 111.589 15.4913C112.031 15.1855 112.476 14.8827 112.916 14.572C112.929 14.5632 112.942 14.5548 112.955 14.5459C113.156 14.8808 113.356 15.2146 113.558 15.5485C113.967 16.2261 114.38 16.9022 114.792 17.5783C114.723 17.6291 114.656 17.6819 114.593 17.7356C109.6 21.2844 104.508 24.6866 99.3545 27.9932C99.1885 27.723 99.0226 27.4528 98.8571 27.1825Z" fill="#70622B"/>
<path d="M31.7797 45.2212C26.3666 43.2802 20.6731 41.7277 15.1387 39.9854C15.265 39.5568 15.3869 39.1268 15.5058 38.6953C20.9045 40.3844 26.3454 41.9467 31.7069 43.7487C32.0869 43.9257 32.4079 43.9494 32.5976 44.302C32.827 44.7335 32.4461 45.2626 31.9958 45.2626C31.9249 45.2626 31.8521 45.2498 31.7803 45.2212H31.7797Z" fill="#412243"/>
<path d="M111.911 15.5626C111.911 15.5626 111.912 15.5636 111.912 15.5646C111.829 15.4275 111.747 15.2899 111.666 15.1518C112.412 14.6207 113.157 14.0856 113.901 13.5511C116.945 11.3087 120.387 9.19206 122.192 5.75526C122.958 4.15843 123.381 2.43141 123.869 0.73397C124.105 0.711778 124.339 0.687107 124.575 0.659491C124.819 0.630888 125.063 0.605742 125.307 0.578125C124.109 5.04561 123.33 7.95226 119.212 11.2406C117.095 12.9869 114.811 14.5157 112.593 16.1293C112.516 16.1717 112.437 16.2254 112.355 16.2856C112.206 16.0459 112.058 15.8048 111.911 15.5636V15.5626Z" fill="#489640"/>
<path d="M30.4043 45.514C30.4662 45.3364 30.5282 45.1589 30.5906 44.9818C30.7942 44.4404 30.9988 43.8999 31.2049 43.3594C38.4623 45.259 45.6865 47.2942 52.9891 49.0168C54.3608 49.3043 55.731 49.6165 57.1146 49.8493C56.8541 50.5698 56.5801 51.2858 56.3096 52.0034C47.5541 50.3952 39.03 47.6957 30.4043 45.5144V45.514Z" fill="#312054"/>
<path d="M102.319 87.7592C102.235 87.1822 102.152 86.6052 102.069 86.0287C102.028 85.7447 101.98 85.4606 101.947 85.1756C101.93 85.0345 101.914 84.894 101.898 84.7529C86.6146 87.9796 71.3294 91.2063 56.0452 94.4326C53.8337 94.8991 51.6204 95.3671 49.4079 95.8336C48.1566 95.9234 46.6863 96.6325 47.037 98.1115C47.098 98.3245 47.1792 98.504 47.2763 98.6569C47.3412 98.6106 47.418 98.5721 47.5071 98.545C48.3909 98.2767 49.3534 98.1845 50.266 98.0449C51.0987 97.9177 51.9597 97.9793 52.7845 97.8422C53.2413 97.7663 53.5697 98.0661 53.6782 98.4118C62.4669 96.5556 71.2571 94.7028 80.0462 92.8456C87.4899 91.2744 94.9326 89.7032 102.376 88.132C102.357 88.0082 102.338 87.884 102.319 87.7597L102.319 87.7592Z" fill="#7D2861"/>
<path d="M6.5413 100.093C6.43281 98.9954 6.31788 97.8982 6.21484 96.7999C6.46402 96.5612 6.71221 96.323 6.96238 96.0853C8.10078 95.0019 9.2382 93.9179 10.3761 92.834C23.7605 80.0874 37.1434 67.3398 50.5273 54.5928C50.8082 54.7501 51.0965 54.897 51.3804 55.0489C52.0744 55.4208 52.768 55.7902 53.4709 56.1442C53.5517 56.1852 53.6324 56.2261 53.7132 56.2665C51.2114 58.6495 48.7097 61.0324 46.2075 63.4148C37.0686 72.1195 27.9302 80.8242 18.7908 89.5278C16.5164 91.6903 14.2461 93.8567 11.9727 96.0212C10.1938 97.7147 8.43318 99.4294 6.63641 101.104C6.60569 100.766 6.57449 100.43 6.5413 100.093Z" fill="#5FB7C5"/>
<path d="M6.54426 106.06C6.34858 104.33 6.14943 102.6 5.94979 100.87C5.78186 99.4209 5.60944 97.97 5.4851 96.5157C5.45686 96.1853 5.42863 95.8554 5.40039 95.5254C7.85999 94.9608 10.4172 94.6782 12.8481 94.0568C19.1573 92.7687 25.4666 91.4801 31.7758 90.1915C38.0465 88.9132 44.3166 87.6281 50.5877 86.3503C51.7504 86.1037 52.9814 85.7807 54.1996 85.6357C54.2729 86.5076 54.3467 87.3795 54.42 88.2509C54.697 91.5383 54.9744 94.8261 55.2513 98.1135C52.5425 98.7768 49.701 99.0653 47.0115 99.7592C40.7122 101.045 34.4128 102.332 28.1135 103.618C21.7824 104.911 15.4498 106.203 9.11878 107.497C8.33705 107.628 7.54692 107.84 6.75281 108C6.68594 107.352 6.61758 106.705 6.54426 106.059V106.06Z" fill="#E31958"/>
<path d="M5.46939 104.189C4.81796 90.5947 4.16455 76.9999 3.51312 63.4056C3.47597 62.6402 4.18388 62.0001 4.92597 62.0001C5.69332 61.9898 6.33782 62.6476 6.33782 63.4066C6.62713 69.4468 6.91791 75.4869 7.20722 81.5266C7.50842 87.8089 7.81062 94.0912 8.11181 100.373C8.21584 102.549 8.30451 104.725 8.41647 106.9L7.99341 106.984C7.21069 107.14 6.42552 107.282 5.64082 107.431C5.63438 107.432 5.62743 107.433 5.62099 107.434C5.566 106.353 5.52141 105.27 5.46939 104.189V104.189Z" fill="#EB722B"/>
<path d="M2.66873 59.4981C1.82508 49.4698 0.976459 39.44 0.132812 29.4117C0.201176 29.4088 0.270538 29.4058 0.338902 29.4023C0.341379 29.5385 0.351282 29.6706 0.371097 29.8057C0.404288 30.0346 0.455817 30.2594 0.50387 30.4858C0.52963 30.6037 0.554891 30.7205 0.586596 30.8374C0.741652 31.4065 0.900183 31.9677 1.15085 32.5048C1.34256 32.9165 1.56945 33.3116 1.83745 33.6795C2.06038 33.9862 2.30063 34.291 2.58498 34.544C2.70635 34.652 2.82575 34.7437 2.9818 34.791C2.99121 34.8004 3.00063 34.8103 3.00955 34.8191C3.16807 34.9789 3.40982 35.0218 3.6164 34.9533C3.69814 35.0001 3.78087 35.0465 3.8631 35.0914C4.00379 35.1806 4.14497 35.2689 4.28764 35.3542C4.73299 35.622 5.18331 35.8908 5.65591 36.1078C5.90261 36.2212 6.14682 36.3302 6.39947 36.4288C6.49805 36.4678 6.59713 36.5057 6.69571 36.5437C7.17079 42.1859 7.64885 47.8286 8.12245 53.4707C8.63765 59.574 9.15088 65.6758 9.66608 71.7791C9.65073 72.5894 9.81121 73.6087 9.94051 74.6498C9.82558 74.671 9.71116 74.6927 9.59623 74.7144C7.92231 75.0315 6.24938 75.355 4.57645 75.6755C4.39811 75.7095 4.21978 75.7431 4.04144 75.7761C3.5847 70.3499 3.12695 64.9243 2.66921 59.4986L2.66873 59.4981Z" fill="#F9B837"/>
<path d="M6.48661 37.0445C4.93505 36.4611 3.36815 35.7983 2.10194 34.7084C1.22609 34.0057 0.787168 32.9592 0.553345 31.8905C0.332402 30.9412 0.101059 29.981 0 29.0095C0.29327 28.9533 0.586056 28.8961 0.87883 28.8379C1.09581 30.3267 1.30932 31.7608 1.9132 33.1136C2.32437 33.84 2.99413 34.3178 3.67826 34.7622C7.25694 36.7895 11.3102 37.5771 15.1906 38.7626C15.7375 38.9165 16.2849 39.0699 16.8323 39.2223C16.8135 39.5231 16.7947 39.8244 16.7748 40.1247C13.3299 39.1512 9.86071 38.2448 6.48712 37.0445H6.48661Z" fill="#FAFF00"/>
</svg>
