<svg width="20" height="20" viewBox="0 0 20 20" fill="none" xmlns="http://www.w3.org/2000/svg">
<path d="M14 10.3722V13.13H12.3857V10.5404C12.3857 9.90135 12.1502 9.46413 11.5785 9.46413C11.1413 9.46413 10.8722 9.76682 10.7713 10.0359C10.7377 10.1368 10.704 10.2713 10.704 10.4395V13.13H9.08969C9.08969 13.13 9.12332 8.75785 9.08969 8.32063H10.704V8.99327C10.9058 8.65695 11.3094 8.1861 12.1502 8.1861C13.1928 8.1861 14 8.89238 14 10.3722ZM7.40807 6C6.86995 6 6.5 6.36996 6.5 6.84081C6.5 7.31166 6.83632 7.68161 7.37444 7.68161C7.94619 7.68161 8.28251 7.31166 8.28251 6.84081C8.31614 6.33632 7.97982 6 7.40807 6ZM6.6009 13.13H8.21525V8.32063H6.6009V13.13Z" fill="#3653F2"/>
</svg>
