<svg width="24" height="24" viewBox="0 0 24 24" xmlns="http://www.w3.org/2000/svg">
<path d="M23 14.9477V22.6836H18.4798V15.4194C18.4798 13.627 17.8206 12.4006 16.2197 12.4006C14.9955 12.4006 14.2422 13.2496 13.9596 14.0044C13.8655 14.2874 13.7713 14.6647 13.7713 15.1364V22.6836H9.25112C9.25112 22.6836 9.34529 10.4194 9.25112 9.19303H13.7713V11.0798C14.3363 10.1364 15.4664 8.81567 17.8206 8.81567C20.7399 8.81567 23 10.7968 23 14.9477ZM4.5426 2.68359C3.03587 2.68359 2 3.72133 2 5.04208C2 6.36284 2.9417 7.40058 4.44843 7.40058C6.04933 7.40058 6.99103 6.36284 6.99103 5.04208C7.0852 3.62699 6.1435 2.68359 4.5426 2.68359ZM2.28251 22.6836H6.80269V9.19303H2.28251V22.6836Z" />
</svg>
