<svg width="8" height="8" viewBox="0 0 8 8" fill="none" xmlns="http://www.w3.org/2000/svg">
<path d="M8 4.3722V7.13005H6.38565V4.54036C6.38565 3.90135 6.15022 3.46413 5.57848 3.46413C5.14126 3.46413 4.8722 3.76682 4.7713 4.03588C4.73767 4.13677 4.70404 4.2713 4.70404 4.43946V7.13005H3.08969C3.08969 7.13005 3.12332 2.75785 3.08969 2.32063H4.70404V2.99327C4.90583 2.65695 5.30942 2.1861 6.15022 2.1861C7.19282 2.1861 8 2.89238 8 4.3722ZM1.40807 0C0.869954 0 0.5 0.369955 0.5 0.840807C0.5 1.31166 0.836322 1.68161 1.37444 1.68161C1.94619 1.68161 2.28251 1.31166 2.28251 0.840807C2.31614 0.336323 1.97982 0 1.40807 0ZM0.600897 7.13005H2.21525V2.32063H0.600897V7.13005Z" fill="#3653F2"/>
</svg>
