<svg width="24" height="24" viewBox="0 0 24 24" fill="none" xmlns="http://www.w3.org/2000/svg">
<path d="M16.8 12.4459V15.7553H14.8628V12.6477C14.8628 11.8808 14.5803 11.3562 13.8942 11.3562C13.3695 11.3562 13.0466 11.7194 12.9255 12.0423C12.8852 12.1633 12.8448 12.3248 12.8448 12.5266V15.7553H10.9076C10.9076 15.7553 10.948 10.5086 10.9076 9.98397H12.8448V10.7911C13.087 10.3876 13.5713 9.82254 14.5803 9.82254C15.8314 9.82254 16.8 10.6701 16.8 12.4459ZM8.88967 7.19922C8.24393 7.19922 7.79999 7.64317 7.79999 8.20819C7.79999 8.77321 8.20357 9.21716 8.84931 9.21716C9.53541 9.21716 9.939 8.77321 9.939 8.20819C9.97936 7.60281 9.57577 7.19922 8.88967 7.19922ZM7.92106 15.7553H9.85828V9.98397H7.92106V15.7553Z" fill="#3653F2"/>
</svg>
