<svg width="20" height="20" viewBox="0 0 20 20" fill="none" xmlns="http://www.w3.org/2000/svg">
<g clip-path="url(#clip0_898_3903)">
<path d="M15.8333 8.33464H16.6667C16.8877 8.33464 17.0996 8.42243 17.2559 8.57871C17.4122 8.73499 17.5 8.94696 17.5 9.16797V17.5013C17.5 17.7223 17.4122 17.9343 17.2559 18.0906C17.0996 18.2468 16.8877 18.3346 16.6667 18.3346H3.33333C3.11232 18.3346 2.90036 18.2468 2.74408 18.0906C2.5878 17.9343 2.5 17.7223 2.5 17.5013V9.16797C2.5 8.94696 2.5878 8.73499 2.74408 8.57871C2.90036 8.42243 3.11232 8.33464 3.33333 8.33464H4.16667V7.5013C4.16667 6.73526 4.31755 5.97672 4.6107 5.26898C4.90386 4.56125 5.33354 3.91819 5.87521 3.37651C6.41689 2.83484 7.05995 2.40516 7.76768 2.112C8.47541 1.81885 9.23396 1.66797 10 1.66797C10.766 1.66797 11.5246 1.81885 12.2323 2.112C12.9401 2.40516 13.5831 2.83484 14.1248 3.37651C14.6665 3.91819 15.0961 4.56125 15.3893 5.26898C15.6825 5.97672 15.8333 6.73526 15.8333 7.5013V8.33464ZM4.16667 10.0013V16.668H15.8333V10.0013H4.16667ZM9.16667 11.668H10.8333V15.0013H9.16667V11.668ZM14.1667 8.33464V7.5013C14.1667 6.39623 13.7277 5.33643 12.9463 4.55502C12.1649 3.77362 11.1051 3.33464 10 3.33464C8.89493 3.33464 7.83512 3.77362 7.05372 4.55502C6.27232 5.33643 5.83333 6.39623 5.83333 7.5013V8.33464H14.1667Z" fill="#F8F8F8"/>
</g>
<defs>
<clipPath id="clip0_898_3903">
<rect width="20" height="20" fill="white"/>
</clipPath>
</defs>
</svg>
