<svg width="110" height="120" viewBox="0 0 110 120" fill="none" xmlns="http://www.w3.org/2000/svg">
<g clip-path="url(#clip0_3446_30272)">
<path d="M102.999 94.6891C103.055 91.9482 103.11 89.2073 103.166 86.4659C103.223 83.6158 103.281 80.7662 103.339 77.9161L103.508 69.5857L103.678 61.1735C103.679 61.15 103.679 61.126 103.68 61.1025C104 61.4477 104.325 61.79 104.648 62.1332C104.751 62.258 104.854 62.3819 104.958 62.5063C104.93 63.9056 104.901 65.3054 104.873 66.7048C104.818 69.4535 104.762 72.2032 104.706 74.9525C104.649 77.7732 104.592 80.5934 104.535 83.4141C104.478 86.2348 104.42 89.055 104.363 91.8757C104.309 94.5441 104.255 97.2121 104.201 99.8801C104.198 100.009 104.196 100.137 104.194 100.266C103.757 100.328 103.32 100.391 102.883 100.454C102.922 98.5326 102.96 96.6109 103 94.6891H102.999Z" fill="white"/>
<path d="M104.838 61.65C104.77 61.5644 104.701 61.4782 104.632 61.3925C103.755 60.3006 102.864 59.221 101.969 58.1453C101.116 57.121 100.254 56.1036 99.3941 55.0852C98.9678 54.5809 98.5419 54.0761 98.1151 53.5723C97.8944 53.6325 97.6733 53.6917 97.4512 53.7515C97.8101 54.1755 98.168 54.6 98.5265 55.024C99.3753 56.0292 100.226 57.0324 101.07 58.042C101.965 59.1133 102.857 60.187 103.735 61.2725C104.152 61.7876 104.843 62.7551 104.852 62.7678C104.835 62.3482 104.835 62.099 104.838 61.65Z" fill="white"/>
<path d="M27.0159 103.732C26.8083 103.31 26.617 102.879 26.4171 102.453C26.115 101.806 25.8125 101.161 25.5104 100.515C24.8914 99.1919 24.2718 97.8689 23.6527 96.5465C23.0255 95.2064 22.3987 93.8663 21.7715 92.5262C21.7985 92.2079 21.8086 91.8877 21.8298 91.5695C21.8775 90.8365 21.956 90.1055 22.0037 89.3726C22.0307 88.9588 22.0543 88.5456 22.0755 88.1318C22.9248 89.9459 23.7737 91.7599 24.6226 93.574C25.6025 95.6671 26.5823 97.7607 27.5627 99.8539C27.5627 99.8862 27.5632 99.9185 27.5637 99.9508C27.5584 100.088 27.5545 100.225 27.5545 100.363C27.5545 100.478 27.5545 100.593 27.555 100.709C27.5512 100.802 27.5478 100.895 27.5454 100.988C27.5377 101.24 27.5425 101.49 27.5444 101.741C27.5454 101.856 27.5468 101.97 27.5497 102.084C27.5367 102.783 27.5073 103.483 27.4688 104.182C27.2785 104.087 27.1161 103.934 27.0159 103.732Z" fill="#8664FC"/>
<path d="M10.3471 81.39C9.99686 80.7574 9.64711 80.1253 9.29688 79.4932C9.45634 78.7715 9.57484 78.0409 9.65144 77.3026C9.69866 76.8448 9.73961 76.386 9.77092 75.9268C10.5196 77.2786 11.2682 78.6304 12.0169 79.9823C12.6514 81.1285 13.2858 82.2747 13.9203 83.4209C13.8861 83.9987 13.849 84.5754 13.8081 85.1522C13.7561 85.8847 13.705 86.6176 13.6395 87.3491C12.5348 85.3671 11.4455 83.3763 10.3471 81.3909V81.39Z" fill="#745C2C"/>
<path d="M22.0314 102.229C21.91 102.046 21.7997 101.855 21.685 101.667C21.6561 101.619 21.6272 101.571 21.5983 101.523C21.5964 101.345 21.5944 101.166 21.593 100.987C21.5814 99.7907 21.5766 98.5945 21.5785 97.3989C21.5805 96.19 21.5959 94.9797 21.6219 93.7703C21.6479 92.5453 21.6773 91.3198 21.7293 90.0947C21.7515 89.5728 21.7756 89.0504 21.7997 88.5279C21.803 88.4574 21.8064 88.3864 21.8098 88.3164C21.9692 88.5764 22.147 88.8271 22.3147 89.0817C22.3175 89.0861 22.3209 89.091 22.3238 89.0959C22.3012 89.5855 22.279 90.0751 22.2617 90.5648C22.2183 91.7922 22.1846 93.0197 22.1644 94.2477C22.1441 95.4678 22.1297 96.688 22.1297 97.9086C22.1297 99.1116 22.1383 100.315 22.1499 101.517C22.1528 101.818 22.1562 102.118 22.1586 102.418C22.1162 102.355 22.0743 102.292 22.0324 102.229L22.0314 102.229Z" fill="#FF0083"/>
<path d="M28.1512 114.633C27.866 114.211 27.575 113.792 27.2918 113.368C27.2595 112.764 27.2277 112.16 27.1964 111.555C27.1391 110.429 27.0759 109.303 27.0253 108.176C26.9757 107.081 26.9353 105.985 26.8958 104.889C26.8158 102.656 26.8061 100.421 26.8355 98.1863C26.8379 98.0345 26.8394 97.8832 26.8413 97.7314C27.1728 98.3278 27.5134 98.9183 27.8569 99.5073C27.8559 99.6703 27.8549 99.8334 27.854 99.9964C27.8482 101.132 27.8554 102.267 27.8814 103.403C27.9012 104.292 27.9373 105.182 27.9715 106.071C28.0057 106.952 28.0404 107.832 28.0819 108.713C28.1854 110.815 28.2943 112.917 28.4143 115.018C28.3261 114.89 28.2384 114.761 28.1508 114.633H28.1512Z" fill="#FFB400"/>
<path d="M14.3788 73.4962C14.2935 73.1334 14.2738 72.7637 14.1943 72.4014C14.1293 72.1052 14.1861 71.8471 14.1736 71.5489C14.1702 71.4726 14.2015 71.4187 14.2473 71.3854C13.9982 70.9198 13.7453 70.4561 13.4774 70.0003C13.2818 69.6698 13.0877 69.3383 12.8926 69.0068V84.7829C13.1349 85.2299 13.3777 85.6765 13.6239 86.122C13.9047 86.6298 14.1856 87.1356 14.4737 87.6379V73.6249C14.4294 73.6024 14.3937 73.5603 14.3788 73.4957V73.4962Z" fill="#495ED7"/>
<path d="M9.68645 80.3653C9.36271 79.6896 9.038 79.014 8.71618 78.3373C8.6892 78.28 8.66223 78.2232 8.63477 78.1664C8.64777 77.8149 8.6603 77.4634 8.67379 77.1118C8.72678 75.6865 8.79135 74.2622 8.86024 72.8379C8.92817 71.4488 8.99271 70.0593 9.07557 68.6712C9.13097 67.7502 9.19312 66.8298 9.26009 65.9088C9.29237 65.4657 9.32851 65.0225 9.36223 64.5794C9.39451 64.153 9.434 63.7246 9.44315 63.2966V63.2643C9.4417 63.1811 9.45424 63.1003 9.47881 63.0254C9.67344 63.2922 9.86808 63.5586 10.0646 63.8244C10.2675 64.1001 10.4693 64.3763 10.6687 64.6544C10.6548 64.8414 10.6403 65.028 10.6259 65.214C10.5724 65.9044 10.5228 66.5952 10.4746 67.2861C10.3763 68.7221 10.3055 70.1592 10.2328 71.5962C10.0902 74.4076 9.97647 77.2195 9.87819 80.0329C9.87 80.2601 9.86229 80.4877 9.8541 80.7149L9.68645 80.3653Z" fill="#D50F87"/>
<path d="M90.7322 58.2039C90.7019 57.8944 90.671 57.5855 90.6407 57.277C90.6291 57.1624 90.6108 57.0464 90.6065 56.9308C90.5954 56.6322 90.5848 56.333 90.5742 56.0339C90.6176 56.0153 90.6619 55.9967 90.7053 55.978C92.0662 55.4057 93.4311 54.8421 94.7925 54.2698C97.4369 53.1578 100.072 52.0268 102.682 50.8331C103.756 50.3415 104.828 49.8426 105.899 49.3432C106.156 49.2222 106.414 49.1023 106.672 48.9818C106.708 48.9647 106.744 48.9485 106.779 48.9319L106.807 48.9187C106.912 48.8692 107.017 48.8198 107.123 48.7708C107.159 48.7512 107.195 48.7336 107.232 48.7179C107.246 48.7106 107.26 48.7042 107.275 48.6969C107.347 48.6563 107.421 48.6215 107.498 48.5931C107.515 48.5862 107.531 48.5789 107.548 48.5725C107.55 48.5715 107.552 48.5701 107.554 48.5691C107.555 48.5691 107.555 48.5691 107.556 48.5691C107.609 48.5392 107.664 48.5138 107.72 48.4922C107.721 48.4922 107.721 48.4917 107.722 48.4917C107.75 48.4785 107.778 48.4648 107.806 48.4521C107.916 48.385 108.033 48.3297 108.155 48.289C108.169 48.2827 108.183 48.2758 108.197 48.2695C108.219 48.2597 108.24 48.2494 108.262 48.2396C108.275 48.2332 108.289 48.2268 108.303 48.221C108.33 48.2073 108.358 48.194 108.387 48.1813C108.351 48.1975 108.314 48.2146 108.278 48.2318C108.356 48.195 108.434 48.1588 108.512 48.1221C108.588 48.0863 108.664 48.0511 108.741 48.0148C108.737 48.0168 108.733 48.0188 108.729 48.0207C108.739 48.0158 108.749 48.0114 108.759 48.0065C108.786 47.9938 108.813 47.9816 108.84 47.9688C108.848 47.9654 108.856 47.9615 108.864 47.9576C108.866 47.9566 108.868 47.9556 108.87 47.9541C108.877 47.9507 108.884 47.9478 108.892 47.9443C108.888 47.9458 108.884 47.9478 108.88 47.9492C108.884 47.9473 108.888 47.9453 108.893 47.9434C108.882 48.0349 108.872 48.1265 108.864 48.2185C108.831 48.5745 108.821 48.9319 108.798 49.2884C108.767 49.7491 108.74 50.2113 108.71 50.6725C108.699 50.7959 108.687 50.9193 108.676 51.0432C108.645 51.0583 108.613 51.073 108.581 51.0872C108.563 51.096 108.545 51.1044 108.527 51.1122C108.441 51.1543 108.354 51.1979 108.264 51.2346C108.251 51.241 108.237 51.2478 108.224 51.2537C108.221 51.2552 108.218 51.2571 108.214 51.2581C108.169 51.2792 108.124 51.3002 108.078 51.3213C108.026 51.3497 107.973 51.3746 107.918 51.3962C105.345 52.6001 102.77 53.8046 100.166 54.941C97.4764 56.1146 94.7626 57.231 92.0556 58.363C91.637 58.5383 91.2183 58.7136 90.7997 58.8903C90.777 58.6612 90.7544 58.433 90.7313 58.2043L90.7322 58.2039Z" fill="#57B3FF"/>
<path d="M108.853 47.9639C108.85 47.9654 108.846 47.9669 108.843 47.9685C108.84 47.97 108.837 47.9715 108.834 47.9725L108.853 47.9639Z" fill="#57B3FF"/>
<path d="M108.877 47.9508C108.877 47.9508 108.881 47.9492 108.882 47.9482C108.873 47.9528 108.864 47.9568 108.855 47.9608L108.877 47.9508Z" fill="#57B3FF"/>
<path d="M91.5352 48.8844C91.5352 47.205 91.5381 45.527 91.54 43.8476C91.5424 42.2314 91.5414 40.6147 91.5626 38.9984C91.5631 38.9827 91.5631 38.9666 91.5631 38.9509C91.5631 38.8995 91.5588 38.8486 91.5496 38.7996C92.3392 38.4598 93.1279 38.1186 93.916 37.7763C96.61 36.6076 99.2939 35.4159 101.99 34.252C104.233 33.2831 106.488 32.3415 108.731 31.3711C108.618 32.6133 108.566 33.8584 108.543 35.1054C108.53 35.7811 108.514 36.4573 108.516 37.133C108.519 38.1122 108.521 39.0909 108.524 40.0707C108.526 40.7752 108.512 41.4827 108.53 42.1878C108.541 42.6534 108.554 43.1196 108.567 43.5857C108.335 43.6846 108.101 43.7835 107.869 43.8829C105.171 45.0315 102.488 46.2149 99.8027 47.392C97.2026 48.5318 94.5934 49.6506 91.9803 50.7581C91.8387 50.8184 91.698 50.8776 91.5564 50.9378C91.5477 50.2533 91.5357 49.5684 91.5357 48.8844H91.5352Z" fill="#4149B5"/>
<path d="M108.197 31.1763C108.501 31.0651 108.804 30.954 109.108 30.8433C109.295 30.7758 109.482 30.7077 109.668 30.6396C109.657 30.8903 109.459 48.9378 109.522 51.7923C109.231 51.9186 108.938 52.0444 108.646 52.1707C108.46 52.251 108.274 52.3328 108.089 52.4155C108.062 51.1939 108.069 34.0415 108.197 31.1763Z" fill="#D6FF00"/>
<path d="M12.6769 70.8769C12.0766 69.8448 11.486 68.8063 10.8972 67.7674C10.7508 67.5093 10.6053 67.2508 10.4593 66.9928C10.4396 66.958 10.4189 66.9233 10.3996 66.8885C10.3861 66.8665 10.3736 66.8444 10.3625 66.8209C10.2921 66.6966 10.2223 66.5722 10.1524 66.4488C10.1573 66.4571 10.1621 66.466 10.1669 66.4738L9.96649 66.1198C9.56615 65.4118 9.1687 64.7023 8.77413 63.9904C8.75149 63.1674 8.72884 62.3438 8.70716 61.5203C8.69608 61.1305 8.68788 60.7408 8.67969 60.3506C9.34355 61.5957 10.0229 62.833 10.7113 64.0648C10.9368 64.4688 11.1646 64.8717 11.3915 65.2747C11.3872 65.2674 11.3833 65.2605 11.379 65.2536C11.4392 65.3609 11.4999 65.4681 11.5601 65.5748C11.5616 65.5773 11.563 65.5802 11.5645 65.5822C11.5756 65.6032 11.5871 65.6238 11.5987 65.6444C11.5982 65.6434 11.5977 65.6424 11.5977 65.6414C11.6801 65.7869 11.7615 65.9328 11.8439 66.0782L11.8502 66.0894C11.8545 66.0978 11.8593 66.1051 11.8637 66.1134C11.9195 66.2123 11.9754 66.3117 12.0313 66.4106C12.0323 66.4131 12.0342 66.4155 12.0352 66.418C12.0848 66.5046 12.1334 66.5918 12.1826 66.678C12.3608 66.9923 12.5386 67.3061 12.7169 67.62C13.0801 68.2589 13.4457 68.8964 13.8124 69.5324C14.0046 69.8659 14.1978 70.1988 14.3914 70.5313C14.3982 70.8192 14.4054 71.1076 14.4122 71.3955C14.417 71.5903 14.4199 71.7842 14.4281 71.9781C14.4555 72.6513 14.4825 73.3246 14.51 73.9983C13.8947 72.9608 13.2839 71.9203 12.6769 70.8774V70.8769Z" fill="#45C6ED"/>
<path d="M90.5254 52.3382C90.5114 49.3412 90.5022 46.3442 90.5446 43.3478C90.5644 41.9763 90.588 40.6049 90.6116 39.2325C90.6135 39.1116 90.6159 38.9906 90.6174 38.8697C91.5404 38.3884 92.4639 37.9066 93.387 37.4258C93.3745 38.2748 93.3668 39.1238 93.3523 39.9723C93.3273 41.4412 93.2989 42.91 93.2839 44.3784C93.2541 47.3764 93.2642 50.3743 93.2801 53.3723C93.2883 54.962 93.3003 56.5519 93.3152 58.1417C93.1871 58.2033 93.0604 58.268 92.9332 58.3341C92.5073 58.5559 92.0805 58.7777 91.6546 58.9995C91.2966 59.185 90.9387 59.3711 90.5812 59.5572C90.5547 57.1512 90.5364 54.7452 90.5258 52.3387L90.5254 52.3382Z" fill="#ED454E"/>
<path d="M21.8447 67.047C20.2742 64.2938 18.7046 61.5407 17.1336 58.7875C16.1551 57.0704 15.1762 55.3538 14.1973 53.6377V68.67C14.3331 69.3188 14.4603 69.9695 14.6034 70.6173C14.6867 70.5854 14.7845 70.604 14.838 70.7083C15.379 71.763 15.9509 72.802 16.4582 73.8742C16.5088 73.981 16.4678 74.0823 16.396 74.1411C16.7626 74.7976 17.124 75.4572 17.5012 76.1074C17.7657 76.5627 18.0297 77.0176 18.2947 77.4729C18.4989 77.825 18.7133 78.1716 18.9233 78.5203C19.3227 79.1842 19.7264 79.8456 20.1253 80.5101C20.3253 80.8425 20.5305 81.1711 20.716 81.5113C20.8326 81.7248 20.9487 81.9383 21.0648 82.1518C21.1366 82.284 21.2016 82.4211 21.2676 82.5572C21.3625 82.5963 21.4603 82.6326 21.559 82.6649C21.5547 81.7018 21.5803 80.7368 21.6236 79.7761C21.694 78.2123 21.7378 76.646 21.8635 75.0855C21.958 73.9134 22.0524 72.7417 22.1463 71.5696C22.1897 71.0236 22.2552 70.4782 22.3154 69.9338C22.378 69.3717 22.4479 68.8111 22.5312 68.2519C22.3024 67.8509 22.0736 67.4494 21.8442 67.0479L21.8447 67.047Z" fill="#FF8200"/>
<path d="M19.0626 79.5267C18.036 77.5256 17.0089 75.524 15.9822 73.522C15.3405 72.2695 14.6988 71.0186 14.0566 69.7666C14.0701 69.4018 14.0836 69.0375 14.0937 68.6728C14.1039 68.3246 14.114 67.977 14.1241 67.6289C14.9845 69.3083 15.8464 70.9872 16.7073 72.6661C17.744 74.6848 18.7789 76.7045 19.8151 78.7237C19.9452 78.9774 20.0753 79.231 20.2053 79.4846C20.2044 79.5008 20.2034 79.5174 20.2025 79.534C20.1933 79.6888 20.2058 79.8479 20.2073 80.0026C20.215 80.6029 20.2222 81.2032 20.2299 81.8039C19.8407 81.045 19.4514 80.2861 19.0626 79.5272V79.5267Z" fill="#DDE06C"/>
<path d="M25.4736 112.296C24.2292 109.596 22.9843 106.895 21.7395 104.196C21.5892 103.87 21.4384 103.543 21.2871 103.216L21.3478 101.877C21.3936 100.877 21.4403 99.8768 21.4875 98.876C21.4875 98.874 21.4875 98.8721 21.4875 98.8701C22.6379 101.393 23.8101 103.907 24.9716 106.425C26.1355 108.95 27.299 111.474 28.4629 113.998C28.4966 114.733 28.5361 118.113 28.526 118.739C27.6006 116.732 26.3995 114.304 25.4741 112.296L25.4736 112.296Z" fill="#43C0B8"/>
<path d="M8.90109 49.9585C6.64452 48.1004 4.38842 46.2423 2.13186 44.3847C1.80474 44.1154 1.47859 43.8461 1.15147 43.5773V43.5724C1.12353 43.1479 1.0956 42.7234 1.06766 42.2989C1.04791 41.9973 1.03104 41.6947 1.01562 41.3926C2.2894 42.4423 3.56173 43.4906 4.8355 44.5389C7.11134 46.4132 9.38669 48.2869 11.6635 50.1607C11.8996 50.3546 12.1356 50.5495 12.3722 50.7434C12.3673 50.9279 12.362 51.1121 12.3572 51.2966C12.3524 51.4954 12.3379 51.6971 12.3423 51.8969C12.3495 52.2005 12.3567 52.5045 12.364 52.8081C11.2102 51.8577 10.0563 50.9079 8.90205 49.9585H8.90109Z" fill="#73CFDA"/>
<path d="M11.1042 50.3745C10.6639 49.9799 10.2115 49.6019 9.75959 49.2205C9.12703 48.6868 8.50557 48.136 7.86049 47.6189C7.21445 47.1014 6.57081 46.58 5.92188 46.0649V45.3123C5.92236 42.3707 5.92236 39.4286 5.92188 36.4864V27.0333C5.92188 27.0196 5.92189 27.0059 5.92237 26.9922C5.97777 27.0338 6.03269 27.0749 6.08809 27.1161C7.10364 27.8769 8.12931 28.6261 9.13137 29.4046C10.1233 30.1747 11.1153 30.9415 12.0971 31.7239C12.1708 31.7968 12.244 31.8693 12.3177 31.9423V51.4522C11.914 51.0918 11.5069 50.7354 11.1042 50.375V50.3745Z" fill="#0AB7F4"/>
<path d="M1.1704 40.6751C1.14486 39.5882 1.11884 38.5027 1.09331 37.4167C1.06826 36.3528 1.04273 35.2888 1.01768 34.2249L0.940597 30.9615C0.915064 29.8844 0.89002 28.8057 0.864005 27.7276C0.838953 26.6671 0.813899 25.6075 0.788847 24.5465C0.782584 24.2963 0.776316 24.0456 0.771016 23.795C0.69538 23.7323 0.619746 23.6696 0.544109 23.6074C0.533992 23.8233 0.494483 24.0349 0.491111 24.2567C0.489184 24.3815 0.399594 24.4481 0.304688 24.4574C0.322031 25.1865 0.339354 25.915 0.356698 26.6436C0.383195 27.753 0.409228 28.862 0.435243 29.971C0.460294 31.0247 0.485349 32.0784 0.5104 33.1325C0.535452 34.197 0.560976 35.2624 0.586028 36.3273C0.611561 37.4079 0.637087 38.488 0.66262 39.5681C0.688154 40.6394 0.713209 41.7107 0.738742 42.7825C0.742596 42.9489 0.74645 43.1159 0.750786 43.2824C0.900132 43.419 1.04949 43.5556 1.19884 43.6927C1.21377 43.7064 1.22869 43.7201 1.24363 43.7343C1.21954 42.7149 1.19546 41.695 1.17089 40.6756L1.1704 40.6751Z" fill="#FFEF00"/>
<path d="M9.8403 27.1236C7.12365 25.1338 4.40749 23.1435 1.69133 21.1537C1.61714 21.0993 1.54294 21.045 1.46875 20.9906C2.94294 20.4594 4.41663 19.9281 5.8913 19.3969C9.04731 18.26 12.2029 17.1221 15.3584 15.9847C17.124 15.3482 18.8892 14.7122 20.6549 14.0752C22.2451 15.2405 23.8364 16.4063 25.4272 17.5716C27.9405 19.4126 30.4553 21.254 32.9687 23.0965C31.3798 23.6688 29.7919 24.2407 28.2045 24.8141C25.101 25.9333 21.9966 27.0511 18.8931 28.1699C17.1891 28.7839 15.4856 29.3979 13.7821 30.0119C12.4678 29.0493 11.154 28.0862 9.83981 27.1236H9.8403Z" fill="#EE6B42"/>
<path d="M35.8208 21.6014C35.4947 21.3498 35.1632 21.1025 34.8428 20.843C34.7841 20.7955 34.7263 20.749 34.668 20.7015C36.0256 20.2207 37.3817 19.7399 38.7384 19.2581C41.3563 18.3288 43.9741 17.4015 46.592 16.4727C47.9371 15.9953 49.2822 15.5179 50.6272 15.041C50.872 15.2369 51.1191 15.4288 51.3682 15.6183C51.9347 16.0482 52.4955 16.4888 53.0669 16.9138C51.2661 17.5528 49.4652 18.1908 47.6644 18.8287C45.0335 19.7615 42.4026 20.6952 39.7713 21.6284C38.8786 21.9447 37.9844 22.2624 37.0907 22.5787C36.6668 22.2536 36.2433 21.928 35.8203 21.6014H35.8208Z" fill="#007EFF"/>
<path d="M41.0466 29.055C40.5196 28.7025 39.9993 28.3392 39.478 27.9778C39.0213 27.6615 38.5646 27.3443 38.1074 27.028C37.9094 26.8909 37.7109 26.7528 37.5124 26.6152C37.5023 26.6079 37.4926 26.601 37.483 26.5942C37.471 26.5868 37.4594 26.579 37.4478 26.5712C37.4397 26.5653 37.4315 26.5599 37.4233 26.5535C37.4218 26.5526 37.4209 26.5521 37.4189 26.5506C37.3207 26.4825 37.2229 26.4135 37.1251 26.3435C36.3441 25.7799 35.5627 25.2169 34.7818 24.6533C34.7466 24.6656 34.7114 24.6773 34.6758 24.6896C31.9967 25.6037 29.3172 26.5183 26.6376 27.4314C23.8612 28.3779 21.0853 29.3253 18.309 30.2722C17.9274 30.4025 17.5459 30.5322 17.1643 30.6624C17.237 30.7643 17.2236 30.9503 17.0708 31.0155C16.8112 31.1256 16.5091 31.1922 16.2383 31.2808C15.9633 31.3709 15.6877 31.4576 15.4141 31.5516C16.2942 32.2537 17.1754 32.9563 18.0724 33.6359C19.3626 34.6142 20.6518 35.5929 21.954 36.5545C23.6575 35.9734 25.3605 35.3922 27.0635 34.811C29.7811 33.8846 32.4987 32.9583 35.2163 32.0304C37.4849 31.2559 39.755 30.4832 42.0241 29.7087C41.6979 29.4913 41.3723 29.2734 41.0466 29.0555V29.055Z" fill="#F16170"/>
<path d="M26.5123 40.8454C24.2774 39.0622 22.044 37.2795 19.8091 35.4968C18.1865 34.2017 16.564 32.9072 14.9414 31.6126C15.2367 31.4873 15.5316 31.3604 15.8254 31.2326C16.2985 31.026 16.774 30.8228 17.2471 30.6133C18.1846 31.359 19.1221 32.1047 20.0577 32.8518C22.3268 34.6629 24.5954 36.474 26.8654 38.2842C27.8926 39.1038 28.9202 39.9229 29.9473 40.7426C29.6717 40.8532 29.3966 40.9653 29.122 41.0789C28.6542 41.2723 28.186 41.4662 27.7177 41.6586C27.6729 41.6724 27.6281 41.6861 27.5833 41.6998C27.2263 41.4148 26.8693 41.1303 26.5123 40.8454Z" fill="#84CDB1"/>
<path d="M10.827 33.077C8.53963 31.2512 6.25224 29.4254 3.9634 27.6001C2.73732 26.6223 1.51075 25.6446 0.285156 24.6658C0.288047 24.5478 0.290463 24.4288 0.292872 24.3108C0.292872 24.2986 0.293342 24.2863 0.293342 24.2741C0.303459 24.186 0.305874 24.0973 0.299129 24.0097C0.299611 23.9911 0.300082 23.972 0.300564 23.9529C0.302491 23.8604 0.304906 23.7678 0.306351 23.6753L0.31743 23.1901C0.335256 22.7573 0.35404 22.3249 0.372828 21.8916L3.50959 24.3941C5.81722 26.2345 8.12388 28.0755 10.431 29.9165C11.0959 30.4468 11.7602 30.977 12.4255 31.5078C12.4289 31.7976 12.4318 32.0875 12.4352 32.3773C12.4424 33.0437 12.4496 33.7101 12.4559 34.3769C11.9124 33.9436 11.369 33.5098 10.8266 33.0765L10.827 33.077Z" fill="#2D3194"/>
<path d="M51.3262 17.0508C48.9415 15.3048 46.5582 13.5564 44.1735 11.8099C42.458 10.5535 40.7424 9.29717 39.0273 8.03982C39.9889 7.76466 40.9525 7.49487 41.916 7.22754C42.839 7.9042 43.7626 8.58037 44.6861 9.25654L51.9342 14.5665C52.7561 15.1687 53.5784 15.7714 54.4003 16.3742C53.7442 16.5925 53.0808 16.7967 52.4323 17.0381L51.6871 17.3152C51.5666 17.2276 51.4466 17.1394 51.3262 17.0513V17.0508Z" fill="#7F509F"/>
<path d="M35.8313 22.1032C33.6465 20.5016 31.4622 18.8996 29.2759 17.3005C27.3513 15.8933 25.43 14.4832 23.5078 13.0746C23.5203 13.0687 23.5333 13.0628 23.5459 13.0569C23.582 13.0452 23.6177 13.0334 23.6528 13.0217C24.0917 12.8782 24.5325 12.7406 24.9724 12.5967C25.6984 13.1284 26.4244 13.6606 27.1504 14.1928C29.3362 15.7944 31.5209 17.3959 33.7072 18.9965C35.2204 20.1045 36.7326 21.213 38.2453 22.321C37.7867 22.4444 37.329 22.5712 36.8747 22.7132C36.8256 22.7289 36.776 22.7441 36.7268 22.7592C36.4281 22.5404 36.1295 22.3215 35.8308 22.1027L35.8313 22.1032Z" fill="#FFD700"/>
<path d="M26.6026 15.6503C26.0823 15.24 25.5577 14.8341 25.0451 14.4121C24.4733 13.9401 23.9009 13.4686 23.3281 12.9966C24.5133 12.5868 25.6979 12.177 26.8835 11.7677C29.6363 10.8183 32.3881 9.86841 35.1404 8.91854C37.2404 8.1939 39.3404 7.46976 41.4409 6.74512C41.6355 6.90375 44.7732 9.2461 45.2458 9.57023C45.266 9.58492 45.2872 9.5996 45.3084 9.6138C43.3983 10.2733 41.4886 10.9324 39.5774 11.5914C36.7962 12.5515 34.015 13.5107 31.2343 14.4709C29.8126 14.9619 28.3914 15.4525 26.9702 15.9426C26.8479 15.8452 26.7255 15.7478 26.6026 15.6508V15.6503Z" fill="#00CEFF"/>
<path d="M81.7518 89.8646C81.7552 89.5311 81.759 89.1977 81.7619 88.8642C83.5396 88.5186 85.3173 88.1734 87.0955 87.8282C90.0068 87.2622 92.9176 86.6967 95.8284 86.1317C98.1741 85.6763 100.519 85.2205 102.864 84.7646C102.864 84.8146 102.864 84.8645 102.863 84.915C102.856 85.3458 102.844 85.7777 102.841 86.209C102.841 86.2413 102.841 86.2737 102.84 86.306V86.3696V86.3701V86.3824C102.84 86.4396 102.84 86.4964 102.839 86.5537C101.385 86.8348 99.932 87.1143 98.478 87.3964C95.6024 87.9545 92.7268 88.5137 89.8517 89.0723C87.1485 89.5972 84.4453 90.1226 81.7422 90.6479C81.7456 90.3865 81.7489 90.126 81.7518 89.865V89.8646Z" fill="#DE3881"/>
<path d="M82.3235 107.569C82.3114 107.183 82.2979 106.799 82.2864 106.413C82.2806 106.232 82.2748 106.052 82.2685 105.871C82.2681 105.861 82.2681 105.852 82.2676 105.842C85.1206 105.288 87.9735 104.732 90.827 104.18C93.7084 103.621 96.5893 103.062 99.4707 102.5C100.23 102.352 100.99 102.205 101.75 102.057C101.716 102.452 101.683 102.847 101.649 103.242C101.606 103.74 101.557 104.237 101.523 104.735C101.237 104.79 100.952 104.846 100.666 104.901C97.7441 105.469 94.8222 106.037 91.8999 106.605C89.0296 107.163 86.1592 107.722 83.2884 108.277C82.9984 108.334 82.7084 108.39 82.4189 108.447C82.3986 108.451 82.3789 108.454 82.3581 108.456C82.3475 108.16 82.336 107.865 82.3244 107.569H82.3235Z" fill="#46BBEF"/>
<path d="M76.3442 82.4805V68.4177C77.1242 68.3359 77.9042 68.2571 78.6837 68.1787V85.9128C78.331 85.9906 77.9784 86.0695 77.6257 86.1468C77.3954 86.1977 77.1652 86.2443 76.9387 86.3104C76.7407 86.3682 76.5422 86.4259 76.3438 86.4837V82.4811L76.3442 82.4805Z" fill="#FFDC00"/>
<path d="M31.4228 102.2C31.4252 101.574 31.4483 100.948 31.4623 100.323C31.4623 100.306 31.4633 100.288 31.4633 100.271C32.9394 99.9731 34.4155 99.6754 35.8916 99.3772C38.7128 98.8083 41.5335 98.2354 44.3547 97.6655C47.1575 97.0995 49.9599 96.531 52.7633 95.965C52.8876 95.9401 53.0119 95.9151 53.1367 95.8896C53.1376 96.9311 53.1709 97.9715 53.2104 99.012C52.2536 99.2059 51.2964 99.3987 50.3396 99.5921C47.516 100.164 44.6919 100.733 41.8683 101.306C39.0168 101.885 36.1648 102.461 33.3127 103.037C32.6811 103.164 32.0496 103.292 31.418 103.42C31.4199 103.013 31.4218 102.607 31.4233 102.2L31.4228 102.2Z" fill="#063159"/>
<path d="M31.7373 116.456C31.6829 115.724 31.6578 114.988 31.6188 114.255C31.5851 113.617 31.5379 112.978 31.5277 112.338C31.5258 112.203 31.5234 112.069 31.5215 111.934C31.9454 111.848 32.3698 111.762 32.7938 111.675C35.6848 111.09 38.5759 110.505 41.4664 109.921C44.3734 109.334 47.2803 108.745 50.1868 108.156C51.1975 107.953 52.2068 107.749 53.2166 107.544C53.1636 108.291 53.1096 109.037 53.0566 109.784C53.0152 110.369 53.02 110.957 53.0085 111.543C52.9882 112.581 52.968 113.619 52.9473 114.657C50.1511 115.223 47.3536 115.787 44.556 116.354C41.6466 116.943 38.7373 117.532 35.8275 118.119C34.5248 118.383 33.2226 118.646 31.9209 118.91C31.8597 118.092 31.798 117.273 31.7373 116.455V116.456Z" fill="#3C2968"/>
<path d="M51.6476 114.183L51.8702 105.015L52.0634 97.0502C52.6853 96.9454 53.3068 96.8406 53.9292 96.7363L53.8088 101.697L53.5877 110.801L53.4909 114.794C52.9089 114.892 52.3269 114.991 51.7454 115.09C51.7055 115.097 51.665 115.103 51.625 115.11L51.6476 114.183Z" fill="#EF7821"/>
<path d="M81.2324 100.938V90.0873C81.3818 90.0569 81.5311 90.0261 81.6804 89.9962C83.2283 89.6814 84.7758 89.3676 86.3237 89.0537V106.641C85.1149 106.885 83.9067 107.131 82.6979 107.378C82.2094 107.478 81.7209 107.578 81.2324 107.676V100.938V100.938Z" fill="#F9B73D"/>
<path d="M100.559 101.724C100.679 98.7402 100.796 95.7564 100.918 92.7722C101.005 90.6516 101.09 88.5311 101.174 86.41C101.491 86.3484 101.808 86.2866 102.126 86.225C102.341 86.1833 102.556 86.1417 102.771 86.0996C102.682 88.323 102.593 90.5469 102.503 92.7702C102.383 95.7545 102.26 98.7387 102.144 101.723C102.116 102.442 102.088 103.161 102.06 103.88C101.724 103.945 101.388 104.01 101.052 104.076C100.855 104.114 100.658 104.152 100.461 104.19C100.494 103.368 100.527 102.546 100.559 101.724V101.724Z" fill="#40C1B5"/>
<path d="M31.0932 114.622C31.0715 112.671 31.0503 110.719 31.0296 108.768C31.0084 106.821 30.9877 104.875 30.966 102.928L30.9434 100.8C31.2406 100.75 31.5379 100.7 31.8356 100.65C31.8457 101.562 31.8553 102.473 31.8654 103.385C31.8861 105.328 31.9078 107.271 31.9285 109.213C31.9497 111.181 31.971 113.149 31.9922 115.117C32.0081 116.496 32.0225 117.876 32.0374 119.256C31.8462 119.288 31.6554 119.32 31.4641 119.352C31.3577 119.371 31.2507 119.388 31.1442 119.406C31.1274 117.812 31.1095 116.217 31.0927 114.622L31.0932 114.622Z" fill="#97DBF8"/>
<path d="M9.05373 58.6501C8.37011 57.3296 7.68601 56.0096 7.00239 54.6895C6.89544 53.1477 6.788 51.6059 6.68153 50.0646C6.64299 49.5142 6.60495 48.9634 6.56641 48.4131C8.37108 49.7013 10.1762 50.9895 11.9799 52.2791C12.5903 52.7149 13.2007 53.1511 13.8111 53.5869V67.8329C12.2256 64.7723 10.6402 61.7107 9.05373 58.6501Z" fill="#3B3541"/>
<path d="M19.0183 98.0606C17.7036 95.6683 16.3875 93.2765 15.0723 90.8847V75.0293C15.58 75.9522 16.0873 76.8747 16.5941 77.7981C18.0635 80.471 19.5343 83.1433 21.0032 85.8161V101.672C20.3413 100.468 19.6798 99.2646 19.0179 98.0611L19.0183 98.0606Z" fill="#4B974E"/>
<path d="M25.2992 93.6307C25.2934 93.6195 25.2876 93.6088 25.2812 93.5977C25.2924 93.6176 25.3041 93.6379 25.3147 93.6579C25.3094 93.6491 25.3041 93.6399 25.2987 93.6307H25.2992Z" fill="#4B974E"/>
<path d="M56.3928 107.521L56.5566 98.3448L56.6148 95.0751C57.0624 94.9938 57.5099 94.913 57.958 94.8317C60.9512 94.2892 63.9439 93.7463 66.9375 93.2042C69.9736 92.6539 73.0101 92.105 76.0462 91.5527C76.7129 91.4313 77.3787 91.3104 78.0455 91.1895L77.9038 99.1125L77.7386 108.358L77.728 108.96L73.688 109.693C70.8359 110.211 67.9834 110.726 65.1309 111.244C62.1893 111.778 59.2481 112.311 56.307 112.843C56.3036 112.844 56.3002 112.845 56.2969 112.845L56.3918 107.522L56.3928 107.521Z" fill="#60C2DF"/>
<path d="M67.4714 21.55C65.0544 19.9803 62.6379 18.4101 60.2204 16.8403C60.0576 16.7346 59.8953 16.6288 59.7324 16.5231C60.007 16.4104 60.2826 16.2998 60.5596 16.1901C61.2432 15.9184 61.9225 15.6319 62.6133 15.3793C62.9043 15.2726 63.1958 15.1663 63.4873 15.0596C63.7069 15.2025 63.9261 15.345 64.1463 15.4875C66.5527 17.0499 68.9586 18.6133 71.3645 20.1751C73.3017 21.433 75.2379 22.6903 77.1745 23.9482C76.7771 24.0676 76.3835 24.1988 75.9937 24.3389C75.1078 24.6571 74.2392 25.0194 73.3696 25.3798C71.4035 24.1029 69.437 22.8259 67.4714 21.549V21.55Z" fill="#03ACB6"/>
<path d="M71.9904 17.7875C70.3004 16.6897 68.6099 15.592 66.9199 14.4943C67.619 14.225 68.318 13.9552 69.017 13.6854C71.7481 12.6318 74.4792 11.5786 77.2108 10.5259C77.5264 10.4045 77.8419 10.2826 78.1575 10.1611C78.4807 10.3712 78.804 10.5812 79.1277 10.7913C81.84 12.5529 84.5533 14.3141 87.2656 16.0767C88.7851 17.0638 90.305 18.0509 91.825 19.038C90.7618 19.3077 89.7438 19.718 88.7143 20.0926C88.2952 20.2444 87.8765 20.3962 87.4569 20.5489C87.1091 20.6753 86.7525 20.78 86.4004 20.8951C85.71 21.1203 85.0134 21.3274 84.3206 21.5468C83.729 21.7343 83.1456 21.9497 82.5704 22.1862C82.5641 22.1882 82.5574 22.1906 82.5511 22.1926C82.4215 22.2303 82.2924 22.2704 82.1638 22.3081C81.9793 22.3615 81.7947 22.4154 81.6098 22.4678C81.1935 22.5862 80.7768 22.7038 80.3596 22.8222C80.2175 22.8619 80.0773 22.905 79.9381 22.95C77.2889 21.229 74.6397 19.5095 71.9909 17.7885L71.9904 17.7875Z" fill="#FFE700"/>
<path d="M60.0537 17.0729C59.8302 16.9201 59.6187 16.7497 59.4024 16.5886C59.3667 16.5627 59.332 16.5362 59.2969 16.5093C61.5371 15.6451 63.7777 14.7809 66.0189 13.9173C68.6021 12.9214 71.1857 11.925 73.7694 10.9291C74.9695 10.4664 76.1691 10.0037 77.3686 9.54102C77.8254 9.84017 78.2845 10.1354 78.7422 10.4321C76.5092 11.2929 74.2772 12.1536 72.0452 13.0149C69.475 14.0064 66.9039 14.9974 64.3337 15.9884C63.0835 16.4697 61.8333 16.9534 60.5827 17.4347C60.4064 17.3138 60.2305 17.1928 60.0542 17.0729H60.0537Z" fill="#B296FF"/>
<path d="M97.5619 32.6371C97.9102 32.5132 98.2455 32.3673 98.589 32.2209C98.997 32.0471 99.5173 31.9266 99.8902 31.6647C98.2315 30.5111 96.5728 29.3571 94.9151 28.2031C92.2784 26.3689 89.6427 24.5358 87.007 22.7012C86.5281 22.8975 86.0512 23.0992 85.5723 23.2961C84.7813 23.6207 83.9912 23.9463 83.2011 24.2724C81.8498 24.8305 80.5047 25.4063 79.1664 25.9953C78.3767 26.343 77.5886 26.6935 76.8019 27.049C76.6231 27.1298 76.4459 27.2135 76.2695 27.2982C77.6035 28.2261 78.938 29.1544 80.271 30.0822C83.0652 32.027 85.8599 33.9708 88.6541 35.9146C88.7717 35.9964 88.8892 36.0786 89.0068 36.1599C89.3739 36.0301 89.7419 35.8994 90.1095 35.7697C90.1871 35.7422 90.2651 35.7148 90.3427 35.6869C90.307 35.6007 90.3229 35.4974 90.4299 35.4431C91.2209 35.0411 92.0438 34.8678 92.8845 34.5995C93.5613 34.3835 94.337 34.0839 95.0187 33.7387C95.2196 33.0322 96.7183 32.7908 97.5624 32.6366L97.5619 32.6371Z" fill="#3C2967"/>
<path d="M88.478 35.4117C87.671 34.878 86.8636 34.3444 86.0566 33.8102C88.0473 33.019 90.0374 32.2267 92.0281 31.436C95.2308 30.164 98.434 28.891 101.637 27.6189C102.466 27.2894 103.295 26.9604 104.124 26.6309C104.202 26.6867 104.281 26.742 104.359 26.7973C105.096 27.3129 105.862 27.7815 106.644 28.2226C107.008 28.4278 107.376 28.6236 107.746 28.8165C106.724 29.2224 105.702 29.6283 104.681 30.0337C101.488 31.3014 98.2958 32.568 95.1051 33.8376C93.2301 34.5843 91.3541 35.329 89.4776 36.0737C89.1447 35.8529 88.8113 35.6325 88.4775 35.4117H88.478Z" fill="#679CFF"/>
<path d="M103.9 28.0487C101.259 26.385 98.6184 24.7217 95.9769 23.0585C94.6742 22.2379 93.371 21.4178 92.0684 20.5977C92.4225 20.487 92.7741 20.369 93.1244 20.2432C93.6066 20.0699 94.0874 19.8902 94.5653 19.7031C95.7485 20.4478 96.9317 21.1926 98.1149 21.9378C100.79 23.623 103.466 25.3073 106.142 26.9921C107.032 27.5532 107.922 28.1133 108.811 28.674C108.216 28.9041 107.622 29.1347 107.027 29.3648C106.814 29.4476 106.6 29.5308 106.385 29.6136C105.557 29.0921 104.729 28.5707 103.9 28.0487Z" fill="#9667FF"/>
<path d="M66.9757 44.1271C65.7511 43.1562 64.5226 42.1911 63.2907 41.229C63.0069 41.0072 62.7164 40.7913 62.4375 40.5621C62.0921 40.2782 61.7462 39.9937 61.4012 39.7092C61.3863 39.6965 61.3704 39.6843 61.3555 39.6715C63.6631 38.7917 65.9702 37.9109 68.2769 37.029C70.8654 36.0395 73.4544 35.0519 76.0434 34.0644C76.6788 33.8215 77.3172 33.586 77.9507 33.3378C77.9897 33.3221 78.0292 33.306 78.0692 33.2908C78.6165 33.0822 79.1637 32.8731 79.7105 32.6641C79.9885 32.9045 80.2675 33.1439 80.5445 33.3858C80.7482 33.564 80.9636 33.73 81.1732 33.9013C81.5889 34.2406 82.0047 34.5809 82.4209 34.9202C82.9427 35.3467 83.4731 35.7619 84.0011 36.18C84.466 36.5482 84.9304 36.9174 85.3943 37.2876C84.611 37.5853 83.8277 37.8834 83.0448 38.1821C80.3161 39.2225 77.5889 40.2649 74.8611 41.3054C72.2856 42.2885 69.7111 43.2712 67.1361 44.2539C67.0826 44.2113 67.0292 44.1692 66.9752 44.1266L66.9757 44.1271Z" fill="#1E2AB0"/>
<path d="M80.9675 36.4038C78.5562 34.7225 76.1455 33.0392 73.7338 31.3578C72.4817 30.4853 71.2301 29.6118 69.9785 28.7383C70.8235 28.3931 71.6685 28.048 72.5154 27.7057C72.7265 27.6274 72.938 27.55 73.149 27.4727C74.5177 28.4274 75.8863 29.3827 77.2555 30.3369C79.6291 31.9923 82.0023 33.6487 84.3754 35.3037C85.1082 35.8143 85.841 36.3255 86.5732 36.8367C86.2567 36.9576 85.9397 37.0785 85.6232 37.1995C84.8659 37.4888 84.1085 37.7777 83.3512 38.0666C82.5568 37.5123 81.7619 36.9576 80.967 36.4034L80.9675 36.4038Z" fill="#540B83"/>
<path d="M63.051 41.6806C60.6822 40.0286 58.3144 38.3762 55.946 36.7242C55.0379 36.0906 54.1293 35.4575 53.2207 34.8244C53.3368 34.7794 53.4524 34.7348 53.5681 34.6888C54.1442 34.4597 54.7224 34.2359 55.2995 34.0092C55.4378 33.9549 55.5765 33.902 55.7157 33.8506C56.7756 34.5889 57.8355 35.3273 58.8949 36.0666C61.2415 37.7044 63.5887 39.3412 65.9353 40.978C67.263 41.9044 68.5961 42.8239 69.9204 43.7561C69.3486 43.9745 68.7767 44.1929 68.2044 44.4107C67.9399 44.5121 67.675 44.6125 67.4105 44.7133C65.9594 43.6988 64.5031 42.6917 63.051 41.6796V41.6806Z" fill="#47BBED"/>
<path d="M54.6134 13.5967C52.1082 11.9149 49.6036 10.2326 47.0984 8.55071C46.3469 8.0464 45.5963 7.54062 44.8457 7.03534C46.9062 6.30776 48.9667 5.58018 51.0267 4.85211C53.9553 3.81803 56.8834 2.78396 59.8116 1.74988C60.6103 1.46786 61.4091 1.18583 62.2074 0.90332C64.5025 2.44465 66.7971 3.9845 69.0922 5.52632C70.8439 6.70288 72.5961 7.87944 74.3482 9.05551C72.9882 9.5564 71.6277 10.0573 70.2682 10.5567C68.7463 11.1163 67.2244 11.6765 65.7026 12.2366C64.1995 12.7894 62.6973 13.3431 61.1952 13.8949C60.0684 14.3092 58.9435 14.7224 57.8176 15.1376C57.8234 15.1415 57.8291 15.1449 57.8349 15.1493C57.6364 15.2194 57.438 15.2899 57.2395 15.3594C56.3646 14.7718 55.4888 14.1848 54.6134 13.5967Z" fill="#063261"/>
<path d="M51.5722 32.7901C49.0902 31.0593 46.6086 29.328 44.1276 27.5967C42.123 26.1983 40.1179 24.8 38.1133 23.4016C40.8598 22.3778 43.6053 21.3535 46.3514 20.3297C49.3036 19.2291 52.2549 18.1269 55.2076 17.0258C55.6489 16.8613 56.0906 16.6967 56.5319 16.5322C57.4174 17.1501 58.3034 17.768 59.1888 18.3854C61.7557 20.176 64.3225 21.9665 66.8888 23.7571C68.085 24.5914 69.2812 25.4257 70.4774 26.26C70.397 26.2899 70.3165 26.3202 70.2361 26.3501C67.4322 27.3964 64.6289 28.4413 61.825 29.4871C59.014 30.5359 56.2029 31.5837 53.3913 32.6329C52.9472 32.7984 52.5039 32.9639 52.0597 33.1299C51.8974 33.0168 51.735 32.9032 51.5732 32.7901H51.5722Z" fill="#E53839"/>
<path d="M24.5048 92.015C23.2999 89.5576 22.0955 87.1002 20.8906 84.6428C20.894 84.6335 20.8969 84.6242 20.8993 84.6149C20.9301 84.5072 20.9581 84.4034 20.9793 84.2937C21.025 84.0626 21.0207 83.8251 21.0395 83.5921C21.0525 83.4285 21.065 83.2655 21.078 83.1029C21.1113 82.6765 21.144 82.25 21.1782 81.8245C21.237 81.0975 21.3016 80.3713 21.3637 79.6447C21.4037 79.2614 21.4432 78.8785 21.4837 78.4961C21.4923 78.5132 21.501 78.5299 21.5092 78.5475C22.7757 81.1342 24.0447 83.7203 25.3122 86.307C25.9838 87.6765 26.6554 89.046 27.3265 90.415C27.3048 90.5653 27.2845 90.7161 27.2749 90.8669C27.2484 91.3051 27.2108 91.7443 27.207 92.183C27.1998 92.9203 27.2412 93.6548 27.3289 94.3838C27.353 95.3219 27.3833 96.26 27.4035 97.1977C27.3602 97.3759 27.3332 97.5605 27.3101 97.7416C26.374 95.8331 25.4389 93.9246 24.5034 92.0165L24.5048 92.015Z" fill="#750D49"/>
<path d="M20.4341 82.121V63.6152C20.6648 63.9575 20.897 64.2992 21.1278 64.6415C21.7021 65.4924 22.2739 66.3449 22.8433 67.1997V86.8889C22.0407 85.3001 21.2377 83.7098 20.4336 82.1215L20.4341 82.121Z" fill="#660D75"/>
<path d="M26.8262 96.5724V76.8005C26.8262 76.0621 26.8262 75.3233 26.8262 74.585C27.0887 75.0584 27.3633 75.5236 27.6582 75.973C27.7295 76.0822 27.8008 76.1909 27.8721 76.3001C27.8899 76.3309 27.9077 76.3623 27.9256 76.3931L27.9289 76.3985V98.9539C27.5613 98.1602 27.1942 97.366 26.8267 96.5724H26.8262Z" fill="#DA4383"/>
<path d="M26.681 75.1817C25.9641 73.9003 25.2444 72.6214 24.5265 71.3406C23.7933 70.0323 23.0596 68.725 22.3254 67.4173C22.2459 67.2753 22.1654 67.1328 22.0859 66.9908C22.1076 66.5643 22.1307 66.1384 22.1596 65.7129C22.5715 66.4468 22.9849 67.1798 23.3963 67.9132L25.6148 71.8684C26.2874 73.067 26.9599 74.2656 27.6315 75.4642C27.6286 75.5107 27.6262 75.5572 27.6243 75.6032C27.6093 75.9974 27.5944 76.391 27.5794 76.7857C27.2798 76.251 26.9797 75.7163 26.68 75.1812L26.681 75.1817Z" fill="#9843DA"/>
<path d="M21.567 58.5102C19.3889 56.6379 17.2094 54.7651 15.0304 52.8937L14.6836 52.5951C14.713 52.1946 14.7404 51.7936 14.7621 51.3921C14.8469 49.8507 14.924 48.3075 14.9476 46.7632C14.95 46.5727 14.9534 46.3823 14.9563 46.1913C15.0088 46.181 15.0622 46.1722 15.1157 46.1644C15.873 46.0611 16.7682 46.2447 17.3641 46.7568C19.5017 48.5924 21.6378 50.429 23.7754 52.2651C24.9114 53.2414 26.0478 54.2177 27.1838 55.1945C27.1809 55.2811 27.178 55.3678 27.1756 55.454C27.1014 56.7882 27.0191 58.1219 26.9357 59.4556C26.888 60.2106 26.8702 60.9671 26.8432 61.7231C26.8394 61.8342 26.8466 61.9454 26.8485 62.056C26.8543 62.3189 26.8601 62.5819 26.8658 62.8448C26.8673 62.9187 26.8688 62.9917 26.8702 63.0656C25.1026 61.5468 23.335 60.0285 21.5674 58.5097L21.567 58.5102Z" fill="#0185CE"/>
<path d="M25.6562 61.6922V42.6748C26.3447 43.2095 27.0326 43.7446 27.7206 44.2798V63.2967C27.0326 62.762 26.3442 62.2268 25.6562 61.6922Z" fill="#3A548D"/>
<path d="M17.2182 55.1329C16.0148 54.1972 14.8113 53.262 13.6074 52.3264V33.5234C14.8918 34.5218 16.1757 35.5196 17.4605 36.518V55.3214C17.3796 55.2582 17.2987 55.1955 17.2178 55.1329H17.2182Z" fill="#EBFF00"/>
<path d="M24.3802 42.5184C22.5693 41.1112 20.7593 39.7026 18.9484 38.2964C17.1591 36.9073 15.3708 35.5158 13.582 34.1258C13.5835 34.069 13.5859 34.0117 13.5878 33.9549C13.6013 33.5564 13.6167 33.1583 13.6375 32.7607C15.0712 33.8737 16.502 34.9885 17.9347 36.1029C19.7356 37.5027 21.5364 38.9021 23.3377 40.3019C24.6563 41.3262 25.9734 42.3505 27.2915 43.3743C27.2915 43.4541 27.292 43.5339 27.2925 43.6132C27.2934 43.8326 27.2804 44.0563 27.2968 44.2752C27.3098 44.4554 27.3233 44.6355 27.3363 44.8157C26.3511 44.0495 25.3659 43.2842 24.3802 42.5189V42.5184Z" fill="#FF5C31"/>
<path d="M45.7791 56.8336C45.6765 56.5369 45.8384 56.2329 46.1168 56.1202C47.9037 55.3971 49.691 54.6734 51.4778 53.9507C53.6062 53.0905 55.7332 52.2287 57.8612 51.3685C59.9857 50.5092 62.1098 49.6494 64.2344 48.7901C64.5186 48.6751 64.8019 48.5605 65.0856 48.4454C65.3646 48.3328 65.6912 48.5105 65.7876 48.7886C65.8907 49.0854 65.7283 49.3894 65.4498 49.5025C63.4057 50.33 61.3607 51.1574 59.3165 51.9844C57.1559 52.8584 54.9961 53.7329 52.8354 54.6063C50.8771 55.3981 48.9192 56.1908 46.9604 56.983C46.8014 57.0476 46.6415 57.1127 46.482 57.1768C46.4237 57.2003 46.3635 57.2111 46.3037 57.2111C46.0768 57.2111 45.8562 57.0544 45.78 56.8336H45.7791Z" fill="#E0E148"/>
<path d="M64.918 68.5408V48.4816C64.9276 48.4781 64.9368 48.4742 64.9459 48.4712C65.4402 48.2832 65.935 48.0977 66.4307 47.9131V69.1724C66.2548 69.2498 66.0785 69.3262 65.9008 69.3991C65.5741 69.5343 65.2456 69.6665 64.918 69.8001V68.5408Z" fill="#E0E148"/>
<path d="M42.1221 51.9733C39.8063 50.2136 37.49 48.4534 35.1742 46.6937C34.0252 45.8212 32.8771 44.9482 31.7281 44.0752C31.2266 43.6938 30.7232 43.3138 30.2207 42.9334C30.4905 42.8237 30.7603 42.714 31.0291 42.6034C31.2406 42.7635 31.4506 42.9236 31.6617 43.0837C32.5245 42.7733 33.3868 42.4629 34.2492 42.1529C35.761 41.6095 37.2717 41.066 38.784 40.5225C40.2871 39.9824 41.7902 39.4424 43.2933 38.9009C44.7718 38.3692 46.2503 37.8379 47.7288 37.3067C48.7304 36.9463 49.7305 36.5874 50.7316 36.2266C50.8858 36.3162 51.039 36.4053 51.1922 36.4949C51.3411 36.582 51.4928 36.6662 51.6431 36.7534C51.6942 36.7921 51.7453 36.8313 51.7968 36.8699C54.1353 38.6477 56.4737 40.4246 58.8132 42.2019C58.8132 42.2019 64.1911 46.3103 64.1761 46.2981C63.4786 46.5497 62.781 46.7999 62.0829 47.0506C60.6082 47.5809 59.1326 48.1106 57.6579 48.6419C56.1871 49.1716 54.7153 49.7004 53.244 50.2287C51.7544 50.7639 50.2653 51.2996 48.7762 51.8352C48.1446 52.0624 47.513 52.2896 46.881 52.5167C46.511 52.601 46.1458 52.7077 45.7869 52.835C45.6674 52.8776 45.5474 52.9197 45.428 52.9623C44.9722 53.1234 44.5169 53.2845 44.0612 53.446C43.4152 52.955 42.7686 52.4639 42.1226 51.9728L42.1221 51.9733Z" fill="#7372B6"/>
<path d="M60.7156 43.7937C59.1152 42.647 57.5138 41.5013 55.9129 40.3541C54.259 39.1682 52.6042 37.9838 50.9498 36.7989C50.5442 36.5081 50.1385 36.2178 49.7324 35.9269C50.0957 35.7874 50.4589 35.6483 50.8226 35.5107C51.7924 36.2055 52.7627 36.9003 53.732 37.5951C55.3478 38.7525 56.9641 39.9095 58.5795 41.067C60.1895 42.2205 61.7996 43.3726 63.4091 44.5261C63.914 44.8885 64.4194 45.2503 64.9243 45.6121C64.8038 45.6586 64.6834 45.7051 64.5629 45.7512C64.3746 45.8231 64.1876 45.8946 64.0036 45.9764C63.954 45.9989 63.9039 46.0205 63.8547 46.043C62.8074 45.2939 61.762 44.5438 60.7151 43.7941L60.7156 43.7937Z" fill="white"/>
<path d="M45.9477 33.2164C44.3184 32.0501 42.6905 30.8838 41.0617 29.7176C39.3712 28.5062 37.6802 27.2954 35.9892 26.0846C35.4839 25.7218 34.978 25.3595 34.4727 24.9971C34.7424 24.9012 35.0122 24.8047 35.282 24.7087C35.3918 24.6779 35.5017 24.6466 35.6115 24.6162C36.6728 25.3766 37.7346 26.137 38.796 26.8973C40.4417 28.0759 42.0873 29.2539 43.733 30.4329C45.3913 31.6212 47.0505 32.8085 48.7087 33.9969C48.9264 34.153 49.1447 34.3097 49.3629 34.4659C49.0122 34.6118 48.6624 34.7607 48.3146 34.912C47.5255 34.3469 46.7368 33.7819 45.9482 33.2169L45.9477 33.2164Z" fill="white"/>
<path d="M31.0564 22.5505C29.3779 21.3485 27.6995 20.1465 26.0215 18.9444C24.372 17.7635 22.7234 16.5815 21.0734 15.4006C20.6085 15.0681 20.1445 14.7352 19.6796 14.4022C19.5818 14.3317 19.484 14.2617 19.3867 14.1917C19.4286 14.1819 19.4705 14.1716 19.5125 14.1618C19.7076 14.1148 19.9036 14.0673 20.0992 14.0203C20.2891 13.9846 20.4793 13.9493 20.6696 13.9141C20.8917 14.0732 21.1143 14.2328 21.3364 14.3919C22.1617 14.9829 22.9859 15.5744 23.8112 16.1648C25.4757 17.3551 27.1378 18.5478 28.8018 19.7386C30.2634 20.7849 31.7251 21.8322 33.1863 22.879C32.8895 22.9858 32.5937 23.0949 32.3013 23.2144C32.2338 23.2418 32.1664 23.2698 32.0984 23.2972C31.7511 23.0484 31.4038 22.7997 31.0559 22.551L31.0564 22.5505Z" fill="white"/>
<path d="M30.7367 43.2747L30.1895 42.7924C32.4817 41.9679 34.7739 41.1439 37.0661 40.3194C39.8377 39.323 42.6087 38.3266 45.3803 37.3297C45.7248 37.2064 46.0692 37.082 46.4132 36.9586C46.4358 36.9532 46.459 36.9473 46.4821 36.94C46.616 36.9003 46.7447 36.8494 46.8733 36.7946C46.8805 36.7912 46.8873 36.7887 46.895 36.7853C48.097 36.353 49.2994 35.9206 50.5019 35.4883C50.5949 35.5461 50.6874 35.6033 50.7804 35.6611C51.0352 35.8251 51.2896 35.9887 51.5435 36.1527C49.6516 36.8333 47.7588 37.5133 45.8664 38.1939C43.1093 39.1854 40.3522 40.1764 37.5951 41.1674C35.4055 41.9542 33.2154 42.7415 31.0258 43.5298C30.9294 43.4446 30.8331 43.3599 30.7367 43.2747Z" fill="white"/>
<path d="M54.1906 34.8384C54.0928 34.7728 53.9883 34.716 53.8871 34.6562C53.7527 34.5769 53.6188 34.4976 53.4844 34.4193C53.5417 34.3982 53.599 34.3781 53.6559 34.3576C56.4231 33.3627 59.1899 32.3677 61.9566 31.3728C64.6771 30.3951 67.3971 29.4173 70.1171 28.439C70.7964 28.1947 71.4752 27.9504 72.1545 27.7061C72.4715 27.9396 72.7885 28.1722 73.1089 28.4013C72.3048 28.6902 71.5008 28.9796 70.6977 29.2684C67.9632 30.2521 65.2287 31.2343 62.4943 32.2179C59.8441 33.1712 57.1939 34.123 54.5438 35.0763C54.4257 34.997 54.3082 34.9177 54.1906 34.8384Z" fill="white"/>
<path d="M75.6953 26.4326C76.5235 26.1349 77.3516 25.8372 78.1793 25.5395C80.6305 24.6582 83.0816 23.7773 85.5328 22.8955C87.7725 22.0906 90.0118 21.2847 92.2515 20.4798C92.6682 20.3299 93.0854 20.1801 93.5016 20.0303C93.8808 20.2413 94.2609 20.4509 94.642 20.6594C93.9834 20.8954 93.3248 21.1324 92.6663 21.3689C90.4935 22.1494 88.3208 22.9313 86.1485 23.7122C83.6896 24.5955 81.2317 25.4798 78.7733 26.364C78.0873 26.6108 77.4007 26.8576 76.7142 27.1038C76.3746 26.8801 76.035 26.6563 75.6953 26.4321V26.4326Z" fill="white"/>
<path d="M27.8379 41.3625C29.115 40.9032 30.3931 40.4444 31.6708 39.9852C34.6129 38.9266 37.555 37.869 40.4976 36.8115C43.1169 35.8694 45.7367 34.9293 48.3561 33.9863C48.397 34.0177 48.4385 34.049 48.4799 34.0803L48.4042 34.023C48.6302 34.1944 48.8542 34.3702 49.0806 34.5421C47.7245 35.0297 46.3678 35.5174 45.0112 36.005C42.1202 37.044 39.2286 38.0815 36.339 39.123C33.7549 40.0542 31.1688 40.982 28.5832 41.9118C28.3356 41.7282 28.087 41.5456 27.8389 41.3625H27.8379Z" fill="white"/>
<path d="M51.3711 32.9007C53.5742 32.1085 55.7782 31.3173 57.9813 30.5246C60.896 29.4763 63.8111 28.4285 66.7258 27.3802C67.8386 26.9802 68.9525 26.5807 70.0653 26.1797L70.2816 26.3207C70.4796 26.4485 70.6781 26.5763 70.8761 26.7051C68.107 27.7 65.3388 28.6954 62.5701 29.6908C59.6236 30.7508 56.6772 31.8094 53.7303 32.8694C53.1965 33.0613 52.6627 33.2532 52.1289 33.4452C51.876 33.264 51.6235 33.0824 51.3716 32.9002L51.3711 32.9007Z" fill="white"/>
<path d="M72.8223 25.1901C73.6509 24.8924 74.479 24.5942 75.3077 24.2961L84.042 21.1556C86.6782 20.2082 88.743 19.4713 91.3792 18.5234C91.5791 18.6591 91.7858 18.7854 91.99 18.9146C92.0589 18.9582 92.1274 19.0023 92.1963 19.0459C90.7409 19.5688 89.8563 19.8812 88.4009 20.405C85.5614 21.4259 82.7219 22.4458 79.8825 23.4676C77.7969 24.2187 75.7104 24.9683 73.6244 25.7179C73.3575 25.5412 73.0901 25.3654 72.8232 25.1896L72.8223 25.1901Z" fill="white"/>
<path d="M55.8105 88.9125V71.8414C56.3145 71.7185 56.8184 71.5951 57.3223 71.4712C58.3995 71.2431 59.471 70.9816 60.5559 70.7863C61.3339 70.6462 62.1115 70.4954 62.8919 70.3671C63.7379 70.2276 64.5839 70.089 65.4294 69.949C65.5975 69.9216 65.7647 69.8888 65.9318 69.8555V91.0492C65.9063 91.0517 65.8817 91.0551 65.8567 91.058C65.4631 91.1045 65.07 91.1515 64.6759 91.1986C64.6764 91.1986 64.6769 91.1981 64.6773 91.1981C64.6725 91.1986 64.6682 91.1995 64.6634 91.2005C64.5078 91.2191 64.3526 91.2431 64.197 91.2637C63.7957 91.3195 63.3944 91.3753 62.9931 91.4301C62.1071 91.5525 61.2207 91.6754 60.3357 91.7974C59.3211 91.9379 58.3114 92.0999 57.2997 92.2552C56.8035 92.3311 56.3068 92.4069 55.8105 92.4838V88.9125Z" fill="#0385D2"/>
<path d="M64.6641 91.2016C64.6684 91.2016 64.6722 91.2007 64.6765 91.2002C64.6722 91.2002 64.6684 91.2012 64.6641 91.2016Z" fill="#0385D2"/>
<path d="M56.3105 89.5925C57.6542 89.3556 58.9983 89.1181 60.3414 88.8797C63.2055 88.3719 66.0696 87.8661 68.9346 87.3628C71.7567 86.8668 74.5784 86.3674 77.3996 85.8685C77.6231 85.8288 77.8467 85.7897 78.0702 85.75C78.0635 86.4502 78.0562 87.1498 78.0495 87.8495C78.0456 88.2231 78.0418 88.5967 78.0384 88.9702C78.0384 89.0349 78.0365 89.0995 78.0355 89.1641C76.0097 89.522 73.9844 89.8799 71.9586 90.2369C69.1124 90.7382 66.2661 91.2421 63.4199 91.7439C61.0631 92.1596 58.7068 92.5753 56.35 92.992C56.338 91.859 56.3255 90.7265 56.311 89.593L56.3105 89.5925Z" fill="#2E3190"/>
<path d="M29.8957 77.9777C30.9758 77.7065 32.0554 77.4357 33.1355 77.1654C35.3415 76.6131 37.5474 76.0584 39.7534 75.5051C42.0292 74.9342 44.3051 74.3638 46.5809 73.792C48.4627 73.3195 50.3449 72.8485 52.2272 72.376C52.2272 72.7319 52.2262 73.0879 52.2257 73.4438C52.2238 74.7761 52.2219 76.1079 52.2204 77.4401C52.2185 78.7944 52.2166 80.1507 52.2151 81.5049C52.2132 82.8627 52.2122 84.2194 52.2098 85.5757C52.2079 86.9177 52.2069 88.2598 52.205 89.6018C52.2031 90.9473 52.2011 92.2923 52.1997 93.6373C52.1997 93.8072 52.1997 93.9776 52.1987 94.1475C52.0489 94.1778 51.8986 94.2087 51.7488 94.239C50.9269 94.4055 50.105 94.5715 49.2831 94.7389C48.4656 94.9049 47.6485 95.0694 46.831 95.2359C46.023 95.3999 45.2151 95.5635 44.4077 95.727C43.6008 95.8905 42.7933 96.054 41.9859 96.2181C41.1833 96.3811 40.3807 96.5437 39.5776 96.7067C38.7769 96.8683 37.9772 97.0303 37.1765 97.1934C36.3753 97.3564 35.5746 97.518 34.7735 97.6806C33.9805 97.8417 33.1875 98.0027 32.395 98.1629C32.1484 98.2133 31.9017 98.2627 31.655 98.3132L29.8691 98.3802L29.8957 77.9782V77.9777Z" fill="#DF3880"/>
<path d="M36.851 70.0689C36.6766 69.947 36.5032 69.8246 36.3288 69.7027C36.2994 69.6816 36.2695 69.662 36.2406 69.6429C36.2247 69.6307 36.2083 69.619 36.192 69.6067L36.2175 69.6248C36.1924 69.6067 36.1669 69.5886 36.1419 69.5715C36.1592 69.5837 36.1751 69.595 36.192 69.6072C35.7675 69.3085 35.3426 69.0108 34.9182 68.7117C34.2856 68.2416 33.6516 67.7726 33.0364 67.2791C32.4135 66.7792 31.8147 66.2533 31.2375 65.6995C31.2342 65.6961 31.2308 65.6932 31.2274 65.6902C31.2226 65.6853 31.2173 65.6805 31.2125 65.6756C30.6604 65.136 30.1247 64.5803 29.5971 64.0157L29.5957 64.0143V45.9541L30.5751 46.6493C30.803 46.8109 31.0285 46.9779 31.2597 47.1351C31.9929 47.635 32.7257 48.1344 33.4589 48.6343C34.6089 49.4182 35.7675 50.1898 36.9103 50.9835C36.9093 50.983 36.9088 50.9825 36.9074 50.982L37.5062 51.3987V68.5648C37.5062 69.1822 37.4185 69.7786 37.2268 70.3318C37.1015 70.2442 36.9763 70.1566 36.8515 70.0684L36.851 70.0689Z" fill="#2AB2C9"/>
<path d="M40.9071 75.3091C40.5848 75.0075 40.2692 74.6995 39.9508 74.395C39.7682 74.2207 39.5842 74.0478 39.3997 73.8735C39.2484 73.7046 39.1019 73.5313 38.9516 73.3614C38.8471 73.2429 38.7406 73.1259 38.6336 73.0088C38.5946 72.9662 38.5561 72.9246 38.5156 72.8835C38.5156 72.2489 38.5166 71.6144 38.5166 70.9799V52.4678C39.9392 53.8568 41.3623 55.2449 42.7855 56.633V77.0688C42.1592 76.4822 41.5334 75.8952 40.9071 75.3091Z" fill="#12167A"/>
<path d="M40.0798 54.9674C37.764 53.2444 35.4477 51.5219 33.1319 49.7999C31.9906 48.9514 30.8483 48.1038 29.707 47.2553V43.7021C31.8022 45.2631 33.9017 46.8191 35.9983 48.379C38.2607 50.0628 40.5235 51.7442 42.7868 53.4265V56.9802C41.885 56.3089 40.9831 55.6376 40.0803 54.9669L40.0798 54.9674Z" fill="#1E45B8"/>
<path d="M38.7632 74.0451C36.4527 72.1155 34.1417 70.1869 31.8302 68.2577C31.1129 67.6589 30.3956 67.0606 29.6777 66.4623V63.2939C31.52 64.8343 33.3656 66.3702 35.2088 67.9086C37.5083 69.8279 39.8072 71.7473 42.1062 73.6671C42.3678 73.885 42.6289 74.1038 42.891 74.3217V77.491C41.5146 76.3424 40.1387 75.1937 38.7632 74.0446V74.0451Z" fill="#2A7AC9"/>
<path d="M81.8945 85.1447V67.4577C84.1752 66.9308 86.4563 66.405 88.7365 65.8747C91.0937 65.3259 93.4515 64.7829 95.8087 64.2384C98.1843 63.689 100.56 63.1397 102.936 62.5898V82.8939L81.8945 86.9598V85.1452V85.1447Z" fill="#EB7D1E"/>
<path d="M55.959 71.514V71.4606C57.1908 71.2432 58.4222 71.0249 59.6541 70.8075C62.4069 70.3213 65.1596 69.8346 67.9129 69.3494C70.5158 68.8901 73.1178 68.4289 75.7203 67.9711C76.665 67.8046 77.6088 67.6382 78.5535 67.4717C78.5497 67.5867 78.5468 67.7013 78.5482 67.8159C78.554 68.1503 78.5588 68.4847 78.5632 68.8186C77.6686 68.9763 76.7739 69.1339 75.8793 69.2916C73.2658 69.7514 70.6536 70.215 68.0406 70.6758C65.2849 71.161 62.5302 71.6482 59.7755 72.1348C58.5046 72.3596 57.2337 72.5843 55.9633 72.8095C55.9619 72.3777 55.9609 71.9463 55.959 71.5145V71.514Z" fill="#CD509F"/>
<path d="M45.5762 76.2481V55.9945C47.1939 55.3457 48.8122 54.6975 50.4304 54.0487C51.8872 53.4651 53.3441 52.881 54.8004 52.2969V72.8732C54.6463 72.9212 54.4921 72.9697 54.3384 73.0181C54.1221 73.0857 53.9 73.1444 53.6871 73.2247C53.4106 73.3295 53.1345 73.4343 52.858 73.5391C51.8887 73.9063 50.9189 74.274 49.9491 74.6417C49.4669 74.8248 48.9948 75.0319 48.5202 75.2361C47.5379 75.6586 46.5566 76.0812 45.5762 76.5062V76.2481Z" fill="#97DBF7"/>
<path d="M69.6044 66.7699C69.4801 65.371 69.3582 63.9717 69.2436 62.5723C69.1829 61.8315 69.1097 61.0912 69.0663 60.3495C69.0398 59.8926 69.0128 59.4368 68.9863 58.9805C69.1863 58.9075 69.3867 58.8351 69.5866 58.7621C72.3037 57.7736 75.0209 56.785 77.7375 55.795C80.4354 54.8114 83.1352 53.8306 85.8325 52.8475C86.5884 52.5723 87.3443 52.2967 88.1002 52.0215C88.0929 52.6066 88.0857 53.1917 88.0785 53.7768C88.0582 55.3911 88.0491 57.0054 88.04 58.6196C88.0375 58.9795 88.0342 59.3389 88.0298 59.6983C85.4645 60.7588 82.8996 61.8188 80.3337 62.8788C77.5405 64.0329 74.7477 65.1874 71.9549 66.3414C71.1865 66.6582 70.4176 66.976 69.6497 67.2938C69.6353 67.1195 69.6203 66.9447 69.6049 66.7708L69.6044 66.7699Z" fill="#7DBFB2"/>
<path d="M86.1699 53.3851V43.9212C87.1089 43.5236 88.0502 43.1314 88.9925 42.7402V59.7639C88.0517 60.1526 87.1113 60.5419 86.1704 60.9302C86.1709 58.6485 86.1699 55.6667 86.1699 53.3851Z" fill="#432142"/>
<path d="M68.7857 60.7911V47.989C69.0588 47.8759 69.33 47.7569 69.5955 47.6276C69.8773 47.4895 70.1577 47.3495 70.4376 47.208V66.7253C69.8865 66.952 69.3358 67.1787 68.7852 67.4059V60.7906L68.7857 60.7911Z" fill="#45A44D"/>
<path d="M68.752 46.1952C70.7238 45.5224 72.698 44.8541 74.6704 44.1814C77.8481 43.0983 81.0248 42.0133 84.2015 40.9288C85.6314 40.4407 87.0613 39.952 88.4911 39.4639V45.3393C87.8566 45.5557 87.2221 45.7726 86.5877 45.989C83.4307 47.0672 80.2732 48.1453 77.1163 49.2225C74.3283 50.1738 71.5409 51.1261 68.7529 52.0775V46.1957L68.752 46.1952Z" fill="#F5AF20"/>
<path d="M45.9166 75.1058C45.9074 74.8571 45.8968 74.6083 45.8848 74.3601C46.5139 74.1187 47.1436 73.8807 47.7713 73.6384C49.1569 73.1018 50.5424 72.5637 51.928 72.0275C54.5454 71.014 57.1623 70 59.7792 68.985C61.5184 68.3103 63.2571 67.6366 64.9962 66.9629C64.9962 67.0099 64.9962 67.0564 64.9962 67.1034C64.9957 67.6307 64.9953 68.1585 64.9948 68.6859C64.9948 69.056 65.003 69.4262 65.014 69.7963C63.5485 70.3643 62.083 70.9323 60.618 71.5007C57.9784 72.5245 55.3374 73.5478 52.6969 74.5701C51.387 75.0774 50.0775 75.5851 48.7686 76.0933C47.8431 76.4522 46.9114 76.7984 45.9874 77.1617C45.9667 76.4762 45.9431 75.7903 45.9171 75.1048L45.9166 75.1058Z" fill="#43C0B8"/>
</g>
<defs>
<clipPath id="clip0_3446_30272">
<rect width="110" height="120" fill="white"/>
</clipPath>
</defs>
</svg>
