<svg width="424" height="394" viewBox="0 0 424 394" fill="none" xmlns="http://www.w3.org/2000/svg">
<g clip-path="url(#clip0_2115_18868)">
<path d="M416.92 306.126L319.025 327.829C314.266 328.833 247.26 332.588 246.255 327.829L229.469 257.209C228.464 252.45 231.509 247.778 236.268 246.773L397.214 212.789C401.973 211.785 406.645 214.829 407.65 219.588L423.719 295.694C424.723 300.453 421.679 305.125 416.92 306.13V306.126Z" fill="#C4DDFF"/>
<path d="M294.867 117.168L156.414 149.638C151.424 150.81 146.427 147.712 145.258 142.719L122.086 43.9127C120.914 38.9225 124.011 33.9256 129.005 32.7567L267.458 0.286918C272.448 -0.885278 277.445 2.21267 278.614 7.20623L301.787 106.012C302.959 111.003 299.861 115.999 294.867 117.168Z" fill="#8EB8FF"/>
<path d="M254.548 369.039L164.44 369.196C152.52 369.217 142.874 378.896 142.895 390.815V393.404L236.305 393.243C243.502 393.23 249.769 388.32 251.5 381.33L254.548 369.039Z" fill="#2872FF"/>
<path d="M187.633 393.326L244.277 393.229C254.542 393.212 261.213 382.414 256.635 373.228L225.274 310.277L146.328 310.415L187.633 393.329V393.326Z" fill="#2872FF"/>
<path d="M370.027 105.895L367.435 124.677L365.556 138.314L348.7 260.517L343.448 298.6C342.896 302.626 341.188 306.437 338.706 309.696C334.084 315.781 326.773 319.928 319.278 319.944L227.984 320.102L204.305 320.145L47.2748 320.417C42.164 320.427 37.6828 318.521 34.6586 315.055C31.5673 311.515 30.2645 306.682 30.9846 301.444L44.2907 204.965L57.5633 108.738C57.714 107.646 57.9485 106.575 58.2599 105.523C59.5862 101.055 62.2956 96.9894 65.8122 93.8512C66.9576 92.8298 68.1834 91.9021 69.4828 91.0916C73.1903 88.774 77.427 87.4008 81.7306 87.3941L108.041 87.3472L153.653 87.2702L278.201 87.0525L290.733 87.0324L353.74 86.9219C358.851 86.9152 363.332 88.8175 366.357 92.2839C369.448 95.8239 370.751 100.66 370.031 105.895H370.027Z" fill="#C4DDFF"/>
<path d="M357.906 75.2032L78.4608 75.6854C62.3213 75.7156 47.4277 88.8274 45.2005 104.974L17.8917 302.944C15.6646 319.09 26.9478 332.159 43.0906 332.132L322.532 331.646C338.675 331.619 353.568 318.507 355.792 302.361L383.098 104.388C385.325 88.2413 374.045 75.1764 357.902 75.2032H357.906ZM370.023 105.895L367.431 124.677L365.552 138.314L348.695 260.517L343.444 298.6C342.891 302.626 341.183 306.437 338.702 309.696C334.08 315.781 326.769 319.928 319.273 319.944L227.979 320.102L204.301 320.145L47.2703 320.417C42.1595 320.427 37.6784 318.521 34.6541 315.055C31.5629 311.515 30.2601 306.682 30.9801 301.444L44.2862 204.965L57.5588 108.738C57.7096 107.646 57.944 106.574 58.2555 105.523C59.5817 101.055 62.2912 96.9893 65.8078 93.8511C66.9532 92.8296 68.179 91.9019 69.4784 91.0914C73.1859 88.7738 77.4226 87.4007 81.7262 87.394L108.037 87.3471L153.649 87.2701L278.196 87.0524L290.729 87.0323L353.736 86.9218C358.847 86.9151 363.328 88.8174 366.352 92.2837C369.443 95.8238 370.746 100.66 370.026 105.895H370.023Z" fill="#2872FF"/>
<path d="M168.842 272.915L26.8551 280.88C21.7376 281.168 17.3536 277.249 17.0656 272.132L11.3821 170.804C11.0941 165.686 15.0126 161.302 20.13 161.014L162.116 153.05C167.234 152.762 171.618 156.681 171.906 161.798L177.589 263.126C177.877 268.243 173.959 272.627 168.842 272.915Z" fill="#F8F8F8"/>
<path d="M150.394 265.474C150.136 265.474 149.882 265.464 149.621 265.448L107.348 262.38L107.519 260.042L149.791 263.11C151.955 263.267 154.045 262.574 155.683 261.154C157.32 259.737 158.312 257.765 158.466 255.604L165.807 154.38C165.964 152.22 165.271 150.127 163.851 148.489C162.434 146.852 160.465 145.86 158.302 145.706L16.4659 135.418C14.3024 135.26 12.2125 135.957 10.5748 137.373C8.93709 138.79 7.94575 140.759 7.79169 142.923L2.60724 214.407L0.269531 214.236L5.454 142.752C5.65495 139.966 6.93096 137.427 9.04426 135.602C11.1576 133.777 13.857 132.879 16.6401 133.083L158.476 143.372C161.262 143.573 163.801 144.849 165.63 146.962C167.455 149.075 168.352 151.771 168.148 154.558L160.807 255.779C160.606 258.565 159.33 261.104 157.217 262.929C155.301 264.587 152.903 265.478 150.394 265.478V265.474Z" fill="#0A0E29"/>
<path d="M111.745 223.231C111.745 223.231 111.728 223.264 111.721 223.281C107.304 232.447 99.1285 239.748 88.5687 242.736C88.3209 242.806 88.073 242.877 87.8219 242.937C87.6845 242.974 87.5439 243.011 87.4066 243.044C68.1926 247.827 48.5198 236.52 43.0842 217.329C37.538 197.75 48.9117 177.384 68.494 171.842C88.0697 166.295 108.436 177.676 113.979 197.251C116.527 206.25 115.502 215.42 111.741 223.234L111.745 223.231Z" fill="#2872FF"/>
<path d="M80.972 191.542L70.2949 153.838L71.4236 153.52C81.8092 150.579 93.0054 152.207 102.135 157.987C110.046 162.998 115.806 170.724 118.362 179.74L118.68 180.869L80.9753 191.546L80.972 191.542ZM73.1953 155.472L82.5896 188.645L115.766 179.251C113.224 171.273 107.973 164.455 100.879 159.963C92.6437 154.749 82.6164 153.138 73.1953 155.472Z" fill="#0A0E29"/>
<path d="M118.142 231.789L84.9316 215.84L120.319 205.582C122.753 213.978 122.231 223.279 118.142 231.792V231.789Z" fill="#0A0E29"/>
<path d="M118.128 231.721C118.128 231.721 118.111 231.755 118.105 231.772C113.687 240.938 105.512 248.239 94.9522 251.227C94.7044 251.297 94.4566 251.367 94.2054 251.428L84.9316 215.84L118.128 231.721Z" fill="#F8F8F8"/>
<path d="M158.347 137.079C155.859 137.079 153.477 136.202 151.565 134.567C149.442 132.752 148.156 130.217 147.938 127.433L140.077 26.2495C139.86 23.4664 140.741 20.7637 142.559 18.6403C144.374 16.517 146.91 15.2309 149.693 15.0132L291.475 4.00126C294.261 3.78357 296.961 4.66439 299.084 6.48297C301.204 8.2982 302.494 10.8335 302.711 13.6166L307.511 75.4248L305.173 75.6057L300.374 13.7975C300.206 11.6373 299.208 9.67134 297.56 8.26471C295.916 6.85472 293.816 6.17485 291.659 6.33896L149.877 17.3509C147.717 17.5184 145.751 18.5164 144.344 20.1642C142.934 21.8086 142.251 23.9051 142.418 26.0653L150.279 127.249C150.446 129.409 151.444 131.375 153.092 132.782C154.74 134.192 156.836 134.875 158.993 134.708L300.775 123.696C302.936 123.528 304.902 122.53 306.308 120.883C307.718 119.238 308.401 117.142 308.234 114.981L307.504 105.597L309.842 105.416L310.572 114.801C310.789 117.584 309.909 120.286 308.09 122.41C306.275 124.53 303.739 125.819 300.956 126.037L159.174 137.049C158.896 137.069 158.622 137.082 158.347 137.082V137.079Z" fill="#0A0E29"/>
<path d="M386.626 240.947L382.865 205.516C382.42 201.33 378.656 198.285 374.466 198.731L370.316 199.173L370.068 196.842L374.218 196.4C379.687 195.82 384.614 199.799 385.196 205.268L388.957 240.699L386.626 240.947Z" fill="#0A0E29"/>
<path d="M219.903 311.025C214.869 311.025 210.528 307.214 209.986 302.1L201.774 224.752C201.492 222.103 202.259 219.5 203.934 217.427C205.609 215.354 207.993 214.058 210.642 213.777L339.848 200.059L340.096 202.39L210.89 216.108C206.704 216.553 203.659 220.321 204.105 224.507L212.317 301.855C212.762 306.042 216.523 309.086 220.716 308.641L365.061 293.315L365.309 295.646L220.964 310.972C220.609 311.009 220.254 311.029 219.903 311.029V311.025Z" fill="#0A0E29"/>
<path d="M242.406 268.817L229.75 270.16L232.157 292.834L244.813 291.49L242.406 268.817Z" fill="#2872FF"/>
<path d="M267.398 256.797L254.742 258.141L258.133 290.076L270.788 288.732L267.398 256.797Z" fill="#2872FF"/>
<path d="M294.605 265.598L281.949 266.941L284.112 287.317L296.768 285.973L294.605 265.598Z" fill="#2872FF"/>
<path d="M319.353 251.281L306.697 252.625L310.088 284.56L322.743 283.217L319.353 251.281Z" fill="#0A0E29"/>
<path d="M343.868 234.731L331.213 236.074L336.067 281.798L348.723 280.454L343.868 234.731Z" fill="#0A0E29"/>
<path d="M368.558 219.863L355.902 221.207L362.043 279.046L374.698 277.703L368.558 219.863Z" fill="#0A0E29"/>
<path d="M287.391 241.679L259.556 225.416L233.363 241.468L232.137 239.469L259.529 222.683L287.541 239.054L336.981 217.408L364.441 181.234L366.31 182.651L338.482 219.311L287.391 241.679Z" fill="#0A0E29"/>
<path d="M259.877 227.895C262.165 227.895 264.02 226.04 264.02 223.752C264.02 221.464 262.165 219.609 259.877 219.609C257.589 219.609 255.734 221.464 255.734 223.752C255.734 226.04 257.589 227.895 259.877 227.895Z" fill="#0A0E29"/>
<path d="M287.467 244.512C289.755 244.512 291.61 242.657 291.61 240.369C291.61 238.081 289.755 236.227 287.467 236.227C285.179 236.227 283.324 238.081 283.324 240.369C283.324 242.657 285.179 244.512 287.467 244.512Z" fill="#0A0E29"/>
<path d="M337.313 222.606C339.601 222.606 341.456 220.751 341.456 218.463C341.456 216.175 339.601 214.32 337.313 214.32C335.025 214.32 333.17 216.175 333.17 218.463C333.17 220.751 335.025 222.606 337.313 222.606Z" fill="#0A0E29"/>
<path d="M370.853 184.651C371.507 180.621 368.77 176.824 364.741 176.17C360.711 175.516 356.915 178.253 356.26 182.282C355.606 186.312 358.343 190.108 362.372 190.762C366.402 191.417 370.198 188.68 370.853 184.651Z" fill="#0A0E29"/>
<path d="M233.418 244.618C235.706 244.618 237.561 242.763 237.561 240.475C237.561 238.187 235.706 236.332 233.418 236.332C231.13 236.332 229.275 238.187 229.275 240.475C229.275 242.763 231.13 244.618 233.418 244.618Z" fill="#0A0E29"/>
<path d="M219.186 80.3759L189.805 84.7617L194.291 114.819L223.673 110.433L219.186 80.3759Z" fill="#2872FF"/>
<path d="M240.477 63.9334L212.318 68.1367L218.742 111.172L246.901 106.968L240.477 63.9334Z" fill="#F8F8F8"/>
<path d="M263.949 48.7743L235.064 53.0859L243.19 107.522L272.075 103.211L263.949 48.7743Z" fill="#2872FF"/>
<path d="M187.332 104.347L181.756 67.004L197.952 64.5859L203.529 101.929L187.332 104.347ZM184.422 68.9767L189.305 101.681L200.866 99.9561L195.983 67.2519L184.422 68.9767Z" fill="#0A0E29"/>
<path d="M214.814 100.136L206.98 47.672L223.177 45.2539L231.01 97.718L214.811 100.136H214.814ZM209.646 49.6446L216.787 97.4702L228.348 95.7454L221.208 47.9198L209.646 49.6446Z" fill="#0A0E29"/>
<path d="M243.305 95.8836L233.488 30.1368L249.685 27.7188L259.501 93.4655L243.301 95.8836H243.305ZM236.154 32.1061L245.277 93.2177L256.838 91.4929L247.715 30.3813L236.154 32.1061Z" fill="#0A0E29"/>
<path d="M109.199 91.6822C107.802 89.6191 104.972 89.1 102.825 90.3592L74.7761 106.824C72.626 108.086 71.7016 110.809 72.8236 113.033C73.902 115.173 76.3502 116.097 78.497 115.374C78.909 115.233 79.3376 115.525 79.3544 115.96C79.3912 116.918 79.5922 118.428 80.396 119.798C81.5213 121.717 83.802 122.534 85.835 121.891C86.2703 121.754 86.7057 122.072 86.689 122.528C86.6522 123.532 86.7627 125.083 87.5598 126.439C88.8693 128.667 91.7328 129.413 93.9633 128.107L112.052 117.491C114.279 116.184 115.026 113.318 113.72 111.087C112.923 109.731 111.623 108.88 110.729 108.421C110.324 108.213 110.257 107.678 110.588 107.363C112.142 105.899 112.538 103.508 111.412 101.592C110.608 100.222 109.389 99.3115 108.569 98.8124C108.197 98.5847 108.154 98.0723 108.475 97.7776C110.156 96.2537 110.542 93.6648 109.199 91.6822Z" fill="#2872FF"/>
<path d="M77 113.786C76.6282 113.786 76.2632 113.608 76.0355 113.28C73.8217 110.071 71.5309 106.752 68.7377 103.912C65.8909 101.022 62.4514 98.8753 57.5851 96.9496C49.4065 93.7043 41.5896 90.2279 35.8693 83.4157C31.137 77.7724 28.4175 71.0943 28.0089 64.1046C27.2051 50.3297 34.8411 37.0001 47.9429 29.3172C61.0046 21.6577 76.3335 21.507 87.9483 28.922C93.8528 32.6864 98.3608 38.3163 100.98 45.1988C104.141 53.5147 103.368 62.0349 102.212 70.756C101.522 75.9472 101.72 79.9996 102.855 83.8913C103.887 87.4112 105.478 90.7604 107.296 94.4578C107.581 95.0372 107.343 95.7405 106.76 96.0285C106.181 96.3132 105.478 96.0754 105.19 95.4927C103.321 91.6948 101.686 88.2485 100.601 84.5477C99.3688 80.3245 99.1478 75.974 99.8846 70.4445C100.997 62.0315 101.75 53.8329 98.7861 46.0294C96.3479 39.6225 92.1649 34.3878 86.6857 30.8947C75.8178 23.9553 61.4265 24.1227 49.1285 31.3367C36.7937 38.5709 29.5964 51.0732 30.35 63.964C30.7284 70.4479 33.257 76.6538 37.6645 81.9053C43.0331 88.2988 50.5586 91.6378 58.4458 94.7693C63.6303 96.8223 67.321 99.1365 70.4055 102.268C73.3394 105.255 75.6871 108.658 77.9612 111.947C78.3296 112.479 78.1956 113.21 77.6631 113.578C77.4588 113.719 77.2277 113.786 76.9967 113.786H77Z" fill="#0A0E29"/>
<path d="M48.3106 69.8549C47.7647 69.8549 47.2757 69.4698 47.1619 68.9138C46.271 64.4695 47.2121 58.8497 52.8085 57.6406C54.1247 57.3559 55.6352 57.4698 57.0351 57.9219C58.6192 53.8829 62.6483 50.9859 66.9017 50.9859C66.9284 50.9859 66.9552 50.9859 66.9854 50.9859C68.3987 50.9993 69.7786 51.3141 71.0278 51.8768C71.2421 50.4902 71.7512 49.0702 72.7961 47.898C75.4386 44.934 80.0068 45.5436 82.9641 47.6234C83.4932 47.9951 83.6205 48.7286 83.2488 49.2577C82.877 49.7869 82.1436 49.9142 81.6144 49.5424C79.7925 48.2597 76.3931 47.3856 74.5444 49.4587C73.6066 50.5103 73.2952 51.9538 73.2483 53.2667C73.9549 53.8528 74.5745 54.5427 75.0769 55.313C75.3549 55.7417 75.6797 56.3278 75.7166 57.0411C75.7668 58.009 75.2108 58.9032 74.3702 59.2114C73.5363 59.5195 72.5349 59.2013 71.9354 58.4377C71.5234 57.9186 71.366 57.3225 71.2522 56.8033C71.1283 56.2474 70.9809 55.4268 70.924 54.469C69.7652 53.7523 68.3887 53.3437 66.9619 53.3303C66.9418 53.3303 66.9217 53.3303 66.9017 53.3303C63.5927 53.3303 60.3474 55.7249 59.1551 58.9367C60.1699 59.62 61.5832 62.1251 61.6971 63.8566C61.7674 64.9652 61.3354 65.5915 60.9603 65.9197C59.6809 67.0383 58.636 66.6029 58.2475 66.3651C56.6533 65.3872 56.4591 62.0079 56.5294 60.2262C55.4644 59.841 54.2821 59.7238 53.3008 59.9348C48.2336 61.0266 49.2115 67.2225 49.456 68.455C49.5833 69.0913 49.1713 69.7075 48.5384 69.8348C48.4613 69.8516 48.3843 69.8583 48.3073 69.8583L48.3106 69.8549ZM58.9877 62.7079C59.0747 63.3208 59.202 63.87 59.3628 64.1848C59.413 63.8868 59.2455 63.3074 58.9877 62.7079Z" fill="#0A0E29"/>
<path d="M86.887 106.606C86.5755 106.606 86.2674 106.482 86.0363 106.241L56.7414 75.3114C56.296 74.8425 56.3161 74.099 56.785 73.6535C57.2539 73.2081 57.9974 73.2282 58.4428 73.6971L87.7376 104.626C88.1831 105.095 88.163 105.839 87.6941 106.284C87.4664 106.498 87.1783 106.606 86.887 106.606Z" fill="#0A0E29"/>
<path d="M94.7203 102.011C94.2213 102.011 93.7591 101.69 93.6017 101.187L80.8784 60.5323C80.6841 59.916 81.0291 59.2562 81.6453 59.062C82.2616 58.8677 82.9213 59.2127 83.1122 59.8289L95.8356 100.484C96.0299 101.1 95.6849 101.76 95.0687 101.954C94.9514 101.991 94.8342 102.008 94.717 102.008L94.7203 102.011Z" fill="#0A0E29"/>
</g>
<defs>
<clipPath id="clip0_2115_18868">
<rect width="424" height="394" fill="white"/>
</clipPath>
</defs>
</svg>
