<svg width="40" height="40" viewBox="0 0 40 40" fill="none" xmlns="http://www.w3.org/2000/svg">
<g clip-path="url(#clip0_1474_9083)">
<path d="M0 0H40V40H0V0Z" fill="#464962"/>
<g clip-path="url(#clip1_1474_9083)">
<path fill-rule="evenodd" clip-rule="evenodd" d="M22.4866 11C22.2945 11.003 22.1041 11.0374 21.9229 11.1017C22.2573 11.3213 22.4973 11.6591 22.5953 12.0481C22.6021 12.0986 22.6168 12.135 22.6242 12.1856C22.6325 12.2287 22.6372 12.2724 22.6383 12.3163C22.6672 12.955 22.4719 13.0351 22.3349 13.4125C22.2358 13.6414 22.1932 13.8911 22.2109 14.1401C22.2285 14.3891 22.3058 14.6302 22.4363 14.8428C22.4594 14.899 22.4884 14.9525 22.5229 15.0025C22.2477 13.1658 23.7738 12.8903 24.0581 12.3163C24.0796 11.8157 23.6675 11.4815 23.3421 11.2491C23.0867 11.0876 22.7909 11.0021 22.4891 11.0025L22.4866 11ZM24.7858 11.4137C24.7724 11.4831 24.7676 11.5539 24.7717 11.6245C24.7643 11.6825 24.7643 11.7552 24.757 11.8132C24.7436 11.8721 24.7268 11.9301 24.7066 11.9871C24.6905 12.0462 24.6712 12.1045 24.6489 12.1615C24.62 12.2195 24.5979 12.2707 24.569 12.3286C24.5476 12.3576 24.5328 12.3866 24.5113 12.4155L24.4677 12.4797C24.4315 12.5308 24.3959 12.5814 24.3596 12.6252C24.3197 12.672 24.2762 12.7157 24.2294 12.7559V12.7626C24.1858 12.799 24.1422 12.8428 24.0919 12.8792C23.9402 12.9951 23.7664 13.082 23.6074 13.1911C23.5562 13.2233 23.508 13.2598 23.463 13.3002C23.4139 13.3348 23.3679 13.3736 23.3255 13.4162C23.2781 13.4589 23.2344 13.5055 23.1947 13.5555C23.1544 13.6006 23.118 13.649 23.086 13.7004C23.0498 13.7515 23.0141 13.8021 22.9847 13.8533C22.9552 13.9044 22.9349 13.9593 22.9061 14.021C22.8836 14.0755 22.8644 14.1313 22.8483 14.188C22.8262 14.2534 22.8121 14.3113 22.7974 14.373C22.7906 14.402 22.7906 14.4383 22.7832 14.4673C22.7759 14.4963 22.7759 14.5253 22.7685 14.5543C22.7685 14.6122 22.7611 14.6776 22.7611 14.7355C22.7599 14.7792 22.7624 14.8229 22.7685 14.8662C22.7687 14.9285 22.7762 14.9906 22.7906 15.0512C22.7989 15.1098 22.8108 15.1679 22.8262 15.225C22.8483 15.2867 22.8625 15.3416 22.8846 15.3995C22.8987 15.4359 22.9208 15.4723 22.9349 15.5012L21.2719 14.8477C20.9901 14.7676 20.7149 14.6954 20.4331 14.6301L19.9774 14.521C19.5438 14.434 19.1023 14.3687 18.6614 14.3249C18.6473 14.3249 18.6399 14.3175 18.6251 14.3175C18.1916 14.2744 17.7654 14.2522 17.3306 14.2522C17.0125 14.2522 16.6944 14.267 16.3837 14.2885C15.9427 14.3175 15.5012 14.3755 15.0603 14.4482C14.9516 14.463 14.8435 14.4846 14.7348 14.5062C14.5107 14.5499 14.2939 14.6005 14.0839 14.6517L13.759 14.7386C13.6503 14.7824 13.549 14.8329 13.4476 14.8767L13.2094 14.9852C13.1946 14.9926 13.1805 14.9926 13.1731 15C13.1007 15.0364 13.0356 15.0654 12.9705 15.1017C12.9532 15.1076 12.9363 15.1148 12.9201 15.1233C12.8403 15.1597 12.7611 15.2035 12.696 15.2398C12.645 15.2614 12.5947 15.2904 12.5511 15.312C12.5302 15.3255 12.5084 15.3376 12.486 15.3483C12.4209 15.3847 12.3558 15.4211 12.298 15.4575C12.2383 15.4906 12.1803 15.5269 12.1243 15.566C12.0739 15.6023 12.0235 15.6313 11.9799 15.6677C11.9726 15.6751 11.9652 15.6751 11.9584 15.6825C11.9109 15.714 11.865 15.7479 11.8209 15.7842L11.8062 15.7984L11.6981 15.8859C11.6833 15.8927 11.6692 15.9075 11.6545 15.9149C11.6182 15.9439 11.582 15.9803 11.5458 16.0092C11.539 16.0234 11.5243 16.0308 11.5169 16.0382C11.4739 16.082 11.4303 16.1178 11.3867 16.1615C11.38 16.1615 11.38 16.1689 11.3726 16.1763C11.329 16.2121 11.286 16.2559 11.2424 16.2996C11.235 16.307 11.235 16.3138 11.2277 16.3138C11.1914 16.3502 11.1558 16.3866 11.1196 16.4303C11.1048 16.4445 11.0834 16.4593 11.0686 16.4735C11.0324 16.5173 10.9894 16.561 10.9458 16.6042C10.9384 16.619 10.9243 16.6264 10.9169 16.6406C10.8592 16.6985 10.8082 16.7571 10.7505 16.815L10.729 16.8366C10.6132 16.9623 10.4902 17.0811 10.3606 17.1924C10.2324 17.3072 10.0973 17.4138 9.95586 17.5117C9.81093 17.6134 9.67399 17.7004 9.52169 17.7879C9.37423 17.8691 9.22231 17.9417 9.06664 18.0055C8.91434 18.0709 8.75529 18.1289 8.59624 18.1794C8.29287 18.2448 7.98214 18.3687 7.71439 18.3903C7.65362 18.3938 7.59313 18.401 7.53323 18.4118C7.46813 18.4266 7.41041 18.4408 7.35268 18.4556L7.17828 18.5216C7.1192 18.545 7.06139 18.5716 7.0051 18.6011C6.95413 18.6375 6.8964 18.6665 6.84605 18.7028C6.7946 18.7401 6.74615 18.7813 6.70112 18.8261C6.64975 18.8659 6.6015 18.9096 6.5568 18.9568C6.5132 19.008 6.4696 19.0512 6.43398 19.1023C6.39837 19.1535 6.35415 19.2115 6.32529 19.2694C6.28711 19.3223 6.25322 19.3782 6.22396 19.4365C6.1951 19.5018 6.16623 19.5598 6.14413 19.6252C6.12202 19.6905 6.10114 19.7485 6.08272 19.8138C6.06683 19.8709 6.05472 19.929 6.04648 19.9877C6.04648 19.9951 6.03912 20.0025 6.03912 20.0099C6.02438 20.0752 6.02438 20.1621 6.01762 20.2059C6.00807 20.2535 6.00212 20.3017 5.99981 20.3502C5.9986 20.3818 6.00107 20.4135 6.00718 20.4445C6.01251 20.4913 6.02217 20.5376 6.03604 20.5826C6.0496 20.6274 6.06643 20.6711 6.0864 20.7133V20.7207C6.11067 20.7657 6.13732 20.8093 6.16623 20.8514C6.19525 20.8966 6.22662 20.9402 6.26019 20.9821C6.29642 21.0185 6.33941 21.0617 6.38301 21.098C6.42528 21.1408 6.47132 21.1796 6.52057 21.2139C6.69375 21.3668 6.73735 21.4174 6.9615 21.5339C6.99773 21.5555 7.03396 21.5697 7.07756 21.5919C7.08432 21.5919 7.09169 21.5993 7.09906 21.5993C7.09786 21.6117 7.10043 21.6241 7.10643 21.635C7.1146 21.6939 7.12671 21.7522 7.14266 21.8095C7.15613 21.8694 7.17547 21.9279 7.20038 21.984C7.22188 22.0271 7.23662 22.0709 7.25811 22.1147C7.26359 22.1275 7.27082 22.1396 7.2796 22.1504C7.30847 22.209 7.33733 22.2596 7.3668 22.3101C7.39628 22.3607 7.43865 22.4118 7.47489 22.463C7.51112 22.5142 7.55472 22.5573 7.59771 22.6005C7.64069 22.6437 7.68491 22.6806 7.73527 22.7238C7.73935 22.7276 7.74451 22.7299 7.75 22.7306C7.79146 22.7669 7.83493 22.8009 7.88019 22.8323C7.93047 22.8682 7.98368 22.8997 8.03925 22.9266C8.09216 22.958 8.14763 22.9848 8.20505 23.0068C8.25172 23.028 8.30023 23.045 8.34998 23.0573C8.35735 23.0647 8.36411 23.0647 8.37885 23.0721C8.40771 23.0795 8.44394 23.0863 8.4728 23.0937C8.45131 23.4858 8.44394 23.8563 8.50167 23.9871C8.56676 24.1319 8.88609 23.6899 9.20297 23.1819C9.15998 23.6825 9.13112 24.2707 9.20297 24.4445C9.27482 24.6184 9.71636 24.0598 10.0928 23.4359C15.2193 22.2454 19.8982 25.8021 20.3895 30.8261C20.2955 30.0419 19.3338 29.606 18.8929 29.7164C18.6761 30.2534 18.307 30.9433 17.7144 31.3718C17.7661 30.887 17.7416 30.397 17.642 29.9199C17.4802 30.5876 17.1746 31.2116 16.7466 31.7478C16.0594 31.7984 15.3729 31.4649 15.0112 30.9636C14.9823 30.942 14.9749 30.8983 14.9534 30.8693C14.9308 30.8198 14.9113 30.769 14.8951 30.717C14.874 30.6684 14.8595 30.6172 14.8521 30.5647C14.8458 30.5118 14.8433 30.4584 14.8447 30.4051V30.2972C14.8533 30.2456 14.8654 30.1947 14.881 30.1449C14.8944 30.0929 14.9112 30.0418 14.9313 29.992C14.9577 29.9397 14.9868 29.8889 15.0185 29.8397C15.1413 29.4914 15.1413 29.2084 14.9172 29.0413C14.8736 29.0131 14.8275 28.9887 14.7796 28.9686C14.7508 28.9612 14.7145 28.947 14.6857 28.9396C14.6568 28.9322 14.6494 28.9254 14.628 28.918C14.5777 28.9015 14.5264 28.8885 14.4744 28.8792C14.4252 28.8647 14.3741 28.8574 14.3227 28.8576C14.2701 28.849 14.217 28.844 14.1637 28.8428C14.1275 28.8428 14.0912 28.8502 14.055 28.8502C14.0012 28.8499 13.9477 28.8572 13.8959 28.8718C13.7917 28.8845 13.6896 28.9115 13.5926 28.9519C13.5416 28.9735 13.4986 28.9951 13.4476 29.0173C13.3967 29.0395 13.3611 29.0678 13.3107 29.0894C11.6256 30.193 12.6309 32.7774 13.7805 33.5253C13.3463 33.6048 12.9054 33.6998 12.7826 33.7941L12.7678 33.8083C13.08 33.9961 13.4065 34.1587 13.7443 34.2947C14.2073 34.447 14.6986 34.5851 14.916 34.643V34.6504C15.515 34.7738 16.1276 34.8177 16.738 34.7811C19.9412 34.5561 22.5665 32.1097 23.0436 28.8866C23.0577 28.9519 23.0725 29.0099 23.0866 29.0752C23.1087 29.2059 23.1376 29.344 23.1517 29.4815V29.4889C23.1664 29.5543 23.1738 29.6196 23.1812 29.6776V29.7065C23.1879 29.7719 23.1953 29.8372 23.1953 29.8952C23.2027 29.9753 23.21 30.0555 23.21 30.135V30.2509C23.21 30.2873 23.2168 30.3311 23.2168 30.3674C23.2168 30.4038 23.21 30.4544 23.21 30.4981V30.5999C23.21 30.6504 23.2027 30.6942 23.2027 30.7448C23.2036 30.7764 23.2011 30.808 23.1953 30.8391C23.1953 30.8903 23.1879 30.9408 23.1879 30.9988C23.1819 31.02 23.1794 31.0421 23.1806 31.0641C23.1738 31.1221 23.1664 31.1732 23.1591 31.2312C23.1603 31.2532 23.1578 31.2753 23.1517 31.2965C23.1443 31.3693 23.1302 31.4346 23.1228 31.5074V31.5216C23.1087 31.5869 23.094 31.6597 23.0798 31.725V31.7466C23.0651 31.812 23.0504 31.8773 23.0362 31.9427C23.0362 31.9501 23.0289 31.9642 23.0289 31.9716C23.0156 32.0378 22.9987 32.1033 22.9785 32.1677V32.1893C22.9564 32.262 22.9349 32.3274 22.9171 32.3927C22.9132 32.3967 22.9108 32.402 22.9104 32.4075C22.8882 32.4797 22.8668 32.5524 22.8453 32.6252C22.8238 32.6979 22.7943 32.7633 22.7654 32.8354C22.7366 32.9075 22.7151 32.9809 22.6862 33.0462C22.6573 33.1116 22.6279 33.1843 22.599 33.2565H22.5922C22.5628 33.3218 22.5339 33.3946 22.4977 33.4599C22.4921 33.4774 22.4849 33.4944 22.4762 33.5105C22.4688 33.5179 22.4688 33.5253 22.4621 33.5327C21.9842 34.4941 21.2887 35.3299 20.4312 35.9729C20.3735 36.0092 20.3152 36.053 20.2574 36.0962C20.2433 36.111 20.2212 36.1184 20.2071 36.1326C20.1561 36.1689 20.1057 36.2053 20.048 36.2417L20.0695 36.2854H20.0769L20.3802 36.2417H20.3876C20.5755 36.2127 20.7641 36.1763 20.952 36.1399C21.0057 36.1313 21.0589 36.1191 21.111 36.1036L21.2124 36.082C21.2627 36.0746 21.3131 36.0604 21.364 36.053C21.415 36.0456 21.4506 36.0308 21.4942 36.0166C22.2108 35.8412 22.9122 35.608 23.5914 35.3194C22.4295 36.9087 20.8841 38.1752 19.1005 39C19.9352 38.9446 20.7618 38.8012 21.5667 38.5721C24.4717 37.7145 26.9253 35.7464 28.3998 33.0912C28.1021 34.7713 27.4384 36.3645 26.4562 37.7571C27.7804 36.8803 28.9071 35.7348 29.7638 34.3945C30.6205 33.0542 31.1882 31.5486 31.4304 29.9747C31.677 31.1237 31.7476 32.3037 31.6398 33.4741C36.8621 26.1665 32.0752 18.5863 30.0726 16.59C30.0653 16.5752 30.0579 16.5684 30.0579 16.5536C30.0511 16.561 30.0511 16.561 30.0511 16.5684C30.0511 16.561 30.0511 16.561 30.0438 16.5536C30.0438 16.6406 30.0364 16.7281 30.029 16.815C30.0075 16.9821 29.986 17.1418 29.9572 17.3015C29.9283 17.4612 29.8773 17.6208 29.8344 17.7805C29.7914 17.9402 29.7263 18.0925 29.6612 18.2454C29.5961 18.3983 29.5236 18.5425 29.4444 18.688C29.3652 18.8335 29.278 18.971 29.184 19.1017C29.0901 19.2324 28.9887 19.3705 28.8874 19.4938C28.7861 19.6171 28.6633 19.7404 28.5472 19.857C28.4753 19.9223 28.4103 19.9803 28.3378 20.0382C28.2801 20.0888 28.2291 20.1326 28.1714 20.1837C28.0421 20.2859 27.9069 20.3803 27.7667 20.4667C27.6291 20.5536 27.4848 20.6406 27.3399 20.7133C27.1949 20.7861 27.0328 20.8514 26.8842 20.9168C26.7356 20.9821 26.5735 21.0253 26.4144 21.0691C26.2554 21.1128 26.0889 21.1492 25.9299 21.1782C25.7708 21.2072 25.5971 21.2213 25.4386 21.2361C25.3232 21.2435 25.2071 21.2503 25.0916 21.2503C24.9252 21.2503 24.7588 21.2361 24.6004 21.2213C24.2692 21.1902 23.9421 21.1245 23.6246 21.0253H23.6172C23.7762 21.0111 23.9353 20.9963 24.0943 20.9673C24.2534 20.9383 24.4198 20.902 24.5789 20.8588C24.7379 20.8157 24.897 20.7639 25.0487 20.7059C25.2043 20.647 25.3564 20.5793 25.5043 20.5031C25.656 20.4303 25.7936 20.3502 25.9385 20.2633C26.0834 20.1763 26.213 20.0746 26.3432 19.9729C26.4726 19.8717 26.5957 19.7626 26.7116 19.6461C26.8319 19.5346 26.9454 19.4158 27.0512 19.2904C27.1599 19.1597 27.2607 19.029 27.3583 18.8983C27.3724 18.8767 27.3872 18.8477 27.4013 18.8261C27.4737 18.7096 27.5462 18.5937 27.6113 18.4772C27.6905 18.3323 27.763 18.1868 27.8281 18.0345C27.8932 17.8822 27.9509 17.73 28.0019 17.5697C28.0528 17.4094 28.0885 17.2577 28.1247 17.098C28.1609 16.9383 28.1824 16.7713 28.1965 16.6116C28.2107 16.4519 28.226 16.2781 28.226 16.1184C28.226 16.0025 28.2187 15.8866 28.2113 15.77C28.1965 15.603 28.1751 15.4433 28.1536 15.2836C28.1321 15.1239 28.0885 14.9568 28.0449 14.7972C28.0013 14.6375 27.9435 14.4852 27.8858 14.3329C27.8258 14.1796 27.7582 14.0294 27.6832 13.8829C27.6039 13.7374 27.5241 13.5925 27.4375 13.4513C27.3509 13.3101 27.2496 13.1825 27.1483 13.0518C27.0469 12.9211 26.9315 12.8052 26.8154 12.6819C26.7577 12.6239 26.6926 12.5586 26.6275 12.5006C26.302 12.246 25.9624 12.0074 25.6228 11.7891C25.5761 11.7618 25.5277 11.7375 25.4779 11.7164C25.2633 11.5845 25.0323 11.4819 24.7907 11.4112L24.7858 11.4137Z" fill="#E0234E"/>
</g>
<path d="M8.40909 3.18182V9H7.09091L4.98864 5.94318H4.95455V9H3.375V3.18182H4.71591L6.78409 6.22727H6.82955V3.18182H8.40909ZM9.15625 9V3.18182H13.3494V4.45455H10.7358V5.45455H13.1335V6.72727H10.7358V7.72727H13.3381V9H9.15625ZM17.2692 5C17.254 4.81061 17.183 4.66288 17.0561 4.55682C16.9311 4.45076 16.7408 4.39773 16.4851 4.39773C16.3222 4.39773 16.1887 4.41761 16.0845 4.45739C15.9822 4.49527 15.9065 4.54735 15.8572 4.61364C15.808 4.67992 15.7824 4.75568 15.7805 4.84091C15.7768 4.91098 15.7891 4.97443 15.8175 5.03125C15.8478 5.08617 15.8951 5.13636 15.9595 5.18182C16.0239 5.22538 16.1063 5.26515 16.2067 5.30114C16.3071 5.33712 16.4264 5.36932 16.5646 5.39773L17.0419 5.5C17.3639 5.56818 17.6394 5.65814 17.8686 5.76989C18.0978 5.88163 18.2853 6.01326 18.4311 6.16477C18.5769 6.31439 18.6839 6.48295 18.7521 6.67045C18.8222 6.85795 18.8582 7.0625 18.8601 7.28409C18.8582 7.66667 18.7625 7.99053 18.5732 8.25568C18.3838 8.52083 18.1129 8.72254 17.7607 8.8608C17.4103 8.99905 16.9889 9.06818 16.4964 9.06818C15.9908 9.06818 15.5495 8.99337 15.1726 8.84375C14.7976 8.69413 14.5059 8.46402 14.2976 8.15341C14.0911 7.84091 13.987 7.44129 13.9851 6.95455H15.4851C15.4946 7.13258 15.5391 7.2822 15.6186 7.40341C15.6982 7.52462 15.8099 7.61648 15.9538 7.67898C16.0997 7.74148 16.273 7.77273 16.4737 7.77273C16.6423 7.77273 16.7834 7.75189 16.897 7.71023C17.0107 7.66856 17.0968 7.6108 17.1555 7.53693C17.2143 7.46307 17.2446 7.37879 17.2464 7.28409C17.2446 7.19508 17.2152 7.11742 17.1584 7.05114C17.1035 6.98295 17.0125 6.92235 16.8857 6.86932C16.7588 6.81439 16.5874 6.76326 16.3714 6.71591L15.7919 6.59091C15.2768 6.47917 14.8705 6.29261 14.5732 6.03125C14.2777 5.76799 14.1309 5.40909 14.1328 4.95455C14.1309 4.58523 14.2294 4.26231 14.4283 3.9858C14.629 3.70739 14.9065 3.49053 15.2607 3.33523C15.6167 3.17992 16.0249 3.10227 16.4851 3.10227C16.9548 3.10227 17.361 3.18087 17.7038 3.33807C18.0466 3.49527 18.3108 3.71686 18.4964 4.00284C18.6839 4.28693 18.7786 4.61932 18.7805 5H17.2692ZM19.3018 4.45455V3.18182H24.3587V4.45455H22.6087V9H21.0518V4.45455H19.3018ZM28.9446 3.18182H30.5014V7.17045C30.4995 7.54924 30.4039 7.88258 30.2145 8.17045C30.027 8.45644 29.7675 8.67992 29.4361 8.84091C29.1065 9 28.7268 9.07955 28.2969 9.07955C27.9238 9.07955 27.5829 9.01515 27.2741 8.88636C26.9654 8.75568 26.7192 8.55114 26.5355 8.27273C26.3518 7.99242 26.2609 7.62879 26.2628 7.18182H27.8423C27.848 7.32765 27.8726 7.45076 27.9162 7.55114C27.9616 7.65152 28.0241 7.72727 28.1037 7.77841C28.1851 7.82765 28.2836 7.85227 28.3991 7.85227C28.5166 7.85227 28.6151 7.8267 28.6946 7.77557C28.776 7.72443 28.8376 7.64867 28.8793 7.5483C28.9209 7.44602 28.9427 7.32008 28.9446 7.17045V3.18182ZM34.3864 5C34.3712 4.81061 34.3002 4.66288 34.1733 4.55682C34.0483 4.45076 33.858 4.39773 33.6023 4.39773C33.4394 4.39773 33.3059 4.41761 33.2017 4.45739C33.0994 4.49527 33.0237 4.54735 32.9744 4.61364C32.9252 4.67992 32.8996 4.75568 32.8977 4.84091C32.8939 4.91098 32.9063 4.97443 32.9347 5.03125C32.965 5.08617 33.0123 5.13636 33.0767 5.18182C33.1411 5.22538 33.2235 5.26515 33.3239 5.30114C33.4242 5.33712 33.5436 5.36932 33.6818 5.39773L34.1591 5.5C34.4811 5.56818 34.7566 5.65814 34.9858 5.76989C35.215 5.88163 35.4025 6.01326 35.5483 6.16477C35.6941 6.31439 35.8011 6.48295 35.8693 6.67045C35.9394 6.85795 35.9754 7.0625 35.9773 7.28409C35.9754 7.66667 35.8797 7.99053 35.6903 8.25568C35.5009 8.52083 35.2301 8.72254 34.8778 8.8608C34.5275 8.99905 34.1061 9.06818 33.6136 9.06818C33.108 9.06818 32.6667 8.99337 32.2898 8.84375C31.9148 8.69413 31.6231 8.46402 31.4148 8.15341C31.2083 7.84091 31.1042 7.44129 31.1023 6.95455H32.6023C32.6117 7.13258 32.6563 7.2822 32.7358 7.40341C32.8153 7.52462 32.9271 7.61648 33.071 7.67898C33.2169 7.74148 33.3902 7.77273 33.5909 7.77273C33.7595 7.77273 33.9006 7.75189 34.0142 7.71023C34.1278 7.66856 34.214 7.6108 34.2727 7.53693C34.3314 7.46307 34.3617 7.37879 34.3636 7.28409C34.3617 7.19508 34.3324 7.11742 34.2756 7.05114C34.2206 6.98295 34.1297 6.92235 34.0028 6.86932C33.8759 6.81439 33.7045 6.76326 33.4886 6.71591L32.9091 6.59091C32.3939 6.47917 31.9877 6.29261 31.6903 6.03125C31.3949 5.76799 31.2481 5.40909 31.25 4.95455C31.2481 4.58523 31.3466 4.26231 31.5455 3.9858C31.7462 3.70739 32.0237 3.49053 32.3778 3.33523C32.7339 3.17992 33.142 3.10227 33.6023 3.10227C34.072 3.10227 34.4782 3.18087 34.821 3.33807C35.1638 3.49527 35.428 3.71686 35.6136 4.00284C35.8011 4.28693 35.8958 4.61932 35.8977 5H34.3864Z" fill="#F8F8F8"/>
</g>
<defs>
<clipPath id="clip0_1474_9083">
<rect width="40" height="40" rx="8" fill="white"/>
</clipPath>
<clipPath id="clip1_1474_9083">
<rect width="28" height="28" fill="white" transform="translate(6 11)"/>
</clipPath>
</defs>
</svg>
