<svg width="40" height="40" viewBox="0 0 40 40" fill="none" xmlns="http://www.w3.org/2000/svg">
<g clip-path="url(#clip0_1474_9077)">
<path d="M0 0H40V40H0V0Z" fill="#464962"/>
<g clip-path="url(#clip1_1474_9077)">
<path fill-rule="evenodd" clip-rule="evenodd" d="M25.9316 16.0028H32.202V17.1602H29.7144V23.2492H28.4705V17.1602H25.9316V16.0028ZM37.4234 20.9823C37.4101 20.8544 37.351 20.7538 37.2484 20.6821C37.1443 20.6097 37.0107 20.5738 36.8462 20.5738C36.7309 20.5738 36.6317 20.5914 36.5487 20.6259C36.4665 20.6603 36.4025 20.7067 36.3582 20.7658C36.3146 20.8248 36.2928 20.8923 36.2907 20.9676C36.2907 21.0309 36.3062 21.0857 36.3357 21.1314C36.3652 21.1778 36.4046 21.2172 36.4559 21.2488C36.5066 21.2812 36.5628 21.3072 36.6247 21.329C36.6873 21.3508 36.7491 21.3691 36.8117 21.3838L37.0993 21.4541C37.2146 21.4809 37.3264 21.5167 37.434 21.5624C37.5409 21.6074 37.6379 21.6644 37.723 21.7333C37.808 21.8022 37.8755 21.8852 37.9248 21.9822C37.9747 22.0799 38 22.1938 38 22.3246C38 22.5018 37.9543 22.6572 37.8629 22.7915C37.7708 22.9251 37.6386 23.0298 37.4649 23.1051C37.292 23.1803 37.0831 23.2183 36.837 23.2183C36.5994 23.2183 36.392 23.1817 36.2176 23.1086C36.0425 23.0362 35.9054 22.93 35.807 22.7908C35.7085 22.6509 35.6558 22.4807 35.648 22.2803H36.1937C36.2014 22.3851 36.2352 22.4723 36.2928 22.5433C36.3505 22.6129 36.4264 22.6642 36.5192 22.6994C36.6127 22.7331 36.7175 22.7507 36.8328 22.7507C36.953 22.7507 37.0592 22.7324 37.1513 22.6966C37.242 22.6607 37.3138 22.6115 37.3651 22.5461C37.4178 22.4828 37.4438 22.4069 37.4445 22.3204C37.4438 22.2416 37.4199 22.1762 37.3749 22.1242C37.3285 22.0729 37.2645 22.03 37.1823 21.9948C37.1 21.9604 37.0037 21.9288 36.894 21.9013L36.5452 21.8134C36.2935 21.7495 36.0938 21.6517 35.9476 21.5216C35.8013 21.3909 35.7289 21.2186 35.7289 21.002C35.7289 20.8241 35.7774 20.668 35.8766 20.5345C35.9743 20.4009 36.1079 20.2968 36.2773 20.223C36.4475 20.1484 36.6395 20.1119 36.8539 20.1119C37.0712 20.1119 37.2617 20.1484 37.4263 20.223C37.5901 20.2968 37.7195 20.3995 37.813 20.5309C37.9065 20.6624 37.955 20.8122 37.9578 20.9823H37.4234ZM34.6046 20.1527H35.1559V22.2754C35.1552 22.4709 35.113 22.6375 35.03 22.7781C34.947 22.9188 34.831 23.0256 34.6834 23.1009C34.5357 23.1761 34.3627 23.2141 34.1666 23.2141C33.9873 23.2141 33.8263 23.1817 33.6828 23.1184C33.5394 23.0552 33.4255 22.9609 33.3425 22.8365C33.2581 22.7113 33.2166 22.5566 33.2166 22.3703H33.7686C33.7693 22.4519 33.7883 22.5222 33.8234 22.5812C33.8586 22.6403 33.9078 22.6853 33.9697 22.717C34.033 22.7486 34.1061 22.7641 34.1877 22.7641C34.2762 22.7641 34.3515 22.7458 34.4134 22.7085C34.4745 22.672 34.5223 22.6171 34.5547 22.544C34.587 22.4716 34.6039 22.3823 34.6046 22.2754V20.1527ZM32.4819 23.2049C32.3905 23.2049 32.3131 23.1733 32.2484 23.11C32.1838 23.0474 32.1514 22.9708 32.1521 22.8801C32.1514 22.7922 32.1838 22.717 32.2484 22.6537C32.3131 22.5904 32.3905 22.5588 32.4819 22.5588C32.5698 22.5588 32.6464 22.5904 32.7111 22.6537C32.7765 22.717 32.8095 22.7922 32.8102 22.8801C32.8095 22.9398 32.7948 22.9947 32.7638 23.0439C32.7329 23.0938 32.6935 23.1325 32.6436 23.1613C32.5944 23.1902 32.5409 23.2049 32.4819 23.2049ZM9.34906 23.1951L3.55461 16H2V23.2464H3.24383V17.549L7.82961 23.2492H15.6188V22.0919H10.5922V20.1794H14.6345V19.022H10.5922V17.1602H15.6188V16.0028H9.34836V17.1602H9.34906V23.1951ZM20.4205 21.182L19.6048 20.1681L17.1179 23.2577H18.7498L20.4205 21.182ZM18.7498 16.0063H17.1221L22.9524 23.252H24.5844L21.6692 19.6316L24.5802 16.0112L22.9524 16.0141L20.8543 18.6198L18.7498 16.0063Z" fill="#F8F8F8"/>
</g>
</g>
<defs>
<clipPath id="clip0_1474_9077">
<rect width="40" height="40" rx="8" fill="white"/>
</clipPath>
<clipPath id="clip1_1474_9077">
<rect width="36" height="7.25766" fill="white" transform="translate(2 16)"/>
</clipPath>
</defs>
</svg>
