<svg width="40" height="40" viewBox="0 0 40 40" fill="none" xmlns="http://www.w3.org/2000/svg">
<g clip-path="url(#clip0_1474_9055)">
<path d="M0 0H40V40H0V0Z" fill="#464962"/>
<path d="M19.1997 21.2867V17.1268L15.5971 15.0469L11.9945 17.1268V21.2867L15.5971 23.3667L19.1997 21.2867Z" fill="#3B8739"/>
<path d="M33.3877 20.6554L35.7355 22.0111L33.3877 23.3669L29.7854 21.2869V17.1269L33.3877 15.0469L35.5709 16.3079C35.7897 17.2307 35.9275 18.1842 35.9778 19.1605L34.6429 19.9311V18.482L33.3877 17.7577L32.1325 18.482V19.9311L33.3877 20.6554Z" fill="#F8F8F8"/>
<path d="M34.087 19.6097V18.8022L33.3877 18.3984L32.6884 18.8022V19.6097L33.3877 20.0135L34.087 19.6097Z" fill="#66A060"/>
<path d="M10.2929 17.1269V22.6126L7.89025 21.2419V18.4298L6.69062 17.7369L5.49094 18.4297V21.2418L4.12669 22.0203C4.04312 21.3594 4 20.6854 4 20.0017C4 18.7491 4.14369 17.5299 4.416 16.3602L6.69062 15.0469L10.2929 17.1269Z" fill="#F8F8F8"/>
<path d="M19.1993 21.2826L15.5968 15.043L11.9944 17.1229L15.5969 23.3625L19.1993 21.2826Z" fill="#6DA75D"/>
<path d="M11.9945 21.2849L13.2315 19.2677L11.9945 17.125V21.2849Z" fill="#55A344"/>
<path d="M17.9987 19.2066L19.1997 17.1268L15.597 15.0469L17.9987 19.2066Z" fill="#639D57"/>
<path d="M25.6594 10.2227V15.7417L24.4519 15.0442L20.849 17.1242V21.2842L24.4519 23.3642L28.0542 21.2842V11.5046L25.6594 10.2227ZM25.6529 19.8971L24.4519 20.5907L23.2509 19.8971V18.5107L24.4519 17.8171L25.6529 18.5107V19.8971Z" fill="#F8F8F8"/>
<path d="M21.6344 26.4231C21.6344 26.4231 21.5636 25.8151 20.9132 25.8151C20.2627 25.8151 19.8173 25.8999 19.8173 26.2605C19.8173 26.6211 21.0829 26.6211 21.5637 26.7625C22.0445 26.9039 22.4687 27.2716 22.2566 27.9221C22.0445 28.5726 21.394 28.6433 20.39 28.6433C19.386 28.6433 19.1597 27.8089 19.1597 27.4837H19.7253C19.7253 27.4837 19.6545 27.9928 20.3192 28.0776C20.9838 28.1624 21.6193 28.2101 21.705 27.6958C21.8181 27.017 19.5555 27.3565 19.3575 26.6918C19.1903 26.1303 19.2868 25.3909 20.4181 25.2777C21.5494 25.1645 22.1716 25.664 22.1716 26.409L21.6344 26.4231Z" fill="#66A060"/>
<path d="M16.1702 29.0723L17.4207 29.7942C18.049 30.1569 18.8344 29.7035 18.8344 28.978V27.7129V25.3846H18.3247V28.8363C18.3247 29.2324 17.8959 29.4801 17.5527 29.2819L16.6799 28.7781V25.0943L19.87 23.2526L23.0602 25.0943V28.7781L19.87 30.6197L18.951 30.0892L18.3509 30.3312L19.87 31.2083L23.5699 29.0721V24.8001L19.87 22.6641L16.1702 24.8002V29.0723H16.1702Z" fill="#66A060"/>
</g>
<defs>
<clipPath id="clip0_1474_9055">
<rect width="40" height="40" rx="8" fill="white"/>
</clipPath>
</defs>
</svg>
