<svg width="492" height="286" viewBox="0 0 492 286" fill="none" xmlns="http://www.w3.org/2000/svg">
<path d="M138.09 184.074L117.169 184.506L117.907 220.242L82.0752 220.983L81.3372 185.247L7.24935 186.778L6.7207 161.207L80.5102 47.5927L114.327 46.894L116.581 155.963L137.501 155.532L138.09 184.074ZM80.7484 156.704L80.1412 127.263C80.0392 122.357 80.0889 115.232 80.2904 105.882C80.4919 96.538 80.6961 91.111 80.9054 89.6012L79.9554 89.6195C77.1605 96.1717 73.7662 102.575 69.7778 108.831L38.9388 157.565L80.751 156.701L80.7484 156.704Z" fill="#3653F2"/>
<path d="M83.625 217.089C83.591 217.089 83.5596 217.089 83.5256 217.081L64.6516 214.187C64.2957 214.132 64.0497 213.797 64.1046 213.442L69.425 178.757L39.7402 174.204C39.3842 174.149 39.1383 173.814 39.1932 173.458C39.2482 173.103 39.5831 172.854 39.9391 172.912L70.2703 177.564C70.4431 177.59 70.5949 177.684 70.6995 177.823C70.8016 177.964 70.8461 178.137 70.8199 178.31L65.4969 212.994L83.7245 215.789C84.0804 215.844 84.3264 216.179 84.2714 216.535C84.2217 216.859 83.9443 217.089 83.625 217.089ZM102.143 206.808C102.109 206.808 102.078 206.808 102.044 206.8C101.688 206.745 101.442 206.411 101.497 206.055L104.951 183.543C104.977 183.37 105.071 183.219 105.21 183.114C105.349 183.012 105.524 182.968 105.697 182.994L125.733 186.068L129.865 159.142L109.829 156.068C109.657 156.042 109.505 155.948 109.4 155.809C109.298 155.668 109.253 155.495 109.28 155.322L125.725 48.1369L93.2818 43.1599L1.28303 142.137C1.03703 142.401 0.623545 142.417 0.359226 142.171C0.0949065 141.925 0.0792031 141.511 0.325203 141.247L92.5595 42.0191C92.706 41.8594 92.9233 41.7835 93.1379 41.8176L126.57 46.9463C126.926 47.0012 127.172 47.3362 127.117 47.6921L110.672 154.877L130.708 157.952C130.881 157.978 131.032 158.072 131.137 158.211C131.239 158.352 131.284 158.525 131.257 158.698L126.929 186.916C126.903 187.089 126.808 187.241 126.67 187.345C126.531 187.447 126.356 187.492 126.183 187.463L106.147 184.388L102.792 206.254C102.742 206.578 102.465 206.808 102.146 206.808H102.143ZM74.4995 150.643C74.4654 150.643 74.434 150.643 74.4 150.636L33.0615 144.295C32.8234 144.259 32.6245 144.094 32.5434 143.869C32.4622 143.641 32.5146 143.39 32.6768 143.209L53.8171 119.921C54.0605 119.654 54.474 119.633 54.7409 119.876C55.0079 120.12 55.0288 120.533 54.7854 120.8L34.4643 143.188L73.9525 149.246L78.3177 120.787C79.0635 115.925 80.3537 108.836 82.149 99.7251C83.6198 92.2544 84.6326 87.4057 85.2214 85.0245C81.4764 90.6792 77.1714 96.1821 72.411 101.389L63.6074 111.087C63.364 111.354 62.9505 111.375 62.6836 111.131C62.4167 110.888 62.3957 110.475 62.6391 110.208L71.4428 100.508C76.4072 95.0752 80.8693 89.3264 84.711 83.4152C84.8524 83.2007 85.1036 83.0855 85.3601 83.1248L86.2996 83.2687C86.488 83.2975 86.6555 83.4074 86.7576 83.5722C86.8596 83.7345 86.8832 83.9333 86.8256 84.1165C86.3729 85.5269 85.2345 90.865 83.4392 99.9763C81.6465 109.072 80.3616 116.14 79.6183 120.986L75.1537 150.091C75.1275 150.264 75.0333 150.416 74.8946 150.52C74.7821 150.604 74.646 150.646 74.5073 150.646L74.4995 150.643Z" fill="#E9F0FF"/>
<path d="M283.45 122.057C295.313 149.919 299.524 172.491 296.083 189.766C292.641 207.044 281.414 219.728 262.404 227.821C243.975 235.666 227.137 234.671 211.893 224.833C196.646 214.997 183.279 196.58 171.787 169.589C159.801 141.439 155.517 118.749 158.938 101.523C162.358 84.3003 173.538 71.6538 192.478 63.5917C210.907 55.7469 227.81 56.8014 243.188 66.7553C258.565 76.7093 271.99 95.1413 283.45 122.057ZM205.332 155.372C213.665 174.94 221.325 188.241 228.325 195.274C235.326 202.308 242.832 204.114 250.855 200.699C258.725 197.35 262.585 190.638 262.43 180.563C262.273 170.492 258.078 155.778 249.84 136.428C241.507 116.86 233.753 103.554 226.58 96.5098C219.404 89.4709 211.917 87.6078 204.118 90.9284C196.167 94.3118 192.302 101.008 192.517 111.012C192.729 121.02 197.002 135.807 205.335 155.375L205.332 155.372Z" fill="#3653F2"/>
<path d="M239.263 223.419C237.704 223.419 236.17 223.356 234.668 223.23C234.307 223.202 234.04 222.885 234.071 222.524C234.1 222.163 234.419 221.899 234.778 221.927C240.577 222.411 246.834 221.938 253.372 220.522C273.251 216.223 286.631 205.916 293.148 189.886C299.701 173.767 299.808 150.722 293.464 121.394C290.586 108.088 286.888 96.3598 282.476 86.5394C282.326 86.2097 282.476 85.8224 282.805 85.6759C283.135 85.5293 283.522 85.6759 283.669 86.0056C288.12 95.9124 291.847 107.727 294.744 121.122C301.145 150.711 301.017 174.016 294.362 190.383C291.018 198.613 285.888 205.434 279.118 210.652C272.366 215.859 263.795 219.612 253.649 221.804C248.674 222.88 243.854 223.421 239.266 223.421L239.263 223.419ZM242.739 193.51C241.645 193.51 240.577 193.418 239.541 193.238C239.185 193.175 238.947 192.838 239.009 192.482C239.072 192.126 239.412 191.888 239.766 191.95C242.064 192.353 244.544 192.275 247.138 191.712C255.287 189.949 260.082 184.367 261.793 174.644C263.515 164.847 262.152 149.549 257.745 129.178C257.669 128.825 257.894 128.477 258.247 128.401C258.6 128.325 258.949 128.55 259.024 128.904C263.468 149.442 264.832 164.909 263.081 174.874C261.291 185.037 256.02 191.134 247.413 192.994C245.811 193.34 244.249 193.515 242.736 193.515L242.739 193.51ZM228.026 185.927C227.837 185.927 227.649 185.846 227.521 185.689C226.877 184.906 226.241 184.051 225.631 183.148C220.065 174.897 214.962 160.179 210.468 139.402C205.975 118.628 204.549 103.074 206.231 93.1701C207.945 83.0618 213.224 76.9806 221.915 75.1018C230.444 73.257 237.74 76.6142 243.6 85.0819C248.111 91.6053 252.293 102.114 256.031 116.315C256.122 116.665 255.913 117.021 255.565 117.113C255.217 117.204 254.858 116.995 254.767 116.647C251.069 102.593 246.949 92.2228 242.527 85.825C236.918 77.7237 230.266 74.6334 222.195 76.3787C213.962 78.1581 209.165 83.7238 207.524 93.3873C205.87 103.124 207.291 118.513 211.751 139.122C216.21 159.736 221.245 174.301 226.72 182.413C227.306 183.281 227.916 184.103 228.536 184.854C228.766 185.134 228.725 185.545 228.447 185.775C228.324 185.874 228.178 185.924 228.031 185.924L228.026 185.927ZM170.682 107.648H170.679C170.318 107.648 170.025 107.353 170.027 106.991C170.077 95.4911 171.776 85.5319 175.078 77.3966C178.41 69.1907 183.518 62.3899 190.26 57.1879C196.988 51.9963 205.525 48.2545 215.632 46.0669C225.474 43.9369 234.655 43.9369 242.917 46.0617C251.189 48.189 258.765 52.5066 265.431 58.8913C268.755 62.0759 271.9 65.8099 274.779 69.9888C274.983 70.2871 274.91 70.6926 274.611 70.8994C274.316 71.1035 273.907 71.0302 273.701 70.7319C270.872 66.6263 267.786 62.9603 264.525 59.836C251.524 47.3831 235.168 43.1807 215.909 47.3465C196.109 51.63 182.78 61.9058 176.293 77.8886C173.053 85.8695 171.388 95.6638 171.338 106.999C171.338 107.36 171.045 107.651 170.684 107.651L170.682 107.648Z" fill="#E9F0FF"/>
<path d="M437.277 185.069L416.556 187.981L421.53 223.377L386.038 228.364L381.063 192.968L307.682 203.281L304.123 177.954L363.906 56.3871L397.402 51.6797L412.586 159.71L433.307 156.798L437.28 185.069H437.277ZM377.091 164.695L372.993 135.537C372.31 130.678 371.511 123.597 370.603 114.289C369.695 104.987 369.253 99.5731 369.282 98.0502L368.34 98.1837C366.34 105.021 363.731 111.783 360.512 118.466L335.674 170.514L377.088 164.695H377.091Z" fill="#3653F2"/>
<path d="M401.345 219.714C401.057 219.714 400.795 219.523 400.714 219.232L391.4 185.401L320.586 204.89C320.419 204.937 320.241 204.914 320.089 204.828C319.937 204.741 319.827 204.6 319.783 204.432L312.994 179.773C312.96 179.647 312.963 179.514 313.005 179.388L345.505 83.8837C345.623 83.5409 345.992 83.3578 346.335 83.4755C346.678 83.5906 346.861 83.9622 346.743 84.305L314.305 179.618L320.866 203.451L391.68 183.962C392.028 183.865 392.389 184.072 392.484 184.42L401.798 218.251L435.091 209.087L425.777 175.256C425.68 174.908 425.887 174.547 426.235 174.453L445.779 169.073L438.548 142.809L419.004 148.189C418.656 148.286 418.295 148.079 418.201 147.731L414.019 132.541C413.922 132.193 414.126 131.832 414.477 131.738C414.825 131.641 415.186 131.848 415.28 132.196L419.29 146.755L438.834 141.375C439.001 141.328 439.179 141.352 439.331 141.438C439.483 141.524 439.593 141.666 439.637 141.833L447.216 169.358C447.313 169.706 447.106 170.067 446.758 170.161L427.214 175.541L436.528 209.375C436.575 209.543 436.552 209.721 436.465 209.872C436.379 210.024 436.238 210.134 436.07 210.179L401.515 219.69C401.457 219.706 401.397 219.714 401.342 219.714H401.345ZM343.959 168.822C343.783 168.822 343.611 168.751 343.485 168.62C343.32 168.445 343.263 168.194 343.336 167.966L361.27 113.154C363.581 106.168 365.306 99.0972 366.397 92.1342C366.436 91.8803 366.622 91.6736 366.871 91.6056L367.787 91.3544C367.973 91.3047 368.169 91.3361 368.328 91.4433C368.488 91.5506 368.59 91.7233 368.611 91.9117C368.776 93.3823 369.914 98.7204 372 107.772C374.081 116.804 375.795 123.781 377.095 128.509L384.91 156.897C385.007 157.245 384.8 157.607 384.452 157.701L344.131 168.798C344.074 168.814 344.016 168.822 343.959 168.822ZM367.52 93.3902C366.413 100.081 364.73 106.861 362.513 113.562L344.958 167.215L383.476 156.615L375.834 128.857C374.528 124.11 372.809 117.116 370.726 108.067C369.017 100.646 367.959 95.808 367.522 93.3928L367.52 93.3902ZM410.51 117.977C410.222 117.977 409.96 117.786 409.879 117.495L409.416 115.815C409.416 115.815 409.416 115.815 409.416 115.813L389.422 43.181L357.777 51.8919L350.441 73.4483C350.323 73.7911 349.954 73.9743 349.611 73.8565C349.269 73.7414 349.086 73.3698 349.203 73.027L356.651 51.141C356.722 50.9369 356.887 50.7772 357.096 50.7223L389.707 41.747C390.055 41.6502 390.416 41.8569 390.51 42.2049L410.68 115.467C410.68 115.467 410.68 115.467 410.68 115.47L411.143 117.15C411.24 117.498 411.036 117.859 410.685 117.953C410.627 117.969 410.567 117.977 410.51 117.977Z" fill="#E9F0FF"/>
<path d="M478.064 161.486L461.258 155.31L439.936 213.317L456.742 219.494L478.064 161.486Z" fill="#FFD84F"/>
<path d="M460.991 233.814C464.467 224.331 459.471 213.812 449.851 210.546C440.589 207.403 430.39 212.336 427.096 221.544C424.858 227.795 426.284 234.476 430.278 239.225L433.69 229.91C435.392 225.268 440.534 222.884 445.177 224.585C449.819 226.285 452.203 231.427 450.502 236.069L447.09 245.385C453.25 244.333 458.688 240.102 460.991 233.814Z" fill="#FFD84F"/>
<path d="M488.763 157.93C485.28 167.41 474.666 172.201 465.215 168.47C456.119 164.877 451.531 154.52 454.975 145.367C457.312 139.152 462.721 134.979 468.84 133.94L465.417 143.253C463.711 147.892 466.092 153.037 470.732 154.743C475.372 156.449 480.517 154.068 482.224 149.428L485.647 140.115C489.664 144.901 491.074 151.645 488.766 157.93H488.763Z" fill="#FFD84F"/>
<path d="M469.756 163.935C469.722 163.935 469.688 163.932 469.654 163.924C468.607 163.707 467.569 163.398 466.566 163.003C457.229 159.316 452.508 148.666 456.043 139.264C458.354 133.123 463.813 128.622 470.29 127.523C470.466 127.495 470.641 127.56 470.756 127.696C470.869 127.832 470.9 128.018 470.84 128.185L467.417 137.498C466.637 139.618 466.731 141.915 467.678 143.964C468.626 146.013 470.316 147.572 472.436 148.35C474.556 149.129 476.854 149.035 478.903 148.088C480.952 147.141 482.512 145.45 483.289 143.331L486.712 134.018C486.772 133.853 486.919 133.73 487.091 133.701C487.264 133.67 487.442 133.735 487.557 133.871C491.818 138.948 493.045 145.961 490.761 152.175C488.541 158.215 483.449 162.605 477.142 163.922C476.875 163.979 476.61 163.806 476.555 163.537C476.5 163.267 476.67 163.006 476.94 162.951C482.912 161.705 487.73 157.55 489.831 151.835C491.894 146.225 490.933 139.929 487.34 135.19L484.221 143.674C483.349 146.042 481.609 147.931 479.319 148.991C477.029 150.05 474.462 150.155 472.093 149.284C469.725 148.412 467.835 146.672 466.776 144.383C465.716 142.093 465.611 139.526 466.482 137.158L469.599 128.675C463.844 129.952 459.053 134.078 456.97 139.62C453.622 148.52 458.09 158.597 466.927 162.087C467.877 162.461 468.859 162.757 469.851 162.961C470.12 163.016 470.293 163.278 470.235 163.547C470.186 163.783 469.981 163.942 469.748 163.942L469.756 163.935Z" fill="#E9F0FF"/>
<path d="M445.694 250.838C445.547 250.838 445.408 250.772 445.312 250.66C445.199 250.524 445.165 250.338 445.228 250.17L448.64 240.855C450.245 236.477 447.986 231.61 443.611 230.006C441.491 229.229 439.193 229.323 437.144 230.276C435.095 231.226 433.538 232.916 432.76 235.038L429.348 244.354C429.288 244.521 429.141 244.641 428.968 244.673C428.793 244.704 428.618 244.639 428.503 244.503C424.273 239.476 423.02 232.513 425.231 226.335C426.213 223.593 427.856 221.094 429.986 219.102C430.185 218.917 430.499 218.927 430.688 219.126C430.873 219.325 430.863 219.639 430.664 219.827C428.649 221.709 427.094 224.077 426.168 226.67C424.174 232.243 425.158 238.492 428.722 243.186L431.831 234.698C432.7 232.327 434.438 230.438 436.728 229.376C439.018 228.313 441.582 228.208 443.953 229.075C446.324 229.943 448.214 231.681 449.276 233.97C450.339 236.26 450.444 238.824 449.577 241.195L446.468 249.684C452.273 248.391 457.078 244.212 459.135 238.599C460.773 234.13 460.543 229.302 458.488 225.008C456.434 220.714 452.815 217.506 448.3 215.973C444.725 214.761 440.925 214.74 437.309 215.913C437.047 215.999 436.767 215.855 436.683 215.593C436.6 215.332 436.741 215.052 437.003 214.968C440.823 213.728 444.841 213.749 448.62 215.031C453.39 216.651 457.214 220.042 459.386 224.579C461.555 229.117 461.799 234.216 460.069 238.94C457.792 245.157 452.317 249.713 445.785 250.827C445.756 250.832 445.73 250.835 445.702 250.835L445.694 250.838Z" fill="#E9F0FF"/>
<path d="M154.104 60.4356C168.924 69.5103 184.676 71.8208 201.362 67.3646C203.574 66.7732 205.403 65.2058 206.274 63.0889C214.835 42.2966 213.6 25.2567 202.571 11.9717L154.102 60.4356H154.104Z" fill="#FF3B6A"/>
<path d="M190.316 48.1779C203.701 34.7954 209.19 18.586 202.576 11.9734C195.963 5.36079 179.751 10.849 166.367 24.2316C152.983 37.6142 147.494 53.8235 154.107 60.4361C160.721 67.0487 176.932 61.5605 190.316 48.1779Z" fill="#E9F0FF"/>
<path d="M161.89 63.9012C158.456 63.9012 155.635 62.8937 153.641 60.8998C150.725 57.9848 149.909 53.1491 151.348 47.2825C151.435 46.9319 151.788 46.7173 152.139 46.8037C152.489 46.89 152.704 47.2433 152.618 47.5939C151.293 52.9974 151.984 57.3934 154.565 59.9735C160.913 66.3216 176.741 60.8213 189.85 47.7169C192.77 44.7966 195.367 41.688 197.568 38.4799C197.772 38.1816 198.18 38.1058 198.478 38.3099C198.777 38.514 198.852 38.9222 198.648 39.2205C196.403 42.4966 193.754 45.668 190.776 48.6432C184.234 55.1849 176.812 60.0808 169.879 62.428C166.969 63.4145 164.279 63.9038 161.89 63.9038V63.9012Z" fill="#E9F0FF"/>
<path d="M155.283 39.6543C155.181 39.6543 155.077 39.6307 154.98 39.5784C154.66 39.4109 154.535 39.0158 154.705 38.6939C157.393 33.5652 161.266 28.4051 165.906 23.7657C172.448 17.2239 179.87 12.3281 186.803 9.98089C193.89 7.58138 199.657 8.12303 203.041 11.5064C207.056 15.5204 207.056 22.8315 203.041 31.5608C202.89 31.8879 202.502 32.0318 202.172 31.8827C201.845 31.7309 201.701 31.3436 201.851 31.0139C205.569 22.9309 205.669 15.9836 202.115 12.4327C199.1 9.4183 193.811 8.98916 187.221 11.2212C180.475 13.5056 173.233 18.2889 166.83 24.692C162.284 29.2372 158.492 34.29 155.864 39.3036C155.746 39.526 155.519 39.6543 155.283 39.6543Z" fill="#E9F0FF"/>
<path d="M171.531 45.3549C173.832 43.0545 174.402 39.8948 172.804 38.2975C171.207 36.7002 168.047 37.2702 165.746 39.5706C163.445 41.871 162.875 45.0307 164.473 46.628C166.07 48.2253 169.23 47.6553 171.531 45.3549Z" fill="#FF3B6A"/>
<path d="M188.074 28.8154C190.375 26.515 190.945 23.3553 189.347 21.758C187.75 20.1607 184.589 20.7306 182.289 23.031C179.988 25.3314 179.418 28.4912 181.016 30.0885C182.613 31.6858 185.773 31.1158 188.074 28.8154Z" fill="#FF3B6A"/>
<path d="M298.68 285.867C298.597 285.867 298.513 285.852 298.429 285.818C298.094 285.679 297.937 285.297 298.076 284.962C299.308 281.995 304.951 279.572 306.989 279.108C312.621 277.826 318.318 278.538 323.827 279.226C328.967 279.867 334.282 280.532 339.438 279.53C342.372 278.959 344.729 277.24 346.072 274.686C347.503 271.967 347.579 268.694 346.281 265.711C343.392 259.067 335.91 256.076 330.38 255.532C323.068 254.812 315.427 257.217 308.036 259.546C305.521 260.339 303.145 261.085 300.779 261.718C300.167 261.88 299.552 262.04 298.934 262.194C298.581 262.28 298.228 262.068 298.141 261.718C298.055 261.367 298.267 261.011 298.618 260.925C299.23 260.773 299.837 260.616 300.442 260.454C302.781 259.829 305.142 259.085 307.644 258.298C315.16 255.932 322.93 253.483 330.509 254.231C336.674 254.838 344.368 258.036 347.483 265.193C348.94 268.545 348.849 272.226 347.231 275.301C345.698 278.213 343.021 280.173 339.689 280.82C334.329 281.861 328.91 281.183 323.668 280.529C318.271 279.857 312.689 279.161 307.28 280.391C305.335 280.833 300.271 283.094 299.285 285.47C299.18 285.721 298.937 285.873 298.68 285.873V285.867Z" fill="#E9F0FF"/>
<path d="M280.139 264.724C271.16 264.724 263.429 262.664 257.088 258.575C252.812 255.817 250.011 251.674 249.407 247.213C248.844 243.052 250.213 238.884 253.262 235.469C258.163 229.979 266.279 225.96 274.439 224.976C284.572 223.759 294.906 226.504 302.794 232.518C303.082 232.737 303.137 233.148 302.917 233.433C302.697 233.721 302.286 233.776 302.001 233.556C294.383 227.75 284.394 225.094 274.596 226.274C266.739 227.221 258.938 231.076 254.238 236.338C251.448 239.46 250.192 243.259 250.702 247.035C251.255 251.117 253.84 254.922 257.794 257.473C265.483 262.434 275.329 264.3 287.061 263.023C287.422 262.984 287.744 263.243 287.783 263.601C287.822 263.96 287.563 264.284 287.205 264.324C284.771 264.588 282.413 264.721 280.136 264.721L280.139 264.724Z" fill="#E9F0FF"/>
<path d="M313.77 183.761C300.489 193.872 292.944 207.173 291.133 223.663C290.892 225.848 291.662 228.033 293.253 229.548C308.898 244.442 324.584 249.262 340.317 244.008L313.77 183.761Z" fill="#FF3B6A"/>
<path d="M340.321 243.982C348.543 240.36 349.264 223.937 341.932 207.3C334.601 190.663 321.993 180.113 313.771 183.735C305.55 187.358 304.828 203.781 312.16 220.417C319.491 237.054 332.1 247.604 340.321 243.982Z" fill="#E9F0FF"/>
<path d="M336.835 245.554C333.54 245.554 329.835 244.016 326.058 241.025C325.697 240.739 325.637 240.213 325.922 239.852C326.207 239.491 326.733 239.431 327.095 239.716C331.912 243.531 336.49 244.785 339.983 243.246C343.655 241.629 345.835 237.107 346.126 230.513C346.424 223.71 344.665 215.596 341.169 207.664C337.675 199.733 332.873 192.959 327.652 188.589C327.299 188.293 327.252 187.767 327.547 187.414C327.843 187.06 328.369 187.013 328.722 187.309C334.137 191.841 339.099 198.83 342.697 206.992C346.293 215.153 348.104 223.532 347.793 230.587C347.473 237.848 344.94 242.888 340.656 244.774C339.468 245.298 338.188 245.557 336.838 245.557L336.835 245.554Z" fill="#E9F0FF"/>
<path d="M318.352 232.29C318.09 232.29 317.834 232.167 317.672 231.94C315.285 228.572 313.173 224.819 311.393 220.782C307.798 212.62 305.987 204.242 306.298 197.187C306.617 189.926 309.151 184.886 313.435 182.999C315.497 182.091 317.829 181.971 320.365 182.641C320.809 182.759 321.076 183.214 320.959 183.661C320.841 184.106 320.386 184.373 319.938 184.255C317.776 183.685 315.816 183.777 314.107 184.528C310.436 186.145 308.256 190.666 307.965 197.26C307.667 204.064 309.425 212.178 312.919 220.109C314.654 224.045 316.711 227.7 319.033 230.977C319.299 231.353 319.21 231.874 318.834 232.138C318.687 232.243 318.52 232.293 318.352 232.293V232.29Z" fill="#E9F0FF"/>
<path d="M333.466 226.149C332.108 226.149 330.812 225.361 330.229 224.037C329.441 222.25 330.252 220.165 332.04 219.377L348.794 211.998C350.581 211.21 352.667 212.021 353.455 213.809C354.243 215.596 353.431 217.681 351.644 218.469L334.89 225.848C334.427 226.052 333.942 226.149 333.466 226.149Z" fill="#FF3B6A"/>
<path d="M325.199 207.384C323.84 207.384 322.545 206.597 321.961 205.273C321.174 203.485 321.985 201.4 323.772 200.612L340.526 193.233C342.314 192.446 344.4 193.257 345.187 195.044C345.975 196.831 345.164 198.917 343.376 199.704L326.622 207.083C326.159 207.287 325.675 207.384 325.199 207.384Z" fill="#FF3B6A"/>
</svg>
