<svg width="40" height="40" viewBox="0 0 40 40" fill="none" xmlns="http://www.w3.org/2000/svg">
<g clip-path="url(#clip0_1474_9034)">
<path d="M0 0H40V40H0V0Z" fill="#464962"/>
<path d="M2.375 11V5.18182H4.88636C5.31818 5.18182 5.69602 5.26705 6.01989 5.4375C6.34375 5.60795 6.59564 5.84754 6.77557 6.15625C6.95549 6.46496 7.04545 6.82576 7.04545 7.23864C7.04545 7.6553 6.95265 8.0161 6.76705 8.32102C6.58333 8.62595 6.32481 8.8608 5.99148 9.02557C5.66004 9.19034 5.27273 9.27273 4.82955 9.27273H3.32955V8.04545H4.51136C4.69697 8.04545 4.85511 8.01326 4.9858 7.94886C5.11837 7.88258 5.2197 7.78883 5.28977 7.66761C5.36174 7.5464 5.39773 7.40341 5.39773 7.23864C5.39773 7.07197 5.36174 6.92992 5.28977 6.8125C5.2197 6.69318 5.11837 6.60227 4.9858 6.53977C4.85511 6.47538 4.69697 6.44318 4.51136 6.44318H3.95455V11H2.375ZM7.38636 5.18182H9.14773L10.2841 7.54545H10.3295L11.4659 5.18182H13.2273L11.0909 9.17045V11H9.52273V9.17045L7.38636 5.18182ZM13.9503 6.45455V5.18182H19.0071V6.45455H17.2571V11H15.7003V6.45455H13.9503ZM19.6016 11V5.18182H21.1811V7.45455H23.272V5.18182H24.8516V11H23.272V8.72727H21.1811V11H19.6016ZM31.2379 8.09091C31.2379 8.73864 31.112 9.28504 30.8601 9.73011C30.6082 10.1733 30.2682 10.5095 29.8402 10.7386C29.4122 10.9659 28.9349 11.0795 28.4084 11.0795C27.8781 11.0795 27.3989 10.965 26.9709 10.7358C26.5447 10.5047 26.2057 10.1676 25.9538 9.72443C25.7038 9.27936 25.5788 8.73485 25.5788 8.09091C25.5788 7.44318 25.7038 6.89773 25.9538 6.45455C26.2057 6.00947 26.5447 5.6733 26.9709 5.44602C27.3989 5.21686 27.8781 5.10227 28.4084 5.10227C28.9349 5.10227 29.4122 5.21686 29.8402 5.44602C30.2682 5.6733 30.6082 6.00947 30.8601 6.45455C31.112 6.89773 31.2379 7.44318 31.2379 8.09091ZM29.6129 8.09091C29.6129 7.74242 29.5665 7.44886 29.4737 7.21023C29.3828 6.9697 29.2474 6.78788 29.0675 6.66477C28.8894 6.53977 28.6697 6.47727 28.4084 6.47727C28.147 6.47727 27.9264 6.53977 27.7464 6.66477C27.5684 6.78788 27.433 6.9697 27.3402 7.21023C27.2493 7.44886 27.2038 7.74242 27.2038 8.09091C27.2038 8.43939 27.2493 8.7339 27.3402 8.97443C27.433 9.21307 27.5684 9.39489 27.7464 9.51989C27.9264 9.64299 28.147 9.70455 28.4084 9.70455C28.6697 9.70455 28.8894 9.64299 29.0675 9.51989C29.2474 9.39489 29.3828 9.21307 29.4737 8.97443C29.5665 8.7339 29.6129 8.43939 29.6129 8.09091ZM37.0028 5.18182V11H35.6847L33.5824 7.94318H33.5483V11H31.9688V5.18182H33.3097L35.3778 8.22727H35.4233V5.18182H37.0028Z" fill="#F8F8F8"/>
<g clip-path="url(#clip1_1474_9034)">
<path d="M19.8587 14.0002C18.8799 14.0047 17.9451 14.0882 17.1226 14.2338C14.6997 14.6618 14.2598 15.5578 14.2598 17.2101V19.3922H19.9854V20.1196H14.2598H12.111C10.447 20.1196 8.98988 21.1198 8.53416 23.0225C8.00846 25.2034 7.98516 26.5643 8.53416 28.8416C8.94118 30.5366 9.91313 31.7444 11.5771 31.7444H13.5458V29.1284C13.5458 27.2386 15.1809 25.5716 17.1226 25.5716H22.8416C24.4336 25.5716 25.7044 24.2609 25.7044 22.6621V17.2101C25.7044 15.6584 24.3954 14.4928 22.8416 14.2338C21.8581 14.07 20.8375 13.9956 19.8587 14.0002ZM16.7623 15.7553C17.3537 15.7553 17.8366 16.2462 17.8366 16.8497C17.8366 17.4511 17.3537 17.9374 16.7623 17.9374C16.1687 17.9374 15.6879 17.4511 15.6879 16.8497C15.6879 16.2461 16.1687 15.7553 16.7623 15.7553Z" fill="#5599FF"/>
<path d="M26.4184 20.1212V22.6637C26.4184 24.6349 24.7472 26.2939 22.8416 26.2939H17.1226C15.5561 26.2939 14.2598 27.6346 14.2598 29.2035V34.6555C14.2598 36.2071 15.6091 37.1198 17.1226 37.565C18.935 38.0979 20.6731 38.1943 22.8416 37.565C24.283 37.1477 25.7044 36.3078 25.7044 34.6555V32.4733H19.9854V31.7459H25.7044H28.5672C30.2313 31.7459 30.8514 30.5852 31.4301 28.8431C32.0279 27.0495 32.0024 25.3248 31.4301 23.024C31.0188 21.3674 30.2334 20.1211 28.5672 20.1211H26.4184V20.1212ZM23.202 33.9281C23.7955 33.9281 24.2763 34.4145 24.2763 35.0159C24.2763 35.6194 23.7955 36.1103 23.202 36.1103C22.6105 36.1103 22.1276 35.6194 22.1276 35.0159C22.1275 34.4145 22.6105 33.9281 23.202 33.9281Z" fill="#FFD84F"/>
</g>
</g>
<defs>
<clipPath id="clip0_1474_9034">
<rect width="40" height="40" rx="8" fill="white"/>
</clipPath>
<clipPath id="clip1_1474_9034">
<rect width="24" height="24" fill="white" transform="translate(8 14)"/>
</clipPath>
</defs>
</svg>
