<svg width="40" height="40" viewBox="0 0 40 40" fill="none" xmlns="http://www.w3.org/2000/svg">
<g clip-path="url(#clip0_1474_9046)">
<path d="M0 0H40V40H0V0Z" fill="#464962"/>
<path d="M5.375 11V5.18182H7.88636C8.31818 5.18182 8.69602 5.26042 9.01989 5.41761C9.34375 5.57481 9.59564 5.80114 9.77557 6.09659C9.95549 6.39205 10.0455 6.74621 10.0455 7.15909C10.0455 7.57576 9.95265 7.92708 9.76705 8.21307C9.58333 8.49905 9.32481 8.71496 8.99148 8.8608C8.66004 9.00663 8.27273 9.07955 7.82955 9.07955H6.32955V7.85227H7.51136C7.69697 7.85227 7.85511 7.82955 7.9858 7.78409C8.11837 7.73674 8.2197 7.66193 8.28977 7.55966C8.36174 7.45739 8.39773 7.32386 8.39773 7.15909C8.39773 6.99242 8.36174 6.85701 8.28977 6.75284C8.2197 6.64678 8.11837 6.56913 7.9858 6.51989C7.85511 6.46875 7.69697 6.44318 7.51136 6.44318H6.95455V11H5.375ZM8.78409 8.32955L10.2386 11H8.52273L7.10227 8.32955H8.78409ZM10.7188 11V5.18182H14.9119V6.45455H12.2983V7.45455H14.696V8.72727H12.2983V9.72727H14.9006V11H10.7188ZM17.2067 11H15.5021L17.4226 5.18182H19.5817L21.5021 11H19.7976L18.5249 6.78409H18.4794L17.2067 11ZM16.8885 8.70455H20.093V9.88636H16.8885V8.70455ZM27.2209 7.36364H25.6186C25.6072 7.23106 25.5769 7.1108 25.5277 7.00284C25.4804 6.89489 25.4141 6.80208 25.3288 6.72443C25.2455 6.64489 25.1442 6.58428 25.0249 6.54261C24.9055 6.49905 24.7701 6.47727 24.6186 6.47727C24.3535 6.47727 24.129 6.54167 23.9453 6.67045C23.7635 6.79924 23.6252 6.9839 23.5305 7.22443C23.4377 7.46496 23.3913 7.75379 23.3913 8.09091C23.3913 8.44697 23.4387 8.74527 23.5334 8.9858C23.63 9.22443 23.7692 9.40436 23.951 9.52557C24.1328 9.64489 24.3516 9.70455 24.6072 9.70455C24.7531 9.70455 24.8838 9.68655 24.9993 9.65057C25.1148 9.61269 25.2152 9.55871 25.3004 9.48864C25.3857 9.41856 25.4548 9.33428 25.5078 9.2358C25.5627 9.13542 25.5997 9.02273 25.6186 8.89773L27.2209 8.90909C27.2019 9.1553 27.1328 9.40625 27.0135 9.66193C26.8942 9.91572 26.7247 10.1506 26.505 10.3665C26.2872 10.5805 26.0173 10.7528 25.6953 10.8835C25.3733 11.0142 24.9993 11.0795 24.5732 11.0795C24.0391 11.0795 23.5599 10.965 23.1357 10.7358C22.7133 10.5066 22.379 10.1695 22.1328 9.72443C21.8885 9.27936 21.7663 8.73485 21.7663 8.09091C21.7663 7.44318 21.8913 6.89773 22.1413 6.45455C22.3913 6.00947 22.7285 5.6733 23.1527 5.44602C23.5769 5.21686 24.0504 5.10227 24.5732 5.10227C24.9406 5.10227 25.2786 5.15246 25.5874 5.25284C25.8961 5.35322 26.1669 5.5 26.3999 5.69318C26.6328 5.88447 26.8203 6.12027 26.9624 6.40057C27.1044 6.68087 27.1906 7.00189 27.2209 7.36364ZM27.7784 6.45455V5.18182H32.8352V6.45455H31.0852V11H29.5284V6.45455H27.7784Z" fill="#F8F8F8"/>
<path d="M29.2226 26.6783C29.0068 26.3985 28.7726 26.1186 28.5223 25.8398C28.6944 25.6402 28.8583 25.4402 29.0126 25.2402C30.6071 23.1727 31.0598 21.2972 30.2873 19.9593C29.5148 18.6213 27.6644 18.0756 25.0765 18.4227C24.8037 18.4594 24.5252 18.5058 24.2422 18.5609C24.146 18.2794 24.044 18.0067 23.9361 17.7444C22.9428 15.3298 21.545 14 20 14C18.455 14 17.0572 15.3298 16.064 17.7444C15.956 18.0067 15.8541 18.2794 15.7578 18.5609C15.4749 18.5058 15.1963 18.4594 14.9236 18.4227C12.3359 18.0756 10.4853 18.6213 9.71277 19.9593C8.94027 21.2973 9.39298 23.1727 10.9875 25.2402C11.1417 25.4402 11.3056 25.6402 11.4777 25.8398C11.2274 26.1186 10.9933 26.3985 10.7774 26.6783C9.18294 28.7458 8.73022 30.6213 9.50272 31.9593C10.1234 33.0343 11.4396 33.5978 13.2754 33.5978C13.7244 33.5978 14.2049 33.564 14.7135 33.4958C15.041 33.4518 15.3768 33.3939 15.7188 33.3233C15.8263 33.646 15.9413 33.9575 16.064 34.2556C17.0572 36.6702 18.455 38 20 38C21.545 38 22.9428 36.6702 23.936 34.2556C24.0587 33.9575 24.1737 33.646 24.2812 33.3233C24.6232 33.3938 24.959 33.4518 25.2865 33.4957C25.7952 33.564 26.2754 33.5977 26.7246 33.5977C28.5602 33.5977 29.8767 33.0342 30.4973 31.9592C31.2698 30.6213 30.8171 28.7458 29.2226 26.6783ZM26.5225 19.7247C27.8079 19.7247 28.7164 20.051 29.0694 20.6623C29.5313 21.4624 29.1047 22.8179 27.899 24.3814C27.7841 24.5303 27.6631 24.6794 27.5371 24.8284C26.8322 24.1577 26.0386 23.5015 25.1753 22.8761C25.056 21.8346 24.8767 20.8395 24.6423 19.9142C25.3306 19.7872 25.9626 19.7247 26.5225 19.7247ZM21.8668 29.3746C21.2347 29.7395 20.6108 30.0669 20.0004 30.358C19.3896 30.0668 18.7656 29.7398 18.1332 29.3746C17.4355 28.9718 16.7677 28.5454 16.1378 28.1025C16.0849 27.4299 16.0563 26.728 16.0563 26C16.0563 25.1845 16.0921 24.4016 16.1579 23.6562C16.7196 23.2704 17.3097 22.898 17.9231 22.5439C18.6281 22.1369 19.3227 21.7772 20 21.4618C20.6773 21.7772 21.3718 22.1369 22.0768 22.5439C22.6903 22.898 23.2803 23.2704 23.8421 23.6562C23.9079 24.4016 23.9436 25.1845 23.9436 26C23.9436 26.728 23.915 27.4299 23.8622 28.1025C23.2323 28.5454 22.5645 28.9718 21.8668 29.3746ZM23.6477 29.9377C23.5535 30.5363 23.4392 31.1033 23.3079 31.6347C22.7863 31.4831 22.2429 31.2997 21.6824 31.0837C21.979 30.9262 22.2751 30.7627 22.5699 30.5925C22.9371 30.3804 23.2965 30.1618 23.6477 29.9377ZM18.3175 31.0836C17.7569 31.2997 17.2136 31.4829 16.692 31.6345C16.5608 31.1032 16.4465 30.5362 16.3523 29.9377C16.7034 30.1618 17.0628 30.3804 17.43 30.5924C17.7249 30.7627 18.0209 30.9262 18.3175 31.0836ZM14.6672 26.9818C14.2219 26.6128 13.8047 26.237 13.4197 25.8576C13.8098 25.4856 14.2302 25.1176 14.6774 24.7568C14.6594 25.1672 14.6501 25.582 14.6501 26C14.6501 26.3295 14.656 26.6569 14.6672 26.9818ZM16.3912 21.8238C16.4857 21.2635 16.598 20.7324 16.7253 20.2335C17.225 20.3732 17.7456 20.5427 18.2829 20.7424C17.9277 20.9278 17.573 21.1223 17.22 21.3261C16.9391 21.4883 16.6628 21.6545 16.3912 21.8238ZM21.7171 20.7424C22.2543 20.5426 22.775 20.3731 23.2747 20.2335C23.402 20.7324 23.5143 21.2635 23.6088 21.8238C23.3372 21.6545 23.0609 21.4883 22.78 21.3261C22.427 21.1223 22.0723 20.9278 21.7171 20.7424ZM25.3226 24.7568C25.7698 25.1176 26.1902 25.4856 26.5803 25.8576C26.1953 26.237 25.7781 26.6128 25.3328 26.9818C25.344 26.6569 25.3499 26.3295 25.3499 26C25.3499 25.5819 25.3406 25.1672 25.3226 24.7568ZM20 15.4062C21.0171 15.4062 22.0976 16.7001 22.8699 18.8889C21.9394 19.1504 20.9748 19.4972 20 19.921C19.0252 19.4972 18.0606 19.1505 17.1301 18.8889C17.9024 16.7001 18.9829 15.4062 20 15.4062ZM10.9306 20.6624C11.2836 20.0509 12.1918 19.7247 13.4775 19.7247C14.0374 19.7247 14.6694 19.7872 15.3578 19.9143C15.1233 20.8396 14.944 21.8347 14.8248 22.8761C13.9614 23.5015 13.1679 24.1578 12.4629 24.8285C12.3369 24.6794 12.2159 24.5304 12.101 24.3814C10.8953 22.818 10.4687 21.4625 10.9306 20.6624ZM13.2675 32.1938C11.9821 32.1937 11.0735 31.8675 10.7205 31.2561C10.2586 30.4561 10.6852 29.1005 11.891 27.5371C12.0628 27.3143 12.2474 27.0913 12.4438 26.8686C13.1407 27.5539 13.9318 28.226 14.7968 28.8678C14.9106 29.9584 15.0894 31.0016 15.3284 31.9699C14.5696 32.1204 13.8761 32.1939 13.2675 32.1938ZM20 36.5938C18.9631 36.5938 17.8606 35.2489 17.0856 32.9825C18.0319 32.7074 19.0116 32.3452 20 31.9049C20.9884 32.3452 21.9681 32.7074 22.9144 32.9825C22.1394 35.2489 21.0369 36.5938 20 36.5938ZM29.2795 31.2561C28.7593 32.1571 27.0338 32.4384 24.6715 31.9699C24.9106 31.0016 25.0893 29.9584 25.2032 28.8678C26.0682 28.226 26.8593 27.5539 27.5562 26.8686C27.7526 27.0913 27.9372 27.3144 28.109 27.5371C29.3148 29.1005 29.7414 30.4561 29.2795 31.2561Z" fill="#5599FF"/>
<path d="M20 28.1734C21.2 28.1734 22.1727 27.2007 22.1727 26.0008C22.1727 24.8009 21.2 23.8281 20 23.8281C18.8001 23.8281 17.8274 24.8009 17.8274 26.0008C17.8274 27.2007 18.8001 28.1734 20 28.1734Z" fill="#5599FF"/>
</g>
<defs>
<clipPath id="clip0_1474_9046">
<rect width="40" height="40" rx="8" fill="white"/>
</clipPath>
</defs>
</svg>
