<svg width="408" height="244" viewBox="0 0 408 244" fill="none" xmlns="http://www.w3.org/2000/svg">
<g clip-path="url(#clip0_1060_3699)">
<path d="M54.3279 17.8164H357.943C363.397 17.8164 367.823 22.1489 367.823 27.4875V228.435C367.823 233.773 363.397 238.106 357.943 238.106H54.3279C48.8737 238.106 44.4473 233.773 44.4473 228.435V27.4875C44.4473 22.1489 48.8737 17.8164 54.3279 17.8164Z" fill="white"/>
<path d="M357.942 23.1199C360.401 23.1199 362.4 25.0763 362.4 27.483V228.43C362.4 230.837 360.401 232.793 357.942 232.793H54.327C51.8682 232.793 49.8694 230.837 49.8694 228.43V27.4857C49.8694 25.0791 51.8682 23.1226 54.327 23.1226H357.942V23.1199ZM357.942 12.5039H54.327C45.8746 12.5039 39.0234 19.2097 39.0234 27.483V228.43C39.0234 236.703 45.8746 243.409 54.327 243.409H357.942C366.394 243.409 373.246 236.703 373.246 228.43V27.4857C373.246 19.2125 366.394 12.5067 357.942 12.5067V12.5039Z" fill="#121533"/>
<path d="M262.411 243.999H0.503683C0.22565 243.999 0 243.688 0 243.304C0 242.921 0.22565 242.609 0.503683 242.609H262.411C262.689 242.609 262.914 242.921 262.914 243.304C262.914 243.688 262.689 243.999 262.411 243.999Z" fill="#240448"/>
<path d="M407.458 243.999H279.075C278.775 243.999 278.531 243.688 278.531 243.304C278.531 242.921 278.775 242.609 279.075 242.609H407.458C407.758 242.609 408.001 242.921 408.001 243.304C408.001 243.688 407.758 243.999 407.458 243.999Z" fill="#240448"/>
<path d="M233.287 160.629H70.3145V232.787H233.287V160.629Z" fill="#9D9FB5"/>
<path d="M347.994 160.629H253.178V232.787H347.994V160.629Z" fill="#5599FF"/>
<path d="M347.994 0H253.178V85.5945H347.994V0Z" fill="#9D9FB5"/>
<path d="M193.639 217.915C203.148 217.915 210.856 210.37 210.856 201.063C210.856 191.756 203.148 184.211 193.639 184.211C184.13 184.211 176.422 191.756 176.422 201.063C176.422 210.37 184.13 217.915 193.639 217.915Z" fill="white"/>
<path d="M149.223 217.915C158.732 217.915 166.44 210.37 166.44 201.063C166.44 191.756 158.732 184.211 149.223 184.211C139.714 184.211 132.006 191.756 132.006 201.063C132.006 210.37 139.714 217.915 149.223 217.915Z" fill="white"/>
<path d="M104.803 217.915C114.312 217.915 122.02 210.37 122.02 201.063C122.02 191.756 114.312 184.211 104.803 184.211C95.2943 184.211 87.5859 191.756 87.5859 201.063C87.5859 210.37 95.2943 217.915 104.803 217.915Z" fill="white"/>
<path d="M104.803 213.302C97.9092 213.302 92.2988 207.813 92.2988 201.063C92.2988 197.567 93.832 194.229 96.5066 191.906C96.799 191.65 97.2476 191.678 97.5088 191.964C97.7701 192.25 97.7417 192.689 97.4492 192.945C95.0784 195.004 93.7185 197.961 93.7185 201.063C93.7185 207.043 98.69 211.912 104.803 211.912C110.916 211.912 115.887 207.046 115.887 201.063C115.887 200.679 116.205 200.368 116.597 200.368C116.989 200.368 117.307 200.679 117.307 201.063C117.307 207.81 111.699 213.302 104.803 213.302Z" fill="#9D9FB5"/>
<path d="M149.223 213.302C142.329 213.302 136.719 207.813 136.719 201.063C136.719 197.567 138.252 194.229 140.927 191.906C141.219 191.65 141.668 191.678 141.929 191.964C142.19 192.25 142.162 192.689 141.869 192.945C139.498 195.004 138.138 197.961 138.138 201.063C138.138 207.043 143.11 211.912 149.223 211.912C155.336 211.912 160.307 207.046 160.307 201.063C160.307 200.679 160.625 200.368 161.017 200.368C161.409 200.368 161.727 200.679 161.727 201.063C161.727 207.81 156.119 213.302 149.223 213.302Z" fill="#9D9FB5"/>
<path d="M193.639 213.302C186.745 213.302 181.135 207.813 181.135 201.063C181.135 197.567 182.668 194.229 185.343 191.906C185.635 191.65 186.084 191.678 186.345 191.964C186.606 192.25 186.578 192.689 186.285 192.945C183.914 195.004 182.554 197.961 182.554 201.063C182.554 207.043 187.526 211.912 193.639 211.912C199.752 211.912 204.723 207.046 204.723 201.063C204.723 200.679 205.041 200.368 205.433 200.368C205.825 200.368 206.143 200.679 206.143 201.063C206.143 207.81 200.535 213.302 193.639 213.302Z" fill="#9D9FB5"/>
<path d="M349.696 101.383H72.0234V144.841H349.696V101.383Z" fill="#9D9FB5"/>
<path d="M233.287 0H70.3145V85.5945H233.287V0Z" fill="#5599FF"/>
<path d="M103.13 39.9492H95.2539V69.2904H103.13V39.9492Z" fill="white"/>
<path d="M120.458 25.9922H112.582V69.2897H120.458V25.9922Z" fill="#121533"/>
<path d="M137.786 49.5664H129.91V69.2893H137.786V49.5664Z" fill="white"/>
<path d="M155.116 29.8477H147.24V69.2906H155.116V29.8477Z" fill="white"/>
<path d="M172.444 19.8242H164.568V69.2912H172.444V19.8242Z" fill="#121533"/>
<path d="M189.775 42.1836H181.898V69.2904H189.775V42.1836Z" fill="white"/>
<path d="M207.103 29.8477H199.227V69.2906H207.103V29.8477Z" fill="#121533"/>
<path d="M266.507 114.53H117.756C117.344 114.53 117.012 114.205 117.012 113.802C117.012 113.399 117.344 113.074 117.756 113.074H266.507C266.918 113.074 267.251 113.399 267.251 113.802C267.251 114.205 266.918 114.53 266.507 114.53Z" fill="white"/>
<path d="M266.506 123.007H142.482C142.07 123.007 141.738 122.682 141.738 122.279C141.738 121.876 142.07 121.551 142.482 121.551H266.506C266.918 121.551 267.25 121.876 267.25 122.279C267.25 122.682 266.918 123.007 266.506 123.007Z" fill="white"/>
<path d="M129.909 123.007H94.9411C94.5295 123.007 94.1973 122.682 94.1973 122.279C94.1973 121.876 94.5295 121.551 94.9411 121.551H129.909C130.321 121.551 130.653 121.876 130.653 122.279C130.653 122.682 130.321 123.007 129.909 123.007Z" fill="white"/>
<path d="M266.506 131.484H255.197C254.785 131.484 254.453 131.158 254.453 130.755C254.453 130.352 254.785 130.027 255.197 130.027H266.506C266.917 130.027 267.25 130.352 267.25 130.755C267.25 131.158 266.917 131.484 266.506 131.484Z" fill="white"/>
<path d="M242.169 131.484H94.9451C94.5334 131.484 94.2012 131.158 94.2012 130.755C94.2012 130.352 94.5334 130.027 94.9451 130.027H242.169C242.58 130.027 242.912 130.352 242.912 130.755C242.912 131.158 242.58 131.484 242.169 131.484Z" fill="white"/>
<path d="M328.757 50.4946V36.8661H321.245C321.003 36.2047 320.731 35.56 320.424 34.9347L325.719 29.7351L316.046 20.2975L310.742 25.5054C310.132 25.222 309.504 24.9691 308.866 24.744V17.3906H295.206V24.7329C294.411 25.008 293.642 25.3304 292.895 25.6944L287.478 20.6004L278.014 30.2409L283.423 35.3266C283.185 35.8379 282.972 36.3632 282.779 36.8967H275.277V50.2667H282.79C283.088 51.0893 283.44 51.8869 283.843 52.6567L278.525 58.137L288.338 67.6163L293.894 61.8914C294.314 62.0693 294.74 62.236 295.175 62.3861V70.3759H308.834V62.3972C309.462 62.1805 310.072 61.9331 310.669 61.6608L316.375 67.2189L325.915 57.4644L320.453 52.1453C320.714 51.6062 320.952 51.056 321.165 50.4918H328.76L328.757 50.4946Z" fill="white"/>
<path d="M306.498 54.4745C312.473 52.0523 315.31 45.3481 312.835 39.5003C310.36 33.6525 303.511 30.8755 297.537 33.2977C291.562 35.72 288.725 42.4242 291.2 48.272C293.674 54.1198 300.524 56.8967 306.498 54.4745Z" fill="#121533"/>
<path d="M296.091 222.215H308.879V197.901H296.091V222.215Z" fill="#121533"/>
<path d="M275.847 222.215H288.635V204.057H275.847V222.215Z" fill="#F8F8F8"/>
<path d="M315.614 222.215H328.402V185.896H315.614V222.215Z" fill="#F8F8F8"/>
<path d="M309.729 174.353L316.844 180.494L320.265 170.445L309.729 174.353Z" fill="#240448"/>
<path d="M277.055 196.362L276.91 194.981C277.109 194.961 296.941 192.791 313.758 176.211L314.766 177.189C305.785 186.043 296.024 190.781 289.417 193.199C282.245 195.823 277.262 196.342 277.055 196.362Z" fill="#240448"/>
<rect x="277" y="111" width="66" height="24" rx="4" fill="#5599FF"/>
<path d="M289.233 122H288.352C288.3 121.747 288.209 121.524 288.079 121.332C287.951 121.141 287.795 120.98 287.61 120.849C287.428 120.717 287.225 120.617 287.003 120.551C286.78 120.485 286.548 120.452 286.307 120.452C285.866 120.452 285.468 120.563 285.11 120.786C284.755 121.008 284.472 121.336 284.261 121.769C284.053 122.202 283.949 122.734 283.949 123.364C283.949 123.993 284.053 124.525 284.261 124.958C284.472 125.391 284.755 125.719 285.11 125.942C285.468 126.164 285.866 126.276 286.307 126.276C286.548 126.276 286.78 126.242 287.003 126.176C287.225 126.11 287.428 126.012 287.61 125.881C287.795 125.749 287.951 125.587 288.079 125.395C288.209 125.201 288.3 124.978 288.352 124.727H289.233C289.167 125.099 289.046 125.432 288.871 125.725C288.696 126.019 288.478 126.268 288.217 126.474C287.957 126.678 287.665 126.833 287.34 126.94C287.018 127.046 286.674 127.099 286.307 127.099C285.687 127.099 285.135 126.948 284.652 126.645C284.169 126.342 283.789 125.911 283.512 125.352C283.235 124.794 283.097 124.131 283.097 123.364C283.097 122.597 283.235 121.934 283.512 121.375C283.789 120.816 284.169 120.385 284.652 120.082C285.135 119.779 285.687 119.628 286.307 119.628C286.674 119.628 287.018 119.681 287.34 119.788C287.665 119.894 287.957 120.05 288.217 120.256C288.478 120.46 288.696 120.709 288.871 121.002C289.046 121.293 289.167 121.626 289.233 122ZM290.742 127V121.545H291.552V122.369H291.609C291.708 122.099 291.888 121.88 292.149 121.712C292.409 121.544 292.703 121.46 293.029 121.46C293.091 121.46 293.168 121.461 293.26 121.464C293.353 121.466 293.422 121.47 293.47 121.474V122.327C293.441 122.32 293.376 122.309 293.274 122.295C293.175 122.278 293.07 122.27 292.958 122.27C292.693 122.27 292.456 122.326 292.248 122.437C292.042 122.546 291.879 122.697 291.758 122.891C291.64 123.083 291.581 123.302 291.581 123.548V127H290.742ZM296.784 127.114C296.258 127.114 295.805 126.998 295.424 126.766C295.045 126.531 294.753 126.205 294.547 125.786C294.343 125.364 294.241 124.874 294.241 124.315C294.241 123.757 294.343 123.264 294.547 122.838C294.753 122.41 295.039 122.076 295.406 121.837C295.776 121.595 296.206 121.474 296.699 121.474C296.983 121.474 297.263 121.522 297.54 121.616C297.817 121.711 298.07 121.865 298.297 122.078C298.524 122.289 298.705 122.568 298.84 122.916C298.975 123.264 299.043 123.693 299.043 124.202V124.557H294.838V123.832H298.19C298.19 123.525 298.129 123.25 298.006 123.009C297.885 122.767 297.712 122.576 297.487 122.437C297.265 122.297 297.002 122.227 296.699 122.227C296.365 122.227 296.076 122.31 295.832 122.476C295.591 122.639 295.405 122.852 295.275 123.115C295.145 123.378 295.08 123.66 295.08 123.96V124.443C295.08 124.855 295.151 125.204 295.293 125.491C295.437 125.775 295.637 125.991 295.893 126.141C296.148 126.287 296.446 126.361 296.784 126.361C297.004 126.361 297.203 126.33 297.381 126.268C297.561 126.205 297.716 126.11 297.846 125.984C297.976 125.857 298.077 125.698 298.148 125.509L298.957 125.736C298.872 126.01 298.729 126.252 298.528 126.46C298.326 126.666 298.078 126.827 297.782 126.943C297.486 127.057 297.153 127.114 296.784 127.114ZM302.123 127.128C301.777 127.128 301.463 127.063 301.181 126.933C300.9 126.8 300.676 126.609 300.51 126.361C300.345 126.11 300.262 125.807 300.262 125.452C300.262 125.139 300.323 124.886 300.446 124.692C300.57 124.495 300.734 124.341 300.94 124.23C301.146 124.119 301.373 124.036 301.622 123.982C301.873 123.925 302.125 123.88 302.378 123.847C302.71 123.804 302.978 123.772 303.184 123.751C303.393 123.727 303.544 123.688 303.639 123.634C303.736 123.579 303.784 123.484 303.784 123.349V123.321C303.784 122.971 303.689 122.698 303.497 122.504C303.307 122.31 303.02 122.213 302.634 122.213C302.234 122.213 301.92 122.301 301.693 122.476C301.466 122.651 301.306 122.838 301.213 123.037L300.418 122.753C300.56 122.421 300.749 122.163 300.986 121.979C301.225 121.792 301.486 121.661 301.767 121.588C302.052 121.512 302.331 121.474 302.606 121.474C302.781 121.474 302.982 121.496 303.209 121.538C303.439 121.579 303.66 121.663 303.873 121.79C304.089 121.918 304.267 122.111 304.409 122.369C304.552 122.627 304.623 122.973 304.623 123.406V127H303.784V126.261H303.742C303.685 126.38 303.59 126.506 303.458 126.641C303.325 126.776 303.149 126.891 302.929 126.986C302.708 127.08 302.44 127.128 302.123 127.128ZM302.25 126.375C302.582 126.375 302.861 126.31 303.088 126.18C303.318 126.049 303.491 125.881 303.607 125.675C303.725 125.469 303.784 125.253 303.784 125.026V124.259C303.749 124.301 303.671 124.34 303.55 124.376C303.432 124.409 303.294 124.438 303.138 124.464C302.984 124.488 302.834 124.509 302.687 124.528C302.543 124.545 302.426 124.559 302.336 124.571C302.118 124.599 301.914 124.646 301.725 124.71C301.538 124.771 301.386 124.865 301.27 124.99C301.157 125.113 301.1 125.281 301.1 125.494C301.1 125.786 301.208 126.006 301.423 126.155C301.641 126.302 301.917 126.375 302.25 126.375ZM308.724 121.545V122.256H305.898V121.545H308.724ZM306.722 120.239H307.56V125.438C307.56 125.674 307.594 125.852 307.663 125.97C307.734 126.086 307.824 126.164 307.932 126.205C308.044 126.242 308.161 126.261 308.284 126.261C308.376 126.261 308.452 126.257 308.511 126.247C308.57 126.235 308.618 126.226 308.653 126.219L308.824 126.972C308.767 126.993 308.688 127.014 308.586 127.036C308.484 127.059 308.355 127.071 308.199 127.071C307.962 127.071 307.73 127.02 307.503 126.918C307.278 126.817 307.091 126.661 306.942 126.453C306.795 126.245 306.722 125.982 306.722 125.665V120.239ZM312.413 127.114C311.888 127.114 311.434 126.998 311.053 126.766C310.674 126.531 310.382 126.205 310.176 125.786C309.973 125.364 309.871 124.874 309.871 124.315C309.871 123.757 309.973 123.264 310.176 122.838C310.382 122.41 310.669 122.076 311.036 121.837C311.405 121.595 311.836 121.474 312.328 121.474C312.612 121.474 312.893 121.522 313.17 121.616C313.447 121.711 313.699 121.865 313.926 122.078C314.153 122.289 314.335 122.568 314.469 122.916C314.604 123.264 314.672 123.693 314.672 124.202V124.557H310.467V123.832H313.82C313.82 123.525 313.758 123.25 313.635 123.009C313.514 122.767 313.341 122.576 313.116 122.437C312.894 122.297 312.631 122.227 312.328 122.227C311.994 122.227 311.705 122.31 311.462 122.476C311.22 122.639 311.034 122.852 310.904 123.115C310.774 123.378 310.709 123.66 310.709 123.96V124.443C310.709 124.855 310.78 125.204 310.922 125.491C311.066 125.775 311.266 125.991 311.522 126.141C311.778 126.287 312.075 126.361 312.413 126.361C312.634 126.361 312.832 126.33 313.01 126.268C313.19 126.205 313.345 126.11 313.475 125.984C313.605 125.857 313.706 125.698 313.777 125.509L314.587 125.736C314.501 126.01 314.358 126.252 314.157 126.46C313.956 126.666 313.707 126.827 313.411 126.943C313.115 127.057 312.783 127.114 312.413 127.114ZM321.531 121.545V122.256H318.705V121.545H321.531ZM319.529 120.239H320.367V125.438C320.367 125.674 320.401 125.852 320.47 125.97C320.541 126.086 320.631 126.164 320.739 126.205C320.851 126.242 320.968 126.261 321.091 126.261C321.183 126.261 321.259 126.257 321.318 126.247C321.378 126.235 321.425 126.226 321.46 126.219L321.631 126.972C321.574 126.993 321.495 127.014 321.393 127.036C321.291 127.059 321.162 127.071 321.006 127.071C320.769 127.071 320.537 127.02 320.31 126.918C320.085 126.817 319.898 126.661 319.749 126.453C319.602 126.245 319.529 125.982 319.529 125.665V120.239ZM325.22 127.114C324.695 127.114 324.241 126.998 323.86 126.766C323.482 126.531 323.189 126.205 322.983 125.786C322.78 125.364 322.678 124.874 322.678 124.315C322.678 123.757 322.78 123.264 322.983 122.838C323.189 122.41 323.476 122.076 323.843 121.837C324.212 121.595 324.643 121.474 325.135 121.474C325.419 121.474 325.7 121.522 325.977 121.616C326.254 121.711 326.506 121.865 326.733 122.078C326.96 122.289 327.142 122.568 327.276 122.916C327.411 123.264 327.479 123.693 327.479 124.202V124.557H323.274V123.832H326.627C326.627 123.525 326.565 123.25 326.442 123.009C326.321 122.767 326.148 122.576 325.924 122.437C325.701 122.297 325.438 122.227 325.135 122.227C324.801 122.227 324.513 122.31 324.269 122.476C324.027 122.639 323.841 122.852 323.711 123.115C323.581 123.378 323.516 123.66 323.516 123.96V124.443C323.516 124.855 323.587 125.204 323.729 125.491C323.873 125.775 324.073 125.991 324.329 126.141C324.585 126.287 324.882 126.361 325.22 126.361C325.441 126.361 325.639 126.33 325.817 126.268C325.997 126.205 326.152 126.11 326.282 125.984C326.412 125.857 326.513 125.698 326.584 125.509L327.394 125.736C327.308 126.01 327.165 126.252 326.964 126.46C326.763 126.666 326.514 126.827 326.218 126.943C325.922 127.057 325.59 127.114 325.22 127.114ZM332.817 122.767L332.065 122.98C332.017 122.855 331.947 122.733 331.855 122.614C331.765 122.494 331.642 122.394 331.486 122.316C331.329 122.238 331.129 122.199 330.886 122.199C330.552 122.199 330.274 122.276 330.051 122.43C329.831 122.581 329.721 122.774 329.721 123.009C329.721 123.217 329.797 123.381 329.948 123.502C330.1 123.623 330.336 123.723 330.658 123.804L331.468 124.003C331.956 124.121 332.319 124.302 332.558 124.546C332.797 124.788 332.917 125.099 332.917 125.48C332.917 125.793 332.827 126.072 332.647 126.318C332.469 126.564 332.221 126.759 331.901 126.901C331.582 127.043 331.21 127.114 330.786 127.114C330.23 127.114 329.769 126.993 329.405 126.751C329.04 126.51 328.809 126.157 328.712 125.693L329.508 125.494C329.583 125.788 329.727 126.008 329.937 126.155C330.15 126.302 330.429 126.375 330.772 126.375C331.163 126.375 331.473 126.292 331.702 126.126C331.934 125.958 332.05 125.757 332.05 125.523C332.05 125.333 331.984 125.175 331.851 125.047C331.719 124.917 331.515 124.82 331.241 124.756L330.332 124.543C329.832 124.424 329.465 124.241 329.231 123.992C328.999 123.741 328.883 123.428 328.883 123.051C328.883 122.743 328.969 122.471 329.142 122.234C329.317 121.998 329.555 121.812 329.856 121.677C330.159 121.542 330.502 121.474 330.886 121.474C331.425 121.474 331.849 121.593 332.157 121.83C332.467 122.066 332.687 122.379 332.817 122.767ZM336.751 121.545V122.256H333.924V121.545H336.751ZM334.748 120.239H335.586V125.438C335.586 125.674 335.62 125.852 335.689 125.97C335.76 126.086 335.85 126.164 335.959 126.205C336.07 126.242 336.187 126.261 336.31 126.261C336.403 126.261 336.478 126.257 336.537 126.247C336.597 126.235 336.644 126.226 336.68 126.219L336.85 126.972C336.793 126.993 336.714 127.014 336.612 127.036C336.51 127.059 336.381 127.071 336.225 127.071C335.988 127.071 335.756 127.02 335.529 126.918C335.304 126.817 335.117 126.661 334.968 126.453C334.821 126.245 334.748 125.982 334.748 125.665V120.239Z" fill="#F8F8F8"/>
</g>
<defs>
<clipPath id="clip0_1060_3699">
<rect width="408" height="244" fill="white"/>
</clipPath>
</defs>
</svg>
