<svg width="424" height="261" viewBox="0 0 424 261" fill="none" xmlns="http://www.w3.org/2000/svg">
<rect x="88" y="104" width="198" height="130" fill="#3653F2"/>
<path d="M67 251.5L87.5 234.5V234H285.5L306.5 252V260.5H67V251.5Z" fill="#5599FF"/>
<path d="M283.997 156.809V198.835H245.386V156.794C258.244 156.801 271.139 156.801 283.997 156.809Z" fill="#39AF4D"/>
<path d="M254.732 153.472V167.056H216.121V153.468C228.979 153.47 241.874 153.47 254.732 153.472V153.472Z" fill="#667A41"/>
<path d="M162.463 105.411V113.093C149.605 113.093 136.71 113.093 123.852 113.095V105.411H162.463Z" fill="#21AED0"/>
<path d="M128.765 104.875V129.214H90.1533V104.867C103.011 104.871 115.907 104.871 128.765 104.874V104.875Z" fill="#669297"/>
<path d="M133.822 251.194C134.466 249.913 135.114 248.634 135.771 247.357C136.183 246.555 136.601 245.755 137.026 244.957C137.098 244.821 137.171 244.687 137.243 244.552C137.381 244.296 137.532 244.002 137.682 243.781L235.7 243.935C235.793 244.146 235.888 244.357 235.986 244.566C235.99 244.573 235.993 244.582 235.997 244.59C235.995 244.586 235.993 244.583 235.992 244.58C236.002 244.6 236.011 244.622 236.021 244.643C236.024 244.648 236.025 244.652 236.027 244.658C236.027 244.659 236.028 244.66 236.029 244.662C236.029 244.662 236.029 244.662 236.029 244.663C236.035 244.679 236.042 244.695 236.051 244.709C236.067 244.743 236.082 244.778 236.099 244.812C236.092 244.797 236.085 244.782 236.078 244.767C236.123 244.865 236.168 244.964 236.213 245.061C236.207 245.046 236.199 245.031 236.192 245.016C236.236 245.11 236.279 245.204 236.323 245.298C236.316 245.283 236.309 245.269 236.302 245.253C236.348 245.353 236.394 245.453 236.44 245.552C236.433 245.537 236.426 245.522 236.419 245.507C236.446 245.564 236.468 245.628 236.501 245.685C236.508 245.7 236.515 245.714 236.522 245.729C236.525 245.734 236.527 245.739 236.529 245.745C236.529 245.746 236.53 245.748 236.531 245.749C236.531 245.747 236.53 245.746 236.529 245.745C236.529 245.745 236.529 245.744 236.529 245.743C236.532 245.748 236.533 245.753 236.535 245.758C236.535 245.756 236.535 245.756 236.534 245.754C236.539 245.764 236.543 245.775 236.549 245.785C236.546 245.78 236.543 245.775 236.542 245.769C236.542 245.77 236.543 245.772 236.544 245.774C236.544 245.774 236.544 245.774 236.544 245.775C236.546 245.78 236.549 245.784 236.551 245.789C236.554 245.795 236.556 245.802 236.56 245.808C236.56 245.808 236.56 245.807 236.559 245.806C236.77 246.271 237.002 246.729 237.221 247.191C237.321 247.4 237.431 247.608 237.536 247.816C237.651 248.045 237.765 248.275 237.882 248.504C238.085 248.901 238.298 249.295 238.504 249.691C238.583 249.842 238.667 249.99 238.748 250.141C238.854 250.336 238.957 250.535 239.069 250.728C239.187 250.935 239.304 251.141 239.422 251.348C239.424 251.352 239.427 251.356 239.429 251.36L133.821 251.193L133.822 251.194Z" fill="#21AED0"/>
<path d="M236.561 244.82C236.561 244.82 236.561 244.823 236.562 244.825C236.562 244.823 236.561 244.822 236.561 244.82Z" fill="#21AED0"/>
<path d="M236.56 244.818C236.556 244.809 236.553 244.8 236.55 244.792C236.554 244.803 236.559 244.815 236.562 244.826C236.561 244.823 236.56 244.821 236.559 244.818H236.56Z" fill="#21AED0"/>
<path d="M236.543 244.773V244.772C236.543 244.772 236.543 244.77 236.543 244.77C236.543 244.771 236.544 244.773 236.545 244.774C236.545 244.774 236.545 244.774 236.545 244.773H236.543Z" fill="#21AED0"/>
<path d="M236.028 243.327C236.028 243.327 236.028 243.33 236.03 243.33C236.03 243.33 236.029 243.328 236.028 243.327Z" fill="#21AED0"/>
<path d="M236.021 243.309C236.021 243.309 236.024 243.315 236.025 243.318C236.024 243.315 236.022 243.312 236.021 243.309Z" fill="#21AED0"/>
<path d="M236.019 243.305C236.019 243.305 236.019 243.307 236.019 243.308C236.019 243.307 236.019 243.306 236.019 243.305Z" fill="#21AED0"/>
<path d="M235.979 243.194C235.979 243.194 235.98 243.197 235.981 243.198C235.981 243.198 235.98 243.196 235.979 243.194Z" fill="#21AED0"/>
<path d="M235.978 243.19C235.978 243.19 235.978 243.19 235.978 243.189C235.978 243.189 235.978 243.19 235.978 243.191L235.978 243.19Z" fill="#21AED0"/>
<path d="M105.295 125.899V185.569H90.1221V125.881C95.1752 125.89 100.242 125.89 105.295 125.899Z" fill="#DFE56B"/>
<path d="M282.458 113.578V173.248H267.285V113.56C272.338 113.569 277.405 113.569 282.458 113.578Z" fill="#DFE56B"/>
<path d="M231.541 192.204V224.175H173.237V192.194C192.654 192.201 212.124 192.201 231.541 192.204Z" fill="#E13782"/>
<path d="M282.895 210.721V230.005H193.071V210.716C222.986 210.72 252.982 210.72 282.895 210.722V210.721Z" fill="#D91089"/>
<path d="M144.058 104.298C142.842 104.257 141.739 104.217 141.096 104.288H103.323V100.005C117.422 100.005 131.523 100.005 145.621 100.005H147.014V104.339C146.786 104.346 146.55 104.348 146.311 104.348C145.57 104.348 144.792 104.323 144.057 104.298H144.058Z" fill="#5BB8AC"/>
<path d="M285.623 233.615V234.079H241.933V233.62H279.705C280.349 233.627 281.451 233.623 282.667 233.619C283.403 233.616 284.179 233.613 284.921 233.613C285.16 233.613 285.395 233.613 285.624 233.613L285.623 233.615Z" fill="#39AF4D"/>
<path d="M277.561 229.688V231.18H233.87V229.706H271.643C272.286 229.729 273.389 229.716 274.605 229.701C275.34 229.695 276.117 229.685 276.859 229.685C277.097 229.685 277.332 229.687 277.562 229.687L277.561 229.688Z" fill="#FF001B"/>
<path d="M284.28 220.803C284.28 221.042 284.277 221.277 284.277 221.506H282.785V177.815H284.259V215.588C284.235 216.232 284.249 217.334 284.264 218.55C284.27 219.285 284.28 220.062 284.28 220.804L284.28 220.803Z" fill="#F9B637"/>
<path d="M279.957 100.031V100.867H215.581C215.59 100.59 215.599 100.31 215.608 100.031H279.957Z" fill="white"/>
<path d="M154.399 100.018V100.854H90.0225C90.0318 100.576 90.0403 100.296 90.0496 100.018H154.399Z" fill="white"/>
<path d="M219.808 96.2588V97.095H101.444C101.461 96.8171 101.478 96.5375 101.494 96.2588H219.808Z" fill="white"/>
<path d="M185.401 91.8633V92.6995H126.119C126.128 92.4216 126.136 92.142 126.144 91.8633H185.401Z" fill="white"/>
<path d="M155.625 259.495V260.331H68.7686C68.7809 260.053 68.7933 259.774 68.8049 259.495H155.625Z" fill="white"/>
<path d="M285.286 105.71C285.597 102.356 282.291 101.133 279.48 100.982C278.753 100.931 278.022 100.922 277.293 100.943V99.9222C280.509 99.8456 284.574 100.185 285.979 103.479C286.262 104.186 286.354 104.951 286.313 105.709H285.287L285.286 105.71Z" fill="#97DBF8"/>
<path d="M86.2888 106.65C86.0232 104.876 86.9516 103.19 88.1765 101.968C88.7371 101.395 89.3713 100.893 90.0318 100.437V101.827C88.8463 102.745 87.7638 103.872 87.427 105.359C87.3473 105.754 87.3496 106.16 87.4053 106.558C87.41 106.59 87.4115 106.621 87.4108 106.65H86.2896H86.2888Z" fill="#802B93"/>
<path d="M68.2775 251.703H67.0742C72.547 246.898 78.0275 242.101 83.5002 237.297C84.7461 236.204 85.9919 235.111 87.2386 234.019H93.4361C93.3664 234.09 93.2897 234.158 93.2053 234.221C86.8824 239.766 80.5594 245.313 74.2373 250.858C73.9159 251.14 73.5946 251.422 73.2733 251.704H68.2775V251.703Z" fill="#FF001B"/>
<path d="M305.185 251.768H306.388C300.916 246.964 295.435 242.166 289.962 237.362C288.717 236.27 287.471 235.177 286.225 234.084H280.027C280.097 234.155 280.174 234.223 280.258 234.287C286.581 239.832 292.904 245.379 299.225 250.923C299.547 251.205 299.868 251.487 300.189 251.769H305.185V251.768Z" fill="#FF001B"/>
<path d="M87.473 232.719V233.881H87.0068V193.545C87.0068 193.298 87.1253 193.101 87.2484 193.111C87.3785 193.12 87.473 193.334 87.473 193.58V232.72V232.719Z" fill="#F0596B"/>
<path d="M228.269 251.226V251.86H148.587C148.599 251.648 148.61 251.437 148.621 251.226H228.269H228.269Z" fill="white"/>
<path d="M152.324 251.902V256.06H87.9482C87.9575 254.676 87.9668 253.287 87.9753 251.902H152.324Z" fill="#FCB810"/>
<path d="M133.191 251.135C133.199 251.076 133.215 251.017 133.242 250.961C134.001 249.361 134.758 247.76 135.517 246.159C135.88 245.397 136.24 244.631 136.6 243.865H137.75C137.081 245.277 136.417 246.691 135.746 248.1C135.266 249.112 134.787 250.123 134.307 251.135H133.19H133.191Z" fill="#659695"/>
<path d="M235.497 244.619H236.615C237.251 246.141 237.883 247.665 238.522 249.186C238.89 250.066 239.259 250.947 239.626 251.826C239.237 251.836 238.848 251.844 238.459 251.852C237.426 249.483 236.498 246.978 235.497 244.619Z" fill="#00D1CD"/>
<path d="M248.987 100.17V104.328H184.61C184.62 102.943 184.629 101.554 184.637 100.17H248.987Z" fill="#215892"/>
<path d="M301.903 252.133V256.291H254.829C254.835 254.906 254.842 253.517 254.848 252.133H301.903Z" fill="#3B3542"/>
<path d="M254.944 255.528V256.289H201.519C201.526 256.036 201.533 255.782 201.54 255.528H254.944Z" fill="#3F90C6"/>
<path d="M122.668 255.766V256.527H69.2432C69.2501 256.274 69.2579 256.019 69.2648 255.766H122.668Z" fill="#A3DAFF"/>
<path d="M67.7611 251.651V255.886H67V251.649C67.2532 251.649 67.5079 251.649 67.7611 251.651Z" fill="#39AF4D"/>
<path d="M196.203 253.95V255.91H148.587C148.594 255.257 148.601 254.603 148.607 253.95H196.202H196.203Z" fill="#F4771D"/>
<path d="M68.5666 251.992H67.0869V251.526H118.439C118.754 251.526 119.004 251.645 118.993 251.768C118.981 251.898 118.71 251.992 118.396 251.992H68.5666Z" fill="#F0596B"/>
<path d="M160.012 234.11H87.2324V232.619H166.474C167.414 232.591 167.494 234.097 166.51 234.11H160.011H160.012Z" fill="#D21182"/>
<path d="M300.184 252.116H226.639V250.625H306.526V252.116H300.185H300.184Z" fill="#43C0B8"/>
<path d="M164.13 234.12V229.646H219.408C227.922 229.646 236.438 229.646 244.953 229.646V234.119H164.13V234.12Z" fill="#7D72B8"/>
<path d="M282.711 196.391V116.571H286.16V196.391H282.711Z" fill="#2D318D"/>
<path d="M286.163 209.651V234.112C285.952 234.101 285.741 234.089 285.529 234.078V154.431H286.163V209.651Z" fill="#FFEE0B"/>
<path d="M228.085 101.342C226.123 101.285 224.441 101.228 223.982 101.327H147.076V100.022H232.923C232.955 100.029 232.987 100.035 233.02 100.039V101.395C232.619 101.407 232.192 101.412 231.75 101.412C230.565 101.412 229.273 101.377 228.085 101.343V101.342Z" fill="white"/>
<path d="M152.844 105.472H97.1543V104.819H158.639C158.817 104.819 158.961 104.983 158.954 105.156C158.949 105.338 158.796 105.471 158.618 105.471H152.844V105.472Z" fill="#DBE068"/>
<path d="M282.154 193.5V109.053H282.9V193.5H282.154Z" fill="#EF742C"/>
<path d="M260.247 106.304H154.707V103.974H260.857V106.304H260.247Z" fill="#02AEE9"/>
<path d="M90.1514 229.465V207.032C90.1514 206.894 90.2698 206.785 90.3929 206.79C90.523 206.796 90.6175 206.914 90.6175 207.051V229.466H90.1514V229.465Z" fill="#669698"/>
<path d="M167.779 229.732H95.2441V228.521H158.099C162.008 228.521 165.918 228.521 169.828 228.521V229.732H167.779Z" fill="#842B90"/>
<path d="M89.0117 196.26H86.6338V112.771H90.5448V196.26H89.0117Z" fill="#422144"/>
<path d="M89.749 211.37V109.474H90.6813V211.37H89.749Z" fill="#151C46"/>
<path d="M90.6279 108.636C90.6457 108.635 90.6635 108.632 90.6814 108.631V108.636H90.6279Z" fill="#151C46"/>
<path d="M98.7412 241.843C99.7625 241.245 100.806 240.663 101.855 240.088C104.477 238.648 107.104 237.21 109.885 235.914C109.856 235.927 109.828 235.94 109.798 235.952C110.143 235.8 110.489 235.648 110.834 235.496L265.416 235.631C266.614 236.247 267.795 236.88 268.975 237.512C269.621 237.858 270.254 238.215 270.899 238.562C271.551 238.91 272.249 239.216 272.945 239.52C272.943 239.52 272.942 239.519 272.94 239.519C272.937 239.517 272.934 239.516 272.931 239.515C272.93 239.514 272.927 239.513 272.926 239.512C272.927 239.512 272.93 239.514 272.931 239.515C272.934 239.516 272.937 239.517 272.94 239.519C272.963 239.529 272.987 239.539 273.01 239.549C273.003 239.546 272.995 239.543 272.988 239.539C273.181 239.623 273.378 239.707 273.569 239.793C274.97 240.431 276.308 241.125 277.677 241.793C277.821 241.862 277.966 241.931 278.113 241.999L98.7412 241.842V241.843Z" fill="#59E9FF"/>
<path d="M221.5 90C222 85.499 247.166 60.3334 259.499 50.5L265.999 47.999L236.5 15L314.5 41.499L393 102.999V107.5L332 90.5C331.833 90.8333 331.6 93.1 332 99.5C332.5 107.5 318.5 142 317 145C315.5 148 300.5 147 296.5 146C292.5 145 278 146.5 271.5 146C265 145.5 266.5 144.5 256 141C245.5 137.5 238 119 233 110C228 101 220.562 98.4471 221.5 90Z" fill="#3653F2"/>
<path d="M220.207 9.08549L222.11 7.18955C222.84 7.22941 223.569 7.26829 224.298 7.3059C224.365 7.31025 224.434 7.31371 224.501 7.31708C224.658 7.4076 224.829 7.47717 225.004 7.51763C225.428 7.617 225.855 7.63811 226.288 7.667C227.361 7.7552 228.434 7.84179 229.509 7.92648C229.531 7.92811 229.553 7.9291 229.574 7.92911L306.888 85.5424L301.609 90.801L220.208 9.08486L220.207 9.08549Z" fill="#760C59"/>
<path d="M225.438 15.3537C225.065 14.9127 224.7 14.4631 224.318 14.0288C224.121 13.7863 223.923 13.5438 223.726 13.3013C223.586 13.1291 223.431 12.9677 223.284 12.8012C222.928 12.4003 222.573 12.0005 222.218 11.6003C221.829 11.163 221.446 10.726 221.039 10.3071C220.813 10.0733 220.586 9.83979 220.36 9.60665C220.202 9.43234 220.044 9.25803 219.886 9.08409C219.691 8.86714 219.482 8.66013 219.281 8.44802C218.907 8.05523 218.532 7.66235 218.158 7.26956C217.781 6.87198 217.394 6.48227 217.006 6.09447C216.983 6.06181 216.959 6.02978 216.936 5.99775C216.822 5.84042 216.71 5.68092 216.597 5.52205C216.34 5.15873 216.083 4.79604 215.826 4.43173C215.737 4.30552 215.646 4.18084 215.553 4.05706C215.532 3.97923 215.508 3.90255 215.481 3.82631C215.495 3.7747 215.508 3.72273 215.522 3.67112C215.525 3.66346 215.528 3.65617 215.531 3.64888C215.602 3.48794 215.672 3.32701 215.742 3.16608C215.828 3.00151 215.912 2.83684 215.998 2.67327L310.178 38.0632C310.435 38.2376 310.692 38.4113 310.949 38.5857C311.128 38.7492 311.308 38.9095 311.49 39.069C311.713 39.2657 311.941 39.4557 312.169 39.6469C312.81 40.1837 313.45 40.7206 314.09 41.257C314.206 41.3542 314.329 41.4453 314.448 41.5385C314.776 41.795 315.103 42.0511 315.432 42.3073C316.087 42.8186 316.742 43.3296 317.396 43.8416C317.865 44.2078 318.354 44.5483 318.833 44.9005C319.584 45.4518 320.337 46.0045 321.088 46.5558C322.215 47.3821 323.348 48.2006 324.479 49.021C324.838 49.2927 325.196 49.5656 325.555 49.8383C325.532 49.8204 325.508 49.8029 325.486 49.785C325.81 50.0318 326.133 50.2786 326.457 50.5244C326.773 50.774 327.093 51.0183 327.404 51.2751C327.525 51.3788 327.647 51.4828 327.769 51.5859C328.052 51.8264 328.474 51.8292 328.734 51.5468C328.742 51.5388 328.748 51.5307 328.756 51.5217C329.084 51.8206 329.412 52.1204 329.738 52.4208C330.389 53.0204 331.041 53.6192 331.692 54.2179C331.87 54.3811 332.045 54.5466 332.225 54.7079C332.274 54.7519 332.322 54.7958 332.371 54.8388L332.006 55.8111L225.952 15.9585C225.783 15.7552 225.612 15.553 225.44 15.3509L225.438 15.3537Z" fill="#43C0B8"/>
<path d="M298.768 83.3612L279.584 72.6309L254.74 117.047L273.924 127.778L298.768 83.3612Z" fill="#D44B8F"/>
<path d="M268.7 121.044C268.948 121.082 269.222 120.991 269.361 120.775C269.674 120.288 269.955 119.782 270.245 119.28C270.488 118.859 270.737 118.441 270.984 118.022L271.013 117.971C271.013 117.971 271.016 117.966 271.017 117.964L271.031 117.94C271.026 117.949 271.021 117.957 271.016 117.966C271.046 117.913 271.077 117.863 271.108 117.812C271.137 117.766 271.165 117.719 271.191 117.672C271.201 117.654 271.212 117.638 271.223 117.62C271.601 116.989 271.977 116.356 272.359 115.727C273.165 114.399 273.97 113.07 274.773 111.74C275.615 110.349 276.444 108.952 277.272 107.551C277.592 107.008 277.909 106.465 278.221 105.917C278.227 105.907 278.232 105.898 278.237 105.889L278.243 105.879C278.239 105.885 278.236 105.891 278.233 105.897C278.992 104.563 279.751 103.228 280.495 101.885C281.171 100.663 281.838 99.4378 282.506 98.2127C282.77 97.7624 283.132 97.2792 283.117 96.7353C283.116 96.6952 283.112 96.6559 283.106 96.6177C283.179 96.4905 283.254 96.365 283.329 96.2386C283.481 95.98 283.613 95.709 283.753 95.4431C283.818 95.3181 283.839 95.1838 283.823 95.0555C283.833 95.0378 283.844 95.019 283.854 95.0007C284.258 94.3203 284.674 93.6459 285.065 92.957C285.286 92.5689 285.508 92.1806 285.729 91.7913C285.83 91.6263 285.932 91.4617 286.034 91.2962C286.173 91.0687 286.313 90.8406 286.45 90.6107C286.576 90.3994 286.704 90.1866 286.81 89.9639C286.902 89.7701 286.971 89.5716 287.039 89.3682C287.123 89.1159 287.047 88.8334 286.855 88.6542L289.017 84.7984L297.696 89.6404L266.492 145.313C266.322 145.279 266.153 145.246 265.983 145.212C265.582 145.132 265.182 145.05 264.78 144.973C264.061 144.622 263.324 144.313 262.586 143.999C262.367 143.906 262.15 143.811 261.928 143.73C261.532 143.586 261.136 143.442 260.739 143.297C260.516 143.216 260.295 143.132 260.069 143.061C259.668 142.935 259.268 142.809 258.867 142.684C258.601 142.601 258.333 142.529 258.066 142.454C258.008 142.437 257.949 142.421 257.89 142.404C257.677 142.299 257.465 142.194 257.253 142.089C257.164 142.041 257.074 141.993 256.985 141.945L268.701 121.042L268.7 121.044Z" fill="#EC7A1E"/>
<path d="M281.796 99.0075C281.797 99.0044 281.8 99.0006 281.802 98.9978C281.795 99.0104 281.786 99.0223 281.779 99.0349C281.784 99.0254 281.79 99.0166 281.796 99.0075Z" fill="#EC7A1E"/>
<path d="M308.236 54.8806C308.167 54.825 308.098 54.77 308.029 54.714C311.263 54.2508 307.58 50.4942 306.196 49.8085C305.256 49.1927 302.309 47.9135 301.424 49.0588C301.229 48.9859 301.033 48.9138 300.839 48.8419C300.566 48.7415 300.292 48.6446 300.018 48.5525C300.459 47.6901 301.502 46.9451 303.322 47.2137C306.354 47.528 311.607 51.0518 310.601 54.5459C310.389 55.1068 309.958 55.5292 309.435 55.8063C309.421 55.8133 309.406 55.8209 309.392 55.8285C309.009 55.5094 308.624 55.1928 308.236 54.8809L308.236 54.8806Z" fill="#88C3DA"/>
<path d="M289.67 144.632C289.67 144.632 289.67 144.632 289.67 144.633C289.676 144.621 289.682 144.609 289.688 144.597C289.692 144.591 289.696 144.584 289.7 144.578C289.704 144.571 289.708 144.564 289.71 144.556C289.716 144.547 289.722 144.536 289.728 144.526C290.328 143.426 290.928 142.327 291.528 141.228C292.12 140.142 292.717 139.061 293.317 137.98C294.145 138.06 294.973 138.141 295.802 138.224C302.166 138.911 308.603 139.643 314.975 138.633C317.094 138.341 319.137 137.773 321.138 137.074C321.068 137.216 320.998 137.359 320.93 137.502C320.783 137.768 320.639 138.035 320.492 138.301C320.341 138.576 320.202 138.863 320.038 139.131C319.859 139.424 319.678 139.716 319.498 140.008C319.355 140.24 319.222 140.485 319.068 140.711C318.752 141.16 318.436 141.609 318.123 142.059C317.667 142.628 317.221 143.204 316.737 143.75C316.387 144.128 316.021 144.487 315.635 144.827C315.25 145.147 314.849 145.443 314.433 145.721C313.941 146.037 313.434 146.326 312.911 146.59C312.583 146.748 312.252 146.894 311.917 147.031C311.295 147.085 310.674 147.143 310.055 147.215C309.843 147.24 309.641 147.304 309.458 147.398C309.368 147.388 309.28 147.377 309.191 147.368C308.885 147.333 308.58 147.299 308.274 147.263C307.827 147.213 307.382 147.166 306.934 147.118C305.96 147.013 304.985 146.915 304.01 146.816C303.157 146.73 302.303 146.653 301.449 146.572C300.592 146.41 299.733 146.25 298.876 146.093C298.367 146 297.854 145.917 297.343 145.832C297.084 145.789 296.825 145.743 296.566 145.706C296.196 145.652 295.825 145.592 295.453 145.568C295.113 145.546 294.781 145.561 294.443 145.593C294.175 145.617 293.923 145.705 293.702 145.842C293.5 145.815 293.299 145.792 293.096 145.768C292.525 145.702 291.942 145.693 291.368 145.672C290.62 145.644 289.873 145.639 289.126 145.632C289.307 145.298 289.489 144.966 289.671 144.633L289.67 144.632Z" fill="#1FAEC7"/>
<path d="M295.288 145.752C295.288 145.752 295.287 145.753 295.286 145.754L295.238 145.733C295.255 145.739 295.27 145.745 295.287 145.751L295.288 145.752Z" fill="#1FAEC7"/>
<path d="M351.758 135.646L350.516 135.637L349.732 237.957L350.975 237.967L351.758 135.646Z" fill="#6CC9CE"/>
<path d="M355.316 146.091L353.939 146.08L353.156 248.401L354.532 248.412L355.316 146.091Z" fill="#97DAF7"/>
<path d="M357.112 134.096L356.193 134.089L355.41 236.409L356.329 236.416L357.112 134.096Z" fill="white"/>
<path d="M361.139 136.959L359.645 136.947L358.714 258.561L360.208 258.572L361.139 136.959Z" fill="#88C3DA"/>
<path d="M310.956 146.244C322.107 130.569 325.556 107.309 329.098 88.6189C329.103 88.3466 329.169 88.0853 329.279 87.847L329.893 87.9568C330.844 88.2299 331.794 88.5075 332.742 88.7953C332.865 88.8323 332.986 88.8695 333.108 88.9075C333.102 88.9609 333.093 89.0144 333.082 89.0685C332.548 92.5541 331.865 96.0195 331.199 99.4819C328.09 114.894 324.853 130.823 316.915 144.571C316.628 145.057 316.333 145.539 316.028 146.014C316.025 146.015 316.023 146.015 316.021 146.015C314.858 146.18 313.711 146.449 312.574 146.737C312.58 146.735 312.587 146.734 312.594 146.732L312.752 146.692C312.699 146.705 312.646 146.718 312.594 146.732L312.574 146.737C312.574 146.737 312.567 146.738 312.565 146.739C311.841 146.902 311.117 147.072 310.399 147.26C310.397 147.26 310.395 147.26 310.393 147.261L310.403 147.258C310.417 147.255 310.431 147.251 310.446 147.247C310.431 147.251 310.417 147.254 310.403 147.258C310.399 147.259 310.395 147.26 310.391 147.261C310.295 147.282 310.199 147.303 310.103 147.323C310.081 147.327 310.059 147.332 310.037 147.336C310.31 146.949 310.656 146.59 310.957 146.246L310.956 146.244Z" fill="#0085D2"/>
<path d="M288.511 86.4135C288.945 85.7587 289.388 85.1097 289.807 84.4449C290.372 83.5511 290.937 82.6563 291.5 81.7617C296.27 83.0614 301.039 84.3608 305.809 85.6614C314.844 88.1234 323.878 90.5852 332.912 93.0474C332.9 93.1209 332.888 93.1955 332.876 93.269C332.694 94.3784 332.512 95.4886 332.362 96.6028C332.104 98.5248 331.848 100.447 331.639 102.375C331.62 102.551 331.601 102.726 331.582 102.902C318.877 99.3844 306.184 95.7872 293.45 92.4482C290.92 91.7586 288.39 91.0696 285.861 90.3799C286.749 89.0615 287.634 87.7403 288.511 86.4141L288.511 86.4135Z" fill="#2C3292"/>
<path d="M316.168 144.002C317.231 143.268 317.927 142.124 318.599 141.041C321.051 136.676 322.475 131.842 323.881 127.061C324.968 123.262 326.026 119.463 327.001 115.639C327.213 115.673 327.425 115.707 327.636 115.743C328.125 115.825 328.62 115.883 329.115 115.937C327.594 121.914 325.969 127.87 324.057 133.733C322.865 137.198 321.533 140.696 319.405 143.707C318.901 144.564 316.998 146.376 315.635 146.529C315.818 145.687 315.997 144.845 316.169 144.002L316.168 144.002Z" fill="#C555A0"/>
<path d="M331.208 88.9895C331.683 89.1745 332.216 89.1227 332.647 88.8785C333.156 89.0791 333.665 89.2827 334.174 89.4855C333.47 99.1173 331.38 108.624 328.745 117.9C328.216 119.759 327.646 121.605 327.058 123.446C326.968 123.415 326.878 123.384 326.789 123.354C326.856 123.377 326.924 123.4 326.992 123.423C326.072 123.105 325.152 122.787 324.233 122.467C327.681 111.566 330.389 100.392 331.208 88.9899L331.208 88.9895Z" fill="#551D4A"/>
<path d="M243.16 130.021C239.213 124.748 236.864 118.526 233.446 112.93C229.759 106.417 223.777 101.218 221.576 93.907C221.199 92.6657 220.986 91.3858 220.879 90.0944C221.266 89.4772 221.666 88.8679 222.072 88.2626C222.097 89.5407 222.21 90.8192 222.429 92.0774C223.571 97.5578 227.234 101.944 230.525 106.296C235.455 112.576 238.369 120.061 242.514 126.82C244.491 129.981 246.987 132.781 249.772 135.254C252.376 137.525 255.042 139.721 258.094 141.316C257.906 141.703 257.719 142.092 257.533 142.481C257.166 142.299 256.811 142.087 256.454 141.888C251.413 138.727 246.776 134.765 243.161 130.021L243.16 130.021Z" fill="#01AEE9"/>
<path d="M351.945 122.901C351.932 121.762 351.935 120.578 352.407 119.519C353.282 117.512 355.786 116.441 357.573 118.003C359.236 119.382 359.544 122.178 358.861 124.204C358.362 124.159 357.864 124.115 357.364 124.072C358.053 122.456 357.909 119.949 356.394 118.939C354.888 118.031 353.477 119.883 353.438 121.293C353.356 122.343 353.382 123.401 353.495 124.447C353.474 124.447 353.454 124.446 353.433 124.446C352.958 124.433 352.484 124.426 352.01 124.421C351.961 123.892 351.994 123.31 351.946 122.901L351.945 122.901Z" fill="#345EA0"/>
<path d="M358.42 123.899L352.445 123.854L352.362 134.687L358.337 134.732L358.42 123.899Z" fill="#412241"/>
<path d="M256.962 141.131C258.914 142.041 260.953 142.78 263.005 143.483C266.539 144.657 270.211 145.418 273.938 145.551C281.864 145.761 289.804 144.543 297.708 145.672C303.122 146.346 308.753 147.326 314.069 145.574C315.268 145.133 316.432 144.593 317.551 143.976C317.23 144.629 316.902 145.281 316.561 145.924C315.39 146.478 314.174 146.933 312.911 147.227C305.479 148.976 297.986 146.397 290.501 146.459C283.947 146.297 277.383 147.373 270.842 146.592C265.828 145.948 260.934 144.389 256.357 142.233C256.558 141.865 256.759 141.498 256.961 141.131L256.962 141.131Z" fill="#48954B"/>
<path d="M294.254 79.5088C293.893 79.4617 293.531 79.4006 293.172 79.325C293.155 79.3471 293.137 79.3672 293.119 79.3876C292.592 79.9726 291.713 80.0997 291.041 79.7118C291.006 79.6914 290.971 79.6698 290.937 79.6469C290.701 79.4871 290.478 79.3106 290.265 79.1235C289.502 78.5571 288.727 78.0106 287.929 77.4936C287.718 77.3969 287.507 77.3012 287.297 77.2058C286.944 77.0465 286.592 76.8843 286.24 76.7203C285.844 76.5339 285.425 76.3651 285.048 76.1412C284.796 75.9912 284.581 75.8203 284.419 75.5705C284.222 75.2668 284.128 74.9029 284.154 74.5429C284.194 73.9973 284.495 73.5366 284.933 73.2606C284.802 73.1478 284.671 73.0344 284.543 72.9182C284.32 72.7176 284.098 72.5169 283.875 72.3162C283.747 72.3708 283.604 72.3889 283.465 72.3558C283.181 72.2905 282.981 72.0857 282.778 71.8895C282.614 71.7307 282.449 71.5716 282.284 71.4135C282.126 71.262 281.975 71.1035 281.825 70.9436C281.794 70.9134 281.763 70.8836 281.732 70.853C281.733 70.8537 281.734 70.8545 281.735 70.8548C280.945 70.0908 280.189 69.2832 279.483 68.4414C279.107 67.9934 278.735 67.5463 278.374 67.0869C278.159 66.8124 277.944 66.5395 277.735 66.2602C277.659 66.1592 277.585 66.0571 277.512 65.9537C277.208 65.6233 276.905 65.2924 276.602 64.9606C276.284 64.6111 275.971 64.2575 275.657 63.9028C275.455 63.6744 275.253 63.4463 275.056 63.2139C274.997 63.1446 274.94 63.0753 274.883 63.0042C274.853 62.9757 274.822 62.9471 274.792 62.9186L272.352 60.6369C271.751 60.0751 271.168 59.4957 270.581 58.9195C269.269 57.6348 267.983 56.3243 266.681 55.0283C265.476 53.8269 264.272 52.6256 263.061 51.4304C262.524 50.9001 261.988 50.3688 261.454 49.8338C261.099 49.4786 260.744 49.1234 260.39 48.7686C260.218 48.5964 260.051 48.418 259.888 48.2362C259.855 48.2652 259.821 48.2944 259.789 48.3234C259.933 48.6445 259.975 49.0037 259.859 49.3286C259.428 50.5321 258.288 51.1791 257.145 51.5968C256.805 51.7207 256.46 51.6824 256.154 51.5418C255.694 51.9605 255.236 52.3806 254.778 52.801C253.899 53.6668 253.02 54.5324 252.141 55.3982C251.631 55.9282 251.121 56.4576 250.611 56.9876C253.01 59.7001 255.433 62.3918 257.942 65.0047C267.194 74.6144 276.477 84.1944 285.784 93.7492C286.525 92.5995 287.232 91.4266 287.961 90.2699C288.82 88.8166 289.681 87.3653 290.524 85.9005C291.575 84.0694 292.631 82.2412 293.704 80.4214C293.885 80.1137 294.068 79.8097 294.255 79.5069L294.254 79.5088Z" fill="#181943"/>
<path d="M234.839 84.8524C234.36 83.8536 233.879 82.8544 233.399 81.8564C233.005 81.0373 232.668 80.1887 232.308 79.3543C231.815 78.2117 231.39 77.0415 230.986 75.8655C231.219 75.5912 231.453 75.3172 231.686 75.0436C232.233 74.4008 232.775 73.7512 233.334 73.1186C234.018 72.345 234.702 71.5714 235.386 70.7974C235.872 70.2477 236.358 69.6991 236.841 69.1472C237.566 68.4083 238.291 67.6681 239.015 66.9285C239.4 66.5346 239.785 66.1437 240.181 65.7603C241.716 64.2742 243.255 62.7899 244.787 61.3014C246.436 59.8261 248.082 58.3466 249.728 56.8692C250.21 56.4372 250.722 56.0359 251.221 55.6239C251.267 55.5856 251.313 55.5482 251.358 55.5106C251.789 55.1667 252.219 54.8215 252.648 54.474C253.414 53.8883 254.18 53.3004 254.946 52.7141C255.533 52.264 256.113 51.8052 256.714 51.3736C257.549 50.7735 258.375 50.1569 259.222 49.5729C259.59 49.3198 259.957 49.0665 260.325 48.8127C260.789 49.3663 261.257 49.9179 261.72 50.4737C262.193 51.0415 262.703 51.5793 263.199 52.1264C263.653 52.6269 264.107 53.1271 264.561 53.6271C264.771 53.8582 264.973 54.101 265.193 54.3237C265.883 55.0192 266.571 55.7175 267.259 56.4145C265.741 57.2831 264.26 58.2144 262.812 59.1979C255.792 64.0288 249.403 69.7166 243.396 75.7468C240.427 78.699 237.608 81.7892 234.898 84.9719C234.878 84.9319 234.858 84.892 234.838 84.852L234.839 84.8524Z" fill="#98566A"/>
<path d="M237.603 68.2689C237.603 68.2689 237.602 68.2712 237.601 68.272C237.601 68.2708 237.602 68.2697 237.603 68.2689Z" fill="#98566A"/>
<path d="M237.614 68.2594L237.622 68.2502C237.622 68.2502 237.627 68.2444 237.63 68.2415C237.625 68.2473 237.619 68.2537 237.615 68.2598L237.614 68.2594Z" fill="#98566A"/>
<path d="M237.621 68.2481C237.621 68.2481 237.616 68.2535 237.614 68.2563C237.616 68.2532 237.619 68.2508 237.621 68.2481Z" fill="#98566A"/>
<path d="M252.617 54.4988C252.617 54.4988 252.617 54.4982 252.618 54.4976C252.614 54.5006 252.611 54.5026 252.607 54.5055C252.61 54.5032 252.613 54.5008 252.616 54.4985L252.617 54.4988Z" fill="#98566A"/>
<path d="M275.171 109.419C280.835 100.064 286.268 90.5468 292.429 81.5071C293.056 80.5567 294.58 81.5349 293.917 82.5056C282.572 99.6428 272.52 117.662 261.907 135.248C260.522 137.63 259.162 140.026 257.837 142.441C257.318 142.155 256.799 141.87 256.278 141.587C262.263 130.689 268.901 120.155 275.171 109.419Z" fill="white"/>
<path d="M221.531 90.869C221.41 89.9923 221.279 89.1173 221.185 88.237C230.985 72.8263 244.269 58.3736 259.892 48.7738C260.032 49.0085 260.173 49.2427 260.312 49.4778C260.539 49.8631 260.781 50.2268 261.033 50.5961L261.079 50.6647C246.63 59.4394 234.803 72.2675 225.198 86.0605C224.256 87.4649 223.356 88.894 222.482 90.3427C222.207 90.7991 221.933 91.2569 221.66 91.7155C221.613 91.4335 221.57 91.1514 221.531 90.868L221.531 90.869Z" fill="#D21089"/>
<path d="M312.018 41.0398C311.468 40.6289 310.7 40.1056 310.316 39.5004C311.392 39.9031 312.459 40.3298 313.529 40.7484C315.216 41.4093 316.9 42.0876 318.611 42.6835C341.174 60.6188 363.732 78.5536 386.294 96.4892C389.405 98.962 392.515 101.434 395.626 103.908C395.619 103.927 395.61 103.948 395.603 103.968C395.504 104.225 395.403 104.483 395.304 104.741C395.238 104.913 395.172 105.086 395.105 105.259C395.073 105.324 395.045 105.391 395.022 105.459C394.973 105.58 394.932 105.704 394.886 105.824C394.778 106.103 394.671 106.382 394.564 106.66C367.049 84.7874 339.532 62.9135 312.018 41.0398Z" fill="#F3A73A"/>
<path d="M214.749 4.92228C214.829 4.75607 214.908 4.58949 214.986 4.42218L215.949 2.36621C238.037 25.0087 260.127 47.6504 282.216 70.293C285.099 73.2476 287.982 76.2025 290.864 79.157C290.73 79.1519 290.599 79.1877 290.479 79.2538C290.019 79.5096 289.541 79.7389 289.1 80.0278C288.882 80.172 288.666 80.3203 288.454 80.4724C263.885 55.2899 239.318 30.1057 214.749 4.92165L214.749 4.92228Z" fill="#84C1A9"/>
<path d="M292.621 80.9749C292.624 80.9721 292.626 80.9687 292.629 80.9663C292.706 81.0448 292.783 81.1227 292.859 81.2013C292.836 81.2129 292.812 81.2235 292.789 81.2345C292.748 81.1421 292.688 81.0519 292.621 80.9749Z" fill="#84C1A9"/>
<path d="M291.598 79.9767C291.594 79.9481 291.588 79.9194 291.58 79.8916C291.612 79.9241 291.643 79.9566 291.676 79.9895C291.652 80.0054 291.628 80.0209 291.604 80.0374C291.603 80.0181 291.601 79.9978 291.598 79.9774L291.598 79.9767Z" fill="#84C1A9"/>
<path d="M287.43 77.8856C287.699 77.3915 287.973 76.8998 288.247 76.4085C291.542 77.2922 294.838 78.1719 298.134 79.0547C316.363 83.9377 334.595 88.8194 352.825 93.7023C366.212 97.289 379.6 100.872 392.987 104.46C394.045 104.742 395.102 105.026 396.16 105.309C396.051 105.632 395.942 105.954 395.834 106.276C395.66 106.77 395.504 107.268 395.339 107.764C395.152 108.327 394.964 108.891 394.777 109.455C394.734 109.586 394.69 109.717 394.647 109.848C385.916 107.509 377.184 105.171 368.452 102.833C350.397 97.9956 332.341 93.1592 314.285 88.3241C305.081 85.8596 295.878 83.3931 286.674 80.9282C286.425 80.8657 286.156 80.8036 285.878 80.7377C286.389 79.7837 286.913 78.8353 287.43 77.8842L287.43 77.8856Z" fill="#8050A0"/>
<path d="M216.273 1.71512C216.291 1.68363 216.312 1.65324 216.331 1.62249C216.96 1.86283 217.588 2.10417 218.218 2.34488C233.605 8.22828 248.993 14.1133 264.38 19.9977C280.218 26.0547 296.058 32.1118 311.897 38.1686C312.235 38.4661 312.573 38.7636 312.911 39.0598C313.067 39.1958 313.232 39.3237 313.391 39.4544C313.694 39.7039 313.997 39.953 314.299 40.2021C315.064 40.8314 315.848 41.4355 316.629 42.0433C313.359 40.9704 308.437 38.6358 307.496 38.4957C290.517 32.0018 273.539 25.5095 256.56 19.0162C242.813 13.7583 229.067 8.50278 215.321 3.245C215.637 2.73461 215.953 2.22395 216.272 1.71439L216.273 1.71512Z" fill="#D35469"/>
<path d="M304.352 54.3429C304.543 54.0618 304.733 53.7814 304.924 53.5013C305.035 53.5979 305.138 53.677 305.233 53.7257C318.885 65.3684 332.847 76.6237 346.819 87.878C349.756 90.3287 352.693 92.779 355.623 95.2386C355.472 95.557 355.32 95.8743 355.17 96.1923C338.352 82.0925 321.034 68.6095 304.352 54.3429Z" fill="white"/>
<path d="M354.831 96.2945C354.836 96.1346 355.809 96.1589 355.792 96.3222C355.815 96.9314 355.275 116.099 355.27 116.278C355.071 116.297 354.651 116.383 354.452 116.401C354.479 115.238 354.779 101.957 354.831 96.2945Z" fill="white"/>
</svg>
