<svg width="388" height="208" viewBox="0 0 388 208" fill="none" xmlns="http://www.w3.org/2000/svg">
<path d="M387.573 192.399H366.943C366.707 192.399 366.517 192.187 366.517 191.924C366.517 191.661 366.707 191.449 366.943 191.449H387.573C387.81 191.449 388 191.661 388 191.924C388 192.187 387.81 192.399 387.573 192.399Z" fill="#0A0E29"/>
<path d="M372.918 192.399H276.615C276.349 192.399 276.135 192.187 276.135 191.924C276.135 191.661 276.349 191.449 276.615 191.449H372.918C373.184 191.449 373.399 191.661 373.399 191.924C373.399 192.187 373.184 192.399 372.918 192.399Z" fill="#0A0E29"/>
<path d="M302.781 26.8051L110.343 9.87921C107.044 9.58877 104.134 11.9967 103.84 15.2582L92.1958 144.676C91.8902 148.082 94.4327 151.089 97.8782 151.391L289.786 168.27C293.232 168.572 296.273 166.058 296.578 162.651L308.223 33.2339C308.517 29.9724 306.081 27.0955 302.781 26.8051ZM288.151 159.515L101.048 143.059L112.24 18.6551L299.343 35.112L288.151 159.515Z" fill="#9D9FB5"/>
<path d="M210.148 190.695L172.262 187.362C170.333 187.194 168.807 186.642 168.853 186.134L171.397 157.857L216.269 161.804L213.724 190.08C213.679 190.589 212.077 190.863 210.148 190.695Z" fill="#9D9FB5"/>
<path d="M228.126 191.847L193.506 190.723L154.015 187.249C154.521 181.625 159.544 177.466 165.235 177.969L218.748 182.677C223.778 183.12 227.65 187.051 228.126 191.847Z" fill="#9D9FB5"/>
<path d="M293.172 73.163C292.906 73.163 292.692 72.951 292.692 72.6881V24.9268C292.692 21.9223 290.217 19.4772 287.176 19.4772H241.03C240.764 19.4772 240.55 19.2652 240.55 19.0022C240.55 18.7393 240.764 18.5273 241.03 18.5273H287.176C290.749 18.5273 293.653 21.3984 293.653 24.9287V72.69C293.653 72.953 293.438 73.1649 293.172 73.1649V73.163Z" fill="#0A0E29"/>
<path d="M293.175 88.8077C292.909 88.8077 292.694 88.5958 292.694 88.3328V81.2112C292.694 80.9483 292.909 80.7363 293.175 80.7363C293.441 80.7363 293.655 80.9483 293.655 81.2112V88.3328C293.655 88.5958 293.441 88.8077 293.175 88.8077Z" fill="#0A0E29"/>
<path d="M286.91 161.52H260.057C259.792 161.52 259.577 161.308 259.577 161.045C259.577 160.782 259.792 160.57 260.057 160.57H286.91C290.097 160.57 292.691 158.005 292.691 154.854V97.5452C292.691 97.2823 292.906 97.0703 293.171 97.0703C293.437 97.0703 293.652 97.2823 293.652 97.5452V154.854C293.652 158.529 290.627 161.52 286.91 161.52Z" fill="#0A0E29"/>
<path d="M213.102 182.092C212.836 182.092 212.622 181.88 212.622 181.617V161.047C212.622 160.784 212.836 160.572 213.102 160.572H241.608C241.874 160.572 242.088 160.784 242.088 161.047C242.088 161.31 241.874 161.522 241.608 161.522H213.583V181.617C213.583 181.88 213.368 182.092 213.102 182.092Z" fill="#0A0E29"/>
<path d="M227.783 192.319H174.66C174.394 192.319 174.18 192.107 174.18 191.844C174.18 191.581 174.394 191.369 174.66 191.369H227.29C227.038 186.212 222.715 182.09 217.438 182.09H213.099C212.833 182.09 212.619 181.879 212.619 181.616C212.619 181.353 212.833 181.141 213.099 181.141H217.438C223.406 181.141 228.263 185.943 228.263 191.844C228.263 192.107 228.049 192.319 227.783 192.319Z" fill="#0A0E29"/>
<path d="M153.371 192.318C153.105 192.318 152.891 192.106 152.891 191.843C152.891 185.942 157.747 181.14 163.716 181.14H167.574V165.297C167.574 165.034 167.788 164.822 168.054 164.822C168.32 164.822 168.535 165.034 168.535 165.297V181.615C168.535 181.878 168.32 182.09 168.054 182.09H163.716C158.277 182.09 153.851 186.464 153.851 191.843C153.851 192.106 153.637 192.318 153.371 192.318Z" fill="#0A0E29"/>
<path d="M87.9813 100.878C87.7153 100.878 87.501 100.666 87.501 100.403V49.1526C87.501 48.8897 87.7153 48.6777 87.9813 48.6777C88.2473 48.6777 88.4616 48.8897 88.4616 49.1526V100.403C88.4616 100.666 88.2473 100.878 87.9813 100.878Z" fill="#0A0E29"/>
<path d="M87.9813 38.9561C87.7153 38.9561 87.501 38.7442 87.501 38.4812V24.9268C87.501 21.3984 90.4067 18.5254 93.9753 18.5254H225.461C225.727 18.5254 225.941 18.7373 225.941 19.0003C225.941 19.2633 225.727 19.4752 225.461 19.4752H93.9753C90.9346 19.4752 88.4616 21.9204 88.4616 24.9248V38.4792C88.4616 38.7422 88.2473 38.9542 87.9813 38.9542V38.9561Z" fill="#0A0E29"/>
<path d="M65.7337 192.321H0.551608C0.285648 192.321 0.0712891 192.109 0.0712891 191.846C0.0712891 191.583 0.285648 191.371 0.551608 191.371H65.7337C65.9996 191.371 66.214 191.583 66.214 191.846C66.214 192.109 65.9996 192.321 65.7337 192.321Z" fill="#0A0E29"/>
<path d="M146.694 192.321H75.1942C74.9282 192.321 74.7139 192.109 74.7139 191.846C74.7139 191.583 74.9282 191.371 75.1942 191.371H146.694C146.96 191.371 147.174 191.583 147.174 191.846C147.174 192.109 146.96 192.321 146.694 192.321Z" fill="#0A0E29"/>
<path d="M256.68 191.359C254.607 191.359 252.775 189.881 252.42 187.793C252.023 185.464 253.611 183.258 255.965 182.866L263.938 181.537C266.294 181.143 268.525 182.715 268.922 185.042C269.319 187.371 267.731 189.577 265.377 189.97L257.404 191.298C257.16 191.339 256.918 191.359 256.68 191.359Z" fill="#3653F2"/>
<path d="M251.167 192.279C249.095 192.279 247.265 190.801 246.908 188.713C246.511 186.383 248.098 184.178 250.452 183.785L255.966 182.867C258.322 182.474 260.553 184.044 260.95 186.372C261.347 188.701 259.759 190.907 257.405 191.299L251.891 192.218C251.647 192.259 251.405 192.279 251.167 192.279Z" fill="#0A0E29"/>
<path d="M157.468 207.901C155.395 207.901 153.564 206.423 153.208 204.335C152.811 202.006 154.399 199.8 156.753 199.408L250.45 183.783C252.802 183.39 255.037 184.958 255.434 187.288C255.831 189.617 254.243 191.823 251.889 192.215L158.192 207.84C157.948 207.881 157.706 207.901 157.468 207.901Z" fill="#3653F2"/>
<path d="M151.804 206.753C150.744 206.753 149.809 205.998 149.627 204.93C149.424 203.741 150.234 202.613 151.439 202.412L155.063 201.808C156.268 201.608 157.407 202.409 157.609 203.6C157.812 204.789 157.002 205.917 155.797 206.117L152.173 206.722C152.048 206.743 151.925 206.753 151.802 206.753H151.804Z" fill="#0A0E29"/>
<path d="M67.2982 86.1575C65.8454 84.046 67.5483 82.0345 69.4973 80.9925C71.6965 79.815 74.491 79.921 76.5056 81.436C78.3832 82.8469 79.2525 85.2529 78.3534 87.4547C77.4702 89.6153 75.3266 91.0184 73.5661 92.4314C70.9681 94.5155 69.1579 97.3963 71.0633 100.607C72.2165 102.55 75.279 100.789 74.1219 98.8387C73.3498 97.5396 74.1576 96.5446 75.1778 95.6458C76.2496 94.7019 77.4265 93.8816 78.4963 92.9338C80.8026 90.8909 82.5671 88.0395 82.2277 84.8682C81.8625 81.4615 79.5046 78.6513 76.3289 77.3777C73.2625 76.1492 69.6025 76.6123 66.8854 78.4649C63.7594 80.5961 61.8976 84.517 64.2417 87.9218C65.5159 89.7743 68.5863 88.0238 67.3002 86.1536L67.2982 86.1575Z" fill="#9D9FB5"/>
<path d="M72.3159 106.896C72.4508 107.247 72.6592 107.586 72.9371 107.898C73.4234 108.444 74.0823 108.897 74.8306 109.003C78.042 109.456 77.52 104.586 75.2097 103.707C74.4058 103.4 73.5405 103.616 72.957 104.154C72.1293 104.917 71.9507 105.946 72.3159 106.896Z" fill="#9D9FB5"/>
<path d="M63.0999 109.997C63.5922 108.469 63.0761 105.945 60.9941 106.188C59.0609 106.414 58.0209 109.148 58.9359 110.716C59.9402 112.437 62.5482 111.707 63.0999 109.997Z" fill="#9D9FB5"/>
<path d="M59.3978 103.872C58.5563 104.035 57.7306 103.525 57.5103 102.707L52.1772 83.0294C51.7187 81.3339 52.8084 79.6089 54.549 79.2733C56.2917 78.9378 57.9569 80.1329 58.1752 81.8735L60.7058 102.09C60.811 102.932 60.2394 103.709 59.3978 103.872Z" fill="#9D9FB5"/>
<path d="M64.4953 89.4903C63.8979 89.4903 63.2846 89.2391 62.7805 88.7466C61.5737 87.5691 60.9346 86.0757 60.9307 84.4332C60.9267 82.3609 61.9509 80.11 63.6736 78.4125C66.1546 75.9673 69.89 74.8448 73.1887 75.5493C76.799 76.3225 79.6312 78.8383 80.5839 82.1156C81.0603 83.7581 81.0087 85.489 80.4252 87.2551C80.3577 87.4631 80.1314 87.577 79.921 87.5083C79.7106 87.4396 79.5955 87.2178 79.665 87.0098C80.1969 85.3967 80.2465 83.8229 79.8158 82.3354C78.9465 79.3387 76.3425 77.0349 73.0219 76.3245C69.9832 75.6749 66.5357 76.713 64.2413 78.9737C62.6674 80.526 61.7286 82.565 61.7325 84.4312C61.7365 85.8795 62.2783 87.1433 63.3442 88.1834C63.8483 88.6759 64.6482 88.9369 65.3012 88.411C65.5889 88.1794 65.7894 87.7595 65.8093 87.3434C65.8192 87.1531 65.7934 86.794 65.5294 86.5349C65.3726 86.3819 65.3706 86.1307 65.5254 85.9756C65.6802 85.8206 65.9343 85.8186 66.0911 85.9717C66.4523 86.3249 66.6369 86.8254 66.6091 87.3807C66.5774 88.0205 66.2697 88.6504 65.8073 89.0233C65.4202 89.3353 64.9637 89.4884 64.4973 89.4884L64.4953 89.4903Z" fill="#0A0E29"/>
<path d="M73.4484 100.657C72.8927 100.657 72.323 100.441 71.8606 99.9249C70.4633 98.3667 70.0366 96.4083 70.6598 94.4105C71.1381 92.8759 72.1861 91.6671 73.1983 90.4955L73.5337 90.1089C74.933 88.4997 76.3799 86.8375 76.5625 84.7299C76.7292 82.8028 75.4014 80.8797 73.3353 80.0535C71.2235 79.2096 68.7683 79.6747 66.9264 81.2682C66.4124 81.7137 65.9817 82.2278 65.6839 82.7538C65.5768 82.9441 65.3326 83.0128 65.1401 82.9049C64.9476 82.7989 64.8781 82.5575 64.9873 82.3672C65.3287 81.7627 65.8189 81.1779 66.4005 80.6716C68.4706 78.8799 71.2413 78.3619 73.637 79.3176C76.0266 80.2733 77.5589 82.5261 77.3624 84.7947C77.1579 87.1574 75.6257 88.9177 74.1431 90.6211L73.8076 91.0057C72.847 92.1145 71.8546 93.2625 71.4259 94.6382C70.89 96.3612 71.2572 98.0508 72.462 99.3951C73.0931 100.1 73.9486 99.9249 74.4745 99.4637C74.9151 99.0771 75.2168 98.3864 74.6115 97.7093C74.2324 97.2874 73.8354 96.7733 73.9108 96.0118C73.9863 95.2386 74.4229 94.5734 74.8834 93.967C75.3458 93.3587 75.8539 92.7778 76.3462 92.2146C76.7828 91.7161 77.2334 91.2 77.6442 90.6721C77.7792 90.4994 78.0312 90.4661 78.2059 90.6015C78.3806 90.7349 78.4143 90.9841 78.2774 91.1568C77.8526 91.7004 77.3941 92.2263 76.9495 92.7326C76.4672 93.2841 75.9671 93.8551 75.5225 94.4419C75.1315 94.9561 74.7623 95.5095 74.7067 96.0884C74.671 96.4475 74.798 96.7242 75.2109 97.1854C76.1398 98.2215 75.7567 99.4009 75.0064 100.056C74.5896 100.421 74.0279 100.653 73.4524 100.653L73.4484 100.657Z" fill="#0A0E29"/>
<path d="M77.3791 107.658C76.6428 107.658 75.8648 107.369 75.1721 106.836C74.8049 106.553 74.5052 106.225 74.2789 105.86C73.6279 104.812 73.6775 103.596 74.4079 102.607C74.9974 101.81 75.964 101.421 76.9306 101.596C78.6554 101.906 79.87 103.986 79.7629 105.568C79.6795 106.814 78.836 107.593 77.5062 107.654C77.4645 107.654 77.4208 107.656 77.3791 107.656V107.658ZM76.4761 102.348C75.9223 102.348 75.3964 102.61 75.053 103.076C74.5111 103.808 74.4774 104.671 74.9597 105.446C75.1364 105.729 75.3725 105.988 75.6623 106.212C76.2439 106.659 76.8849 106.892 77.4665 106.863C78.6296 106.81 78.9213 106.1 78.961 105.515C79.0444 104.292 78.056 102.603 76.7837 102.375C76.6805 102.355 76.5753 102.348 76.4721 102.348H76.4761Z" fill="#0A0E29"/>
<path d="M63.6872 112.963C63.0005 112.963 62.3634 112.679 61.895 112.143C61.1924 111.338 60.9641 110.037 61.3115 108.83C61.6231 107.749 62.3277 106.964 63.2446 106.678C64.0306 106.432 64.761 106.562 65.3584 107.052C66.3191 107.841 66.6843 109.36 66.5513 110.455C66.4163 111.548 65.5748 112.51 64.4534 112.845C64.1953 112.922 63.9373 112.961 63.6872 112.961V112.963ZM63.9929 107.351C63.8321 107.351 63.6614 107.378 63.4848 107.433C62.8278 107.637 62.3158 108.226 62.0816 109.046C61.8096 109.99 61.9783 111.026 62.5023 111.625C63.0918 112.302 63.8321 112.206 64.2192 112.09C65.029 111.847 65.6601 111.136 65.7554 110.361C65.8626 109.49 65.551 108.242 64.8464 107.663C64.5923 107.455 64.3065 107.351 63.9929 107.351Z" fill="#0A0E29"/>
<path d="M60.7572 105.581C59.997 105.581 59.2686 105.157 58.9213 104.447C58.826 104.25 58.9094 104.013 59.1078 103.919C59.3063 103.824 59.5465 103.907 59.6417 104.103C59.9216 104.676 60.6103 104.941 61.2077 104.704C61.8051 104.466 62.1207 103.807 61.9222 103.2L55.6146 83.8059C55.3864 83.1033 54.8882 82.544 54.2134 82.2301C53.5386 81.9161 52.7843 81.8945 52.0916 82.1673C51.399 82.442 50.869 82.9719 50.5991 83.6587C50.3292 84.3475 50.3589 85.0913 50.6844 85.7565L58.0063 100.749C58.1016 100.946 58.0182 101.183 57.8197 101.277C57.6212 101.373 57.3811 101.289 57.2858 101.093L49.964 86.0999C49.5472 85.2483 49.5075 84.2533 49.8548 83.3722C50.2002 82.4911 50.9087 81.7826 51.7979 81.4314C52.6871 81.0801 53.6914 81.1095 54.5587 81.5118C55.4241 81.9141 56.089 82.6618 56.3827 83.5625L62.6904 102.957C63.0159 103.958 62.4978 105.047 61.5114 105.438C61.2673 105.534 61.0132 105.581 60.7631 105.581H60.7572Z" fill="#0A0E29"/>
<path d="M161.561 161.522H148.064C147.798 161.522 147.584 161.31 147.584 161.047C147.584 160.784 147.798 160.572 148.064 160.572H161.561C161.827 160.572 162.041 160.784 162.041 161.047C162.041 161.31 161.827 161.522 161.561 161.522Z" fill="#0A0E29"/>
</svg>
