<svg width="40" height="40" viewBox="0 0 40 40" fill="none" xmlns="http://www.w3.org/2000/svg">
<g clip-path="url(#clip0_1474_9089)">
<path d="M0 0H40V40H0V0Z" fill="#464962"/>
<path d="M9.77273 4.72727H11.7472V9.38636C11.7472 9.94034 11.6146 10.4197 11.3494 10.8246C11.0866 11.227 10.7197 11.5384 10.2486 11.7585C9.77746 11.9763 9.23059 12.0852 8.60795 12.0852C7.98059 12.0852 7.43134 11.9763 6.96023 11.7585C6.48911 11.5384 6.12216 11.227 5.85938 10.8246C5.59896 10.4197 5.46875 9.94034 5.46875 9.38636V4.72727H7.44318V9.21591C7.44318 9.44081 7.4929 9.64205 7.59233 9.8196C7.69176 9.99479 7.82907 10.1321 8.00426 10.2315C8.18182 10.331 8.38305 10.3807 8.60795 10.3807C8.83523 10.3807 9.03646 10.331 9.21165 10.2315C9.38684 10.1321 9.52415 9.99479 9.62358 9.8196C9.72301 9.64205 9.77273 9.44081 9.77273 9.21591V4.72727ZM14.802 4.72727L15.9952 6.84375H16.052L17.2594 4.72727H19.4611L17.2878 8.36364L19.5463 12H17.2878L16.052 9.84091H15.9952L14.7594 12H12.5151L14.7452 8.36364L12.5861 4.72727H14.802ZM23.9062 4.38636L21.5625 13.0938H19.9006L22.2443 4.38636H23.9062ZM28.7376 4.72727H30.712V9.38636C30.712 9.94034 30.5794 10.4197 30.3143 10.8246C30.0515 11.227 29.6845 11.5384 29.2134 11.7585C28.7423 11.9763 28.1954 12.0852 27.5728 12.0852C26.9454 12.0852 26.3962 11.9763 25.9251 11.7585C25.454 11.5384 25.087 11.227 24.8242 10.8246C24.5638 10.4197 24.4336 9.94034 24.4336 9.38636V4.72727H26.408V9.21591C26.408 9.44081 26.4577 9.64205 26.5572 9.8196C26.6566 9.99479 26.7939 10.1321 26.9691 10.2315C27.1467 10.331 27.3479 10.3807 27.5728 10.3807C27.8001 10.3807 28.0013 10.331 28.1765 10.2315C28.3517 10.1321 28.489 9.99479 28.5884 9.8196C28.6879 9.64205 28.7376 9.44081 28.7376 9.21591V4.72727ZM33.6248 4.72727V12H31.6504V4.72727H33.6248Z" fill="#F8F8F8"/>
<path fill-rule="evenodd" clip-rule="evenodd" d="M9.37804 30.8307L10.3737 30.8307L12.1397 30.8307C12.7087 30.8307 13.165 30.4027 13.165 29.8813L13.165 29.1679C13.6036 29.135 14.0303 29.2228 14.4095 29.3984C14.7144 29.593 15.3392 30.0444 15.3993 30.2929C15.4882 30.4411 15.5652 30.6002 15.6126 30.7758C15.6956 31.0667 15.9149 31.3027 16.2112 31.4234C16.5016 31.5386 16.8275 31.5222 17.1061 31.3795L26.286 26.6601C26.529 26.5393 26.6831 26.3034 26.6831 26.0454C26.6772 25.782 26.5349 25.5461 26.292 25.4198L17.1061 20.6949C16.8275 20.5523 16.4956 20.5413 16.2052 20.6565C15.9089 20.7718 15.6956 21.0077 15.6126 21.2986C15.5652 21.4742 15.4882 21.6278 15.3993 21.7815C15.3697 22.0242 14.7232 22.4826 14.4036 22.6815C14.0243 22.8626 13.5976 22.9449 13.1591 22.912L13.1591 22.1986C13.1591 21.6717 12.6968 21.2492 12.1338 21.2492L10.3678 21.2492L9.37804 21.2492L6.49782 21.2492C6.2252 21.2492 6 21.4577 6 21.7102L6 30.3697C6 30.6222 6.2252 30.8307 6.49782 30.8307L9.37804 30.8307ZM21.0827 26.04C21.0827 25.8479 20.9701 25.6778 20.7923 25.5845C20.6797 25.5296 20.4426 25.4583 20.1404 25.6339C20.1107 25.6448 20.087 25.6723 20.0693 25.6997C19.9389 25.9137 19.927 26.1223 20.0396 26.2979C20.1404 26.457 20.3241 26.5558 20.5256 26.5558C20.8338 26.5558 21.0827 26.3253 21.0827 26.04ZM21.2723 24.7833C21.616 24.9589 21.859 25.2442 21.9835 25.579L24.5437 25.579L16.6201 21.5071C16.1756 22.9778 14.7177 23.9272 13.1591 23.8449L13.1591 28.2405C14.7118 28.1637 16.1697 29.1076 16.5727 30.5508C16.5773 30.5636 16.5854 30.5698 16.5916 30.5745C16.5934 30.5758 16.5951 30.577 16.5964 30.5783L20.57 28.5396L24.5437 26.5009L21.9835 26.5009C21.7761 27.0661 21.2012 27.4777 20.5197 27.4777C19.9685 27.4777 19.4529 27.2033 19.1744 26.7643C19.0381 26.5448 18.9669 26.2979 18.9669 26.0454C18.9669 25.7765 19.0499 25.5022 19.204 25.2497C19.3047 25.0906 19.4411 24.9589 19.607 24.8601C20.1404 24.5528 20.7626 24.5199 21.2723 24.7833ZM6.99563 22.1711L6.99563 29.9088L12.1397 29.9088C12.1575 29.9088 12.1694 29.8978 12.1694 29.8813L12.1694 22.1986L6.99563 22.1711Z" fill="#3653F2"/>
<path d="M33.3007 34.8697C33.0103 34.6008 32.6429 34.4307 32.2517 34.3648L32.2517 27.9168L33.034 27.9168C33.5674 27.9168 34 27.5162 34 27.0223L34 24.9425C34 24.4486 33.5674 24.048 33.034 24.048L32.2517 24.048L32.2517 17.6054C32.6369 17.545 33.0044 17.3749 33.3066 17.1005C34.0474 16.4036 34.0356 15.2128 33.3007 14.5323C32.9273 14.1866 32.4354 14 31.9139 14C31.3865 14 30.8886 14.1921 30.5271 14.5323C30.1419 14.878 29.9463 15.339 29.9463 15.8164C29.9463 16.1182 30.0234 16.4256 30.1834 16.7164C30.3553 17.0292 30.6397 17.2871 30.9894 17.4408C31.0783 17.4792 31.1672 17.5121 31.2561 17.5396L31.2561 22.012C29.976 19.581 27.5699 17.7481 24.6659 17.1115L24.6659 16.3981C24.6659 15.9042 24.2333 15.5036 23.6999 15.5036L21.4538 15.5036C20.9205 15.5036 20.4878 15.9042 20.4878 16.3981L20.4878 18.478C20.4878 18.9718 20.9205 19.3725 21.4538 19.3725L23.6999 19.3725C24.2333 19.3725 24.6659 18.9718 24.6659 18.478L24.6659 18.0609C27.7951 18.8292 30.2486 21.1505 31.0072 24.0644L30.7938 24.0644C30.2604 24.0644 29.8278 24.465 29.8278 24.9589L29.8278 27.0388C29.8278 27.5327 30.2604 27.9333 30.7938 27.9333L31.0072 27.9333C30.2486 30.8417 27.7951 33.163 24.6659 33.9368L24.6659 33.5581C24.6659 33.0642 24.2333 32.6636 23.6999 32.6636L21.4538 32.6636C20.9205 32.6636 20.4878 33.0642 20.4878 33.5581L20.4878 35.638C20.4878 36.1319 20.9205 36.5325 21.4538 36.5325L23.6999 36.5325C24.2333 36.5325 24.6659 36.1319 24.6659 35.638L24.6659 34.8862C27.5699 34.2441 29.9819 32.4112 31.2561 29.9857L31.2561 34.4691C30.9835 34.5569 30.7346 34.6996 30.5271 34.8916C30.1419 35.2374 29.9463 35.6983 29.9463 36.1758C29.9463 36.4776 30.0234 36.7849 30.1834 37.0758C30.3553 37.3886 30.6397 37.6465 30.9894 37.8001C31.8013 38.1568 32.6843 38.0306 33.3066 37.4654C34.0415 36.7465 34.0356 35.5557 33.3007 34.8697ZM31.4102 16.6012C31.2679 16.5353 31.1435 16.4256 31.0724 16.2939C30.8116 15.8164 30.9775 15.4048 31.2324 15.1799C31.4102 15.0097 31.6532 14.9164 31.9139 14.9164C32.1687 14.9164 32.4117 15.0097 32.6014 15.1799C32.7851 15.35 32.8858 15.575 32.8858 15.8164C32.8858 16.0524 32.7851 16.2829 32.6073 16.4475C32.2873 16.7329 31.8428 16.7877 31.4102 16.6012ZM21.4835 18.467L21.4538 16.4146L23.6703 16.3871L23.6703 18.4395L21.4835 18.467ZM21.4835 35.6215L21.4538 33.5691L23.6703 33.5417L23.6703 35.5941L21.4835 35.6215ZM30.7879 24.9754L31.5346 24.9644C31.588 24.9754 31.6413 24.9754 31.7006 24.9699L31.7065 24.9699C31.7243 24.9699 31.7361 24.9809 31.7539 24.9809C31.7835 24.9809 31.8072 24.9699 31.8309 24.9644L32.9984 24.9479L32.9984 27.0003L31.8309 27.0168C31.8013 27.0113 31.7776 27.0003 31.748 27.0003C31.7302 27.0003 31.7183 27.0058 31.7006 27.0113L31.6946 27.0113C31.6176 27.0003 31.5465 27.0058 31.4813 27.0223L30.8116 27.0333L30.7879 24.9754ZM31.4102 36.944C31.2679 36.8782 31.1435 36.7684 31.0724 36.6367C30.8116 36.1593 30.9775 35.7477 31.2324 35.5227C31.4102 35.3526 31.6531 35.2593 31.9139 35.2593C32.1687 35.2593 32.4117 35.3526 32.6014 35.5227C32.7851 35.6929 32.8858 35.9178 32.8858 36.1593C32.8858 36.3953 32.7851 36.6258 32.6073 36.7904C32.2873 37.0758 31.8428 37.1306 31.4102 36.944Z" fill="#3653F2"/>
</g>
<defs>
<clipPath id="clip0_1474_9089">
<rect width="40" height="40" rx="8" fill="white"/>
</clipPath>
</defs>
</svg>
