<svg width="48" height="48" viewBox="0 0 48 48" fill="none" xmlns="http://www.w3.org/2000/svg">
<path fill-rule="evenodd" clip-rule="evenodd" d="M16.2311 20.9814H19.2002V30.0073H16.2311C15.6927 30.0073 15.1939 29.9282 14.7347 29.7698C14.2913 29.5956 13.9034 29.3264 13.5708 28.9622C13.2541 28.598 13.0008 28.1309 12.8107 27.5608C12.6366 26.9908 12.5495 26.3019 12.5495 25.4943C12.5495 24.6868 12.6366 23.9979 12.8107 23.4279C13.0008 22.8578 13.2541 22.3907 13.5708 22.0265C13.9034 21.6623 14.2913 21.401 14.7347 21.2426C15.1939 21.0685 15.6927 20.9814 16.2311 20.9814ZM13.2383 31.2425C14.1409 31.5275 15.1385 31.67 16.2311 31.67H22.5255V28.8029C21.2016 28.1625 20.2885 26.8064 20.2885 25.2371C20.2885 23.6678 21.2016 22.3118 22.5255 21.6714V15.0432H19.2002V19.3187H16.2311C15.1385 19.3187 14.1409 19.4612 13.2383 19.7462C12.3515 20.0313 11.5914 20.443 10.958 20.9814C10.3246 21.5198 9.83375 22.169 9.48538 22.9291C9.15284 23.6892 8.98657 24.5442 8.98657 25.4943C8.98657 26.4445 9.15284 27.2995 9.48538 28.0596C9.83375 28.8197 10.3246 29.4689 10.958 30.0073C11.5914 30.5457 12.3515 30.9574 13.2383 31.2425ZM25.8407 28.8621C27.2336 28.249 28.206 26.8566 28.206 25.2371C28.206 23.6176 27.2336 22.2253 25.8407 21.6121V15.0432H29.1661V19.3187H32.1351C33.2277 19.3187 34.2174 19.4612 35.1042 19.7462C36.0068 20.0313 36.7748 20.443 37.4082 20.9814C38.0416 21.5198 38.5246 22.169 38.8571 22.9291C39.2055 23.6892 39.3797 24.5442 39.3797 25.4943C39.3797 26.4445 39.2055 27.2995 38.8571 28.0596C38.5246 28.8197 38.0416 29.4689 37.4082 30.0073C36.7748 30.5457 36.0068 30.9574 35.1042 31.2425C34.2174 31.5275 33.2277 31.67 32.1351 31.67H25.8407V28.8621ZM33.6078 29.7698C33.1644 29.9282 32.6735 30.0073 32.1351 30.0073H29.1661V20.9814H32.1351C32.6735 20.9814 33.1644 21.0685 33.6078 21.2426C34.067 21.401 34.455 21.6623 34.7717 22.0265C35.1042 22.3907 35.3576 22.8578 35.5317 23.4279C35.7218 23.9979 35.8168 24.6868 35.8168 25.4943C35.8168 26.3019 35.7218 26.9908 35.5317 27.5608C35.3576 28.1309 35.1042 28.598 34.7717 28.9622C34.455 29.3264 34.067 29.5956 33.6078 29.7698Z" fill="#F5F5F5"/>
<circle cx="24.2474" cy="25.2369" r="1.97938" fill="#F5F5F5"/>
<circle cx="24" cy="24" r="23.7526" stroke="#F5F5F5" stroke-width="0.494845"/>
</svg>
